<?xml version="1.0" encoding="UTF-8" standalone="no"?>
<!DOCTYPE svg PUBLIC "-//W3C//DTD SVG 1.1//EN"
 "http://www.w3.org/Graphics/SVG/1.1/DTD/svg11.dtd">
<!-- Generated by graphviz version 2.40.1 (20161225.0304)
 -->
<!-- Title: account_category Pages: 1 -->
<svg width="806pt" height="839pt"
 viewBox="0.00 0.00 806.00 839.00" xmlns="http://www.w3.org/2000/svg" xmlns:xlink="http://www.w3.org/1999/xlink">
<g id="graph0" class="graph" transform="scale(1 1) rotate(0) translate(4 835)">
<title>account_category</title>
<polygon fill="#ffffff" stroke="transparent" points="-4,4 -4,-835 802,-835 802,4 -4,4"/>
<!-- account_category -->
<g id="node1" class="node">
<title>account_category</title>
<polygon fill="#efefef" stroke="transparent" points="261,-352.5 261,-387.5 544,-387.5 544,-352.5 261,-352.5"/>
<polygon fill="none" stroke="#000000" points="261,-352.5 261,-387.5 544,-387.5 544,-352.5 261,-352.5"/>
<text text-anchor="start" x="267.6898" y="-365.3" font-family="Arial Bold" font-size="18.00" fill="#000000">account_category</text>
<text text-anchor="start" x="409.7422" y="-365.3" font-family="Arial" font-size="14.00" fill="#000000">    </text>
<text text-anchor="start" x="443.947" y="-365.3" font-family="Arial" font-size="14.00" fill="#666666">[BASE TABLE]</text>
<polygon fill="none" stroke="#000000" points="261,-322.5 261,-352.5 544,-352.5 544,-322.5 261,-322.5"/>
<text text-anchor="start" x="268" y="-333.9" font-family="Arial" font-size="14.00" fill="#000000">id </text>
<text text-anchor="start" x="282.7798" y="-333.9" font-family="Arial" font-size="14.00" fill="#666666">[int(11) unsigned]</text>
<polygon fill="none" stroke="#000000" points="261,-292.5 261,-322.5 544,-322.5 544,-292.5 261,-292.5"/>
<text text-anchor="start" x="268" y="-303.9" font-family="Arial" font-size="14.00" fill="#000000">tenant </text>
<text text-anchor="start" x="310.8022" y="-303.9" font-family="Arial" font-size="14.00" fill="#666666">[int(11) unsigned]</text>
<polygon fill="none" stroke="#000000" points="261,-262.5 261,-292.5 544,-292.5 544,-262.5 261,-262.5"/>
<text text-anchor="start" x="268" y="-273.9" font-family="Arial" font-size="14.00" fill="#000000">name </text>
<text text-anchor="start" x="306.899" y="-273.9" font-family="Arial" font-size="14.00" fill="#666666">[varchar(255)]</text>
<polygon fill="none" stroke="#000000" points="261,-232.5 261,-262.5 544,-262.5 544,-232.5 261,-232.5"/>
<text text-anchor="start" x="268" y="-243.9" font-family="Arial" font-size="14.00" fill="#000000">dr_or_cr </text>
<text text-anchor="start" x="324.0028" y="-243.9" font-family="Arial" font-size="14.00" fill="#666666">[enum(&#39;debit&#39;,&#39;credit&#39;)]</text>
<polygon fill="none" stroke="#000000" stroke-width="3" points="259,-231.5 259,-389.5 545,-389.5 545,-231.5 259,-231.5"/>
</g>
<!-- tenant -->
<g id="node4" class="node">
<title>tenant</title>
<polygon fill="#efefef" stroke="transparent" points="307,-72.5 307,-107.5 498,-107.5 498,-72.5 307,-72.5"/>
<polygon fill="none" stroke="#000000" points="307,-72.5 307,-107.5 498,-107.5 498,-72.5 307,-72.5"/>
<text text-anchor="start" x="313.7014" y="-85.3" font-family="Arial Bold" font-size="18.00" fill="#000000">tenant</text>
<text text-anchor="start" x="363.7306" y="-85.3" font-family="Arial" font-size="14.00" fill="#000000">    </text>
<text text-anchor="start" x="397.9354" y="-85.3" font-family="Arial" font-size="14.00" fill="#666666">[BASE TABLE]</text>
<polygon fill="none" stroke="#000000" points="307,-42.5 307,-72.5 498,-72.5 498,-42.5 307,-42.5"/>
<text text-anchor="start" x="314" y="-53.9" font-family="Arial" font-size="14.00" fill="#000000">id    </text>
<text text-anchor="start" x="359.094" y="-53.9" font-family="Arial" font-size="14.00" fill="#666666">[int(11) unsigned]</text>
</g>
<!-- account_category&#45;&gt;tenant -->
<g id="edge3" class="edge">
<title>account_category:tenant&#45;&gt;tenant:id</title>
<path fill="none" stroke="#000000" d="M251.0053,-306.4129C210.0113,-296.7109 228.0497,-224.4665 261,-187 343.7139,-92.9491 457.7861,-245.0509 540.5,-151 723.2184,56.7622 403,-39.9852 403,-42.5"/>
<polygon fill="#000000" stroke="#000000" points="251.0586,-306.4187 260.5134,-311.9736 256.0293,-306.9593 261,-307.5 261,-307.5 261,-307.5 256.0293,-306.9593 261.4866,-303.0264 251.0586,-306.4187 251.0586,-306.4187"/>
<text text-anchor="start" x="29.7665" y="-317.5" font-family="Arial" font-size="10.00" fill="#000000">FOREIGN KEY (tenant) REFERENCES tenant (id)</text>
</g>
<!-- account_subcategory -->
<g id="node2" class="node">
<title>account_subcategory</title>
<polygon fill="#efefef" stroke="transparent" points="43,-677.5 43,-712.5 355,-712.5 355,-677.5 43,-677.5"/>
<polygon fill="none" stroke="#000000" points="43,-677.5 43,-712.5 355,-712.5 355,-677.5 43,-677.5"/>
<text text-anchor="start" x="49.6836" y="-690.3" font-family="Arial Bold" font-size="18.00" fill="#000000">account_subcategory</text>
<text text-anchor="start" x="220.7484" y="-690.3" font-family="Arial" font-size="14.00" fill="#000000">    </text>
<text text-anchor="start" x="254.9532" y="-690.3" font-family="Arial" font-size="14.00" fill="#666666">[BASE TABLE]</text>
<polygon fill="none" stroke="#000000" points="43,-647.5 43,-677.5 355,-677.5 355,-647.5 43,-647.5"/>
<text text-anchor="start" x="50" y="-658.9" font-family="Arial" font-size="14.00" fill="#000000">id    </text>
<text text-anchor="start" x="95.094" y="-658.9" font-family="Arial" font-size="14.00" fill="#666666">[int(11) unsigned]</text>
<polygon fill="none" stroke="#000000" points="43,-617.5 43,-647.5 355,-647.5 355,-617.5 43,-617.5"/>
<text text-anchor="start" x="50" y="-628.9" font-family="Arial" font-size="14.00" fill="#000000">name    </text>
<text text-anchor="start" x="119.2132" y="-628.9" font-family="Arial" font-size="14.00" fill="#666666">[varchar(255)]</text>
<polygon fill="none" stroke="#000000" points="43,-587.5 43,-617.5 355,-617.5 355,-587.5 43,-587.5"/>
<text text-anchor="start" x="50" y="-598.9" font-family="Arial" font-size="14.00" fill="#000000">category    </text>
<text text-anchor="start" x="137.8864" y="-598.9" font-family="Arial" font-size="14.00" fill="#666666">[int(11) unsigned]</text>
</g>
<!-- account_subcategory&#45;&gt;account_category -->
<g id="edge1" class="edge">
<title>account_subcategory:category&#45;&gt;account_category:id</title>
<path fill="none" stroke="#000000" d="M364.6822,-599.7491C375.0294,-591.2635 362.2833,-564.8705 355,-545 332.7521,-484.3025 283.2479,-494.6975 261,-434 246.2399,-393.7309 218.1111,-337.5 261,-337.5"/>
<polygon fill="#000000" stroke="#000000" points="364.6193,-599.7669 353.7701,-598.1713 359.8096,-601.1334 355,-602.5 355,-602.5 355,-602.5 359.8096,-601.1334 356.2299,-606.8287 364.6193,-599.7669 364.6193,-599.7669"/>
<text text-anchor="start" x="361.9295" y="-612.5" font-family="Arial" font-size="10.00" fill="#000000">FOREIGN KEY (category) REFERENCES account_category (id)</text>
</g>
<!-- classification_detail -->
<g id="node3" class="node">
<title>classification_detail</title>
<polygon fill="#efefef" stroke="transparent" points="459,-752.5 459,-787.5 755,-787.5 755,-752.5 459,-752.5"/>
<polygon fill="none" stroke="#000000" points="459,-752.5 459,-787.5 755,-787.5 755,-752.5 459,-752.5"/>
<text text-anchor="start" x="465.7053" y="-765.3" font-family="Arial Bold" font-size="18.00" fill="#000000">classification_detail</text>
<text text-anchor="start" x="620.7267" y="-765.3" font-family="Arial" font-size="14.00" fill="#000000">    </text>
<text text-anchor="start" x="654.9315" y="-765.3" font-family="Arial" font-size="14.00" fill="#666666">[BASE TABLE]</text>
<polygon fill="none" stroke="#000000" points="459,-722.5 459,-752.5 755,-752.5 755,-722.5 459,-722.5"/>
<text text-anchor="start" x="466" y="-733.9" font-family="Arial" font-size="14.00" fill="#000000">id    </text>
<text text-anchor="start" x="511.094" y="-733.9" font-family="Arial" font-size="14.00" fill="#666666">[int(11) unsigned]</text>
<polygon fill="none" stroke="#000000" points="459,-692.5 459,-722.5 755,-722.5 755,-692.5 459,-692.5"/>
<text text-anchor="start" x="466" y="-703.9" font-family="Arial" font-size="14.00" fill="#000000">parent    </text>
<text text-anchor="start" x="539.8864" y="-703.9" font-family="Arial" font-size="14.00" fill="#666666">[int(11) unsigned]</text>
<polygon fill="none" stroke="#000000" points="459,-662.5 459,-692.5 755,-692.5 755,-662.5 459,-662.5"/>
<text text-anchor="start" x="466" y="-673.9" font-family="Arial" font-size="14.00" fill="#000000">date    </text>
<text text-anchor="start" x="527.4432" y="-673.9" font-family="Arial" font-size="14.00" fill="#666666">[date]</text>
<polygon fill="none" stroke="#000000" points="459,-632.5 459,-662.5 755,-662.5 755,-632.5 459,-632.5"/>
<text text-anchor="start" x="466" y="-643.9" font-family="Arial" font-size="14.00" fill="#000000">amount    </text>
<text text-anchor="start" x="546.8864" y="-643.9" font-family="Arial" font-size="14.00" fill="#666666">[int(11)]</text>
<polygon fill="none" stroke="#000000" points="459,-602.5 459,-632.5 755,-632.5 755,-602.5 459,-602.5"/>
<text text-anchor="start" x="466" y="-613.9" font-family="Arial" font-size="14.00" fill="#000000">category    </text>
<text text-anchor="start" x="553.8864" y="-613.9" font-family="Arial" font-size="14.00" fill="#666666">[int(11) unsigned]</text>
<polygon fill="none" stroke="#000000" points="459,-572.5 459,-602.5 755,-602.5 755,-572.5 459,-572.5"/>
<text text-anchor="start" x="466" y="-583.9" font-family="Arial" font-size="14.00" fill="#000000">subcategory    </text>
<text text-anchor="start" x="576.4516" y="-583.9" font-family="Arial" font-size="14.00" fill="#666666">[int(11) unsigned]</text>
<polygon fill="none" stroke="#000000" points="459,-542.5 459,-572.5 755,-572.5 755,-542.5 459,-542.5"/>
<text text-anchor="start" x="466" y="-553.9" font-family="Arial" font-size="14.00" fill="#000000">cost_center    </text>
<text text-anchor="start" x="572.5596" y="-553.9" font-family="Arial" font-size="14.00" fill="#666666">[int(11) unsigned]</text>
<polygon fill="none" stroke="#000000" points="459,-512.5 459,-542.5 755,-542.5 755,-512.5 459,-512.5"/>
<text text-anchor="start" x="466" y="-523.9" font-family="Arial" font-size="14.00" fill="#000000">tax_class    </text>
<text text-anchor="start" x="558.5498" y="-523.9" font-family="Arial" font-size="14.00" fill="#666666">[int(11) unsigned]</text>
</g>
<!-- classification_detail&#45;&gt;account_category -->
<g id="edge2" class="edge">
<title>classification_detail:category&#45;&gt;account_category:id</title>
<path fill="none" stroke="#000000" d="M448.7581,-616.6302C396.7914,-607.1045 424.8462,-521.5559 459,-470 481.6577,-435.7978 521.3423,-468.2022 544,-434 567.6863,-398.2451 586.8889,-337.5 544,-337.5"/>
<polygon fill="#000000" stroke="#000000" points="449.0359,-616.6537 458.6192,-621.9839 454.0179,-617.0768 459,-617.5 459,-617.5 459,-617.5 454.0179,-617.0768 459.3808,-613.0161 449.0359,-616.6537 449.0359,-616.6537"/>
<text text-anchor="start" x="465.9295" y="-627.5" font-family="Arial" font-size="10.00" fill="#000000">FOREIGN KEY (category) REFERENCES account_category (id)</text>
</g>
</g>
</svg>
