<?xml version="1.0" encoding="UTF-8" standalone="no"?>
<!DOCTYPE svg PUBLIC "-//W3C//DTD SVG 1.1//EN"
 "http://www.w3.org/Graphics/SVG/1.1/DTD/svg11.dtd">
<!-- Generated by graphviz version 2.40.1 (20161225.0304)
 -->
<!-- Title: account_subcategory Pages: 1 -->
<svg width="788pt" height="899pt"
 viewBox="0.00 0.00 788.00 899.00" xmlns="http://www.w3.org/2000/svg" xmlns:xlink="http://www.w3.org/1999/xlink">
<g id="graph0" class="graph" transform="scale(1 1) rotate(0) translate(4 895)">
<title>account_subcategory</title>
<polygon fill="#ffffff" stroke="transparent" points="-4,4 -4,-895 784,-895 784,4 -4,4"/>
<!-- account_subcategory -->
<g id="node1" class="node">
<title>account_subcategory</title>
<polygon fill="#efefef" stroke="transparent" points="144,-412.5 144,-447.5 456,-447.5 456,-412.5 144,-412.5"/>
<polygon fill="none" stroke="#000000" points="144,-412.5 144,-447.5 456,-447.5 456,-412.5 144,-412.5"/>
<text text-anchor="start" x="150.6836" y="-425.3" font-family="Arial Bold" font-size="18.00" fill="#000000">account_subcategory</text>
<text text-anchor="start" x="321.7484" y="-425.3" font-family="Arial" font-size="14.00" fill="#000000">    </text>
<text text-anchor="start" x="355.9532" y="-425.3" font-family="Arial" font-size="14.00" fill="#666666">[BASE TABLE]</text>
<polygon fill="none" stroke="#000000" points="144,-382.5 144,-412.5 456,-412.5 456,-382.5 144,-382.5"/>
<text text-anchor="start" x="151" y="-393.9" font-family="Arial" font-size="14.00" fill="#000000">id </text>
<text text-anchor="start" x="165.7798" y="-393.9" font-family="Arial" font-size="14.00" fill="#666666">[int(11) unsigned]</text>
<polygon fill="none" stroke="#000000" points="144,-352.5 144,-382.5 456,-382.5 456,-352.5 144,-352.5"/>
<text text-anchor="start" x="151" y="-363.9" font-family="Arial" font-size="14.00" fill="#000000">name </text>
<text text-anchor="start" x="189.899" y="-363.9" font-family="Arial" font-size="14.00" fill="#666666">[varchar(255)]</text>
<polygon fill="none" stroke="#000000" points="144,-322.5 144,-352.5 456,-352.5 456,-322.5 144,-322.5"/>
<text text-anchor="start" x="151" y="-333.9" font-family="Arial" font-size="14.00" fill="#000000">category </text>
<text text-anchor="start" x="208.5722" y="-333.9" font-family="Arial" font-size="14.00" fill="#666666">[int(11) unsigned]</text>
<polygon fill="none" stroke="#000000" stroke-width="3" points="142.5,-321.5 142.5,-449.5 457.5,-449.5 457.5,-321.5 142.5,-321.5"/>
</g>
<!-- account_category -->
<g id="node3" class="node">
<title>account_category</title>
<polygon fill="#efefef" stroke="transparent" points="158,-162.5 158,-197.5 441,-197.5 441,-162.5 158,-162.5"/>
<polygon fill="none" stroke="#000000" points="158,-162.5 158,-197.5 441,-197.5 441,-162.5 158,-162.5"/>
<text text-anchor="start" x="164.6898" y="-175.3" font-family="Arial Bold" font-size="18.00" fill="#000000">account_category</text>
<text text-anchor="start" x="306.7422" y="-175.3" font-family="Arial" font-size="14.00" fill="#000000">    </text>
<text text-anchor="start" x="340.947" y="-175.3" font-family="Arial" font-size="14.00" fill="#666666">[BASE TABLE]</text>
<polygon fill="none" stroke="#000000" points="158,-132.5 158,-162.5 441,-162.5 441,-132.5 158,-132.5"/>
<text text-anchor="start" x="165" y="-143.9" font-family="Arial" font-size="14.00" fill="#000000">id    </text>
<text text-anchor="start" x="210.094" y="-143.9" font-family="Arial" font-size="14.00" fill="#666666">[int(11) unsigned]</text>
<polygon fill="none" stroke="#000000" points="158,-102.5 158,-132.5 441,-132.5 441,-102.5 158,-102.5"/>
<text text-anchor="start" x="165" y="-113.9" font-family="Arial" font-size="14.00" fill="#000000">tenant    </text>
<text text-anchor="start" x="238.1164" y="-113.9" font-family="Arial" font-size="14.00" fill="#666666">[int(11) unsigned]</text>
<polygon fill="none" stroke="#000000" points="158,-72.5 158,-102.5 441,-102.5 441,-72.5 158,-72.5"/>
<text text-anchor="start" x="165" y="-83.9" font-family="Arial" font-size="14.00" fill="#000000">name    </text>
<text text-anchor="start" x="234.2132" y="-83.9" font-family="Arial" font-size="14.00" fill="#666666">[varchar(255)]</text>
<polygon fill="none" stroke="#000000" points="158,-42.5 158,-72.5 441,-72.5 441,-42.5 158,-42.5"/>
<text text-anchor="start" x="165" y="-53.9" font-family="Arial" font-size="14.00" fill="#000000">dr_or_cr    </text>
<text text-anchor="start" x="251.317" y="-53.9" font-family="Arial" font-size="14.00" fill="#666666">[enum(&#39;debit&#39;,&#39;credit&#39;)]</text>
</g>
<!-- account_subcategory&#45;&gt;account_category -->
<g id="edge2" class="edge">
<title>account_subcategory:category&#45;&gt;account_category:id</title>
<path fill="none" stroke="#000000" d="M300.7882,-312.4158C310.4692,-255.2594 406.6616,-300.51 441,-241 461.7688,-205.0067 482.5556,-147.5 441,-147.5"/>
<polygon fill="#000000" stroke="#000000" points="300.7794,-312.5304 295.5137,-322.1493 300.3897,-317.5152 300,-322.5 300,-322.5 300,-322.5 300.3897,-317.5152 304.4863,-322.8507 300.7794,-312.5304 300.7794,-312.5304"/>
<text text-anchor="start" x="6.9295" y="-332.5" font-family="Arial" font-size="10.00" fill="#000000">FOREIGN KEY (category) REFERENCES account_category (id)</text>
</g>
<!-- classification_detail -->
<g id="node2" class="node">
<title>classification_detail</title>
<polygon fill="#efefef" stroke="transparent" points="152,-812.5 152,-847.5 448,-847.5 448,-812.5 152,-812.5"/>
<polygon fill="none" stroke="#000000" points="152,-812.5 152,-847.5 448,-847.5 448,-812.5 152,-812.5"/>
<text text-anchor="start" x="158.7053" y="-825.3" font-family="Arial Bold" font-size="18.00" fill="#000000">classification_detail</text>
<text text-anchor="start" x="313.7267" y="-825.3" font-family="Arial" font-size="14.00" fill="#000000">    </text>
<text text-anchor="start" x="347.9315" y="-825.3" font-family="Arial" font-size="14.00" fill="#666666">[BASE TABLE]</text>
<polygon fill="none" stroke="#000000" points="152,-782.5 152,-812.5 448,-812.5 448,-782.5 152,-782.5"/>
<text text-anchor="start" x="159" y="-793.9" font-family="Arial" font-size="14.00" fill="#000000">id    </text>
<text text-anchor="start" x="204.094" y="-793.9" font-family="Arial" font-size="14.00" fill="#666666">[int(11) unsigned]</text>
<polygon fill="none" stroke="#000000" points="152,-752.5 152,-782.5 448,-782.5 448,-752.5 152,-752.5"/>
<text text-anchor="start" x="159" y="-763.9" font-family="Arial" font-size="14.00" fill="#000000">parent    </text>
<text text-anchor="start" x="232.8864" y="-763.9" font-family="Arial" font-size="14.00" fill="#666666">[int(11) unsigned]</text>
<polygon fill="none" stroke="#000000" points="152,-722.5 152,-752.5 448,-752.5 448,-722.5 152,-722.5"/>
<text text-anchor="start" x="159" y="-733.9" font-family="Arial" font-size="14.00" fill="#000000">date    </text>
<text text-anchor="start" x="220.4432" y="-733.9" font-family="Arial" font-size="14.00" fill="#666666">[date]</text>
<polygon fill="none" stroke="#000000" points="152,-692.5 152,-722.5 448,-722.5 448,-692.5 152,-692.5"/>
<text text-anchor="start" x="159" y="-703.9" font-family="Arial" font-size="14.00" fill="#000000">amount    </text>
<text text-anchor="start" x="239.8864" y="-703.9" font-family="Arial" font-size="14.00" fill="#666666">[int(11)]</text>
<polygon fill="none" stroke="#000000" points="152,-662.5 152,-692.5 448,-692.5 448,-662.5 152,-662.5"/>
<text text-anchor="start" x="159" y="-673.9" font-family="Arial" font-size="14.00" fill="#000000">category    </text>
<text text-anchor="start" x="246.8864" y="-673.9" font-family="Arial" font-size="14.00" fill="#666666">[int(11) unsigned]</text>
<polygon fill="none" stroke="#000000" points="152,-632.5 152,-662.5 448,-662.5 448,-632.5 152,-632.5"/>
<text text-anchor="start" x="159" y="-643.9" font-family="Arial" font-size="14.00" fill="#000000">subcategory    </text>
<text text-anchor="start" x="269.4516" y="-643.9" font-family="Arial" font-size="14.00" fill="#666666">[int(11) unsigned]</text>
<polygon fill="none" stroke="#000000" points="152,-602.5 152,-632.5 448,-632.5 448,-602.5 152,-602.5"/>
<text text-anchor="start" x="159" y="-613.9" font-family="Arial" font-size="14.00" fill="#000000">cost_center    </text>
<text text-anchor="start" x="265.5596" y="-613.9" font-family="Arial" font-size="14.00" fill="#666666">[int(11) unsigned]</text>
<polygon fill="none" stroke="#000000" points="152,-572.5 152,-602.5 448,-602.5 448,-572.5 152,-572.5"/>
<text text-anchor="start" x="159" y="-583.9" font-family="Arial" font-size="14.00" fill="#000000">tax_class    </text>
<text text-anchor="start" x="251.5498" y="-583.9" font-family="Arial" font-size="14.00" fill="#666666">[int(11) unsigned]</text>
</g>
<!-- classification_detail&#45;&gt;account_subcategory -->
<g id="edge1" class="edge">
<title>classification_detail:subcategory&#45;&gt;account_subcategory:id</title>
<path fill="none" stroke="#000000" d="M458.1193,-646.7828C559.5516,-632.1191 563.694,-397.5 456,-397.5"/>
<polygon fill="#000000" stroke="#000000" points="457.975,-646.793 447.6818,-643.0113 452.9875,-647.1465 448,-647.5 448,-647.5 448,-647.5 452.9875,-647.1465 448.3182,-651.9887 457.975,-646.793 457.975,-646.793"/>
<text text-anchor="start" x="454.8115" y="-657.5" font-family="Arial" font-size="10.00" fill="#000000">FOREIGN KEY (subcategory) REFERENCES account_subcategory (id)</text>
</g>
</g>
</svg>
