<?xml version="1.0" encoding="UTF-8" standalone="no"?>
<!DOCTYPE svg PUBLIC "-//W3C//DTD SVG 1.1//EN"
 "http://www.w3.org/Graphics/SVG/1.1/DTD/svg11.dtd">
<!-- Generated by graphviz version 2.40.1 (20161225.0304)
 -->
<!-- Title: bp_bank_account Pages: 1 -->
<svg width="899pt" height="1109pt"
 viewBox="0.00 0.00 899.00 1109.00" xmlns="http://www.w3.org/2000/svg" xmlns:xlink="http://www.w3.org/1999/xlink">
<g id="graph0" class="graph" transform="scale(1 1) rotate(0) translate(4 1105)">
<title>bp_bank_account</title>
<polygon fill="#ffffff" stroke="transparent" points="-4,4 -4,-1105 895,-1105 895,4 -4,4"/>
<!-- bp_bank_account -->
<g id="node1" class="node">
<title>bp_bank_account</title>
<polygon fill="#efefef" stroke="transparent" points="460,-502.5 460,-537.5 743,-537.5 743,-502.5 460,-502.5"/>
<polygon fill="none" stroke="#000000" points="460,-502.5 460,-537.5 743,-537.5 743,-502.5 460,-502.5"/>
<text text-anchor="start" x="466.6808" y="-515.3" font-family="Arial Bold" font-size="18.00" fill="#000000">bp_bank_account</text>
<text text-anchor="start" x="608.7512" y="-515.3" font-family="Arial" font-size="14.00" fill="#000000">    </text>
<text text-anchor="start" x="642.956" y="-515.3" font-family="Arial" font-size="14.00" fill="#666666">[BASE TABLE]</text>
<polygon fill="none" stroke="#000000" points="460,-472.5 460,-502.5 743,-502.5 743,-472.5 460,-472.5"/>
<text text-anchor="start" x="467" y="-483.9" font-family="Arial" font-size="14.00" fill="#000000">id </text>
<text text-anchor="start" x="481.7798" y="-483.9" font-family="Arial" font-size="14.00" fill="#666666">[int(11) unsigned]</text>
<polygon fill="none" stroke="#000000" points="460,-442.5 460,-472.5 743,-472.5 743,-442.5 460,-442.5"/>
<text text-anchor="start" x="467" y="-453.9" font-family="Arial" font-size="14.00" fill="#000000">owner </text>
<text text-anchor="start" x="509.0056" y="-453.9" font-family="Arial" font-size="14.00" fill="#666666">[int(11) unsigned]</text>
<polygon fill="none" stroke="#000000" points="460,-412.5 460,-442.5 743,-442.5 743,-412.5 460,-412.5"/>
<text text-anchor="start" x="467" y="-423.9" font-family="Arial" font-size="14.00" fill="#000000">name </text>
<text text-anchor="start" x="505.899" y="-423.9" font-family="Arial" font-size="14.00" fill="#666666">[varchar(255)]</text>
<polygon fill="none" stroke="#000000" points="460,-382.5 460,-412.5 743,-412.5 743,-382.5 460,-382.5"/>
<text text-anchor="start" x="467" y="-393.9" font-family="Arial" font-size="14.00" fill="#000000">bank_code </text>
<text text-anchor="start" x="539.3688" y="-393.9" font-family="Arial" font-size="14.00" fill="#666666">[char(4)]</text>
<polygon fill="none" stroke="#000000" points="460,-352.5 460,-382.5 743,-382.5 743,-352.5 460,-352.5"/>
<text text-anchor="start" x="467" y="-363.9" font-family="Arial" font-size="14.00" fill="#000000">account_type </text>
<text text-anchor="start" x="554.15" y="-363.9" font-family="Arial" font-size="14.00" fill="#666666">[int(1)]</text>
<polygon fill="none" stroke="#000000" points="460,-322.5 460,-352.5 743,-352.5 743,-322.5 460,-322.5"/>
<text text-anchor="start" x="467" y="-333.9" font-family="Arial" font-size="14.00" fill="#000000">branch </text>
<text text-anchor="start" x="513.6816" y="-333.9" font-family="Arial" font-size="14.00" fill="#666666">[char(5)]</text>
<polygon fill="none" stroke="#000000" points="460,-292.5 460,-322.5 743,-322.5 743,-292.5 460,-292.5"/>
<text text-anchor="start" x="467" y="-303.9" font-family="Arial" font-size="14.00" fill="#000000">account_number </text>
<text text-anchor="start" x="575.1458" y="-303.9" font-family="Arial" font-size="14.00" fill="#666666">[char(8)]</text>
<polygon fill="none" stroke="#000000" stroke-width="3" points="458,-291.5 458,-539.5 744,-539.5 744,-291.5 458,-291.5"/>
</g>
<!-- business_partner -->
<g id="node3" class="node">
<title>business_partner</title>
<polygon fill="#efefef" stroke="transparent" points="462,-132.5 462,-167.5 741,-167.5 741,-132.5 462,-132.5"/>
<polygon fill="none" stroke="#000000" points="462,-132.5 462,-167.5 741,-167.5 741,-132.5 462,-132.5"/>
<text text-anchor="start" x="468.6977" y="-145.3" font-family="Arial Bold" font-size="18.00" fill="#000000">business_partner</text>
<text text-anchor="start" x="606.7343" y="-145.3" font-family="Arial" font-size="14.00" fill="#000000">    </text>
<text text-anchor="start" x="640.9391" y="-145.3" font-family="Arial" font-size="14.00" fill="#666666">[BASE TABLE]</text>
<polygon fill="none" stroke="#000000" points="462,-102.5 462,-132.5 741,-132.5 741,-102.5 462,-102.5"/>
<text text-anchor="start" x="469" y="-113.9" font-family="Arial" font-size="14.00" fill="#000000">id    </text>
<text text-anchor="start" x="514.094" y="-113.9" font-family="Arial" font-size="14.00" fill="#666666">[int(11) unsigned]</text>
<polygon fill="none" stroke="#000000" points="462,-72.5 462,-102.5 741,-102.5 741,-72.5 462,-72.5"/>
<text text-anchor="start" x="469" y="-83.9" font-family="Arial" font-size="14.00" fill="#000000">tenant    </text>
<text text-anchor="start" x="542.1164" y="-83.9" font-family="Arial" font-size="14.00" fill="#666666">[int(11) unsigned]</text>
<polygon fill="none" stroke="#000000" points="462,-42.5 462,-72.5 741,-72.5 741,-42.5 462,-42.5"/>
<text text-anchor="start" x="469" y="-53.9" font-family="Arial" font-size="14.00" fill="#000000">name    </text>
<text text-anchor="start" x="538.2132" y="-53.9" font-family="Arial" font-size="14.00" fill="#666666">[varchar(255)]</text>
</g>
<!-- bp_bank_account&#45;&gt;business_partner -->
<g id="edge2" class="edge">
<title>bp_bank_account:owner&#45;&gt;business_partner:id</title>
<path fill="none" stroke="#000000" d="M449.6271,-456.9485C309.0619,-441.7493 314.428,-117.5 462,-117.5"/>
<polygon fill="#000000" stroke="#000000" points="450.0141,-456.9689 459.761,-461.9937 455.0071,-457.2345 460,-457.5 460,-457.5 460,-457.5 455.0071,-457.2345 460.239,-453.0063 450.0141,-456.9689 450.0141,-456.9689"/>
<text text-anchor="start" x="180.6045" y="-467.5" font-family="Arial" font-size="10.00" fill="#000000">FOREIGN KEY (owner) REFERENCES business_partner (id)</text>
</g>
<!-- invoice_process -->
<g id="node2" class="node">
<title>invoice_process</title>
<polygon fill="#efefef" stroke="transparent" points="356,-1022.5 356,-1057.5 848,-1057.5 848,-1022.5 356,-1022.5"/>
<polygon fill="none" stroke="#000000" points="356,-1022.5 356,-1057.5 848,-1057.5 848,-1022.5 356,-1022.5"/>
<text text-anchor="start" x="473.704" y="-1035.3" font-family="Arial Bold" font-size="18.00" fill="#000000">invoice_process</text>
<text text-anchor="start" x="602.728" y="-1035.3" font-family="Arial" font-size="14.00" fill="#000000">    </text>
<text text-anchor="start" x="636.9328" y="-1035.3" font-family="Arial" font-size="14.00" fill="#666666">[BASE TABLE]</text>
<polygon fill="none" stroke="#000000" points="356,-992.5 356,-1022.5 848,-1022.5 848,-992.5 356,-992.5"/>
<text text-anchor="start" x="363" y="-1003.9" font-family="Arial" font-size="14.00" fill="#000000">id    </text>
<text text-anchor="start" x="408.094" y="-1003.9" font-family="Arial" font-size="14.00" fill="#666666">[int(11) unsigned]</text>
<polygon fill="none" stroke="#000000" points="356,-962.5 356,-992.5 848,-992.5 848,-962.5 356,-962.5"/>
<text text-anchor="start" x="363" y="-973.9" font-family="Arial" font-size="14.00" fill="#000000">tenant    </text>
<text text-anchor="start" x="436.1164" y="-973.9" font-family="Arial" font-size="14.00" fill="#666666">[int(11) unsigned]</text>
<polygon fill="none" stroke="#000000" points="356,-932.5 356,-962.5 848,-962.5 848,-932.5 356,-932.5"/>
<text text-anchor="start" x="363" y="-943.9" font-family="Arial" font-size="14.00" fill="#000000">process_id    </text>
<text text-anchor="start" x="464.885" y="-943.9" font-family="Arial" font-size="14.00" fill="#666666">[int(11) unsigned]</text>
<polygon fill="none" stroke="#000000" points="356,-902.5 356,-932.5 848,-932.5 848,-902.5 356,-902.5"/>
<text text-anchor="start" x="363" y="-913.9" font-family="Arial" font-size="14.00" fill="#000000">state    </text>
<text text-anchor="start" x="427.5512" y="-913.9" font-family="Arial" font-size="14.00" fill="#666666">[int(2)]</text>
<polygon fill="none" stroke="#000000" points="356,-872.5 356,-902.5 848,-902.5 848,-872.5 356,-872.5"/>
<text text-anchor="start" x="363" y="-883.9" font-family="Arial" font-size="14.00" fill="#000000">amount    </text>
<text text-anchor="start" x="443.8864" y="-883.9" font-family="Arial" font-size="14.00" fill="#666666">[int(11) unsigned]</text>
<polygon fill="none" stroke="#000000" points="356,-842.5 356,-872.5 848,-872.5 848,-842.5 356,-842.5"/>
<text text-anchor="start" x="363" y="-853.9" font-family="Arial" font-size="14.00" fill="#000000">payee    </text>
<text text-anchor="start" x="435.3352" y="-853.9" font-family="Arial" font-size="14.00" fill="#666666">[int(11) unsigned]</text>
<polygon fill="none" stroke="#000000" points="356,-812.5 356,-842.5 848,-842.5 848,-812.5 356,-812.5"/>
<text text-anchor="start" x="362.8464" y="-823.9" font-family="Arial" font-size="14.00" fill="#000000">payment_method_type    </text>
<text text-anchor="start" x="539.4354" y="-823.9" font-family="Arial" font-size="14.00" fill="#666666">[enum(&#39;bank_transfer&#39;,&#39;direct_debit&#39;,&#39;credit card&#39;)]</text>
<polygon fill="none" stroke="#000000" points="356,-782.5 356,-812.5 848,-812.5 848,-782.5 356,-782.5"/>
<text text-anchor="start" x="363" y="-793.9" font-family="Arial" font-size="14.00" fill="#000000">payment_method_id    </text>
<text text-anchor="start" x="524.0224" y="-793.9" font-family="Arial" font-size="14.00" fill="#666666">[int(11) unsigned]</text>
<polygon fill="none" stroke="#000000" points="356,-752.5 356,-782.5 848,-782.5 848,-752.5 356,-752.5"/>
<text text-anchor="start" x="363" y="-763.9" font-family="Arial" font-size="14.00" fill="#000000">payee_bank_account    </text>
<text text-anchor="start" x="530.2692" y="-763.9" font-family="Arial" font-size="14.00" fill="#666666">[int(11) unsigned]</text>
<polygon fill="none" stroke="#000000" points="356,-722.5 356,-752.5 848,-752.5 848,-722.5 356,-722.5"/>
<text text-anchor="start" x="363" y="-733.9" font-family="Arial" font-size="14.00" fill="#000000">due    </text>
<text text-anchor="start" x="420.5526" y="-733.9" font-family="Arial" font-size="14.00" fill="#666666">[date]</text>
<polygon fill="none" stroke="#000000" points="356,-692.5 356,-722.5 848,-722.5 848,-692.5 356,-692.5"/>
<text text-anchor="start" x="363" y="-703.9" font-family="Arial" font-size="14.00" fill="#000000">pic    </text>
<text text-anchor="start" x="415.094" y="-703.9" font-family="Arial" font-size="14.00" fill="#666666">[int(11) unsigned]</text>
<polygon fill="none" stroke="#000000" points="356,-662.5 356,-692.5 848,-692.5 848,-662.5 356,-662.5"/>
<text text-anchor="start" x="363" y="-673.9" font-family="Arial" font-size="14.00" fill="#000000">classification    </text>
<text text-anchor="start" x="476.5428" y="-673.9" font-family="Arial" font-size="14.00" fill="#666666">[int(11) unsigned]</text>
</g>
<!-- invoice_process&#45;&gt;bp_bank_account -->
<g id="edge1" class="edge">
<title>invoice_process:payee_bank_account&#45;&gt;bp_bank_account:id</title>
<path fill="none" stroke="#000000" d="M346.0145,-766.6358C292.8531,-756.8182 314.2589,-665.8042 356,-620 414.1766,-556.1605 684.8234,-647.8395 743,-584 771.8884,-552.2996 785.8889,-487.5 743,-487.5"/>
<polygon fill="#000000" stroke="#000000" points="346.0372,-766.6377 355.612,-771.9832 351.0186,-767.0688 356,-767.5 356,-767.5 356,-767.5 351.0186,-767.0688 356.388,-763.0168 346.0372,-766.6377 346.0372,-766.6377"/>
<text text-anchor="start" x="6.5735" y="-777.5" font-family="Arial" font-size="10.00" fill="#000000">FOREIGN KEY (payee_bank_account) REFERENCES bp_bank_account (id)</text>
</g>
</g>
</svg>
