<?xml version="1.0" encoding="UTF-8" standalone="no"?>
<!DOCTYPE svg PUBLIC "-//W3C//DTD SVG 1.1//EN"
 "http://www.w3.org/Graphics/SVG/1.1/DTD/svg11.dtd">
<!-- Generated by graphviz version 2.40.1 (20161225.0304)
 -->
<!-- Title: business_partner Pages: 1 -->
<svg width="974pt" height="929pt"
 viewBox="0.00 0.00 973.50 929.00" xmlns="http://www.w3.org/2000/svg" xmlns:xlink="http://www.w3.org/1999/xlink">
<g id="graph0" class="graph" transform="scale(1 1) rotate(0) translate(4 925)">
<title>business_partner</title>
<polygon fill="#ffffff" stroke="transparent" points="-4,4 -4,-925 969.5,-925 969.5,4 -4,4"/>
<!-- business_partner -->
<g id="node1" class="node">
<title>business_partner</title>
<polygon fill="#efefef" stroke="transparent" points="290.5,-322.5 290.5,-357.5 569.5,-357.5 569.5,-322.5 290.5,-322.5"/>
<polygon fill="none" stroke="#000000" points="290.5,-322.5 290.5,-357.5 569.5,-357.5 569.5,-322.5 290.5,-322.5"/>
<text text-anchor="start" x="297.1977" y="-335.3" font-family="Arial Bold" font-size="18.00" fill="#000000">business_partner</text>
<text text-anchor="start" x="435.2343" y="-335.3" font-family="Arial" font-size="14.00" fill="#000000">    </text>
<text text-anchor="start" x="469.4391" y="-335.3" font-family="Arial" font-size="14.00" fill="#666666">[BASE TABLE]</text>
<polygon fill="none" stroke="#000000" points="290.5,-292.5 290.5,-322.5 569.5,-322.5 569.5,-292.5 290.5,-292.5"/>
<text text-anchor="start" x="297.5" y="-303.9" font-family="Arial" font-size="14.00" fill="#000000">id </text>
<text text-anchor="start" x="312.2798" y="-303.9" font-family="Arial" font-size="14.00" fill="#666666">[int(11) unsigned]</text>
<polygon fill="none" stroke="#000000" points="290.5,-262.5 290.5,-292.5 569.5,-292.5 569.5,-262.5 290.5,-262.5"/>
<text text-anchor="start" x="297.5" y="-273.9" font-family="Arial" font-size="14.00" fill="#000000">tenant </text>
<text text-anchor="start" x="340.3022" y="-273.9" font-family="Arial" font-size="14.00" fill="#666666">[int(11) unsigned]</text>
<polygon fill="none" stroke="#000000" points="290.5,-232.5 290.5,-262.5 569.5,-262.5 569.5,-232.5 290.5,-232.5"/>
<text text-anchor="start" x="297.5" y="-243.9" font-family="Arial" font-size="14.00" fill="#000000">name </text>
<text text-anchor="start" x="336.399" y="-243.9" font-family="Arial" font-size="14.00" fill="#666666">[varchar(255)]</text>
<polygon fill="none" stroke="#000000" stroke-width="3" points="288.5,-231.5 288.5,-359.5 570.5,-359.5 570.5,-231.5 288.5,-231.5"/>
</g>
<!-- tenant -->
<g id="node4" class="node">
<title>tenant</title>
<polygon fill="#efefef" stroke="transparent" points="334.5,-72.5 334.5,-107.5 525.5,-107.5 525.5,-72.5 334.5,-72.5"/>
<polygon fill="none" stroke="#000000" points="334.5,-72.5 334.5,-107.5 525.5,-107.5 525.5,-72.5 334.5,-72.5"/>
<text text-anchor="start" x="341.2014" y="-85.3" font-family="Arial Bold" font-size="18.00" fill="#000000">tenant</text>
<text text-anchor="start" x="391.2306" y="-85.3" font-family="Arial" font-size="14.00" fill="#000000">    </text>
<text text-anchor="start" x="425.4354" y="-85.3" font-family="Arial" font-size="14.00" fill="#666666">[BASE TABLE]</text>
<polygon fill="none" stroke="#000000" points="334.5,-42.5 334.5,-72.5 525.5,-72.5 525.5,-42.5 334.5,-42.5"/>
<text text-anchor="start" x="341.5" y="-53.9" font-family="Arial" font-size="14.00" fill="#000000">id    </text>
<text text-anchor="start" x="386.594" y="-53.9" font-family="Arial" font-size="14.00" fill="#666666">[int(11) unsigned]</text>
</g>
<!-- business_partner&#45;&gt;tenant -->
<g id="edge3" class="edge">
<title>business_partner:tenant&#45;&gt;tenant:id</title>
<path fill="none" stroke="#000000" d="M280.5748,-275.9849C252.9547,-266.4609 266.44,-214.3829 290.5,-187 372.5891,-93.5736 485.9109,-244.4264 568,-151 750.7184,56.9535 430.5,-39.7427 430.5,-42.5"/>
<polygon fill="#000000" stroke="#000000" points="280.6145,-275.9909 289.8209,-281.9485 285.5573,-276.7454 290.5,-277.5 290.5,-277.5 290.5,-277.5 285.5573,-276.7454 291.1791,-273.0515 280.6145,-275.9909 280.6145,-275.9909"/>
<text text-anchor="start" x="59.2665" y="-287.5" font-family="Arial" font-size="10.00" fill="#000000">FOREIGN KEY (tenant) REFERENCES tenant (id)</text>
</g>
<!-- bp_bank_account -->
<g id="node2" class="node">
<title>bp_bank_account</title>
<polygon fill="#efefef" stroke="transparent" points="43.5,-767.5 43.5,-802.5 326.5,-802.5 326.5,-767.5 43.5,-767.5"/>
<polygon fill="none" stroke="#000000" points="43.5,-767.5 43.5,-802.5 326.5,-802.5 326.5,-767.5 43.5,-767.5"/>
<text text-anchor="start" x="50.1808" y="-780.3" font-family="Arial Bold" font-size="18.00" fill="#000000">bp_bank_account</text>
<text text-anchor="start" x="192.2512" y="-780.3" font-family="Arial" font-size="14.00" fill="#000000">    </text>
<text text-anchor="start" x="226.456" y="-780.3" font-family="Arial" font-size="14.00" fill="#666666">[BASE TABLE]</text>
<polygon fill="none" stroke="#000000" points="43.5,-737.5 43.5,-767.5 326.5,-767.5 326.5,-737.5 43.5,-737.5"/>
<text text-anchor="start" x="50.5" y="-748.9" font-family="Arial" font-size="14.00" fill="#000000">id    </text>
<text text-anchor="start" x="95.594" y="-748.9" font-family="Arial" font-size="14.00" fill="#666666">[int(11) unsigned]</text>
<polygon fill="none" stroke="#000000" points="43.5,-707.5 43.5,-737.5 326.5,-737.5 326.5,-707.5 43.5,-707.5"/>
<text text-anchor="start" x="50.5" y="-718.9" font-family="Arial" font-size="14.00" fill="#000000">owner    </text>
<text text-anchor="start" x="122.8198" y="-718.9" font-family="Arial" font-size="14.00" fill="#666666">[int(11) unsigned]</text>
<polygon fill="none" stroke="#000000" points="43.5,-677.5 43.5,-707.5 326.5,-707.5 326.5,-677.5 43.5,-677.5"/>
<text text-anchor="start" x="50.5" y="-688.9" font-family="Arial" font-size="14.00" fill="#000000">name    </text>
<text text-anchor="start" x="119.7132" y="-688.9" font-family="Arial" font-size="14.00" fill="#666666">[varchar(255)]</text>
<polygon fill="none" stroke="#000000" points="43.5,-647.5 43.5,-677.5 326.5,-677.5 326.5,-647.5 43.5,-647.5"/>
<text text-anchor="start" x="50.5" y="-658.9" font-family="Arial" font-size="14.00" fill="#000000">bank_code    </text>
<text text-anchor="start" x="153.183" y="-658.9" font-family="Arial" font-size="14.00" fill="#666666">[char(4)]</text>
<polygon fill="none" stroke="#000000" points="43.5,-617.5 43.5,-647.5 326.5,-647.5 326.5,-617.5 43.5,-617.5"/>
<text text-anchor="start" x="50.5" y="-628.9" font-family="Arial" font-size="14.00" fill="#000000">account_type    </text>
<text text-anchor="start" x="167.9642" y="-628.9" font-family="Arial" font-size="14.00" fill="#666666">[int(1)]</text>
<polygon fill="none" stroke="#000000" points="43.5,-587.5 43.5,-617.5 326.5,-617.5 326.5,-587.5 43.5,-587.5"/>
<text text-anchor="start" x="50.5" y="-598.9" font-family="Arial" font-size="14.00" fill="#000000">branch    </text>
<text text-anchor="start" x="127.4958" y="-598.9" font-family="Arial" font-size="14.00" fill="#666666">[char(5)]</text>
<polygon fill="none" stroke="#000000" points="43.5,-557.5 43.5,-587.5 326.5,-587.5 326.5,-557.5 43.5,-557.5"/>
<text text-anchor="start" x="50.5" y="-568.9" font-family="Arial" font-size="14.00" fill="#000000">account_number    </text>
<text text-anchor="start" x="188.96" y="-568.9" font-family="Arial" font-size="14.00" fill="#666666">[char(8)]</text>
</g>
<!-- bp_bank_account&#45;&gt;business_partner -->
<g id="edge1" class="edge">
<title>bp_bank_account:owner&#45;&gt;business_partner:id</title>
<path fill="none" stroke="#000000" d="M336.5428,-721.9756C412.7393,-713.4442 340.3396,-602.5325 326.5,-515 318.4006,-463.7733 298.5994,-455.2267 290.5,-404 283.8021,-361.6373 247.6111,-307.5 290.5,-307.5"/>
<polygon fill="#000000" stroke="#000000" points="336.4864,-721.9784 326.2653,-718.0061 331.4932,-722.2392 326.5,-722.5 326.5,-722.5 326.5,-722.5 331.4932,-722.2392 326.7347,-726.9939 336.4864,-721.9784 336.4864,-721.9784"/>
<text text-anchor="start" x="333.1045" y="-732.5" font-family="Arial" font-size="10.00" fill="#000000">FOREIGN KEY (owner) REFERENCES business_partner (id)</text>
</g>
<!-- invoice_process -->
<g id="node3" class="node">
<title>invoice_process</title>
<polygon fill="#efefef" stroke="transparent" points="430.5,-842.5 430.5,-877.5 922.5,-877.5 922.5,-842.5 430.5,-842.5"/>
<polygon fill="none" stroke="#000000" points="430.5,-842.5 430.5,-877.5 922.5,-877.5 922.5,-842.5 430.5,-842.5"/>
<text text-anchor="start" x="548.204" y="-855.3" font-family="Arial Bold" font-size="18.00" fill="#000000">invoice_process</text>
<text text-anchor="start" x="677.228" y="-855.3" font-family="Arial" font-size="14.00" fill="#000000">    </text>
<text text-anchor="start" x="711.4328" y="-855.3" font-family="Arial" font-size="14.00" fill="#666666">[BASE TABLE]</text>
<polygon fill="none" stroke="#000000" points="430.5,-812.5 430.5,-842.5 922.5,-842.5 922.5,-812.5 430.5,-812.5"/>
<text text-anchor="start" x="437.5" y="-823.9" font-family="Arial" font-size="14.00" fill="#000000">id    </text>
<text text-anchor="start" x="482.594" y="-823.9" font-family="Arial" font-size="14.00" fill="#666666">[int(11) unsigned]</text>
<polygon fill="none" stroke="#000000" points="430.5,-782.5 430.5,-812.5 922.5,-812.5 922.5,-782.5 430.5,-782.5"/>
<text text-anchor="start" x="437.5" y="-793.9" font-family="Arial" font-size="14.00" fill="#000000">tenant    </text>
<text text-anchor="start" x="510.6164" y="-793.9" font-family="Arial" font-size="14.00" fill="#666666">[int(11) unsigned]</text>
<polygon fill="none" stroke="#000000" points="430.5,-752.5 430.5,-782.5 922.5,-782.5 922.5,-752.5 430.5,-752.5"/>
<text text-anchor="start" x="437.5" y="-763.9" font-family="Arial" font-size="14.00" fill="#000000">process_id    </text>
<text text-anchor="start" x="539.385" y="-763.9" font-family="Arial" font-size="14.00" fill="#666666">[int(11) unsigned]</text>
<polygon fill="none" stroke="#000000" points="430.5,-722.5 430.5,-752.5 922.5,-752.5 922.5,-722.5 430.5,-722.5"/>
<text text-anchor="start" x="437.5" y="-733.9" font-family="Arial" font-size="14.00" fill="#000000">state    </text>
<text text-anchor="start" x="502.0512" y="-733.9" font-family="Arial" font-size="14.00" fill="#666666">[int(2)]</text>
<polygon fill="none" stroke="#000000" points="430.5,-692.5 430.5,-722.5 922.5,-722.5 922.5,-692.5 430.5,-692.5"/>
<text text-anchor="start" x="437.5" y="-703.9" font-family="Arial" font-size="14.00" fill="#000000">amount    </text>
<text text-anchor="start" x="518.3864" y="-703.9" font-family="Arial" font-size="14.00" fill="#666666">[int(11) unsigned]</text>
<polygon fill="none" stroke="#000000" points="430.5,-662.5 430.5,-692.5 922.5,-692.5 922.5,-662.5 430.5,-662.5"/>
<text text-anchor="start" x="437.5" y="-673.9" font-family="Arial" font-size="14.00" fill="#000000">payee    </text>
<text text-anchor="start" x="509.8352" y="-673.9" font-family="Arial" font-size="14.00" fill="#666666">[int(11) unsigned]</text>
<polygon fill="none" stroke="#000000" points="430.5,-632.5 430.5,-662.5 922.5,-662.5 922.5,-632.5 430.5,-632.5"/>
<text text-anchor="start" x="437.3464" y="-643.9" font-family="Arial" font-size="14.00" fill="#000000">payment_method_type    </text>
<text text-anchor="start" x="613.9354" y="-643.9" font-family="Arial" font-size="14.00" fill="#666666">[enum(&#39;bank_transfer&#39;,&#39;direct_debit&#39;,&#39;credit card&#39;)]</text>
<polygon fill="none" stroke="#000000" points="430.5,-602.5 430.5,-632.5 922.5,-632.5 922.5,-602.5 430.5,-602.5"/>
<text text-anchor="start" x="437.5" y="-613.9" font-family="Arial" font-size="14.00" fill="#000000">payment_method_id    </text>
<text text-anchor="start" x="598.5224" y="-613.9" font-family="Arial" font-size="14.00" fill="#666666">[int(11) unsigned]</text>
<polygon fill="none" stroke="#000000" points="430.5,-572.5 430.5,-602.5 922.5,-602.5 922.5,-572.5 430.5,-572.5"/>
<text text-anchor="start" x="437.5" y="-583.9" font-family="Arial" font-size="14.00" fill="#000000">payee_bank_account    </text>
<text text-anchor="start" x="604.7692" y="-583.9" font-family="Arial" font-size="14.00" fill="#666666">[int(11) unsigned]</text>
<polygon fill="none" stroke="#000000" points="430.5,-542.5 430.5,-572.5 922.5,-572.5 922.5,-542.5 430.5,-542.5"/>
<text text-anchor="start" x="437.5" y="-553.9" font-family="Arial" font-size="14.00" fill="#000000">due    </text>
<text text-anchor="start" x="495.0526" y="-553.9" font-family="Arial" font-size="14.00" fill="#666666">[date]</text>
<polygon fill="none" stroke="#000000" points="430.5,-512.5 430.5,-542.5 922.5,-542.5 922.5,-512.5 430.5,-512.5"/>
<text text-anchor="start" x="437.5" y="-523.9" font-family="Arial" font-size="14.00" fill="#000000">pic    </text>
<text text-anchor="start" x="489.594" y="-523.9" font-family="Arial" font-size="14.00" fill="#666666">[int(11) unsigned]</text>
<polygon fill="none" stroke="#000000" points="430.5,-482.5 430.5,-512.5 922.5,-512.5 922.5,-482.5 430.5,-482.5"/>
<text text-anchor="start" x="437.5" y="-493.9" font-family="Arial" font-size="14.00" fill="#000000">classification    </text>
<text text-anchor="start" x="551.0428" y="-493.9" font-family="Arial" font-size="14.00" fill="#666666">[int(11) unsigned]</text>
</g>
<!-- invoice_process&#45;&gt;business_partner -->
<g id="edge2" class="edge">
<title>invoice_process:payee&#45;&gt;business_partner:id</title>
<path fill="none" stroke="#000000" d="M420.6837,-674.8673C380.5766,-651.4552 400.4042,-478.8834 430.5,-440 469.5604,-389.5344 530.4396,-454.4656 569.5,-404 595.7514,-370.0836 612.3889,-307.5 569.5,-307.5"/>
<polygon fill="#000000" stroke="#000000" points="420.8413,-674.9095 429.3343,-681.8464 425.6707,-676.2048 430.5,-677.5 430.5,-677.5 430.5,-677.5 425.6707,-676.2048 431.6657,-673.1536 420.8413,-674.9095 420.8413,-674.9095"/>
<text text-anchor="start" x="437.099" y="-687.5" font-family="Arial" font-size="10.00" fill="#000000">FOREIGN KEY (payee) REFERENCES business_partner (id)</text>
</g>
</g>
</svg>
