<?xml version="1.0" encoding="UTF-8" standalone="no"?>
<!DOCTYPE svg PUBLIC "-//W3C//DTD SVG 1.1//EN"
 "http://www.w3.org/Graphics/SVG/1.1/DTD/svg11.dtd">
<!-- Generated by graphviz version 2.40.1 (20161225.0304)
 -->
<!-- Title: business_partner Pages: 1 -->
<svg width="888pt" height="899pt"
 viewBox="0.00 0.00 888.00 899.00" xmlns="http://www.w3.org/2000/svg" xmlns:xlink="http://www.w3.org/1999/xlink">
<g id="graph0" class="graph" transform="scale(1 1) rotate(0) translate(4 895)">
<title>business_partner</title>
<polygon fill="#ffffff" stroke="transparent" points="-4,4 -4,-895 884,-895 884,4 -4,4"/>
<!-- business_partner -->
<g id="node1" class="node">
<title>business_partner</title>
<polygon fill="#efefef" stroke="transparent" points="328.5,-322.5 328.5,-357.5 607.5,-357.5 607.5,-322.5 328.5,-322.5"/>
<polygon fill="none" stroke="#000000" points="328.5,-322.5 328.5,-357.5 607.5,-357.5 607.5,-322.5 328.5,-322.5"/>
<text text-anchor="start" x="335.1977" y="-335.3" font-family="Arial Bold" font-size="18.00" fill="#000000">business_partner</text>
<text text-anchor="start" x="473.2343" y="-335.3" font-family="Arial" font-size="14.00" fill="#000000">    </text>
<text text-anchor="start" x="507.4391" y="-335.3" font-family="Arial" font-size="14.00" fill="#666666">[BASE TABLE]</text>
<polygon fill="none" stroke="#000000" points="328.5,-292.5 328.5,-322.5 607.5,-322.5 607.5,-292.5 328.5,-292.5"/>
<text text-anchor="start" x="335.5" y="-303.9" font-family="Arial" font-size="14.00" fill="#000000">id </text>
<text text-anchor="start" x="350.2798" y="-303.9" font-family="Arial" font-size="14.00" fill="#666666">[int(11) unsigned]</text>
<polygon fill="none" stroke="#000000" points="328.5,-262.5 328.5,-292.5 607.5,-292.5 607.5,-262.5 328.5,-262.5"/>
<text text-anchor="start" x="335.5" y="-273.9" font-family="Arial" font-size="14.00" fill="#000000">tenant </text>
<text text-anchor="start" x="378.3022" y="-273.9" font-family="Arial" font-size="14.00" fill="#666666">[int(11) unsigned]</text>
<polygon fill="none" stroke="#000000" points="328.5,-232.5 328.5,-262.5 607.5,-262.5 607.5,-232.5 328.5,-232.5"/>
<text text-anchor="start" x="335.5" y="-243.9" font-family="Arial" font-size="14.00" fill="#000000">name </text>
<text text-anchor="start" x="374.399" y="-243.9" font-family="Arial" font-size="14.00" fill="#666666">[varchar(255)]</text>
<polygon fill="none" stroke="#000000" stroke-width="3" points="326.5,-231.5 326.5,-359.5 608.5,-359.5 608.5,-231.5 326.5,-231.5"/>
</g>
<!-- tenant -->
<g id="node4" class="node">
<title>tenant</title>
<polygon fill="#efefef" stroke="transparent" points="372.5,-72.5 372.5,-107.5 563.5,-107.5 563.5,-72.5 372.5,-72.5"/>
<polygon fill="none" stroke="#000000" points="372.5,-72.5 372.5,-107.5 563.5,-107.5 563.5,-72.5 372.5,-72.5"/>
<text text-anchor="start" x="379.2014" y="-85.3" font-family="Arial Bold" font-size="18.00" fill="#000000">tenant</text>
<text text-anchor="start" x="429.2306" y="-85.3" font-family="Arial" font-size="14.00" fill="#000000">    </text>
<text text-anchor="start" x="463.4354" y="-85.3" font-family="Arial" font-size="14.00" fill="#666666">[BASE TABLE]</text>
<polygon fill="none" stroke="#000000" points="372.5,-42.5 372.5,-72.5 563.5,-72.5 563.5,-42.5 372.5,-42.5"/>
<text text-anchor="start" x="379.5" y="-53.9" font-family="Arial" font-size="14.00" fill="#000000">id    </text>
<text text-anchor="start" x="424.594" y="-53.9" font-family="Arial" font-size="14.00" fill="#666666">[int(11) unsigned]</text>
</g>
<!-- business_partner&#45;&gt;tenant -->
<g id="edge3" class="edge">
<title>business_partner:tenant&#45;&gt;tenant:id</title>
<path fill="none" stroke="#000000" d="M318.5748,-275.9849C290.9547,-266.4609 304.44,-214.3829 328.5,-187 410.5891,-93.5736 523.9109,-244.4264 606,-151 788.7184,56.9535 468.5,-39.7427 468.5,-42.5"/>
<polygon fill="#000000" stroke="#000000" points="318.6145,-275.9909 327.8209,-281.9485 323.5573,-276.7454 328.5,-277.5 328.5,-277.5 328.5,-277.5 323.5573,-276.7454 329.1791,-273.0515 318.6145,-275.9909 318.6145,-275.9909"/>
<text text-anchor="start" x="97.2665" y="-287.5" font-family="Arial" font-size="10.00" fill="#000000">FOREIGN KEY (tenant) REFERENCES tenant (id)</text>
</g>
<!-- business_partner_bank_account -->
<g id="node2" class="node">
<title>business_partner_bank_account</title>
<polygon fill="#efefef" stroke="transparent" points="43.5,-752.5 43.5,-787.5 444.5,-787.5 444.5,-752.5 43.5,-752.5"/>
<polygon fill="none" stroke="#000000" points="43.5,-752.5 43.5,-787.5 444.5,-787.5 444.5,-752.5 43.5,-752.5"/>
<text text-anchor="start" x="50.1687" y="-765.3" font-family="Arial Bold" font-size="18.00" fill="#000000">business_partner_bank_account</text>
<text text-anchor="start" x="310.2633" y="-765.3" font-family="Arial" font-size="14.00" fill="#000000">    </text>
<text text-anchor="start" x="344.4681" y="-765.3" font-family="Arial" font-size="14.00" fill="#666666">[BASE TABLE]</text>
<polygon fill="none" stroke="#000000" points="43.5,-722.5 43.5,-752.5 444.5,-752.5 444.5,-722.5 43.5,-722.5"/>
<text text-anchor="start" x="50.5" y="-733.9" font-family="Arial" font-size="14.00" fill="#000000">id    </text>
<text text-anchor="start" x="95.594" y="-733.9" font-family="Arial" font-size="14.00" fill="#666666">[int(11) unsigned]</text>
<polygon fill="none" stroke="#000000" points="43.5,-692.5 43.5,-722.5 444.5,-722.5 444.5,-692.5 43.5,-692.5"/>
<text text-anchor="start" x="50.5" y="-703.9" font-family="Arial" font-size="14.00" fill="#000000">owner    </text>
<text text-anchor="start" x="122.8198" y="-703.9" font-family="Arial" font-size="14.00" fill="#666666">[int(11) unsigned]</text>
<polygon fill="none" stroke="#000000" points="43.5,-662.5 43.5,-692.5 444.5,-692.5 444.5,-662.5 43.5,-662.5"/>
<text text-anchor="start" x="50.5" y="-673.9" font-family="Arial" font-size="14.00" fill="#000000">name    </text>
<text text-anchor="start" x="119.7132" y="-673.9" font-family="Arial" font-size="14.00" fill="#666666">[varchar(255)]</text>
<polygon fill="none" stroke="#000000" points="43.5,-632.5 43.5,-662.5 444.5,-662.5 444.5,-632.5 43.5,-632.5"/>
<text text-anchor="start" x="50.5" y="-643.9" font-family="Arial" font-size="14.00" fill="#000000">bank_code    </text>
<text text-anchor="start" x="153.183" y="-643.9" font-family="Arial" font-size="14.00" fill="#666666">[char(4)]</text>
<polygon fill="none" stroke="#000000" points="43.5,-602.5 43.5,-632.5 444.5,-632.5 444.5,-602.5 43.5,-602.5"/>
<text text-anchor="start" x="50.5" y="-613.9" font-family="Arial" font-size="14.00" fill="#000000">account_type    </text>
<text text-anchor="start" x="167.9642" y="-613.9" font-family="Arial" font-size="14.00" fill="#666666">[int(1)]</text>
<polygon fill="none" stroke="#000000" points="43.5,-572.5 43.5,-602.5 444.5,-602.5 444.5,-572.5 43.5,-572.5"/>
<text text-anchor="start" x="50.5" y="-583.9" font-family="Arial" font-size="14.00" fill="#000000">branch    </text>
<text text-anchor="start" x="127.4958" y="-583.9" font-family="Arial" font-size="14.00" fill="#666666">[char(5)]</text>
<polygon fill="none" stroke="#000000" points="43.5,-542.5 43.5,-572.5 444.5,-572.5 444.5,-542.5 43.5,-542.5"/>
<text text-anchor="start" x="50.5" y="-553.9" font-family="Arial" font-size="14.00" fill="#000000">account_number    </text>
<text text-anchor="start" x="188.96" y="-553.9" font-family="Arial" font-size="14.00" fill="#666666">[char(8)]</text>
</g>
<!-- business_partner_bank_account&#45;&gt;business_partner -->
<g id="edge1" class="edge">
<title>business_partner_bank_account:owner&#45;&gt;business_partner:id</title>
<path fill="none" stroke="#000000" d="M454.6522,-706.942C532.6053,-697.8705 482.225,-580.1891 444.5,-500 416.0121,-439.4454 356.9879,-464.5546 328.5,-404 310.2424,-365.1913 285.6111,-307.5 328.5,-307.5"/>
<polygon fill="#000000" stroke="#000000" points="454.4849,-706.9511 444.253,-703.0068 449.4925,-707.2255 444.5,-707.5 444.5,-707.5 444.5,-707.5 449.4925,-707.2255 444.747,-711.9932 454.4849,-706.9511 454.4849,-706.9511"/>
<text text-anchor="start" x="451.1045" y="-717.5" font-family="Arial" font-size="10.00" fill="#000000">FOREIGN KEY (owner) REFERENCES business_partner (id)</text>
</g>
<!-- invoice_process -->
<g id="node3" class="node">
<title>invoice_process</title>
<polygon fill="#efefef" stroke="transparent" points="548.5,-812.5 548.5,-847.5 837.5,-847.5 837.5,-812.5 548.5,-812.5"/>
<polygon fill="none" stroke="#000000" points="548.5,-812.5 548.5,-847.5 837.5,-847.5 837.5,-812.5 548.5,-812.5"/>
<text text-anchor="start" x="564.704" y="-825.3" font-family="Arial Bold" font-size="18.00" fill="#000000">invoice_process</text>
<text text-anchor="start" x="693.728" y="-825.3" font-family="Arial" font-size="14.00" fill="#000000">    </text>
<text text-anchor="start" x="727.9328" y="-825.3" font-family="Arial" font-size="14.00" fill="#666666">[BASE TABLE]</text>
<polygon fill="none" stroke="#000000" points="548.5,-782.5 548.5,-812.5 837.5,-812.5 837.5,-782.5 548.5,-782.5"/>
<text text-anchor="start" x="555.5" y="-793.9" font-family="Arial" font-size="14.00" fill="#000000">id    </text>
<text text-anchor="start" x="600.594" y="-793.9" font-family="Arial" font-size="14.00" fill="#666666">[int(11) unsigned]</text>
<polygon fill="none" stroke="#000000" points="548.5,-752.5 548.5,-782.5 837.5,-782.5 837.5,-752.5 548.5,-752.5"/>
<text text-anchor="start" x="555.5" y="-763.9" font-family="Arial" font-size="14.00" fill="#000000">tenant    </text>
<text text-anchor="start" x="628.6164" y="-763.9" font-family="Arial" font-size="14.00" fill="#666666">[int(11) unsigned]</text>
<polygon fill="none" stroke="#000000" points="548.5,-722.5 548.5,-752.5 837.5,-752.5 837.5,-722.5 548.5,-722.5"/>
<text text-anchor="start" x="555.5" y="-733.9" font-family="Arial" font-size="14.00" fill="#000000">process_num    </text>
<text text-anchor="start" x="673.7216" y="-733.9" font-family="Arial" font-size="14.00" fill="#666666">[int(11) unsigned]</text>
<polygon fill="none" stroke="#000000" points="548.5,-692.5 548.5,-722.5 837.5,-722.5 837.5,-692.5 548.5,-692.5"/>
<text text-anchor="start" x="555.5" y="-703.9" font-family="Arial" font-size="14.00" fill="#000000">state    </text>
<text text-anchor="start" x="620.0512" y="-703.9" font-family="Arial" font-size="14.00" fill="#666666">[int(2)]</text>
<polygon fill="none" stroke="#000000" points="548.5,-662.5 548.5,-692.5 837.5,-692.5 837.5,-662.5 548.5,-662.5"/>
<text text-anchor="start" x="555.5" y="-673.9" font-family="Arial" font-size="14.00" fill="#000000">amount    </text>
<text text-anchor="start" x="636.3864" y="-673.9" font-family="Arial" font-size="14.00" fill="#666666">[int(11) unsigned]</text>
<polygon fill="none" stroke="#000000" points="548.5,-632.5 548.5,-662.5 837.5,-662.5 837.5,-632.5 548.5,-632.5"/>
<text text-anchor="start" x="555.5" y="-643.9" font-family="Arial" font-size="14.00" fill="#000000">payee    </text>
<text text-anchor="start" x="627.8352" y="-643.9" font-family="Arial" font-size="14.00" fill="#666666">[int(11) unsigned]</text>
<polygon fill="none" stroke="#000000" points="548.5,-602.5 548.5,-632.5 837.5,-632.5 837.5,-602.5 548.5,-602.5"/>
<text text-anchor="start" x="555.5" y="-613.9" font-family="Arial" font-size="14.00" fill="#000000">payment_method    </text>
<text text-anchor="start" x="697.8506" y="-613.9" font-family="Arial" font-size="14.00" fill="#666666">[int(11) unsigned]</text>
<polygon fill="none" stroke="#000000" points="548.5,-572.5 548.5,-602.5 837.5,-602.5 837.5,-572.5 548.5,-572.5"/>
<text text-anchor="start" x="555.2953" y="-583.9" font-family="Arial" font-size="14.00" fill="#000000">payee_bank_account    </text>
<text text-anchor="start" x="722.5645" y="-583.9" font-family="Arial" font-size="14.00" fill="#666666">[int(11) unsigned]</text>
<polygon fill="none" stroke="#000000" points="548.5,-542.5 548.5,-572.5 837.5,-572.5 837.5,-542.5 548.5,-542.5"/>
<text text-anchor="start" x="555.5" y="-553.9" font-family="Arial" font-size="14.00" fill="#000000">due    </text>
<text text-anchor="start" x="613.0526" y="-553.9" font-family="Arial" font-size="14.00" fill="#666666">[date]</text>
<polygon fill="none" stroke="#000000" points="548.5,-512.5 548.5,-542.5 837.5,-542.5 837.5,-512.5 548.5,-512.5"/>
<text text-anchor="start" x="555.5" y="-523.9" font-family="Arial" font-size="14.00" fill="#000000">pic    </text>
<text text-anchor="start" x="607.594" y="-523.9" font-family="Arial" font-size="14.00" fill="#666666">[int(11) unsigned]</text>
<polygon fill="none" stroke="#000000" points="548.5,-482.5 548.5,-512.5 837.5,-512.5 837.5,-482.5 548.5,-482.5"/>
<text text-anchor="start" x="555.5" y="-493.9" font-family="Arial" font-size="14.00" fill="#000000">classification    </text>
<text text-anchor="start" x="669.0428" y="-493.9" font-family="Arial" font-size="14.00" fill="#666666">[int(11) unsigned]</text>
</g>
<!-- invoice_process&#45;&gt;business_partner -->
<g id="edge2" class="edge">
<title>invoice_process:payee&#45;&gt;business_partner:id</title>
<path fill="none" stroke="#000000" d="M538.9344,-644.5772C506.0613,-622.1366 527.6938,-477.0687 548.5,-440 563.5352,-413.2129 592.4648,-430.7871 607.5,-404 628.4922,-366.5997 650.3889,-307.5 607.5,-307.5"/>
<polygon fill="#000000" stroke="#000000" points="538.9365,-644.5778 547.185,-651.8036 543.7182,-646.0389 548.5,-647.5 548.5,-647.5 548.5,-647.5 543.7182,-646.0389 549.815,-643.1964 538.9365,-644.5778 538.9365,-644.5778"/>
<text text-anchor="start" x="555.099" y="-657.5" font-family="Arial" font-size="10.00" fill="#000000">FOREIGN KEY (payee) REFERENCES business_partner (id)</text>
</g>
</g>
</svg>
