<?xml version="1.0" encoding="UTF-8" standalone="no"?>
<!DOCTYPE svg PUBLIC "-//W3C//DTD SVG 1.1//EN"
 "http://www.w3.org/Graphics/SVG/1.1/DTD/svg11.dtd">
<!-- Generated by graphviz version 2.40.1 (20161225.0304)
 -->
<!-- Title: business_partner_bank_account Pages: 1 -->
<svg width="821pt" height="1079pt"
 viewBox="0.00 0.00 820.50 1079.00" xmlns="http://www.w3.org/2000/svg" xmlns:xlink="http://www.w3.org/1999/xlink">
<g id="graph0" class="graph" transform="scale(1 1) rotate(0) translate(4 1075)">
<title>business_partner_bank_account</title>
<polygon fill="#ffffff" stroke="transparent" points="-4,4 -4,-1075 816.5,-1075 816.5,4 -4,4"/>
<!-- business_partner_bank_account -->
<g id="node1" class="node">
<title>business_partner_bank_account</title>
<polygon fill="#efefef" stroke="transparent" points="366,-502.5 366,-537.5 767,-537.5 767,-502.5 366,-502.5"/>
<polygon fill="none" stroke="#000000" points="366,-502.5 366,-537.5 767,-537.5 767,-502.5 366,-502.5"/>
<text text-anchor="start" x="372.6687" y="-515.3" font-family="Arial Bold" font-size="18.00" fill="#000000">business_partner_bank_account</text>
<text text-anchor="start" x="632.7633" y="-515.3" font-family="Arial" font-size="14.00" fill="#000000">    </text>
<text text-anchor="start" x="666.9681" y="-515.3" font-family="Arial" font-size="14.00" fill="#666666">[BASE TABLE]</text>
<polygon fill="none" stroke="#000000" points="366,-472.5 366,-502.5 767,-502.5 767,-472.5 366,-472.5"/>
<text text-anchor="start" x="373" y="-483.9" font-family="Arial" font-size="14.00" fill="#000000">id </text>
<text text-anchor="start" x="387.7798" y="-483.9" font-family="Arial" font-size="14.00" fill="#666666">[int(11) unsigned]</text>
<polygon fill="none" stroke="#000000" points="366,-442.5 366,-472.5 767,-472.5 767,-442.5 366,-442.5"/>
<text text-anchor="start" x="373" y="-453.9" font-family="Arial" font-size="14.00" fill="#000000">owner </text>
<text text-anchor="start" x="415.0056" y="-453.9" font-family="Arial" font-size="14.00" fill="#666666">[int(11) unsigned]</text>
<polygon fill="none" stroke="#000000" points="366,-412.5 366,-442.5 767,-442.5 767,-412.5 366,-412.5"/>
<text text-anchor="start" x="373" y="-423.9" font-family="Arial" font-size="14.00" fill="#000000">name </text>
<text text-anchor="start" x="411.899" y="-423.9" font-family="Arial" font-size="14.00" fill="#666666">[varchar(255)]</text>
<polygon fill="none" stroke="#000000" points="366,-382.5 366,-412.5 767,-412.5 767,-382.5 366,-382.5"/>
<text text-anchor="start" x="373" y="-393.9" font-family="Arial" font-size="14.00" fill="#000000">bank_code </text>
<text text-anchor="start" x="445.3688" y="-393.9" font-family="Arial" font-size="14.00" fill="#666666">[char(4)]</text>
<polygon fill="none" stroke="#000000" points="366,-352.5 366,-382.5 767,-382.5 767,-352.5 366,-352.5"/>
<text text-anchor="start" x="373" y="-363.9" font-family="Arial" font-size="14.00" fill="#000000">account_type </text>
<text text-anchor="start" x="460.15" y="-363.9" font-family="Arial" font-size="14.00" fill="#666666">[int(1)]</text>
<polygon fill="none" stroke="#000000" points="366,-322.5 366,-352.5 767,-352.5 767,-322.5 366,-322.5"/>
<text text-anchor="start" x="373" y="-333.9" font-family="Arial" font-size="14.00" fill="#000000">branch </text>
<text text-anchor="start" x="419.6816" y="-333.9" font-family="Arial" font-size="14.00" fill="#666666">[char(5)]</text>
<polygon fill="none" stroke="#000000" points="366,-292.5 366,-322.5 767,-322.5 767,-292.5 366,-292.5"/>
<text text-anchor="start" x="373" y="-303.9" font-family="Arial" font-size="14.00" fill="#000000">account_number </text>
<text text-anchor="start" x="481.1458" y="-303.9" font-family="Arial" font-size="14.00" fill="#666666">[char(8)]</text>
<polygon fill="none" stroke="#000000" stroke-width="3" points="364,-291.5 364,-539.5 768,-539.5 768,-291.5 364,-291.5"/>
</g>
<!-- business_partner -->
<g id="node3" class="node">
<title>business_partner</title>
<polygon fill="#efefef" stroke="transparent" points="427,-132.5 427,-167.5 706,-167.5 706,-132.5 427,-132.5"/>
<polygon fill="none" stroke="#000000" points="427,-132.5 427,-167.5 706,-167.5 706,-132.5 427,-132.5"/>
<text text-anchor="start" x="433.6977" y="-145.3" font-family="Arial Bold" font-size="18.00" fill="#000000">business_partner</text>
<text text-anchor="start" x="571.7343" y="-145.3" font-family="Arial" font-size="14.00" fill="#000000">    </text>
<text text-anchor="start" x="605.9391" y="-145.3" font-family="Arial" font-size="14.00" fill="#666666">[BASE TABLE]</text>
<polygon fill="none" stroke="#000000" points="427,-102.5 427,-132.5 706,-132.5 706,-102.5 427,-102.5"/>
<text text-anchor="start" x="434" y="-113.9" font-family="Arial" font-size="14.00" fill="#000000">id    </text>
<text text-anchor="start" x="479.094" y="-113.9" font-family="Arial" font-size="14.00" fill="#666666">[int(11) unsigned]</text>
<polygon fill="none" stroke="#000000" points="427,-72.5 427,-102.5 706,-102.5 706,-72.5 427,-72.5"/>
<text text-anchor="start" x="434" y="-83.9" font-family="Arial" font-size="14.00" fill="#000000">tenant    </text>
<text text-anchor="start" x="507.1164" y="-83.9" font-family="Arial" font-size="14.00" fill="#666666">[int(11) unsigned]</text>
<polygon fill="none" stroke="#000000" points="427,-42.5 427,-72.5 706,-72.5 706,-42.5 427,-42.5"/>
<text text-anchor="start" x="434" y="-53.9" font-family="Arial" font-size="14.00" fill="#000000">name    </text>
<text text-anchor="start" x="503.2132" y="-53.9" font-family="Arial" font-size="14.00" fill="#666666">[varchar(255)]</text>
</g>
<!-- business_partner_bank_account&#45;&gt;business_partner -->
<g id="edge2" class="edge">
<title>business_partner_bank_account:owner&#45;&gt;business_partner:id</title>
<path fill="none" stroke="#000000" d="M356.1009,-455.3288C294.9914,-426.3721 353.8363,-117.5 427,-117.5"/>
<polygon fill="#000000" stroke="#000000" points="356.2322,-455.3575 365.0359,-461.8955 361.1161,-456.4288 366,-457.5 366,-457.5 366,-457.5 361.1161,-456.4288 366.9641,-453.1045 356.2322,-455.3575 356.2322,-455.3575"/>
<text text-anchor="start" x="86.6045" y="-467.5" font-family="Arial" font-size="10.00" fill="#000000">FOREIGN KEY (owner) REFERENCES business_partner (id)</text>
</g>
<!-- invoice_process -->
<g id="node2" class="node">
<title>invoice_process</title>
<polygon fill="#efefef" stroke="transparent" points="422,-992.5 422,-1027.5 711,-1027.5 711,-992.5 422,-992.5"/>
<polygon fill="none" stroke="#000000" points="422,-992.5 422,-1027.5 711,-1027.5 711,-992.5 422,-992.5"/>
<text text-anchor="start" x="438.204" y="-1005.3" font-family="Arial Bold" font-size="18.00" fill="#000000">invoice_process</text>
<text text-anchor="start" x="567.228" y="-1005.3" font-family="Arial" font-size="14.00" fill="#000000">    </text>
<text text-anchor="start" x="601.4328" y="-1005.3" font-family="Arial" font-size="14.00" fill="#666666">[BASE TABLE]</text>
<polygon fill="none" stroke="#000000" points="422,-962.5 422,-992.5 711,-992.5 711,-962.5 422,-962.5"/>
<text text-anchor="start" x="429" y="-973.9" font-family="Arial" font-size="14.00" fill="#000000">id    </text>
<text text-anchor="start" x="474.094" y="-973.9" font-family="Arial" font-size="14.00" fill="#666666">[int(11) unsigned]</text>
<polygon fill="none" stroke="#000000" points="422,-932.5 422,-962.5 711,-962.5 711,-932.5 422,-932.5"/>
<text text-anchor="start" x="429" y="-943.9" font-family="Arial" font-size="14.00" fill="#000000">tenant    </text>
<text text-anchor="start" x="502.1164" y="-943.9" font-family="Arial" font-size="14.00" fill="#666666">[int(11) unsigned]</text>
<polygon fill="none" stroke="#000000" points="422,-902.5 422,-932.5 711,-932.5 711,-902.5 422,-902.5"/>
<text text-anchor="start" x="429" y="-913.9" font-family="Arial" font-size="14.00" fill="#000000">process_num    </text>
<text text-anchor="start" x="547.2216" y="-913.9" font-family="Arial" font-size="14.00" fill="#666666">[int(11) unsigned]</text>
<polygon fill="none" stroke="#000000" points="422,-872.5 422,-902.5 711,-902.5 711,-872.5 422,-872.5"/>
<text text-anchor="start" x="429" y="-883.9" font-family="Arial" font-size="14.00" fill="#000000">state    </text>
<text text-anchor="start" x="493.5512" y="-883.9" font-family="Arial" font-size="14.00" fill="#666666">[int(2)]</text>
<polygon fill="none" stroke="#000000" points="422,-842.5 422,-872.5 711,-872.5 711,-842.5 422,-842.5"/>
<text text-anchor="start" x="429" y="-853.9" font-family="Arial" font-size="14.00" fill="#000000">amount    </text>
<text text-anchor="start" x="509.8864" y="-853.9" font-family="Arial" font-size="14.00" fill="#666666">[int(11) unsigned]</text>
<polygon fill="none" stroke="#000000" points="422,-812.5 422,-842.5 711,-842.5 711,-812.5 422,-812.5"/>
<text text-anchor="start" x="429" y="-823.9" font-family="Arial" font-size="14.00" fill="#000000">payee    </text>
<text text-anchor="start" x="501.3352" y="-823.9" font-family="Arial" font-size="14.00" fill="#666666">[int(11) unsigned]</text>
<polygon fill="none" stroke="#000000" points="422,-782.5 422,-812.5 711,-812.5 711,-782.5 422,-782.5"/>
<text text-anchor="start" x="429" y="-793.9" font-family="Arial" font-size="14.00" fill="#000000">payment_method    </text>
<text text-anchor="start" x="571.3506" y="-793.9" font-family="Arial" font-size="14.00" fill="#666666">[int(11) unsigned]</text>
<polygon fill="none" stroke="#000000" points="422,-752.5 422,-782.5 711,-782.5 711,-752.5 422,-752.5"/>
<text text-anchor="start" x="428.7953" y="-763.9" font-family="Arial" font-size="14.00" fill="#000000">payee_bank_account    </text>
<text text-anchor="start" x="596.0645" y="-763.9" font-family="Arial" font-size="14.00" fill="#666666">[int(11) unsigned]</text>
<polygon fill="none" stroke="#000000" points="422,-722.5 422,-752.5 711,-752.5 711,-722.5 422,-722.5"/>
<text text-anchor="start" x="429" y="-733.9" font-family="Arial" font-size="14.00" fill="#000000">due    </text>
<text text-anchor="start" x="486.5526" y="-733.9" font-family="Arial" font-size="14.00" fill="#666666">[date]</text>
<polygon fill="none" stroke="#000000" points="422,-692.5 422,-722.5 711,-722.5 711,-692.5 422,-692.5"/>
<text text-anchor="start" x="429" y="-703.9" font-family="Arial" font-size="14.00" fill="#000000">pic    </text>
<text text-anchor="start" x="481.094" y="-703.9" font-family="Arial" font-size="14.00" fill="#666666">[int(11) unsigned]</text>
<polygon fill="none" stroke="#000000" points="422,-662.5 422,-692.5 711,-692.5 711,-662.5 422,-662.5"/>
<text text-anchor="start" x="429" y="-673.9" font-family="Arial" font-size="14.00" fill="#000000">classification    </text>
<text text-anchor="start" x="542.5428" y="-673.9" font-family="Arial" font-size="14.00" fill="#666666">[int(11) unsigned]</text>
</g>
<!-- invoice_process&#45;&gt;business_partner_bank_account -->
<g id="edge1" class="edge">
<title>invoice_process:payee_bank_account&#45;&gt;business_partner_bank_account:id</title>
<path fill="none" stroke="#000000" d="M411.7508,-766.8834C292.1653,-752.3969 242.5612,-487.5 366,-487.5"/>
<polygon fill="#000000" stroke="#000000" points="412.018,-766.8994 421.7297,-771.9919 417.009,-767.1997 422,-767.5 422,-767.5 422,-767.5 417.009,-767.1997 422.2703,-763.0081 412.018,-766.8994 412.018,-766.8994"/>
<text text-anchor="start" x="6.789" y="-777.5" font-family="Arial" font-size="10.00" fill="#000000">FOREIGN KEY (payee_bank_account) REFERENCES business_partner_bank_account (id)</text>
</g>
</g>
</svg>
