<?xml version="1.0" encoding="UTF-8" standalone="no"?>
<!DOCTYPE svg PUBLIC "-//W3C//DTD SVG 1.1//EN"
 "http://www.w3.org/Graphics/SVG/1.1/DTD/svg11.dtd">
<!-- Generated by graphviz version 2.40.1 (20161225.0304)
 -->
<!-- Title: classification_detail Pages: 1 -->
<svg width="1799pt" height="929pt"
 viewBox="0.00 0.00 1798.50 929.00" xmlns="http://www.w3.org/2000/svg" xmlns:xlink="http://www.w3.org/1999/xlink">
<g id="graph0" class="graph" transform="scale(1 1) rotate(0) translate(4 925)">
<title>classification_detail</title>
<polygon fill="#ffffff" stroke="transparent" points="-4,4 -4,-925 1794.5,-925 1794.5,4 -4,4"/>
<!-- classification_detail -->
<g id="node1" class="node">
<title>classification_detail</title>
<polygon fill="#efefef" stroke="transparent" points="785.5,-562.5 785.5,-597.5 1081.5,-597.5 1081.5,-562.5 785.5,-562.5"/>
<polygon fill="none" stroke="#000000" points="785.5,-562.5 785.5,-597.5 1081.5,-597.5 1081.5,-562.5 785.5,-562.5"/>
<text text-anchor="start" x="792.2053" y="-575.3" font-family="Arial Bold" font-size="18.00" fill="#000000">classification_detail</text>
<text text-anchor="start" x="947.2267" y="-575.3" font-family="Arial" font-size="14.00" fill="#000000">    </text>
<text text-anchor="start" x="981.4315" y="-575.3" font-family="Arial" font-size="14.00" fill="#666666">[BASE TABLE]</text>
<polygon fill="none" stroke="#000000" points="785.5,-532.5 785.5,-562.5 1081.5,-562.5 1081.5,-532.5 785.5,-532.5"/>
<text text-anchor="start" x="792.5" y="-543.9" font-family="Arial" font-size="14.00" fill="#000000">id </text>
<text text-anchor="start" x="807.2798" y="-543.9" font-family="Arial" font-size="14.00" fill="#666666">[int(11) unsigned]</text>
<polygon fill="none" stroke="#000000" points="785.5,-502.5 785.5,-532.5 1081.5,-532.5 1081.5,-502.5 785.5,-502.5"/>
<text text-anchor="start" x="792.5" y="-513.9" font-family="Arial" font-size="14.00" fill="#000000">parent </text>
<text text-anchor="start" x="836.0722" y="-513.9" font-family="Arial" font-size="14.00" fill="#666666">[int(11) unsigned]</text>
<polygon fill="none" stroke="#000000" points="785.5,-472.5 785.5,-502.5 1081.5,-502.5 1081.5,-472.5 785.5,-472.5"/>
<text text-anchor="start" x="792.5" y="-483.9" font-family="Arial" font-size="14.00" fill="#000000">date </text>
<text text-anchor="start" x="823.629" y="-483.9" font-family="Arial" font-size="14.00" fill="#666666">[date]</text>
<polygon fill="none" stroke="#000000" points="785.5,-442.5 785.5,-472.5 1081.5,-472.5 1081.5,-442.5 785.5,-442.5"/>
<text text-anchor="start" x="792.5" y="-453.9" font-family="Arial" font-size="14.00" fill="#000000">amount </text>
<text text-anchor="start" x="843.0722" y="-453.9" font-family="Arial" font-size="14.00" fill="#666666">[int(11)]</text>
<polygon fill="none" stroke="#000000" points="785.5,-412.5 785.5,-442.5 1081.5,-442.5 1081.5,-412.5 785.5,-412.5"/>
<text text-anchor="start" x="792.5" y="-423.9" font-family="Arial" font-size="14.00" fill="#000000">category </text>
<text text-anchor="start" x="850.0722" y="-423.9" font-family="Arial" font-size="14.00" fill="#666666">[int(11) unsigned]</text>
<polygon fill="none" stroke="#000000" points="785.5,-382.5 785.5,-412.5 1081.5,-412.5 1081.5,-382.5 785.5,-382.5"/>
<text text-anchor="start" x="792.5" y="-393.9" font-family="Arial" font-size="14.00" fill="#000000">subcategory </text>
<text text-anchor="start" x="872.6374" y="-393.9" font-family="Arial" font-size="14.00" fill="#666666">[int(11) unsigned]</text>
<polygon fill="none" stroke="#000000" points="785.5,-352.5 785.5,-382.5 1081.5,-382.5 1081.5,-352.5 785.5,-352.5"/>
<text text-anchor="start" x="792.5" y="-363.9" font-family="Arial" font-size="14.00" fill="#000000">cost_center </text>
<text text-anchor="start" x="868.7454" y="-363.9" font-family="Arial" font-size="14.00" fill="#666666">[int(11) unsigned]</text>
<polygon fill="none" stroke="#000000" points="785.5,-322.5 785.5,-352.5 1081.5,-352.5 1081.5,-322.5 785.5,-322.5"/>
<text text-anchor="start" x="792.5" y="-333.9" font-family="Arial" font-size="14.00" fill="#000000">tax_class </text>
<text text-anchor="start" x="854.7356" y="-333.9" font-family="Arial" font-size="14.00" fill="#666666">[int(11) unsigned]</text>
<polygon fill="none" stroke="#000000" stroke-width="3" points="784,-321.5 784,-599.5 1083,-599.5 1083,-321.5 784,-321.5"/>
</g>
<!-- classification -->
<g id="node3" class="node">
<title>classification</title>
<polygon fill="#efefef" stroke="transparent" points="43.5,-132.5 43.5,-167.5 286.5,-167.5 286.5,-132.5 43.5,-132.5"/>
<polygon fill="none" stroke="#000000" points="43.5,-132.5 43.5,-167.5 286.5,-167.5 286.5,-132.5 43.5,-132.5"/>
<text text-anchor="start" x="50.213" y="-145.3" font-family="Arial Bold" font-size="18.00" fill="#000000">classification</text>
<text text-anchor="start" x="152.219" y="-145.3" font-family="Arial" font-size="14.00" fill="#000000">    </text>
<text text-anchor="start" x="186.4238" y="-145.3" font-family="Arial" font-size="14.00" fill="#666666">[BASE TABLE]</text>
<polygon fill="none" stroke="#000000" points="43.5,-102.5 43.5,-132.5 286.5,-132.5 286.5,-102.5 43.5,-102.5"/>
<text text-anchor="start" x="50.5" y="-113.9" font-family="Arial" font-size="14.00" fill="#000000">id    </text>
<text text-anchor="start" x="95.594" y="-113.9" font-family="Arial" font-size="14.00" fill="#666666">[int(11) unsigned]</text>
<polygon fill="none" stroke="#000000" points="43.5,-72.5 43.5,-102.5 286.5,-102.5 286.5,-72.5 43.5,-72.5"/>
<text text-anchor="start" x="50.5" y="-83.9" font-family="Arial" font-size="14.00" fill="#000000">remarks    </text>
<text text-anchor="start" x="135.2518" y="-83.9" font-family="Arial" font-size="14.00" fill="#666666">[varchar(2000)]</text>
</g>
<!-- classification_detail&#45;&gt;classification -->
<g id="edge3" class="edge">
<title>classification_detail:parent&#45;&gt;classification:id</title>
<path fill="none" stroke="#000000" d="M775.3273,-517.4368C549.671,-514.6042 486.8588,-416.6323 337.5,-241 299.0288,-195.7614 345.8849,-117.5 286.5,-117.5"/>
<polygon fill="#000000" stroke="#000000" points="775.5002,-517.4378 785.472,-521.9999 780.5001,-517.4689 785.5,-517.5 785.5,-517.5 785.5,-517.5 780.5001,-517.4689 785.528,-513.0001 775.5002,-517.4378 775.5002,-517.4378"/>
<text text-anchor="start" x="525.5535" y="-527.5" font-family="Arial" font-size="10.00" fill="#000000">FOREIGN KEY (parent) REFERENCES classification (id)</text>
</g>
<!-- account_category -->
<g id="node4" class="node">
<title>account_category</title>
<polygon fill="#efefef" stroke="transparent" points="390.5,-162.5 390.5,-197.5 673.5,-197.5 673.5,-162.5 390.5,-162.5"/>
<polygon fill="none" stroke="#000000" points="390.5,-162.5 390.5,-197.5 673.5,-197.5 673.5,-162.5 390.5,-162.5"/>
<text text-anchor="start" x="397.1898" y="-175.3" font-family="Arial Bold" font-size="18.00" fill="#000000">account_category</text>
<text text-anchor="start" x="539.2422" y="-175.3" font-family="Arial" font-size="14.00" fill="#000000">    </text>
<text text-anchor="start" x="573.447" y="-175.3" font-family="Arial" font-size="14.00" fill="#666666">[BASE TABLE]</text>
<polygon fill="none" stroke="#000000" points="390.5,-132.5 390.5,-162.5 673.5,-162.5 673.5,-132.5 390.5,-132.5"/>
<text text-anchor="start" x="397.5" y="-143.9" font-family="Arial" font-size="14.00" fill="#000000">id    </text>
<text text-anchor="start" x="442.594" y="-143.9" font-family="Arial" font-size="14.00" fill="#666666">[int(11) unsigned]</text>
<polygon fill="none" stroke="#000000" points="390.5,-102.5 390.5,-132.5 673.5,-132.5 673.5,-102.5 390.5,-102.5"/>
<text text-anchor="start" x="397.5" y="-113.9" font-family="Arial" font-size="14.00" fill="#000000">tenant    </text>
<text text-anchor="start" x="470.6164" y="-113.9" font-family="Arial" font-size="14.00" fill="#666666">[int(11) unsigned]</text>
<polygon fill="none" stroke="#000000" points="390.5,-72.5 390.5,-102.5 673.5,-102.5 673.5,-72.5 390.5,-72.5"/>
<text text-anchor="start" x="397.5" y="-83.9" font-family="Arial" font-size="14.00" fill="#000000">name    </text>
<text text-anchor="start" x="466.7132" y="-83.9" font-family="Arial" font-size="14.00" fill="#666666">[varchar(255)]</text>
<polygon fill="none" stroke="#000000" points="390.5,-42.5 390.5,-72.5 673.5,-72.5 673.5,-42.5 390.5,-42.5"/>
<text text-anchor="start" x="397.5" y="-53.9" font-family="Arial" font-size="14.00" fill="#000000">dr_or_cr    </text>
<text text-anchor="start" x="483.817" y="-53.9" font-family="Arial" font-size="14.00" fill="#666666">[enum(&#39;debit&#39;,&#39;credit&#39;)]</text>
</g>
<!-- classification_detail&#45;&gt;account_category -->
<g id="edge4" class="edge">
<title>classification_detail:category&#45;&gt;account_category:id</title>
<path fill="none" stroke="#000000" d="M775.6147,-425.2462C720.5605,-398.7474 736.9814,-147.5 673.5,-147.5"/>
<polygon fill="#000000" stroke="#000000" points="775.7502,-425.277 784.4996,-431.8874 780.6251,-426.3885 785.5,-427.5 785.5,-427.5 785.5,-427.5 780.6251,-426.3885 786.5004,-423.1126 775.7502,-425.277 775.7502,-425.277"/>
<text text-anchor="start" x="492.4295" y="-437.5" font-family="Arial" font-size="10.00" fill="#000000">FOREIGN KEY (category) REFERENCES account_category (id)</text>
</g>
<!-- account_subcategory -->
<g id="node5" class="node">
<title>account_subcategory</title>
<polygon fill="#efefef" stroke="transparent" points="777.5,-147.5 777.5,-182.5 1089.5,-182.5 1089.5,-147.5 777.5,-147.5"/>
<polygon fill="none" stroke="#000000" points="777.5,-147.5 777.5,-182.5 1089.5,-182.5 1089.5,-147.5 777.5,-147.5"/>
<text text-anchor="start" x="784.1836" y="-160.3" font-family="Arial Bold" font-size="18.00" fill="#000000">account_subcategory</text>
<text text-anchor="start" x="955.2484" y="-160.3" font-family="Arial" font-size="14.00" fill="#000000">    </text>
<text text-anchor="start" x="989.4532" y="-160.3" font-family="Arial" font-size="14.00" fill="#666666">[BASE TABLE]</text>
<polygon fill="none" stroke="#000000" points="777.5,-117.5 777.5,-147.5 1089.5,-147.5 1089.5,-117.5 777.5,-117.5"/>
<text text-anchor="start" x="784.5" y="-128.9" font-family="Arial" font-size="14.00" fill="#000000">id    </text>
<text text-anchor="start" x="829.594" y="-128.9" font-family="Arial" font-size="14.00" fill="#666666">[int(11) unsigned]</text>
<polygon fill="none" stroke="#000000" points="777.5,-87.5 777.5,-117.5 1089.5,-117.5 1089.5,-87.5 777.5,-87.5"/>
<text text-anchor="start" x="784.5" y="-98.9" font-family="Arial" font-size="14.00" fill="#000000">name    </text>
<text text-anchor="start" x="853.7132" y="-98.9" font-family="Arial" font-size="14.00" fill="#666666">[varchar(255)]</text>
<polygon fill="none" stroke="#000000" points="777.5,-57.5 777.5,-87.5 1089.5,-87.5 1089.5,-57.5 777.5,-57.5"/>
<text text-anchor="start" x="784.5" y="-68.9" font-family="Arial" font-size="14.00" fill="#000000">category    </text>
<text text-anchor="start" x="872.3864" y="-68.9" font-family="Arial" font-size="14.00" fill="#666666">[int(11) unsigned]</text>
</g>
<!-- classification_detail&#45;&gt;account_subcategory -->
<g id="edge5" class="edge">
<title>classification_detail:subcategory&#45;&gt;account_subcategory:id</title>
<path fill="none" stroke="#000000" d="M1091.3286,-394.8772C1141.1235,-367.3551 1144.9636,-132.5 1089.5,-132.5"/>
<polygon fill="#000000" stroke="#000000" points="1091.1619,-394.9216 1080.3397,-393.1521 1086.331,-396.2108 1081.5,-397.5 1081.5,-397.5 1081.5,-397.5 1086.331,-396.2108 1082.6603,-401.8479 1091.1619,-394.9216 1091.1619,-394.9216"/>
<text text-anchor="start" x="1088.3115" y="-407.5" font-family="Arial" font-size="10.00" fill="#000000">FOREIGN KEY (subcategory) REFERENCES account_subcategory (id)</text>
</g>
<!-- cost_center -->
<g id="node6" class="node">
<title>cost_center</title>
<polygon fill="#efefef" stroke="transparent" points="1193.5,-147.5 1193.5,-182.5 1427.5,-182.5 1427.5,-147.5 1193.5,-147.5"/>
<polygon fill="none" stroke="#000000" points="1193.5,-147.5 1193.5,-182.5 1427.5,-182.5 1427.5,-147.5 1193.5,-147.5"/>
<text text-anchor="start" x="1200.2022" y="-160.3" font-family="Arial Bold" font-size="18.00" fill="#000000">cost_center</text>
<text text-anchor="start" x="1293.2298" y="-160.3" font-family="Arial" font-size="14.00" fill="#000000">    </text>
<text text-anchor="start" x="1327.4346" y="-160.3" font-family="Arial" font-size="14.00" fill="#666666">[BASE TABLE]</text>
<polygon fill="none" stroke="#000000" points="1193.5,-117.5 1193.5,-147.5 1427.5,-147.5 1427.5,-117.5 1193.5,-117.5"/>
<text text-anchor="start" x="1200.5" y="-128.9" font-family="Arial" font-size="14.00" fill="#000000">id    </text>
<text text-anchor="start" x="1245.594" y="-128.9" font-family="Arial" font-size="14.00" fill="#666666">[int(11) unsigned]</text>
<polygon fill="none" stroke="#000000" points="1193.5,-87.5 1193.5,-117.5 1427.5,-117.5 1427.5,-87.5 1193.5,-87.5"/>
<text text-anchor="start" x="1200.5" y="-98.9" font-family="Arial" font-size="14.00" fill="#000000">tenant    </text>
<text text-anchor="start" x="1273.6164" y="-98.9" font-family="Arial" font-size="14.00" fill="#666666">[int(11) unsigned]</text>
<polygon fill="none" stroke="#000000" points="1193.5,-57.5 1193.5,-87.5 1427.5,-87.5 1427.5,-57.5 1193.5,-57.5"/>
<text text-anchor="start" x="1200.5" y="-68.9" font-family="Arial" font-size="14.00" fill="#000000">name    </text>
<text text-anchor="start" x="1269.7132" y="-68.9" font-family="Arial" font-size="14.00" fill="#666666">[varchar(255)]</text>
</g>
<!-- classification_detail&#45;&gt;cost_center -->
<g id="edge6" class="edge">
<title>classification_detail:cost_center&#45;&gt;cost_center:id</title>
<path fill="none" stroke="#000000" d="M1087.1715,-359.1362C1109.6707,-317.2735 1187.0879,-132.5 1193.5,-132.5"/>
<polygon fill="#000000" stroke="#000000" points="1087.1124,-359.2234 1077.7755,-364.9744 1084.3062,-363.3617 1081.5,-367.5 1081.5,-367.5 1081.5,-367.5 1084.3062,-363.3617 1085.2245,-370.0256 1087.1124,-359.2234 1087.1124,-359.2234"/>
<text text-anchor="start" x="1088.3785" y="-377.5" font-family="Arial" font-size="10.00" fill="#000000">FOREIGN KEY (cost_center) REFERENCES cost_center (id)</text>
</g>
<!-- tax_class -->
<g id="node7" class="node">
<title>tax_class</title>
<polygon fill="#efefef" stroke="transparent" points="1531.5,-132.5 1531.5,-167.5 1747.5,-167.5 1747.5,-132.5 1531.5,-132.5"/>
<polygon fill="none" stroke="#000000" points="1531.5,-132.5 1531.5,-167.5 1747.5,-167.5 1747.5,-132.5 1531.5,-132.5"/>
<text text-anchor="start" x="1538.2085" y="-145.3" font-family="Arial Bold" font-size="18.00" fill="#000000">tax_class</text>
<text text-anchor="start" x="1613.2235" y="-145.3" font-family="Arial" font-size="14.00" fill="#000000">    </text>
<text text-anchor="start" x="1647.4283" y="-145.3" font-family="Arial" font-size="14.00" fill="#666666">[BASE TABLE]</text>
<polygon fill="none" stroke="#000000" points="1531.5,-102.5 1531.5,-132.5 1747.5,-132.5 1747.5,-102.5 1531.5,-102.5"/>
<text text-anchor="start" x="1538.5" y="-113.9" font-family="Arial" font-size="14.00" fill="#000000">id    </text>
<text text-anchor="start" x="1583.594" y="-113.9" font-family="Arial" font-size="14.00" fill="#666666">[int(11) unsigned]</text>
<polygon fill="none" stroke="#000000" points="1531.5,-72.5 1531.5,-102.5 1747.5,-102.5 1747.5,-72.5 1531.5,-72.5"/>
<text text-anchor="start" x="1538.5" y="-83.9" font-family="Arial" font-size="14.00" fill="#000000">name    </text>
<text text-anchor="start" x="1607.7132" y="-83.9" font-family="Arial" font-size="14.00" fill="#666666">[varchar(255)]</text>
</g>
<!-- classification_detail&#45;&gt;tax_class -->
<g id="edge7" class="edge">
<title>classification_detail:tax_class&#45;&gt;tax_class:id</title>
<path fill="none" stroke="#000000" d="M1091.6286,-337.3616C1189.0112,-334.8354 1412.6289,-297.9072 1479.5,-241 1524.8557,-202.4024 1471.944,-117.5 1531.5,-117.5"/>
<polygon fill="#000000" stroke="#000000" points="1091.4991,-337.3633 1081.4385,-333.0004 1086.4995,-337.4316 1081.5,-337.5 1081.5,-337.5 1081.5,-337.5 1086.4995,-337.4316 1081.5615,-341.9996 1091.4991,-337.3633 1091.4991,-337.3633"/>
<text text-anchor="start" x="1088.3855" y="-347.5" font-family="Arial" font-size="10.00" fill="#000000">FOREIGN KEY (tax_class) REFERENCES tax_class (id)</text>
</g>
<!-- classification_detail_pair -->
<g id="node2" class="node">
<title>classification_detail_pair</title>
<polygon fill="#efefef" stroke="transparent" points="765.5,-842.5 765.5,-877.5 1101.5,-877.5 1101.5,-842.5 765.5,-842.5"/>
<polygon fill="none" stroke="#000000" points="765.5,-842.5 765.5,-877.5 1101.5,-877.5 1101.5,-842.5 765.5,-842.5"/>
<text text-anchor="start" x="772.2028" y="-855.3" font-family="Arial Bold" font-size="18.00" fill="#000000">classification_detail_pair</text>
<text text-anchor="start" x="967.2292" y="-855.3" font-family="Arial" font-size="14.00" fill="#000000">    </text>
<text text-anchor="start" x="1001.434" y="-855.3" font-family="Arial" font-size="14.00" fill="#666666">[BASE TABLE]</text>
<polygon fill="none" stroke="#000000" points="765.5,-812.5 765.5,-842.5 1101.5,-842.5 1101.5,-812.5 765.5,-812.5"/>
<text text-anchor="start" x="772.5" y="-823.9" font-family="Arial" font-size="14.00" fill="#000000">id    </text>
<text text-anchor="start" x="817.594" y="-823.9" font-family="Arial" font-size="14.00" fill="#666666">[int(11) unsigned]</text>
<polygon fill="none" stroke="#000000" points="765.5,-782.5 765.5,-812.5 1101.5,-812.5 1101.5,-782.5 765.5,-782.5"/>
<text text-anchor="start" x="772.5" y="-793.9" font-family="Arial" font-size="14.00" fill="#000000">debit_detail    </text>
<text text-anchor="start" x="878.284" y="-793.9" font-family="Arial" font-size="14.00" fill="#666666">[int(11) unsigned]</text>
<polygon fill="none" stroke="#000000" points="765.5,-752.5 765.5,-782.5 1101.5,-782.5 1101.5,-752.5 765.5,-752.5"/>
<text text-anchor="start" x="772.5" y="-763.9" font-family="Arial" font-size="14.00" fill="#000000">credit_detail    </text>
<text text-anchor="start" x="882.162" y="-763.9" font-family="Arial" font-size="14.00" fill="#666666">[int(11) unsigned]</text>
<polygon fill="none" stroke="#000000" points="765.5,-722.5 765.5,-752.5 1101.5,-752.5 1101.5,-722.5 765.5,-722.5"/>
<text text-anchor="start" x="772.5" y="-733.9" font-family="Arial" font-size="14.00" fill="#000000">remarks    </text>
<text text-anchor="start" x="857.2518" y="-733.9" font-family="Arial" font-size="14.00" fill="#666666">[varchar(2000)]</text>
</g>
<!-- classification_detail_pair&#45;&gt;classification_detail -->
<g id="edge1" class="edge">
<title>classification_detail_pair:debit_detail&#45;&gt;classification_detail:id</title>
<path fill="none" stroke="#000000" d="M1111.566,-796.7828C1211.6268,-782.1191 1189.4828,-547.5 1081.5,-547.5"/>
<polygon fill="#000000" stroke="#000000" points="1111.4747,-796.7892 1101.1802,-793.0114 1106.4874,-797.1446 1101.5,-797.5 1101.5,-797.5 1101.5,-797.5 1106.4874,-797.1446 1101.8198,-801.9886 1111.4747,-796.7892 1111.4747,-796.7892"/>
<text text-anchor="start" x="1108.435" y="-807.5" font-family="Arial" font-size="10.00" fill="#000000">FOREIGN KEY (debit_detail) REFERENCES classification_detail (id)</text>
</g>
<!-- classification_detail_pair&#45;&gt;classification_detail -->
<g id="edge2" class="edge">
<title>classification_detail_pair:credit_detail&#45;&gt;classification_detail:id</title>
<path fill="none" stroke="#000000" d="M1111.6817,-766.6591C1198.1336,-751.8888 1176.1334,-547.5 1081.5,-547.5"/>
<polygon fill="#000000" stroke="#000000" points="1111.4661,-766.6768 1101.1296,-763.0153 1106.483,-767.0884 1101.5,-767.5 1101.5,-767.5 1101.5,-767.5 1106.483,-767.0884 1101.8704,-771.9847 1111.4661,-766.6768 1111.4661,-766.6768"/>
<text text-anchor="start" x="1108.05" y="-777.5" font-family="Arial" font-size="10.00" fill="#000000">FOREIGN KEY (credit_detail) REFERENCES classification_detail (id)</text>
</g>
</g>
</svg>
