<?xml version="1.0" encoding="UTF-8" standalone="no"?>
<!DOCTYPE svg PUBLIC "-//W3C//DTD SVG 1.1//EN"
 "http://www.w3.org/Graphics/SVG/1.1/DTD/svg11.dtd">
<!-- Generated by graphviz version 2.40.1 (20161225.0304)
 -->
<!-- Title: classification Pages: 1 -->
<svg width="784pt" height="682pt"
 viewBox="0.00 0.00 783.50 682.00" xmlns="http://www.w3.org/2000/svg" xmlns:xlink="http://www.w3.org/1999/xlink">
<g id="graph0" class="graph" transform="scale(1 1) rotate(0) translate(4 678)">
<title>classification</title>
<polygon fill="#ffffff" stroke="transparent" points="-4,4 -4,-678 779.5,-678 779.5,4 -4,4"/>
<!-- classification -->
<g id="node1" class="node">
<title>classification</title>
<polygon fill="#efefef" stroke="transparent" points="268,-105.5 268,-140.5 511,-140.5 511,-105.5 268,-105.5"/>
<polygon fill="none" stroke="#000000" points="268,-105.5 268,-140.5 511,-140.5 511,-105.5 268,-105.5"/>
<text text-anchor="start" x="274.713" y="-118.3" font-family="Arial Bold" font-size="18.00" fill="#000000">classification</text>
<text text-anchor="start" x="376.719" y="-118.3" font-family="Arial" font-size="14.00" fill="#000000">    </text>
<text text-anchor="start" x="410.9238" y="-118.3" font-family="Arial" font-size="14.00" fill="#666666">[BASE TABLE]</text>
<polygon fill="none" stroke="#000000" points="268,-75.5 268,-105.5 511,-105.5 511,-75.5 268,-75.5"/>
<text text-anchor="start" x="275" y="-86.9" font-family="Arial" font-size="14.00" fill="#000000">id </text>
<text text-anchor="start" x="289.7798" y="-86.9" font-family="Arial" font-size="14.00" fill="#666666">[int(11) unsigned]</text>
<polygon fill="none" stroke="#000000" points="268,-45.5 268,-75.5 511,-75.5 511,-45.5 268,-45.5"/>
<text text-anchor="start" x="275" y="-56.9" font-family="Arial" font-size="14.00" fill="#000000">remarks </text>
<text text-anchor="start" x="329.4376" y="-56.9" font-family="Arial" font-size="14.00" fill="#666666">[varchar(2000)]</text>
<polygon fill="none" stroke="#000000" stroke-width="3" points="266,-44.5 266,-142.5 512,-142.5 512,-44.5 266,-44.5"/>
</g>
<!-- classification_detail -->
<g id="node2" class="node">
<title>classification_detail</title>
<polygon fill="#efefef" stroke="transparent" points="43,-550.5 43,-585.5 339,-585.5 339,-550.5 43,-550.5"/>
<polygon fill="none" stroke="#000000" points="43,-550.5 43,-585.5 339,-585.5 339,-550.5 43,-550.5"/>
<text text-anchor="start" x="49.7053" y="-563.3" font-family="Arial Bold" font-size="18.00" fill="#000000">classification_detail</text>
<text text-anchor="start" x="204.7267" y="-563.3" font-family="Arial" font-size="14.00" fill="#000000">    </text>
<text text-anchor="start" x="238.9315" y="-563.3" font-family="Arial" font-size="14.00" fill="#666666">[BASE TABLE]</text>
<polygon fill="none" stroke="#000000" points="43,-520.5 43,-550.5 339,-550.5 339,-520.5 43,-520.5"/>
<text text-anchor="start" x="50" y="-531.9" font-family="Arial" font-size="14.00" fill="#000000">id    </text>
<text text-anchor="start" x="95.094" y="-531.9" font-family="Arial" font-size="14.00" fill="#666666">[int(11) unsigned]</text>
<polygon fill="none" stroke="#000000" points="43,-490.5 43,-520.5 339,-520.5 339,-490.5 43,-490.5"/>
<text text-anchor="start" x="50" y="-501.9" font-family="Arial" font-size="14.00" fill="#000000">parent    </text>
<text text-anchor="start" x="123.8864" y="-501.9" font-family="Arial" font-size="14.00" fill="#666666">[int(11) unsigned]</text>
<polygon fill="none" stroke="#000000" points="43,-460.5 43,-490.5 339,-490.5 339,-460.5 43,-460.5"/>
<text text-anchor="start" x="50" y="-471.9" font-family="Arial" font-size="14.00" fill="#000000">date    </text>
<text text-anchor="start" x="111.4432" y="-471.9" font-family="Arial" font-size="14.00" fill="#666666">[date]</text>
<polygon fill="none" stroke="#000000" points="43,-430.5 43,-460.5 339,-460.5 339,-430.5 43,-430.5"/>
<text text-anchor="start" x="50" y="-441.9" font-family="Arial" font-size="14.00" fill="#000000">amount    </text>
<text text-anchor="start" x="130.8864" y="-441.9" font-family="Arial" font-size="14.00" fill="#666666">[int(11)]</text>
<polygon fill="none" stroke="#000000" points="43,-400.5 43,-430.5 339,-430.5 339,-400.5 43,-400.5"/>
<text text-anchor="start" x="50" y="-411.9" font-family="Arial" font-size="14.00" fill="#000000">category    </text>
<text text-anchor="start" x="137.8864" y="-411.9" font-family="Arial" font-size="14.00" fill="#666666">[int(11) unsigned]</text>
<polygon fill="none" stroke="#000000" points="43,-370.5 43,-400.5 339,-400.5 339,-370.5 43,-370.5"/>
<text text-anchor="start" x="50" y="-381.9" font-family="Arial" font-size="14.00" fill="#000000">subcategory    </text>
<text text-anchor="start" x="160.4516" y="-381.9" font-family="Arial" font-size="14.00" fill="#666666">[int(11) unsigned]</text>
<polygon fill="none" stroke="#000000" points="43,-340.5 43,-370.5 339,-370.5 339,-340.5 43,-340.5"/>
<text text-anchor="start" x="50" y="-351.9" font-family="Arial" font-size="14.00" fill="#000000">cost_center    </text>
<text text-anchor="start" x="156.5596" y="-351.9" font-family="Arial" font-size="14.00" fill="#666666">[int(11) unsigned]</text>
<polygon fill="none" stroke="#000000" points="43,-310.5 43,-340.5 339,-340.5 339,-310.5 43,-310.5"/>
<text text-anchor="start" x="50" y="-321.9" font-family="Arial" font-size="14.00" fill="#000000">tax_class    </text>
<text text-anchor="start" x="142.5498" y="-321.9" font-family="Arial" font-size="14.00" fill="#666666">[int(11) unsigned]</text>
</g>
<!-- classification_detail&#45;&gt;classification -->
<g id="edge1" class="edge">
<title>classification_detail:parent&#45;&gt;classification:id</title>
<path fill="none" stroke="#000000" d="M348.8786,-502.8238C387.0466,-479.7338 356.2782,-313.9241 339,-268 322.1425,-223.194 284.8575,-231.806 268,-187 252.8973,-146.8582 225.1111,-90.5 268,-90.5"/>
<polygon fill="#000000" stroke="#000000" points="348.6521,-502.885 337.8233,-501.1566 343.826,-504.1925 339,-505.5 339,-505.5 339,-505.5 343.826,-504.1925 340.1767,-509.8434 348.6521,-502.885 348.6521,-502.885"/>
<text text-anchor="start" x="346.0535" y="-515.5" font-family="Arial" font-size="10.00" fill="#000000">FOREIGN KEY (parent) REFERENCES classification (id)</text>
</g>
<!-- invoice_process -->
<g id="node3" class="node">
<title>invoice_process</title>
<polygon fill="#efefef" stroke="transparent" points="444,-595.5 444,-630.5 733,-630.5 733,-595.5 444,-595.5"/>
<polygon fill="none" stroke="#000000" points="444,-595.5 444,-630.5 733,-630.5 733,-595.5 444,-595.5"/>
<text text-anchor="start" x="460.204" y="-608.3" font-family="Arial Bold" font-size="18.00" fill="#000000">invoice_process</text>
<text text-anchor="start" x="589.228" y="-608.3" font-family="Arial" font-size="14.00" fill="#000000">    </text>
<text text-anchor="start" x="623.4328" y="-608.3" font-family="Arial" font-size="14.00" fill="#666666">[BASE TABLE]</text>
<polygon fill="none" stroke="#000000" points="444,-565.5 444,-595.5 733,-595.5 733,-565.5 444,-565.5"/>
<text text-anchor="start" x="451" y="-576.9" font-family="Arial" font-size="14.00" fill="#000000">id    </text>
<text text-anchor="start" x="496.094" y="-576.9" font-family="Arial" font-size="14.00" fill="#666666">[int(11) unsigned]</text>
<polygon fill="none" stroke="#000000" points="444,-535.5 444,-565.5 733,-565.5 733,-535.5 444,-535.5"/>
<text text-anchor="start" x="451" y="-546.9" font-family="Arial" font-size="14.00" fill="#000000">tenant    </text>
<text text-anchor="start" x="524.1164" y="-546.9" font-family="Arial" font-size="14.00" fill="#666666">[int(11) unsigned]</text>
<polygon fill="none" stroke="#000000" points="444,-505.5 444,-535.5 733,-535.5 733,-505.5 444,-505.5"/>
<text text-anchor="start" x="451" y="-516.9" font-family="Arial" font-size="14.00" fill="#000000">process_num    </text>
<text text-anchor="start" x="569.2216" y="-516.9" font-family="Arial" font-size="14.00" fill="#666666">[int(11) unsigned]</text>
<polygon fill="none" stroke="#000000" points="444,-475.5 444,-505.5 733,-505.5 733,-475.5 444,-475.5"/>
<text text-anchor="start" x="451" y="-486.9" font-family="Arial" font-size="14.00" fill="#000000">state    </text>
<text text-anchor="start" x="515.5512" y="-486.9" font-family="Arial" font-size="14.00" fill="#666666">[int(2)]</text>
<polygon fill="none" stroke="#000000" points="444,-445.5 444,-475.5 733,-475.5 733,-445.5 444,-445.5"/>
<text text-anchor="start" x="451" y="-456.9" font-family="Arial" font-size="14.00" fill="#000000">amount    </text>
<text text-anchor="start" x="531.8864" y="-456.9" font-family="Arial" font-size="14.00" fill="#666666">[int(11) unsigned]</text>
<polygon fill="none" stroke="#000000" points="444,-415.5 444,-445.5 733,-445.5 733,-415.5 444,-415.5"/>
<text text-anchor="start" x="451" y="-426.9" font-family="Arial" font-size="14.00" fill="#000000">payee    </text>
<text text-anchor="start" x="523.3352" y="-426.9" font-family="Arial" font-size="14.00" fill="#666666">[int(11) unsigned]</text>
<polygon fill="none" stroke="#000000" points="444,-385.5 444,-415.5 733,-415.5 733,-385.5 444,-385.5"/>
<text text-anchor="start" x="451" y="-396.9" font-family="Arial" font-size="14.00" fill="#000000">payment_method    </text>
<text text-anchor="start" x="593.3506" y="-396.9" font-family="Arial" font-size="14.00" fill="#666666">[int(11) unsigned]</text>
<polygon fill="none" stroke="#000000" points="444,-355.5 444,-385.5 733,-385.5 733,-355.5 444,-355.5"/>
<text text-anchor="start" x="450.7953" y="-366.9" font-family="Arial" font-size="14.00" fill="#000000">payee_bank_account    </text>
<text text-anchor="start" x="618.0645" y="-366.9" font-family="Arial" font-size="14.00" fill="#666666">[int(11) unsigned]</text>
<polygon fill="none" stroke="#000000" points="444,-325.5 444,-355.5 733,-355.5 733,-325.5 444,-325.5"/>
<text text-anchor="start" x="451" y="-336.9" font-family="Arial" font-size="14.00" fill="#000000">due    </text>
<text text-anchor="start" x="508.5526" y="-336.9" font-family="Arial" font-size="14.00" fill="#666666">[date]</text>
<polygon fill="none" stroke="#000000" points="444,-295.5 444,-325.5 733,-325.5 733,-295.5 444,-295.5"/>
<text text-anchor="start" x="451" y="-306.9" font-family="Arial" font-size="14.00" fill="#000000">pic    </text>
<text text-anchor="start" x="503.094" y="-306.9" font-family="Arial" font-size="14.00" fill="#666666">[int(11) unsigned]</text>
<polygon fill="none" stroke="#000000" points="444,-265.5 444,-295.5 733,-295.5 733,-265.5 444,-265.5"/>
<text text-anchor="start" x="451" y="-276.9" font-family="Arial" font-size="14.00" fill="#000000">classification    </text>
<text text-anchor="start" x="564.5428" y="-276.9" font-family="Arial" font-size="14.00" fill="#666666">[int(11) unsigned]</text>
</g>
<!-- invoice_process&#45;&gt;classification -->
<g id="edge2" class="edge">
<title>invoice_process:classification&#45;&gt;classification:id</title>
<path fill="none" stroke="#000000" d="M434.3253,-277.8453C422.5448,-269.1968 433.0373,-241.3355 444,-223 461.3472,-193.9864 493.6528,-216.0136 511,-187 533.0092,-150.189 553.8889,-90.5 511,-90.5"/>
<polygon fill="#000000" stroke="#000000" points="434.3564,-277.8538 442.8092,-284.8396 439.1782,-279.1769 444,-280.5 444,-280.5 444,-280.5 439.1782,-279.1769 445.1908,-276.1604 434.3564,-277.8538 434.3564,-277.8538"/>
<text text-anchor="start" x="154.8905" y="-264.5" font-family="Arial" font-size="10.00" fill="#000000">FOREIGN KEY (classification) REFERENCES classification (id)</text>
</g>
</g>
</svg>
