<?xml version="1.0" encoding="UTF-8" standalone="no"?>
<!DOCTYPE svg PUBLIC "-//W3C//DTD SVG 1.1//EN"
 "http://www.w3.org/Graphics/SVG/1.1/DTD/svg11.dtd">
<!-- Generated by graphviz version 2.40.1 (20161225.0304)
 -->
<!-- Title: classification_detail_pair Pages: 1 -->
<svg width="712pt" height="652pt"
 viewBox="0.00 0.00 712.00 652.00" xmlns="http://www.w3.org/2000/svg" xmlns:xlink="http://www.w3.org/1999/xlink">
<g id="graph0" class="graph" transform="scale(1 1) rotate(0) translate(4 648)">
<title>classification_detail_pair</title>
<polygon fill="#ffffff" stroke="transparent" points="-4,4 -4,-648 708,-648 708,4 -4,4"/>
<!-- classification_detail_pair -->
<g id="node1" class="node">
<title>classification_detail_pair</title>
<polygon fill="#efefef" stroke="transparent" points="46,-562.5 46,-597.5 382,-597.5 382,-562.5 46,-562.5"/>
<polygon fill="none" stroke="#000000" points="46,-562.5 46,-597.5 382,-597.5 382,-562.5 46,-562.5"/>
<text text-anchor="start" x="52.7028" y="-575.3" font-family="Arial Bold" font-size="18.00" fill="#000000">classification_detail_pair</text>
<text text-anchor="start" x="247.7292" y="-575.3" font-family="Arial" font-size="14.00" fill="#000000">    </text>
<text text-anchor="start" x="281.934" y="-575.3" font-family="Arial" font-size="14.00" fill="#666666">[BASE TABLE]</text>
<polygon fill="none" stroke="#000000" points="46,-532.5 46,-562.5 382,-562.5 382,-532.5 46,-532.5"/>
<text text-anchor="start" x="53" y="-543.9" font-family="Arial" font-size="14.00" fill="#000000">id </text>
<text text-anchor="start" x="67.7798" y="-543.9" font-family="Arial" font-size="14.00" fill="#666666">[int(11) unsigned]</text>
<polygon fill="none" stroke="#000000" points="46,-502.5 46,-532.5 382,-532.5 382,-502.5 46,-502.5"/>
<text text-anchor="start" x="53" y="-513.9" font-family="Arial" font-size="14.00" fill="#000000">debit_detail </text>
<text text-anchor="start" x="128.4698" y="-513.9" font-family="Arial" font-size="14.00" fill="#666666">[int(11) unsigned]</text>
<polygon fill="none" stroke="#000000" points="46,-472.5 46,-502.5 382,-502.5 382,-472.5 46,-472.5"/>
<text text-anchor="start" x="53" y="-483.9" font-family="Arial" font-size="14.00" fill="#000000">credit_detail </text>
<text text-anchor="start" x="132.3478" y="-483.9" font-family="Arial" font-size="14.00" fill="#666666">[int(11) unsigned]</text>
<polygon fill="none" stroke="#000000" points="46,-442.5 46,-472.5 382,-472.5 382,-442.5 46,-442.5"/>
<text text-anchor="start" x="53" y="-453.9" font-family="Arial" font-size="14.00" fill="#000000">remarks </text>
<text text-anchor="start" x="107.4376" y="-453.9" font-family="Arial" font-size="14.00" fill="#666666">[varchar(2000)]</text>
<polygon fill="none" stroke="#000000" stroke-width="3" points="44.5,-441.5 44.5,-599.5 383.5,-599.5 383.5,-441.5 44.5,-441.5"/>
</g>
<!-- classification_detail -->
<g id="node2" class="node">
<title>classification_detail</title>
<polygon fill="#efefef" stroke="transparent" points="66,-282.5 66,-317.5 362,-317.5 362,-282.5 66,-282.5"/>
<polygon fill="none" stroke="#000000" points="66,-282.5 66,-317.5 362,-317.5 362,-282.5 66,-282.5"/>
<text text-anchor="start" x="72.7053" y="-295.3" font-family="Arial Bold" font-size="18.00" fill="#000000">classification_detail</text>
<text text-anchor="start" x="227.7267" y="-295.3" font-family="Arial" font-size="14.00" fill="#000000">    </text>
<text text-anchor="start" x="261.9315" y="-295.3" font-family="Arial" font-size="14.00" fill="#666666">[BASE TABLE]</text>
<polygon fill="none" stroke="#000000" points="66,-252.5 66,-282.5 362,-282.5 362,-252.5 66,-252.5"/>
<text text-anchor="start" x="73" y="-263.9" font-family="Arial" font-size="14.00" fill="#000000">id    </text>
<text text-anchor="start" x="118.094" y="-263.9" font-family="Arial" font-size="14.00" fill="#666666">[int(11) unsigned]</text>
<polygon fill="none" stroke="#000000" points="66,-222.5 66,-252.5 362,-252.5 362,-222.5 66,-222.5"/>
<text text-anchor="start" x="73" y="-233.9" font-family="Arial" font-size="14.00" fill="#000000">parent    </text>
<text text-anchor="start" x="146.8864" y="-233.9" font-family="Arial" font-size="14.00" fill="#666666">[int(11) unsigned]</text>
<polygon fill="none" stroke="#000000" points="66,-192.5 66,-222.5 362,-222.5 362,-192.5 66,-192.5"/>
<text text-anchor="start" x="73" y="-203.9" font-family="Arial" font-size="14.00" fill="#000000">date    </text>
<text text-anchor="start" x="134.4432" y="-203.9" font-family="Arial" font-size="14.00" fill="#666666">[date]</text>
<polygon fill="none" stroke="#000000" points="66,-162.5 66,-192.5 362,-192.5 362,-162.5 66,-162.5"/>
<text text-anchor="start" x="73" y="-173.9" font-family="Arial" font-size="14.00" fill="#000000">amount    </text>
<text text-anchor="start" x="153.8864" y="-173.9" font-family="Arial" font-size="14.00" fill="#666666">[int(11)]</text>
<polygon fill="none" stroke="#000000" points="66,-132.5 66,-162.5 362,-162.5 362,-132.5 66,-132.5"/>
<text text-anchor="start" x="73" y="-143.9" font-family="Arial" font-size="14.00" fill="#000000">category    </text>
<text text-anchor="start" x="160.8864" y="-143.9" font-family="Arial" font-size="14.00" fill="#666666">[int(11) unsigned]</text>
<polygon fill="none" stroke="#000000" points="66,-102.5 66,-132.5 362,-132.5 362,-102.5 66,-102.5"/>
<text text-anchor="start" x="73" y="-113.9" font-family="Arial" font-size="14.00" fill="#000000">subcategory    </text>
<text text-anchor="start" x="183.4516" y="-113.9" font-family="Arial" font-size="14.00" fill="#666666">[int(11) unsigned]</text>
<polygon fill="none" stroke="#000000" points="66,-72.5 66,-102.5 362,-102.5 362,-72.5 66,-72.5"/>
<text text-anchor="start" x="73" y="-83.9" font-family="Arial" font-size="14.00" fill="#000000">cost_center    </text>
<text text-anchor="start" x="179.5596" y="-83.9" font-family="Arial" font-size="14.00" fill="#666666">[int(11) unsigned]</text>
<polygon fill="none" stroke="#000000" points="66,-42.5 66,-72.5 362,-72.5 362,-42.5 66,-42.5"/>
<text text-anchor="start" x="73" y="-53.9" font-family="Arial" font-size="14.00" fill="#000000">tax_class    </text>
<text text-anchor="start" x="165.5498" y="-53.9" font-family="Arial" font-size="14.00" fill="#666666">[int(11) unsigned]</text>
</g>
<!-- classification_detail_pair&#45;&gt;classification_detail -->
<g id="edge1" class="edge">
<title>classification_detail_pair:debit_detail&#45;&gt;classification_detail:id</title>
<path fill="none" stroke="#000000" d="M392.066,-516.7828C492.1268,-502.1191 469.9828,-267.5 362,-267.5"/>
<polygon fill="#000000" stroke="#000000" points="391.9747,-516.7892 381.6802,-513.0114 386.9874,-517.1446 382,-517.5 382,-517.5 382,-517.5 386.9874,-517.1446 382.3198,-521.9886 391.9747,-516.7892 391.9747,-516.7892"/>
<text text-anchor="start" x="388.935" y="-527.5" font-family="Arial" font-size="10.00" fill="#000000">FOREIGN KEY (debit_detail) REFERENCES classification_detail (id)</text>
</g>
<!-- classification_detail_pair&#45;&gt;classification_detail -->
<g id="edge2" class="edge">
<title>classification_detail_pair:credit_detail&#45;&gt;classification_detail:id</title>
<path fill="none" stroke="#000000" d="M392.1817,-486.6591C478.6336,-471.8888 456.6334,-267.5 362,-267.5"/>
<polygon fill="#000000" stroke="#000000" points="391.9661,-486.6768 381.6296,-483.0153 386.983,-487.0884 382,-487.5 382,-487.5 382,-487.5 386.983,-487.0884 382.3704,-491.9847 391.9661,-486.6768 391.9661,-486.6768"/>
<text text-anchor="start" x="388.55" y="-497.5" font-family="Arial" font-size="10.00" fill="#000000">FOREIGN KEY (credit_detail) REFERENCES classification_detail (id)</text>
</g>
</g>
</svg>
