<?xml version="1.0" encoding="UTF-8" standalone="no"?>
<!DOCTYPE svg PUBLIC "-//W3C//DTD SVG 1.1//EN"
 "http://www.w3.org/Graphics/SVG/1.1/DTD/svg11.dtd">
<!-- Generated by graphviz version 2.40.1 (20161225.0304)
 -->
<!-- Title: classification Pages: 1 -->
<svg width="986pt" height="712pt"
 viewBox="0.00 0.00 986.00 712.00" xmlns="http://www.w3.org/2000/svg" xmlns:xlink="http://www.w3.org/1999/xlink">
<g id="graph0" class="graph" transform="scale(1 1) rotate(0) translate(4 708)">
<title>classification</title>
<polygon fill="#ffffff" stroke="transparent" points="-4,4 -4,-708 982,-708 982,4 -4,4"/>
<!-- classification -->
<g id="node1" class="node">
<title>classification</title>
<polygon fill="#efefef" stroke="transparent" points="318,-105.5 318,-140.5 561,-140.5 561,-105.5 318,-105.5"/>
<polygon fill="none" stroke="#000000" points="318,-105.5 318,-140.5 561,-140.5 561,-105.5 318,-105.5"/>
<text text-anchor="start" x="324.713" y="-118.3" font-family="Arial Bold" font-size="18.00" fill="#000000">classification</text>
<text text-anchor="start" x="426.719" y="-118.3" font-family="Arial" font-size="14.00" fill="#000000">    </text>
<text text-anchor="start" x="460.9238" y="-118.3" font-family="Arial" font-size="14.00" fill="#666666">[BASE TABLE]</text>
<polygon fill="none" stroke="#000000" points="318,-75.5 318,-105.5 561,-105.5 561,-75.5 318,-75.5"/>
<text text-anchor="start" x="325" y="-86.9" font-family="Arial" font-size="14.00" fill="#000000">id </text>
<text text-anchor="start" x="339.7798" y="-86.9" font-family="Arial" font-size="14.00" fill="#666666">[int(11) unsigned]</text>
<polygon fill="none" stroke="#000000" points="318,-45.5 318,-75.5 561,-75.5 561,-45.5 318,-45.5"/>
<text text-anchor="start" x="325" y="-56.9" font-family="Arial" font-size="14.00" fill="#000000">remarks </text>
<text text-anchor="start" x="379.4376" y="-56.9" font-family="Arial" font-size="14.00" fill="#666666">[varchar(2000)]</text>
<polygon fill="none" stroke="#000000" stroke-width="3" points="316,-44.5 316,-142.5 562,-142.5 562,-44.5 316,-44.5"/>
</g>
<!-- classification_detail -->
<g id="node2" class="node">
<title>classification_detail</title>
<polygon fill="#efefef" stroke="transparent" points="43,-565.5 43,-600.5 339,-600.5 339,-565.5 43,-565.5"/>
<polygon fill="none" stroke="#000000" points="43,-565.5 43,-600.5 339,-600.5 339,-565.5 43,-565.5"/>
<text text-anchor="start" x="49.7053" y="-578.3" font-family="Arial Bold" font-size="18.00" fill="#000000">classification_detail</text>
<text text-anchor="start" x="204.7267" y="-578.3" font-family="Arial" font-size="14.00" fill="#000000">    </text>
<text text-anchor="start" x="238.9315" y="-578.3" font-family="Arial" font-size="14.00" fill="#666666">[BASE TABLE]</text>
<polygon fill="none" stroke="#000000" points="43,-535.5 43,-565.5 339,-565.5 339,-535.5 43,-535.5"/>
<text text-anchor="start" x="50" y="-546.9" font-family="Arial" font-size="14.00" fill="#000000">id    </text>
<text text-anchor="start" x="95.094" y="-546.9" font-family="Arial" font-size="14.00" fill="#666666">[int(11) unsigned]</text>
<polygon fill="none" stroke="#000000" points="43,-505.5 43,-535.5 339,-535.5 339,-505.5 43,-505.5"/>
<text text-anchor="start" x="50" y="-516.9" font-family="Arial" font-size="14.00" fill="#000000">parent    </text>
<text text-anchor="start" x="123.8864" y="-516.9" font-family="Arial" font-size="14.00" fill="#666666">[int(11) unsigned]</text>
<polygon fill="none" stroke="#000000" points="43,-475.5 43,-505.5 339,-505.5 339,-475.5 43,-475.5"/>
<text text-anchor="start" x="50" y="-486.9" font-family="Arial" font-size="14.00" fill="#000000">date    </text>
<text text-anchor="start" x="111.4432" y="-486.9" font-family="Arial" font-size="14.00" fill="#666666">[date]</text>
<polygon fill="none" stroke="#000000" points="43,-445.5 43,-475.5 339,-475.5 339,-445.5 43,-445.5"/>
<text text-anchor="start" x="50" y="-456.9" font-family="Arial" font-size="14.00" fill="#000000">amount    </text>
<text text-anchor="start" x="130.8864" y="-456.9" font-family="Arial" font-size="14.00" fill="#666666">[int(11)]</text>
<polygon fill="none" stroke="#000000" points="43,-415.5 43,-445.5 339,-445.5 339,-415.5 43,-415.5"/>
<text text-anchor="start" x="50" y="-426.9" font-family="Arial" font-size="14.00" fill="#000000">category    </text>
<text text-anchor="start" x="137.8864" y="-426.9" font-family="Arial" font-size="14.00" fill="#666666">[int(11) unsigned]</text>
<polygon fill="none" stroke="#000000" points="43,-385.5 43,-415.5 339,-415.5 339,-385.5 43,-385.5"/>
<text text-anchor="start" x="50" y="-396.9" font-family="Arial" font-size="14.00" fill="#000000">subcategory    </text>
<text text-anchor="start" x="160.4516" y="-396.9" font-family="Arial" font-size="14.00" fill="#666666">[int(11) unsigned]</text>
<polygon fill="none" stroke="#000000" points="43,-355.5 43,-385.5 339,-385.5 339,-355.5 43,-355.5"/>
<text text-anchor="start" x="50" y="-366.9" font-family="Arial" font-size="14.00" fill="#000000">cost_center    </text>
<text text-anchor="start" x="156.5596" y="-366.9" font-family="Arial" font-size="14.00" fill="#666666">[int(11) unsigned]</text>
<polygon fill="none" stroke="#000000" points="43,-325.5 43,-355.5 339,-355.5 339,-325.5 43,-325.5"/>
<text text-anchor="start" x="50" y="-336.9" font-family="Arial" font-size="14.00" fill="#000000">tax_class    </text>
<text text-anchor="start" x="142.5498" y="-336.9" font-family="Arial" font-size="14.00" fill="#666666">[int(11) unsigned]</text>
</g>
<!-- classification_detail&#45;&gt;classification -->
<g id="edge1" class="edge">
<title>classification_detail:parent&#45;&gt;classification:id</title>
<path fill="none" stroke="#000000" d="M349.1347,-520.0418C438.2121,-511.4708 349.9564,-384.3572 339,-283 334.3061,-239.5774 322.6939,-230.4226 318,-187 313.3907,-144.3595 275.1111,-90.5 318,-90.5"/>
<polygon fill="#000000" stroke="#000000" points="348.9898,-520.0483 338.7967,-516.0046 343.9949,-520.2741 339,-520.5 339,-520.5 339,-520.5 343.9949,-520.2741 339.2033,-524.9954 348.9898,-520.0483 348.9898,-520.0483"/>
<text text-anchor="start" x="346.0535" y="-530.5" font-family="Arial" font-size="10.00" fill="#000000">FOREIGN KEY (parent) REFERENCES classification (id)</text>
</g>
<!-- invoice_process -->
<g id="node3" class="node">
<title>invoice_process</title>
<polygon fill="#efefef" stroke="transparent" points="443,-625.5 443,-660.5 935,-660.5 935,-625.5 443,-625.5"/>
<polygon fill="none" stroke="#000000" points="443,-625.5 443,-660.5 935,-660.5 935,-625.5 443,-625.5"/>
<text text-anchor="start" x="560.704" y="-638.3" font-family="Arial Bold" font-size="18.00" fill="#000000">invoice_process</text>
<text text-anchor="start" x="689.728" y="-638.3" font-family="Arial" font-size="14.00" fill="#000000">    </text>
<text text-anchor="start" x="723.9328" y="-638.3" font-family="Arial" font-size="14.00" fill="#666666">[BASE TABLE]</text>
<polygon fill="none" stroke="#000000" points="443,-595.5 443,-625.5 935,-625.5 935,-595.5 443,-595.5"/>
<text text-anchor="start" x="450" y="-606.9" font-family="Arial" font-size="14.00" fill="#000000">id    </text>
<text text-anchor="start" x="495.094" y="-606.9" font-family="Arial" font-size="14.00" fill="#666666">[int(11) unsigned]</text>
<polygon fill="none" stroke="#000000" points="443,-565.5 443,-595.5 935,-595.5 935,-565.5 443,-565.5"/>
<text text-anchor="start" x="450" y="-576.9" font-family="Arial" font-size="14.00" fill="#000000">tenant    </text>
<text text-anchor="start" x="523.1164" y="-576.9" font-family="Arial" font-size="14.00" fill="#666666">[int(11) unsigned]</text>
<polygon fill="none" stroke="#000000" points="443,-535.5 443,-565.5 935,-565.5 935,-535.5 443,-535.5"/>
<text text-anchor="start" x="450" y="-546.9" font-family="Arial" font-size="14.00" fill="#000000">process_id    </text>
<text text-anchor="start" x="551.885" y="-546.9" font-family="Arial" font-size="14.00" fill="#666666">[int(11) unsigned]</text>
<polygon fill="none" stroke="#000000" points="443,-505.5 443,-535.5 935,-535.5 935,-505.5 443,-505.5"/>
<text text-anchor="start" x="450" y="-516.9" font-family="Arial" font-size="14.00" fill="#000000">state    </text>
<text text-anchor="start" x="514.5512" y="-516.9" font-family="Arial" font-size="14.00" fill="#666666">[int(2)]</text>
<polygon fill="none" stroke="#000000" points="443,-475.5 443,-505.5 935,-505.5 935,-475.5 443,-475.5"/>
<text text-anchor="start" x="450" y="-486.9" font-family="Arial" font-size="14.00" fill="#000000">amount    </text>
<text text-anchor="start" x="530.8864" y="-486.9" font-family="Arial" font-size="14.00" fill="#666666">[int(11) unsigned]</text>
<polygon fill="none" stroke="#000000" points="443,-445.5 443,-475.5 935,-475.5 935,-445.5 443,-445.5"/>
<text text-anchor="start" x="450" y="-456.9" font-family="Arial" font-size="14.00" fill="#000000">payee    </text>
<text text-anchor="start" x="522.3352" y="-456.9" font-family="Arial" font-size="14.00" fill="#666666">[int(11) unsigned]</text>
<polygon fill="none" stroke="#000000" points="443,-415.5 443,-445.5 935,-445.5 935,-415.5 443,-415.5"/>
<text text-anchor="start" x="449.8464" y="-426.9" font-family="Arial" font-size="14.00" fill="#000000">payment_method_type    </text>
<text text-anchor="start" x="626.4354" y="-426.9" font-family="Arial" font-size="14.00" fill="#666666">[enum(&#39;bank_transfer&#39;,&#39;direct_debit&#39;,&#39;credit card&#39;)]</text>
<polygon fill="none" stroke="#000000" points="443,-385.5 443,-415.5 935,-415.5 935,-385.5 443,-385.5"/>
<text text-anchor="start" x="450" y="-396.9" font-family="Arial" font-size="14.00" fill="#000000">payment_method_id    </text>
<text text-anchor="start" x="611.0224" y="-396.9" font-family="Arial" font-size="14.00" fill="#666666">[int(11) unsigned]</text>
<polygon fill="none" stroke="#000000" points="443,-355.5 443,-385.5 935,-385.5 935,-355.5 443,-355.5"/>
<text text-anchor="start" x="450" y="-366.9" font-family="Arial" font-size="14.00" fill="#000000">payee_bank_account    </text>
<text text-anchor="start" x="617.2692" y="-366.9" font-family="Arial" font-size="14.00" fill="#666666">[int(11) unsigned]</text>
<polygon fill="none" stroke="#000000" points="443,-325.5 443,-355.5 935,-355.5 935,-325.5 443,-325.5"/>
<text text-anchor="start" x="450" y="-336.9" font-family="Arial" font-size="14.00" fill="#000000">due    </text>
<text text-anchor="start" x="507.5526" y="-336.9" font-family="Arial" font-size="14.00" fill="#666666">[date]</text>
<polygon fill="none" stroke="#000000" points="443,-295.5 443,-325.5 935,-325.5 935,-295.5 443,-295.5"/>
<text text-anchor="start" x="450" y="-306.9" font-family="Arial" font-size="14.00" fill="#000000">pic    </text>
<text text-anchor="start" x="502.094" y="-306.9" font-family="Arial" font-size="14.00" fill="#666666">[int(11) unsigned]</text>
<polygon fill="none" stroke="#000000" points="443,-265.5 443,-295.5 935,-295.5 935,-265.5 443,-265.5"/>
<text text-anchor="start" x="450" y="-276.9" font-family="Arial" font-size="14.00" fill="#000000">classification    </text>
<text text-anchor="start" x="563.5428" y="-276.9" font-family="Arial" font-size="14.00" fill="#666666">[int(11) unsigned]</text>
</g>
<!-- invoice_process&#45;&gt;classification -->
<g id="edge2" class="edge">
<title>invoice_process:classification&#45;&gt;classification:id</title>
<path fill="none" stroke="#000000" d="M433.184,-277.7511C420.9708,-268.8141 430.2878,-240.1689 443,-223 475.6276,-178.9335 528.3724,-231.0665 561,-187 586.5215,-152.531 603.8889,-90.5 561,-90.5"/>
<polygon fill="#000000" stroke="#000000" points="433.3705,-277.8033 441.7865,-284.8333 438.1852,-279.1516 443,-280.5 443,-280.5 443,-280.5 438.1852,-279.1516 444.2135,-276.1667 433.3705,-277.8033 433.3705,-277.8033"/>
<text text-anchor="start" x="153.8905" y="-264.5" font-family="Arial" font-size="10.00" fill="#000000">FOREIGN KEY (classification) REFERENCES classification (id)</text>
</g>
</g>
</svg>
