<?xml version="1.0" encoding="UTF-8" standalone="no"?>
<!DOCTYPE svg PUBLIC "-//W3C//DTD SVG 1.1//EN"
 "http://www.w3.org/Graphics/SVG/1.1/DTD/svg11.dtd">
<!-- Generated by graphviz version 2.40.1 (20161225.0304)
 -->
<!-- Title: cost_center Pages: 1 -->
<svg width="797pt" height="809pt"
 viewBox="0.00 0.00 797.00 809.00" xmlns="http://www.w3.org/2000/svg" xmlns:xlink="http://www.w3.org/1999/xlink">
<g id="graph0" class="graph" transform="scale(1 1) rotate(0) translate(4 805)">
<title>cost_center</title>
<polygon fill="#ffffff" stroke="transparent" points="-4,4 -4,-805 793,-805 793,4 -4,4"/>
<!-- cost_center -->
<g id="node1" class="node">
<title>cost_center</title>
<polygon fill="#efefef" stroke="transparent" points="238,-322.5 238,-357.5 472,-357.5 472,-322.5 238,-322.5"/>
<polygon fill="none" stroke="#000000" points="238,-322.5 238,-357.5 472,-357.5 472,-322.5 238,-322.5"/>
<text text-anchor="start" x="244.7022" y="-335.3" font-family="Arial Bold" font-size="18.00" fill="#000000">cost_center</text>
<text text-anchor="start" x="337.7298" y="-335.3" font-family="Arial" font-size="14.00" fill="#000000">    </text>
<text text-anchor="start" x="371.9346" y="-335.3" font-family="Arial" font-size="14.00" fill="#666666">[BASE TABLE]</text>
<polygon fill="none" stroke="#000000" points="238,-292.5 238,-322.5 472,-322.5 472,-292.5 238,-292.5"/>
<text text-anchor="start" x="245" y="-303.9" font-family="Arial" font-size="14.00" fill="#000000">id </text>
<text text-anchor="start" x="259.7798" y="-303.9" font-family="Arial" font-size="14.00" fill="#666666">[int(11) unsigned]</text>
<polygon fill="none" stroke="#000000" points="238,-262.5 238,-292.5 472,-292.5 472,-262.5 238,-262.5"/>
<text text-anchor="start" x="245" y="-273.9" font-family="Arial" font-size="14.00" fill="#000000">tenant </text>
<text text-anchor="start" x="287.8022" y="-273.9" font-family="Arial" font-size="14.00" fill="#666666">[int(11) unsigned]</text>
<polygon fill="none" stroke="#000000" points="238,-232.5 238,-262.5 472,-262.5 472,-232.5 238,-232.5"/>
<text text-anchor="start" x="245" y="-243.9" font-family="Arial" font-size="14.00" fill="#000000">name </text>
<text text-anchor="start" x="283.899" y="-243.9" font-family="Arial" font-size="14.00" fill="#666666">[varchar(255)]</text>
<polygon fill="none" stroke="#000000" stroke-width="3" points="236.5,-231.5 236.5,-359.5 473.5,-359.5 473.5,-231.5 236.5,-231.5"/>
</g>
<!-- tenant -->
<g id="node3" class="node">
<title>tenant</title>
<polygon fill="#efefef" stroke="transparent" points="259,-72.5 259,-107.5 450,-107.5 450,-72.5 259,-72.5"/>
<polygon fill="none" stroke="#000000" points="259,-72.5 259,-107.5 450,-107.5 450,-72.5 259,-72.5"/>
<text text-anchor="start" x="265.7014" y="-85.3" font-family="Arial Bold" font-size="18.00" fill="#000000">tenant</text>
<text text-anchor="start" x="315.7306" y="-85.3" font-family="Arial" font-size="14.00" fill="#000000">    </text>
<text text-anchor="start" x="349.9354" y="-85.3" font-family="Arial" font-size="14.00" fill="#666666">[BASE TABLE]</text>
<polygon fill="none" stroke="#000000" points="259,-42.5 259,-72.5 450,-72.5 450,-42.5 259,-42.5"/>
<text text-anchor="start" x="266" y="-53.9" font-family="Arial" font-size="14.00" fill="#000000">id    </text>
<text text-anchor="start" x="311.094" y="-53.9" font-family="Arial" font-size="14.00" fill="#666666">[int(11) unsigned]</text>
</g>
<!-- cost_center&#45;&gt;tenant -->
<g id="edge2" class="edge">
<title>cost_center:tenant&#45;&gt;tenant:id</title>
<path fill="none" stroke="#000000" d="M228.0789,-275.9886C200.4843,-266.4868 214.0981,-214.5209 238,-187 312.9077,-100.7506 417.5923,-237.2494 492.5,-151 675.2184,59.3836 355,-36.6632 355,-42.5"/>
<polygon fill="#000000" stroke="#000000" points="228.1141,-275.9938 237.3222,-281.9487 233.057,-276.7469 238,-277.5 238,-277.5 238,-277.5 233.057,-276.7469 238.6778,-273.0513 228.1141,-275.9938 228.1141,-275.9938"/>
<text text-anchor="start" x="6.7665" y="-287.5" font-family="Arial" font-size="10.00" fill="#000000">FOREIGN KEY (tenant) REFERENCES tenant (id)</text>
</g>
<!-- classification_detail -->
<g id="node2" class="node">
<title>classification_detail</title>
<polygon fill="#efefef" stroke="transparent" points="207,-722.5 207,-757.5 503,-757.5 503,-722.5 207,-722.5"/>
<polygon fill="none" stroke="#000000" points="207,-722.5 207,-757.5 503,-757.5 503,-722.5 207,-722.5"/>
<text text-anchor="start" x="213.7053" y="-735.3" font-family="Arial Bold" font-size="18.00" fill="#000000">classification_detail</text>
<text text-anchor="start" x="368.7267" y="-735.3" font-family="Arial" font-size="14.00" fill="#000000">    </text>
<text text-anchor="start" x="402.9315" y="-735.3" font-family="Arial" font-size="14.00" fill="#666666">[BASE TABLE]</text>
<polygon fill="none" stroke="#000000" points="207,-692.5 207,-722.5 503,-722.5 503,-692.5 207,-692.5"/>
<text text-anchor="start" x="214" y="-703.9" font-family="Arial" font-size="14.00" fill="#000000">id    </text>
<text text-anchor="start" x="259.094" y="-703.9" font-family="Arial" font-size="14.00" fill="#666666">[int(11) unsigned]</text>
<polygon fill="none" stroke="#000000" points="207,-662.5 207,-692.5 503,-692.5 503,-662.5 207,-662.5"/>
<text text-anchor="start" x="214" y="-673.9" font-family="Arial" font-size="14.00" fill="#000000">parent    </text>
<text text-anchor="start" x="287.8864" y="-673.9" font-family="Arial" font-size="14.00" fill="#666666">[int(11) unsigned]</text>
<polygon fill="none" stroke="#000000" points="207,-632.5 207,-662.5 503,-662.5 503,-632.5 207,-632.5"/>
<text text-anchor="start" x="214" y="-643.9" font-family="Arial" font-size="14.00" fill="#000000">date    </text>
<text text-anchor="start" x="275.4432" y="-643.9" font-family="Arial" font-size="14.00" fill="#666666">[date]</text>
<polygon fill="none" stroke="#000000" points="207,-602.5 207,-632.5 503,-632.5 503,-602.5 207,-602.5"/>
<text text-anchor="start" x="214" y="-613.9" font-family="Arial" font-size="14.00" fill="#000000">amount    </text>
<text text-anchor="start" x="294.8864" y="-613.9" font-family="Arial" font-size="14.00" fill="#666666">[int(11)]</text>
<polygon fill="none" stroke="#000000" points="207,-572.5 207,-602.5 503,-602.5 503,-572.5 207,-572.5"/>
<text text-anchor="start" x="214" y="-583.9" font-family="Arial" font-size="14.00" fill="#000000">category    </text>
<text text-anchor="start" x="301.8864" y="-583.9" font-family="Arial" font-size="14.00" fill="#666666">[int(11) unsigned]</text>
<polygon fill="none" stroke="#000000" points="207,-542.5 207,-572.5 503,-572.5 503,-542.5 207,-542.5"/>
<text text-anchor="start" x="214" y="-553.9" font-family="Arial" font-size="14.00" fill="#000000">subcategory    </text>
<text text-anchor="start" x="324.4516" y="-553.9" font-family="Arial" font-size="14.00" fill="#666666">[int(11) unsigned]</text>
<polygon fill="none" stroke="#000000" points="207,-512.5 207,-542.5 503,-542.5 503,-512.5 207,-512.5"/>
<text text-anchor="start" x="214" y="-523.9" font-family="Arial" font-size="14.00" fill="#000000">cost_center    </text>
<text text-anchor="start" x="320.5596" y="-523.9" font-family="Arial" font-size="14.00" fill="#666666">[int(11) unsigned]</text>
<polygon fill="none" stroke="#000000" points="207,-482.5 207,-512.5 503,-512.5 503,-482.5 207,-482.5"/>
<text text-anchor="start" x="214" y="-493.9" font-family="Arial" font-size="14.00" fill="#000000">tax_class    </text>
<text text-anchor="start" x="306.5498" y="-493.9" font-family="Arial" font-size="14.00" fill="#666666">[int(11) unsigned]</text>
</g>
<!-- classification_detail&#45;&gt;cost_center -->
<g id="edge1" class="edge">
<title>classification_detail:cost_center&#45;&gt;cost_center:id</title>
<path fill="none" stroke="#000000" d="M513.1984,-526.6591C599.415,-511.8888 567.1758,-307.5 472,-307.5"/>
<polygon fill="#000000" stroke="#000000" points="512.9662,-526.6781 502.6302,-523.0152 507.9831,-527.0891 503,-527.5 503,-527.5 503,-527.5 507.9831,-527.0891 503.3698,-531.9848 512.9662,-526.6781 512.9662,-526.6781"/>
<text text-anchor="start" x="509.8785" y="-537.5" font-family="Arial" font-size="10.00" fill="#000000">FOREIGN KEY (cost_center) REFERENCES cost_center (id)</text>
</g>
</g>
</svg>
