<?xml version="1.0" encoding="UTF-8" standalone="no"?>
<!DOCTYPE svg PUBLIC "-//W3C//DTD SVG 1.1//EN"
 "http://www.w3.org/Graphics/SVG/1.1/DTD/svg11.dtd">
<!-- Generated by graphviz version 2.40.1 (20161225.0304)
 -->
<!-- Title: invoice_process Pages: 1 -->
<svg width="2416pt" height="1139pt"
 viewBox="0.00 0.00 2416.00 1139.00" xmlns="http://www.w3.org/2000/svg" xmlns:xlink="http://www.w3.org/1999/xlink">
<g id="graph0" class="graph" transform="scale(1 1) rotate(0) translate(4 1135)">
<title>invoice_process</title>
<polygon fill="#ffffff" stroke="transparent" points="-4,4 -4,-1135 2412,-1135 2412,4 -4,4"/>
<!-- invoice_process -->
<g id="node1" class="node">
<title>invoice_process</title>
<polygon fill="#efefef" stroke="transparent" points="1108.5,-742.5 1108.5,-777.5 1378.5,-777.5 1378.5,-742.5 1108.5,-742.5"/>
<polygon fill="none" stroke="#000000" points="1108.5,-742.5 1108.5,-777.5 1378.5,-777.5 1378.5,-742.5 1108.5,-742.5"/>
<text text-anchor="start" x="1115.204" y="-755.3" font-family="Arial Bold" font-size="18.00" fill="#000000">invoice_process</text>
<text text-anchor="start" x="1244.228" y="-755.3" font-family="Arial" font-size="14.00" fill="#000000">    </text>
<text text-anchor="start" x="1278.4328" y="-755.3" font-family="Arial" font-size="14.00" fill="#666666">[BASE TABLE]</text>
<polygon fill="none" stroke="#000000" points="1108.5,-712.5 1108.5,-742.5 1378.5,-742.5 1378.5,-712.5 1108.5,-712.5"/>
<text text-anchor="start" x="1115.5" y="-723.9" font-family="Arial" font-size="14.00" fill="#000000">id </text>
<text text-anchor="start" x="1130.2798" y="-723.9" font-family="Arial" font-size="14.00" fill="#666666">[int(11) unsigned]</text>
<polygon fill="none" stroke="#000000" points="1108.5,-682.5 1108.5,-712.5 1378.5,-712.5 1378.5,-682.5 1108.5,-682.5"/>
<text text-anchor="start" x="1115.5" y="-693.9" font-family="Arial" font-size="14.00" fill="#000000">tenant </text>
<text text-anchor="start" x="1158.3022" y="-693.9" font-family="Arial" font-size="14.00" fill="#666666">[int(11) unsigned]</text>
<polygon fill="none" stroke="#000000" points="1108.5,-652.5 1108.5,-682.5 1378.5,-682.5 1378.5,-652.5 1108.5,-652.5"/>
<text text-anchor="start" x="1115.5" y="-663.9" font-family="Arial" font-size="14.00" fill="#000000">process_num </text>
<text text-anchor="start" x="1203.4074" y="-663.9" font-family="Arial" font-size="14.00" fill="#666666">[int(11) unsigned]</text>
<polygon fill="none" stroke="#000000" points="1108.5,-622.5 1108.5,-652.5 1378.5,-652.5 1378.5,-622.5 1108.5,-622.5"/>
<text text-anchor="start" x="1115.5" y="-633.9" font-family="Arial" font-size="14.00" fill="#000000">state </text>
<text text-anchor="start" x="1149.737" y="-633.9" font-family="Arial" font-size="14.00" fill="#666666">[int(2)]</text>
<polygon fill="none" stroke="#000000" points="1108.5,-592.5 1108.5,-622.5 1378.5,-622.5 1378.5,-592.5 1108.5,-592.5"/>
<text text-anchor="start" x="1115.5" y="-603.9" font-family="Arial" font-size="14.00" fill="#000000">amount </text>
<text text-anchor="start" x="1166.0722" y="-603.9" font-family="Arial" font-size="14.00" fill="#666666">[int(11) unsigned]</text>
<polygon fill="none" stroke="#000000" points="1108.5,-562.5 1108.5,-592.5 1378.5,-592.5 1378.5,-562.5 1108.5,-562.5"/>
<text text-anchor="start" x="1115.5" y="-573.9" font-family="Arial" font-size="14.00" fill="#000000">payee </text>
<text text-anchor="start" x="1157.521" y="-573.9" font-family="Arial" font-size="14.00" fill="#666666">[int(11) unsigned]</text>
<polygon fill="none" stroke="#000000" points="1108.5,-532.5 1108.5,-562.5 1378.5,-562.5 1378.5,-532.5 1108.5,-532.5"/>
<text text-anchor="start" x="1115.5" y="-543.9" font-family="Arial" font-size="14.00" fill="#000000">payment_method </text>
<text text-anchor="start" x="1227.5364" y="-543.9" font-family="Arial" font-size="14.00" fill="#666666">[int(11) unsigned]</text>
<polygon fill="none" stroke="#000000" points="1108.5,-502.5 1108.5,-532.5 1378.5,-532.5 1378.5,-502.5 1108.5,-502.5"/>
<text text-anchor="start" x="1115.5" y="-513.9" font-family="Arial" font-size="14.00" fill="#000000">payee_bank_account </text>
<text text-anchor="start" x="1252.455" y="-513.9" font-family="Arial" font-size="14.00" fill="#666666">[int(11) unsigned]</text>
<polygon fill="none" stroke="#000000" points="1108.5,-472.5 1108.5,-502.5 1378.5,-502.5 1378.5,-472.5 1108.5,-472.5"/>
<text text-anchor="start" x="1115.5" y="-483.9" font-family="Arial" font-size="14.00" fill="#000000">due </text>
<text text-anchor="start" x="1142.7384" y="-483.9" font-family="Arial" font-size="14.00" fill="#666666">[date]</text>
<polygon fill="none" stroke="#000000" points="1108.5,-442.5 1108.5,-472.5 1378.5,-472.5 1378.5,-442.5 1108.5,-442.5"/>
<text text-anchor="start" x="1115.5" y="-453.9" font-family="Arial" font-size="14.00" fill="#000000">pic </text>
<text text-anchor="start" x="1137.2798" y="-453.9" font-family="Arial" font-size="14.00" fill="#666666">[int(11) unsigned]</text>
<polygon fill="none" stroke="#000000" points="1108.5,-412.5 1108.5,-442.5 1378.5,-442.5 1378.5,-412.5 1108.5,-412.5"/>
<text text-anchor="start" x="1115.5" y="-423.9" font-family="Arial" font-size="14.00" fill="#000000">classification </text>
<text text-anchor="start" x="1198.7286" y="-423.9" font-family="Arial" font-size="14.00" fill="#666666">[int(11) unsigned]</text>
<polygon fill="none" stroke="#000000" stroke-width="3" points="1107,-411.5 1107,-779.5 1380,-779.5 1380,-411.5 1107,-411.5"/>
</g>
<!-- tenant -->
<g id="node3" class="node">
<title>tenant</title>
<polygon fill="#efefef" stroke="transparent" points="43.5,-162.5 43.5,-197.5 234.5,-197.5 234.5,-162.5 43.5,-162.5"/>
<polygon fill="none" stroke="#000000" points="43.5,-162.5 43.5,-197.5 234.5,-197.5 234.5,-162.5 43.5,-162.5"/>
<text text-anchor="start" x="50.2014" y="-175.3" font-family="Arial Bold" font-size="18.00" fill="#000000">tenant</text>
<text text-anchor="start" x="100.2306" y="-175.3" font-family="Arial" font-size="14.00" fill="#000000">    </text>
<text text-anchor="start" x="134.4354" y="-175.3" font-family="Arial" font-size="14.00" fill="#666666">[BASE TABLE]</text>
<polygon fill="none" stroke="#000000" points="43.5,-132.5 43.5,-162.5 234.5,-162.5 234.5,-132.5 43.5,-132.5"/>
<text text-anchor="start" x="50.5" y="-143.9" font-family="Arial" font-size="14.00" fill="#000000">id    </text>
<text text-anchor="start" x="95.594" y="-143.9" font-family="Arial" font-size="14.00" fill="#666666">[int(11) unsigned]</text>
</g>
<!-- invoice_process&#45;&gt;tenant -->
<g id="edge2" class="edge">
<title>invoice_process:tenant&#45;&gt;tenant:id</title>
<path fill="none" stroke="#000000" d="M1098.2878,-697.486C705.3312,-696.4019 544.7092,-631.6801 285.5,-331 230.2305,-266.8879 319.1468,-147.5 234.5,-147.5"/>
<polygon fill="#000000" stroke="#000000" points="1098.5,-697.4862 1108.4938,-702 1103.5,-697.4931 1108.5,-697.5 1108.5,-697.5 1108.5,-697.5 1103.5,-697.4931 1108.5062,-693 1098.5,-697.4862 1098.5,-697.4862"/>
<text text-anchor="start" x="877.2665" y="-707.5" font-family="Arial" font-size="10.00" fill="#000000">FOREIGN KEY (tenant) REFERENCES tenant (id)</text>
</g>
<!-- business_partner -->
<g id="node4" class="node">
<title>business_partner</title>
<polygon fill="#efefef" stroke="transparent" points="338.5,-192.5 338.5,-227.5 617.5,-227.5 617.5,-192.5 338.5,-192.5"/>
<polygon fill="none" stroke="#000000" points="338.5,-192.5 338.5,-227.5 617.5,-227.5 617.5,-192.5 338.5,-192.5"/>
<text text-anchor="start" x="345.1977" y="-205.3" font-family="Arial Bold" font-size="18.00" fill="#000000">business_partner</text>
<text text-anchor="start" x="483.2343" y="-205.3" font-family="Arial" font-size="14.00" fill="#000000">    </text>
<text text-anchor="start" x="517.4391" y="-205.3" font-family="Arial" font-size="14.00" fill="#666666">[BASE TABLE]</text>
<polygon fill="none" stroke="#000000" points="338.5,-162.5 338.5,-192.5 617.5,-192.5 617.5,-162.5 338.5,-162.5"/>
<text text-anchor="start" x="345.5" y="-173.9" font-family="Arial" font-size="14.00" fill="#000000">id    </text>
<text text-anchor="start" x="390.594" y="-173.9" font-family="Arial" font-size="14.00" fill="#666666">[int(11) unsigned]</text>
<polygon fill="none" stroke="#000000" points="338.5,-132.5 338.5,-162.5 617.5,-162.5 617.5,-132.5 338.5,-132.5"/>
<text text-anchor="start" x="345.5" y="-143.9" font-family="Arial" font-size="14.00" fill="#000000">tenant    </text>
<text text-anchor="start" x="418.6164" y="-143.9" font-family="Arial" font-size="14.00" fill="#666666">[int(11) unsigned]</text>
<polygon fill="none" stroke="#000000" points="338.5,-102.5 338.5,-132.5 617.5,-132.5 617.5,-102.5 338.5,-102.5"/>
<text text-anchor="start" x="345.5" y="-113.9" font-family="Arial" font-size="14.00" fill="#000000">name    </text>
<text text-anchor="start" x="414.7132" y="-113.9" font-family="Arial" font-size="14.00" fill="#666666">[varchar(255)]</text>
</g>
<!-- invoice_process&#45;&gt;business_partner -->
<g id="edge3" class="edge">
<title>invoice_process:payee&#45;&gt;business_partner:id</title>
<path fill="none" stroke="#000000" d="M1098.4421,-577.4488C882.53,-575.2272 810.2704,-500.5586 669.5,-331 623.4892,-275.5798 689.5305,-177.5 617.5,-177.5"/>
<polygon fill="#000000" stroke="#000000" points="1098.5001,-577.449 1108.4771,-581.9999 1103.5001,-577.4745 1108.5,-577.5 1108.5,-577.5 1108.5,-577.5 1103.5001,-577.4745 1108.5229,-573.0001 1098.5001,-577.449 1098.5001,-577.449"/>
<text text-anchor="start" x="829.099" y="-587.5" font-family="Arial" font-size="10.00" fill="#000000">FOREIGN KEY (payee) REFERENCES business_partner (id)</text>
</g>
<!-- payment_method -->
<g id="node5" class="node">
<title>payment_method</title>
<polygon fill="#efefef" stroke="transparent" points="721.5,-222.5 721.5,-257.5 1213.5,-257.5 1213.5,-222.5 721.5,-222.5"/>
<polygon fill="none" stroke="#000000" points="721.5,-222.5 721.5,-257.5 1213.5,-257.5 1213.5,-222.5 721.5,-222.5"/>
<text text-anchor="start" x="834.1937" y="-235.3" font-family="Arial Bold" font-size="18.00" fill="#000000">payment_method</text>
<text text-anchor="start" x="973.2383" y="-235.3" font-family="Arial" font-size="14.00" fill="#000000">    </text>
<text text-anchor="start" x="1007.4431" y="-235.3" font-family="Arial" font-size="14.00" fill="#666666">[BASE TABLE]</text>
<polygon fill="none" stroke="#000000" points="721.5,-192.5 721.5,-222.5 1213.5,-222.5 1213.5,-192.5 721.5,-192.5"/>
<text text-anchor="start" x="728.5" y="-203.9" font-family="Arial" font-size="14.00" fill="#000000">id    </text>
<text text-anchor="start" x="773.594" y="-203.9" font-family="Arial" font-size="14.00" fill="#666666">[int(11) unsigned]</text>
<polygon fill="none" stroke="#000000" points="721.5,-162.5 721.5,-192.5 1213.5,-192.5 1213.5,-162.5 721.5,-162.5"/>
<text text-anchor="start" x="728.5" y="-173.9" font-family="Arial" font-size="14.00" fill="#000000">tenant    </text>
<text text-anchor="start" x="801.6164" y="-173.9" font-family="Arial" font-size="14.00" fill="#666666">[int(11) unsigned]</text>
<polygon fill="none" stroke="#000000" points="721.5,-132.5 721.5,-162.5 1213.5,-162.5 1213.5,-132.5 721.5,-132.5"/>
<text text-anchor="start" x="728.3464" y="-143.9" font-family="Arial" font-size="14.00" fill="#000000">payment_method_type    </text>
<text text-anchor="start" x="904.9354" y="-143.9" font-family="Arial" font-size="14.00" fill="#666666">[enum(&#39;bank_transfer&#39;,&#39;direct_debit&#39;,&#39;credit card&#39;)]</text>
<polygon fill="none" stroke="#000000" points="721.5,-102.5 721.5,-132.5 1213.5,-132.5 1213.5,-102.5 721.5,-102.5"/>
<text text-anchor="start" x="728.5" y="-113.9" font-family="Arial" font-size="14.00" fill="#000000">name    </text>
<text text-anchor="start" x="797.7132" y="-113.9" font-family="Arial" font-size="14.00" fill="#666666">[char(255)]</text>
<polygon fill="none" stroke="#000000" points="721.5,-72.5 721.5,-102.5 1213.5,-102.5 1213.5,-72.5 721.5,-72.5"/>
<text text-anchor="start" x="728.5" y="-83.9" font-family="Arial" font-size="14.00" fill="#000000">is_default    </text>
<text text-anchor="start" x="822.6122" y="-83.9" font-family="Arial" font-size="14.00" fill="#666666">[tinyint(1)]</text>
</g>
<!-- invoice_process&#45;&gt;payment_method -->
<g id="edge4" class="edge">
<title>invoice_process:payment_method&#45;&gt;payment_method:id</title>
<path fill="none" stroke="#000000" d="M1098.414,-546.846C1031.9941,-537.6725 1071.4437,-434.0613 1108.5,-367 1135.1586,-318.7554 1186.8414,-349.2446 1213.5,-301 1233.5982,-264.6279 1255.0556,-207.5 1213.5,-207.5"/>
<polygon fill="#000000" stroke="#000000" points="1098.521,-546.8528 1108.2088,-551.9906 1103.5105,-547.1764 1108.5,-547.5 1108.5,-547.5 1108.5,-547.5 1103.5105,-547.1764 1108.7912,-543.0094 1098.521,-546.8528 1098.521,-546.8528"/>
<text text-anchor="start" x="778.8135" y="-557.5" font-family="Arial" font-size="10.00" fill="#000000">FOREIGN KEY (payment_method) REFERENCES payment_method (id)</text>
</g>
<!-- business_partner_bank_account -->
<g id="node6" class="node">
<title>business_partner_bank_account</title>
<polygon fill="#efefef" stroke="transparent" points="1318.5,-252.5 1318.5,-287.5 1719.5,-287.5 1719.5,-252.5 1318.5,-252.5"/>
<polygon fill="none" stroke="#000000" points="1318.5,-252.5 1318.5,-287.5 1719.5,-287.5 1719.5,-252.5 1318.5,-252.5"/>
<text text-anchor="start" x="1325.1687" y="-265.3" font-family="Arial Bold" font-size="18.00" fill="#000000">business_partner_bank_account</text>
<text text-anchor="start" x="1585.2633" y="-265.3" font-family="Arial" font-size="14.00" fill="#000000">    </text>
<text text-anchor="start" x="1619.4681" y="-265.3" font-family="Arial" font-size="14.00" fill="#666666">[BASE TABLE]</text>
<polygon fill="none" stroke="#000000" points="1318.5,-222.5 1318.5,-252.5 1719.5,-252.5 1719.5,-222.5 1318.5,-222.5"/>
<text text-anchor="start" x="1325.5" y="-233.9" font-family="Arial" font-size="14.00" fill="#000000">id    </text>
<text text-anchor="start" x="1370.594" y="-233.9" font-family="Arial" font-size="14.00" fill="#666666">[int(11) unsigned]</text>
<polygon fill="none" stroke="#000000" points="1318.5,-192.5 1318.5,-222.5 1719.5,-222.5 1719.5,-192.5 1318.5,-192.5"/>
<text text-anchor="start" x="1325.5" y="-203.9" font-family="Arial" font-size="14.00" fill="#000000">owner    </text>
<text text-anchor="start" x="1397.8198" y="-203.9" font-family="Arial" font-size="14.00" fill="#666666">[int(11) unsigned]</text>
<polygon fill="none" stroke="#000000" points="1318.5,-162.5 1318.5,-192.5 1719.5,-192.5 1719.5,-162.5 1318.5,-162.5"/>
<text text-anchor="start" x="1325.5" y="-173.9" font-family="Arial" font-size="14.00" fill="#000000">name    </text>
<text text-anchor="start" x="1394.7132" y="-173.9" font-family="Arial" font-size="14.00" fill="#666666">[varchar(255)]</text>
<polygon fill="none" stroke="#000000" points="1318.5,-132.5 1318.5,-162.5 1719.5,-162.5 1719.5,-132.5 1318.5,-132.5"/>
<text text-anchor="start" x="1325.5" y="-143.9" font-family="Arial" font-size="14.00" fill="#000000">bank_code    </text>
<text text-anchor="start" x="1428.183" y="-143.9" font-family="Arial" font-size="14.00" fill="#666666">[char(4)]</text>
<polygon fill="none" stroke="#000000" points="1318.5,-102.5 1318.5,-132.5 1719.5,-132.5 1719.5,-102.5 1318.5,-102.5"/>
<text text-anchor="start" x="1325.5" y="-113.9" font-family="Arial" font-size="14.00" fill="#000000">account_type    </text>
<text text-anchor="start" x="1442.9642" y="-113.9" font-family="Arial" font-size="14.00" fill="#666666">[int(1)]</text>
<polygon fill="none" stroke="#000000" points="1318.5,-72.5 1318.5,-102.5 1719.5,-102.5 1719.5,-72.5 1318.5,-72.5"/>
<text text-anchor="start" x="1325.5" y="-83.9" font-family="Arial" font-size="14.00" fill="#000000">branch    </text>
<text text-anchor="start" x="1402.4958" y="-83.9" font-family="Arial" font-size="14.00" fill="#666666">[char(5)]</text>
<polygon fill="none" stroke="#000000" points="1318.5,-42.5 1318.5,-72.5 1719.5,-72.5 1719.5,-42.5 1318.5,-42.5"/>
<text text-anchor="start" x="1325.5" y="-53.9" font-family="Arial" font-size="14.00" fill="#000000">account_number    </text>
<text text-anchor="start" x="1463.96" y="-53.9" font-family="Arial" font-size="14.00" fill="#666666">[char(8)]</text>
</g>
<!-- invoice_process&#45;&gt;business_partner_bank_account -->
<g id="edge5" class="edge">
<title>invoice_process:payee_bank_account&#45;&gt;business_partner_bank_account:id</title>
<path fill="none" stroke="#000000" d="M1388.586,-516.6926C1441.6804,-507.5074 1409.6538,-422.0235 1378.5,-367 1363.1779,-339.9382 1333.8221,-358.0618 1318.5,-331 1298.0256,-294.8384 1276.9444,-237.5 1318.5,-237.5"/>
<polygon fill="#000000" stroke="#000000" points="1388.4681,-516.7019 1378.1409,-513.0143 1383.4841,-517.101 1378.5,-517.5 1378.5,-517.5 1378.5,-517.5 1383.4841,-517.101 1378.8591,-521.9857 1388.4681,-516.7019 1388.4681,-516.7019"/>
<text text-anchor="start" x="1385.289" y="-527.5" font-family="Arial" font-size="10.00" fill="#000000">FOREIGN KEY (payee_bank_account) REFERENCES business_partner_bank_account (id)</text>
</g>
<!-- user -->
<g id="node7" class="node">
<title>user</title>
<polygon fill="#efefef" stroke="transparent" points="1823.5,-192.5 1823.5,-227.5 2018.5,-227.5 2018.5,-192.5 1823.5,-192.5"/>
<polygon fill="none" stroke="#000000" points="1823.5,-192.5 1823.5,-227.5 2018.5,-227.5 2018.5,-192.5 1823.5,-192.5"/>
<text text-anchor="start" x="1839.7137" y="-205.3" font-family="Arial Bold" font-size="18.00" fill="#000000">user</text>
<text text-anchor="start" x="1874.7183" y="-205.3" font-family="Arial" font-size="14.00" fill="#000000">    </text>
<text text-anchor="start" x="1908.9231" y="-205.3" font-family="Arial" font-size="14.00" fill="#666666">[BASE TABLE]</text>
<polygon fill="none" stroke="#000000" points="1823.5,-162.5 1823.5,-192.5 2018.5,-192.5 2018.5,-162.5 1823.5,-162.5"/>
<text text-anchor="start" x="1830.5" y="-173.9" font-family="Arial" font-size="14.00" fill="#000000">id    </text>
<text text-anchor="start" x="1875.594" y="-173.9" font-family="Arial" font-size="14.00" fill="#666666">[int(11) unsigned]</text>
<polygon fill="none" stroke="#000000" points="1823.5,-132.5 1823.5,-162.5 2018.5,-162.5 2018.5,-132.5 1823.5,-132.5"/>
<text text-anchor="start" x="1830.3717" y="-143.9" font-family="Arial" font-size="14.00" fill="#000000">tenant    </text>
<text text-anchor="start" x="1903.4881" y="-143.9" font-family="Arial" font-size="14.00" fill="#666666">[int(11) unsigned]</text>
<polygon fill="none" stroke="#000000" points="1823.5,-102.5 1823.5,-132.5 2018.5,-132.5 2018.5,-102.5 1823.5,-102.5"/>
<text text-anchor="start" x="1830.5" y="-113.9" font-family="Arial" font-size="14.00" fill="#000000">name    </text>
<text text-anchor="start" x="1899.7132" y="-113.9" font-family="Arial" font-size="14.00" fill="#666666">[varchar(255)]</text>
</g>
<!-- invoice_process&#45;&gt;user -->
<g id="edge6" class="edge">
<title>invoice_process:pic&#45;&gt;user:id</title>
<path fill="none" stroke="#000000" d="M1388.6971,-457.2723C1486.6212,-453.1293 1708.432,-393.1155 1771.5,-331 1822.8194,-280.4558 1751.4695,-177.5 1823.5,-177.5"/>
<polygon fill="#000000" stroke="#000000" points="1388.4975,-457.2766 1378.3995,-453.0011 1383.4988,-457.3883 1378.5,-457.5 1378.5,-457.5 1378.5,-457.5 1383.4988,-457.3883 1378.6005,-461.9989 1388.4975,-457.2766 1388.4975,-457.2766"/>
<text text-anchor="start" x="1385.948" y="-467.5" font-family="Arial" font-size="10.00" fill="#000000">FOREIGN KEY (pic) REFERENCES user (id)</text>
</g>
<!-- classification -->
<g id="node8" class="node">
<title>classification</title>
<polygon fill="#efefef" stroke="transparent" points="2122.5,-177.5 2122.5,-212.5 2365.5,-212.5 2365.5,-177.5 2122.5,-177.5"/>
<polygon fill="none" stroke="#000000" points="2122.5,-177.5 2122.5,-212.5 2365.5,-212.5 2365.5,-177.5 2122.5,-177.5"/>
<text text-anchor="start" x="2129.213" y="-190.3" font-family="Arial Bold" font-size="18.00" fill="#000000">classification</text>
<text text-anchor="start" x="2231.219" y="-190.3" font-family="Arial" font-size="14.00" fill="#000000">    </text>
<text text-anchor="start" x="2265.4238" y="-190.3" font-family="Arial" font-size="14.00" fill="#666666">[BASE TABLE]</text>
<polygon fill="none" stroke="#000000" points="2122.5,-147.5 2122.5,-177.5 2365.5,-177.5 2365.5,-147.5 2122.5,-147.5"/>
<text text-anchor="start" x="2129.5" y="-158.9" font-family="Arial" font-size="14.00" fill="#000000">id    </text>
<text text-anchor="start" x="2174.594" y="-158.9" font-family="Arial" font-size="14.00" fill="#666666">[int(11) unsigned]</text>
<polygon fill="none" stroke="#000000" points="2122.5,-117.5 2122.5,-147.5 2365.5,-147.5 2365.5,-117.5 2122.5,-117.5"/>
<text text-anchor="start" x="2129.5" y="-128.9" font-family="Arial" font-size="14.00" fill="#000000">remarks    </text>
<text text-anchor="start" x="2214.2518" y="-128.9" font-family="Arial" font-size="14.00" fill="#666666">[varchar(2000)]</text>
</g>
<!-- invoice_process&#45;&gt;classification -->
<g id="edge7" class="edge">
<title>invoice_process:classification&#45;&gt;classification:id</title>
<path fill="none" stroke="#000000" d="M1388.74,-427.3211C1495.6101,-424.1566 2013.5108,-379.4915 2070.5,-331 2130.1899,-280.2104 2044.1261,-162.5 2122.5,-162.5"/>
<polygon fill="#000000" stroke="#000000" points="1388.4985,-427.3252 1378.4213,-423.0007 1383.4992,-427.4126 1378.5,-427.5 1378.5,-427.5 1378.5,-427.5 1383.4992,-427.4126 1378.5787,-431.9993 1388.4985,-427.3252 1388.4985,-427.3252"/>
<text text-anchor="start" x="1385.3905" y="-437.5" font-family="Arial" font-size="10.00" fill="#000000">FOREIGN KEY (classification) REFERENCES classification (id)</text>
</g>
<!-- invoice_file -->
<g id="node2" class="node">
<title>invoice_file</title>
<polygon fill="#efefef" stroke="transparent" points="1128.5,-1052.5 1128.5,-1087.5 1358.5,-1087.5 1358.5,-1052.5 1128.5,-1052.5"/>
<polygon fill="none" stroke="#000000" points="1128.5,-1052.5 1128.5,-1087.5 1358.5,-1087.5 1358.5,-1052.5 1128.5,-1052.5"/>
<text text-anchor="start" x="1135.211" y="-1065.3" font-family="Arial Bold" font-size="18.00" fill="#000000">invoice_file</text>
<text text-anchor="start" x="1224.221" y="-1065.3" font-family="Arial" font-size="14.00" fill="#000000">    </text>
<text text-anchor="start" x="1258.4258" y="-1065.3" font-family="Arial" font-size="14.00" fill="#666666">[BASE TABLE]</text>
<polygon fill="none" stroke="#000000" points="1128.5,-1022.5 1128.5,-1052.5 1358.5,-1052.5 1358.5,-1022.5 1128.5,-1022.5"/>
<text text-anchor="start" x="1135.5" y="-1033.9" font-family="Arial" font-size="14.00" fill="#000000">id    </text>
<text text-anchor="start" x="1180.594" y="-1033.9" font-family="Arial" font-size="14.00" fill="#666666">[int(11) unsigned]</text>
<polygon fill="none" stroke="#000000" points="1128.5,-992.5 1128.5,-1022.5 1358.5,-1022.5 1358.5,-992.5 1128.5,-992.5"/>
<text text-anchor="start" x="1135.5" y="-1003.9" font-family="Arial" font-size="14.00" fill="#000000">tenant    </text>
<text text-anchor="start" x="1208.6164" y="-1003.9" font-family="Arial" font-size="14.00" fill="#666666">[int(11) unsigned]</text>
<polygon fill="none" stroke="#000000" points="1128.5,-962.5 1128.5,-992.5 1358.5,-992.5 1358.5,-962.5 1128.5,-962.5"/>
<text text-anchor="start" x="1135.5" y="-973.9" font-family="Arial" font-size="14.00" fill="#000000">filename    </text>
<text text-anchor="start" x="1222.5996" y="-973.9" font-family="Arial" font-size="14.00" fill="#666666">[varchar(2000)]</text>
<polygon fill="none" stroke="#000000" points="1128.5,-932.5 1128.5,-962.5 1358.5,-962.5 1358.5,-932.5 1128.5,-932.5"/>
<text text-anchor="start" x="1135.5" y="-943.9" font-family="Arial" font-size="14.00" fill="#000000">object_url    </text>
<text text-anchor="start" x="1230.3822" y="-943.9" font-family="Arial" font-size="14.00" fill="#666666">[varchar(2000)]</text>
<polygon fill="none" stroke="#000000" points="1128.5,-902.5 1128.5,-932.5 1358.5,-932.5 1358.5,-902.5 1128.5,-902.5"/>
<text text-anchor="start" x="1135.5" y="-913.9" font-family="Arial" font-size="14.00" fill="#000000">process    </text>
<text text-anchor="start" x="1218.7132" y="-913.9" font-family="Arial" font-size="14.00" fill="#666666">[int(11) unsigned]</text>
</g>
<!-- invoice_file&#45;&gt;invoice_process -->
<g id="edge1" class="edge">
<title>invoice_file:process&#45;&gt;invoice_process:id</title>
<path fill="none" stroke="#000000" d="M1244.3132,-892.4908C1253.9051,-838.1704 1345.715,-880.9886 1378.5,-824 1399.887,-786.824 1421.3889,-727.5 1378.5,-727.5"/>
<polygon fill="#000000" stroke="#000000" points="1244.3098,-892.5328 1239.0148,-902.1356 1243.9049,-897.5164 1243.5,-902.5 1243.5,-902.5 1243.5,-902.5 1243.9049,-897.5164 1247.9852,-902.8644 1244.3098,-892.5328 1244.3098,-892.5328"/>
<text text-anchor="start" x="961.7175" y="-912.5" font-family="Arial" font-size="10.00" fill="#000000">FOREIGN KEY (process) REFERENCES invoice_process (id)</text>
</g>
</g>
</svg>
