<?xml version="1.0" encoding="UTF-8" standalone="no"?>
<!DOCTYPE svg PUBLIC "-//W3C//DTD SVG 1.1//EN"
 "http://www.w3.org/Graphics/SVG/1.1/DTD/svg11.dtd">
<!-- Generated by graphviz version 2.40.1 (20161225.0304)
 -->
<!-- Title: invoice_file Pages: 1 -->
<svg width="765pt" height="772pt"
 viewBox="0.00 0.00 765.00 772.00" xmlns="http://www.w3.org/2000/svg" xmlns:xlink="http://www.w3.org/1999/xlink">
<g id="graph0" class="graph" transform="scale(1 1) rotate(0) translate(4 768)">
<title>invoice_file</title>
<polygon fill="#ffffff" stroke="transparent" points="-4,4 -4,-768 761,-768 761,4 -4,4"/>
<!-- invoice_file -->
<g id="node1" class="node">
<title>invoice_file</title>
<polygon fill="#efefef" stroke="transparent" points="238,-682.5 238,-717.5 468,-717.5 468,-682.5 238,-682.5"/>
<polygon fill="none" stroke="#000000" points="238,-682.5 238,-717.5 468,-717.5 468,-682.5 238,-682.5"/>
<text text-anchor="start" x="244.711" y="-695.3" font-family="Arial Bold" font-size="18.00" fill="#000000">invoice_file</text>
<text text-anchor="start" x="333.721" y="-695.3" font-family="Arial" font-size="14.00" fill="#000000">    </text>
<text text-anchor="start" x="367.9258" y="-695.3" font-family="Arial" font-size="14.00" fill="#666666">[BASE TABLE]</text>
<polygon fill="none" stroke="#000000" points="238,-652.5 238,-682.5 468,-682.5 468,-652.5 238,-652.5"/>
<text text-anchor="start" x="245" y="-663.9" font-family="Arial" font-size="14.00" fill="#000000">id </text>
<text text-anchor="start" x="259.7798" y="-663.9" font-family="Arial" font-size="14.00" fill="#666666">[int(11) unsigned]</text>
<polygon fill="none" stroke="#000000" points="238,-622.5 238,-652.5 468,-652.5 468,-622.5 238,-622.5"/>
<text text-anchor="start" x="245" y="-633.9" font-family="Arial" font-size="14.00" fill="#000000">tenant </text>
<text text-anchor="start" x="287.8022" y="-633.9" font-family="Arial" font-size="14.00" fill="#666666">[int(11) unsigned]</text>
<polygon fill="none" stroke="#000000" points="238,-592.5 238,-622.5 468,-622.5 468,-592.5 238,-592.5"/>
<text text-anchor="start" x="245" y="-603.9" font-family="Arial" font-size="14.00" fill="#000000">filename </text>
<text text-anchor="start" x="301.7854" y="-603.9" font-family="Arial" font-size="14.00" fill="#666666">[varchar(2000)]</text>
<polygon fill="none" stroke="#000000" points="238,-562.5 238,-592.5 468,-592.5 468,-562.5 238,-562.5"/>
<text text-anchor="start" x="245" y="-573.9" font-family="Arial" font-size="14.00" fill="#000000">object_url </text>
<text text-anchor="start" x="309.568" y="-573.9" font-family="Arial" font-size="14.00" fill="#666666">[varchar(2000)]</text>
<polygon fill="none" stroke="#000000" points="238,-532.5 238,-562.5 468,-562.5 468,-532.5 238,-532.5"/>
<text text-anchor="start" x="245" y="-543.9" font-family="Arial" font-size="14.00" fill="#000000">process </text>
<text text-anchor="start" x="297.899" y="-543.9" font-family="Arial" font-size="14.00" fill="#666666">[int(11) unsigned]</text>
<polygon fill="none" stroke="#000000" stroke-width="3" points="236.5,-531.5 236.5,-719.5 469.5,-719.5 469.5,-531.5 236.5,-531.5"/>
</g>
<!-- tenant -->
<g id="node2" class="node">
<title>tenant</title>
<polygon fill="#efefef" stroke="transparent" points="85,-222.5 85,-257.5 276,-257.5 276,-222.5 85,-222.5"/>
<polygon fill="none" stroke="#000000" points="85,-222.5 85,-257.5 276,-257.5 276,-222.5 85,-222.5"/>
<text text-anchor="start" x="91.7014" y="-235.3" font-family="Arial Bold" font-size="18.00" fill="#000000">tenant</text>
<text text-anchor="start" x="141.7306" y="-235.3" font-family="Arial" font-size="14.00" fill="#000000">    </text>
<text text-anchor="start" x="175.9354" y="-235.3" font-family="Arial" font-size="14.00" fill="#666666">[BASE TABLE]</text>
<polygon fill="none" stroke="#000000" points="85,-192.5 85,-222.5 276,-222.5 276,-192.5 85,-192.5"/>
<text text-anchor="start" x="92" y="-203.9" font-family="Arial" font-size="14.00" fill="#000000">id    </text>
<text text-anchor="start" x="137.094" y="-203.9" font-family="Arial" font-size="14.00" fill="#666666">[int(11) unsigned]</text>
</g>
<!-- invoice_file&#45;&gt;tenant -->
<g id="edge1" class="edge">
<title>invoice_file:tenant&#45;&gt;tenant:id</title>
<path fill="none" stroke="#000000" d="M227.7956,-635.3892C160.3794,-602.9499 367.9934,-207.5 276,-207.5"/>
<polygon fill="#000000" stroke="#000000" points="228.2073,-635.4743 237.0884,-641.9067 233.1037,-636.4871 238,-637.5 238,-637.5 238,-637.5 233.1037,-636.4871 238.9116,-633.0933 228.2073,-635.4743 228.2073,-635.4743"/>
<text text-anchor="start" x="6.7665" y="-647.5" font-family="Arial" font-size="10.00" fill="#000000">FOREIGN KEY (tenant) REFERENCES tenant (id)</text>
</g>
<!-- invoice_process -->
<g id="node3" class="node">
<title>invoice_process</title>
<polygon fill="#efefef" stroke="transparent" points="380,-372.5 380,-407.5 669,-407.5 669,-372.5 380,-372.5"/>
<polygon fill="none" stroke="#000000" points="380,-372.5 380,-407.5 669,-407.5 669,-372.5 380,-372.5"/>
<text text-anchor="start" x="396.204" y="-385.3" font-family="Arial Bold" font-size="18.00" fill="#000000">invoice_process</text>
<text text-anchor="start" x="525.228" y="-385.3" font-family="Arial" font-size="14.00" fill="#000000">    </text>
<text text-anchor="start" x="559.4328" y="-385.3" font-family="Arial" font-size="14.00" fill="#666666">[BASE TABLE]</text>
<polygon fill="none" stroke="#000000" points="380,-342.5 380,-372.5 669,-372.5 669,-342.5 380,-342.5"/>
<text text-anchor="start" x="387" y="-353.9" font-family="Arial" font-size="14.00" fill="#000000">id    </text>
<text text-anchor="start" x="432.094" y="-353.9" font-family="Arial" font-size="14.00" fill="#666666">[int(11) unsigned]</text>
<polygon fill="none" stroke="#000000" points="380,-312.5 380,-342.5 669,-342.5 669,-312.5 380,-312.5"/>
<text text-anchor="start" x="387" y="-323.9" font-family="Arial" font-size="14.00" fill="#000000">tenant    </text>
<text text-anchor="start" x="460.1164" y="-323.9" font-family="Arial" font-size="14.00" fill="#666666">[int(11) unsigned]</text>
<polygon fill="none" stroke="#000000" points="380,-282.5 380,-312.5 669,-312.5 669,-282.5 380,-282.5"/>
<text text-anchor="start" x="387" y="-293.9" font-family="Arial" font-size="14.00" fill="#000000">process_num    </text>
<text text-anchor="start" x="505.2216" y="-293.9" font-family="Arial" font-size="14.00" fill="#666666">[int(11) unsigned]</text>
<polygon fill="none" stroke="#000000" points="380,-252.5 380,-282.5 669,-282.5 669,-252.5 380,-252.5"/>
<text text-anchor="start" x="387" y="-263.9" font-family="Arial" font-size="14.00" fill="#000000">state    </text>
<text text-anchor="start" x="451.5512" y="-263.9" font-family="Arial" font-size="14.00" fill="#666666">[int(2)]</text>
<polygon fill="none" stroke="#000000" points="380,-222.5 380,-252.5 669,-252.5 669,-222.5 380,-222.5"/>
<text text-anchor="start" x="387" y="-233.9" font-family="Arial" font-size="14.00" fill="#000000">amount    </text>
<text text-anchor="start" x="467.8864" y="-233.9" font-family="Arial" font-size="14.00" fill="#666666">[int(11) unsigned]</text>
<polygon fill="none" stroke="#000000" points="380,-192.5 380,-222.5 669,-222.5 669,-192.5 380,-192.5"/>
<text text-anchor="start" x="387" y="-203.9" font-family="Arial" font-size="14.00" fill="#000000">payee    </text>
<text text-anchor="start" x="459.3352" y="-203.9" font-family="Arial" font-size="14.00" fill="#666666">[int(11) unsigned]</text>
<polygon fill="none" stroke="#000000" points="380,-162.5 380,-192.5 669,-192.5 669,-162.5 380,-162.5"/>
<text text-anchor="start" x="387" y="-173.9" font-family="Arial" font-size="14.00" fill="#000000">payment_method    </text>
<text text-anchor="start" x="529.3506" y="-173.9" font-family="Arial" font-size="14.00" fill="#666666">[int(11) unsigned]</text>
<polygon fill="none" stroke="#000000" points="380,-132.5 380,-162.5 669,-162.5 669,-132.5 380,-132.5"/>
<text text-anchor="start" x="386.7953" y="-143.9" font-family="Arial" font-size="14.00" fill="#000000">payee_bank_account    </text>
<text text-anchor="start" x="554.0645" y="-143.9" font-family="Arial" font-size="14.00" fill="#666666">[int(11) unsigned]</text>
<polygon fill="none" stroke="#000000" points="380,-102.5 380,-132.5 669,-132.5 669,-102.5 380,-102.5"/>
<text text-anchor="start" x="387" y="-113.9" font-family="Arial" font-size="14.00" fill="#000000">due    </text>
<text text-anchor="start" x="444.5526" y="-113.9" font-family="Arial" font-size="14.00" fill="#666666">[date]</text>
<polygon fill="none" stroke="#000000" points="380,-72.5 380,-102.5 669,-102.5 669,-72.5 380,-72.5"/>
<text text-anchor="start" x="387" y="-83.9" font-family="Arial" font-size="14.00" fill="#000000">pic    </text>
<text text-anchor="start" x="439.094" y="-83.9" font-family="Arial" font-size="14.00" fill="#666666">[int(11) unsigned]</text>
<polygon fill="none" stroke="#000000" points="380,-42.5 380,-72.5 669,-72.5 669,-42.5 380,-42.5"/>
<text text-anchor="start" x="387" y="-53.9" font-family="Arial" font-size="14.00" fill="#000000">classification    </text>
<text text-anchor="start" x="500.5428" y="-53.9" font-family="Arial" font-size="14.00" fill="#666666">[int(11) unsigned]</text>
</g>
<!-- invoice_file&#45;&gt;invoice_process -->
<g id="edge2" class="edge">
<title>invoice_file:process&#45;&gt;invoice_process:id</title>
<path fill="none" stroke="#000000" d="M477.8993,-544.91C491.0944,-535.9571 480.6458,-505.8363 468,-487 444.4462,-451.9158 403.5538,-486.0842 380,-451 356.8374,-416.4985 338.4444,-357.5 380,-357.5"/>
<polygon fill="#000000" stroke="#000000" points="477.6744,-544.9688 466.861,-543.1465 472.8372,-546.2344 468,-547.5 468,-547.5 468,-547.5 472.8372,-546.2344 469.139,-551.8535 477.6744,-544.9688 477.6744,-544.9688"/>
<text text-anchor="start" x="475.2175" y="-557.5" font-family="Arial" font-size="10.00" fill="#000000">FOREIGN KEY (process) REFERENCES invoice_process (id)</text>
</g>
</g>
</svg>
