<?xml version="1.0" encoding="UTF-8" standalone="no"?>
<!DOCTYPE svg PUBLIC "-//W3C//DTD SVG 1.1//EN"
 "http://www.w3.org/Graphics/SVG/1.1/DTD/svg11.dtd">
<!-- Generated by graphviz version 2.40.1 (20161225.0304)
 -->
<!-- Title: invoice_file Pages: 1 -->
<svg width="882pt" height="802pt"
 viewBox="0.00 0.00 881.50 802.00" xmlns="http://www.w3.org/2000/svg" xmlns:xlink="http://www.w3.org/1999/xlink">
<g id="graph0" class="graph" transform="scale(1 1) rotate(0) translate(4 798)">
<title>invoice_file</title>
<polygon fill="#ffffff" stroke="transparent" points="-4,4 -4,-798 877.5,-798 877.5,4 -4,4"/>
<!-- invoice_file -->
<g id="node1" class="node">
<title>invoice_file</title>
<polygon fill="#efefef" stroke="transparent" points="246.5,-712.5 246.5,-747.5 476.5,-747.5 476.5,-712.5 246.5,-712.5"/>
<polygon fill="none" stroke="#000000" points="246.5,-712.5 246.5,-747.5 476.5,-747.5 476.5,-712.5 246.5,-712.5"/>
<text text-anchor="start" x="253.211" y="-725.3" font-family="Arial Bold" font-size="18.00" fill="#000000">invoice_file</text>
<text text-anchor="start" x="342.221" y="-725.3" font-family="Arial" font-size="14.00" fill="#000000">    </text>
<text text-anchor="start" x="376.4258" y="-725.3" font-family="Arial" font-size="14.00" fill="#666666">[BASE TABLE]</text>
<polygon fill="none" stroke="#000000" points="246.5,-682.5 246.5,-712.5 476.5,-712.5 476.5,-682.5 246.5,-682.5"/>
<text text-anchor="start" x="253.5" y="-693.9" font-family="Arial" font-size="14.00" fill="#000000">id </text>
<text text-anchor="start" x="268.2798" y="-693.9" font-family="Arial" font-size="14.00" fill="#666666">[int(11) unsigned]</text>
<polygon fill="none" stroke="#000000" points="246.5,-652.5 246.5,-682.5 476.5,-682.5 476.5,-652.5 246.5,-652.5"/>
<text text-anchor="start" x="253.5" y="-663.9" font-family="Arial" font-size="14.00" fill="#000000">tenant </text>
<text text-anchor="start" x="296.3022" y="-663.9" font-family="Arial" font-size="14.00" fill="#666666">[int(11) unsigned]</text>
<polygon fill="none" stroke="#000000" points="246.5,-622.5 246.5,-652.5 476.5,-652.5 476.5,-622.5 246.5,-622.5"/>
<text text-anchor="start" x="253.5" y="-633.9" font-family="Arial" font-size="14.00" fill="#000000">filename </text>
<text text-anchor="start" x="310.2854" y="-633.9" font-family="Arial" font-size="14.00" fill="#666666">[varchar(2000)]</text>
<polygon fill="none" stroke="#000000" points="246.5,-592.5 246.5,-622.5 476.5,-622.5 476.5,-592.5 246.5,-592.5"/>
<text text-anchor="start" x="253.5" y="-603.9" font-family="Arial" font-size="14.00" fill="#000000">object_url </text>
<text text-anchor="start" x="318.068" y="-603.9" font-family="Arial" font-size="14.00" fill="#666666">[varchar(2000)]</text>
<polygon fill="none" stroke="#000000" points="246.5,-562.5 246.5,-592.5 476.5,-592.5 476.5,-562.5 246.5,-562.5"/>
<text text-anchor="start" x="253.5" y="-573.9" font-family="Arial" font-size="14.00" fill="#000000">process_id </text>
<text text-anchor="start" x="325.0708" y="-573.9" font-family="Arial" font-size="14.00" fill="#666666">[int(11) unsigned]</text>
<polygon fill="none" stroke="#000000" stroke-width="3" points="245,-561.5 245,-749.5 478,-749.5 478,-561.5 245,-561.5"/>
</g>
<!-- tenant -->
<g id="node2" class="node">
<title>tenant</title>
<polygon fill="#efefef" stroke="transparent" points="43.5,-237.5 43.5,-272.5 234.5,-272.5 234.5,-237.5 43.5,-237.5"/>
<polygon fill="none" stroke="#000000" points="43.5,-237.5 43.5,-272.5 234.5,-272.5 234.5,-237.5 43.5,-237.5"/>
<text text-anchor="start" x="50.2014" y="-250.3" font-family="Arial Bold" font-size="18.00" fill="#000000">tenant</text>
<text text-anchor="start" x="100.2306" y="-250.3" font-family="Arial" font-size="14.00" fill="#000000">    </text>
<text text-anchor="start" x="134.4354" y="-250.3" font-family="Arial" font-size="14.00" fill="#666666">[BASE TABLE]</text>
<polygon fill="none" stroke="#000000" points="43.5,-207.5 43.5,-237.5 234.5,-237.5 234.5,-207.5 43.5,-207.5"/>
<text text-anchor="start" x="50.5" y="-218.9" font-family="Arial" font-size="14.00" fill="#000000">id    </text>
<text text-anchor="start" x="95.594" y="-218.9" font-family="Arial" font-size="14.00" fill="#666666">[int(11) unsigned]</text>
</g>
<!-- invoice_file&#45;&gt;tenant -->
<g id="edge1" class="edge">
<title>invoice_file:tenant&#45;&gt;tenant:id</title>
<path fill="none" stroke="#000000" d="M236.6343,-665.707C160.9765,-635.0855 329.7538,-222.5 234.5,-222.5"/>
<polygon fill="#000000" stroke="#000000" points="236.6612,-665.7119 245.6953,-671.9275 241.5806,-666.6059 246.5,-667.5 246.5,-667.5 246.5,-667.5 241.5806,-666.6059 247.3047,-663.0725 236.6612,-665.7119 236.6612,-665.7119"/>
<text text-anchor="start" x="15.2665" y="-677.5" font-family="Arial" font-size="10.00" fill="#000000">FOREIGN KEY (tenant) REFERENCES tenant (id)</text>
</g>
<!-- invoice_process -->
<g id="node3" class="node">
<title>invoice_process</title>
<polygon fill="#efefef" stroke="transparent" points="338.5,-402.5 338.5,-437.5 830.5,-437.5 830.5,-402.5 338.5,-402.5"/>
<polygon fill="none" stroke="#000000" points="338.5,-402.5 338.5,-437.5 830.5,-437.5 830.5,-402.5 338.5,-402.5"/>
<text text-anchor="start" x="456.204" y="-415.3" font-family="Arial Bold" font-size="18.00" fill="#000000">invoice_process</text>
<text text-anchor="start" x="585.228" y="-415.3" font-family="Arial" font-size="14.00" fill="#000000">    </text>
<text text-anchor="start" x="619.4328" y="-415.3" font-family="Arial" font-size="14.00" fill="#666666">[BASE TABLE]</text>
<polygon fill="none" stroke="#000000" points="338.5,-372.5 338.5,-402.5 830.5,-402.5 830.5,-372.5 338.5,-372.5"/>
<text text-anchor="start" x="345.5" y="-383.9" font-family="Arial" font-size="14.00" fill="#000000">id    </text>
<text text-anchor="start" x="390.594" y="-383.9" font-family="Arial" font-size="14.00" fill="#666666">[int(11) unsigned]</text>
<polygon fill="none" stroke="#000000" points="338.5,-342.5 338.5,-372.5 830.5,-372.5 830.5,-342.5 338.5,-342.5"/>
<text text-anchor="start" x="345.5" y="-353.9" font-family="Arial" font-size="14.00" fill="#000000">tenant    </text>
<text text-anchor="start" x="418.6164" y="-353.9" font-family="Arial" font-size="14.00" fill="#666666">[int(11) unsigned]</text>
<polygon fill="none" stroke="#000000" points="338.5,-312.5 338.5,-342.5 830.5,-342.5 830.5,-312.5 338.5,-312.5"/>
<text text-anchor="start" x="345.5" y="-323.9" font-family="Arial" font-size="14.00" fill="#000000">process_id    </text>
<text text-anchor="start" x="447.385" y="-323.9" font-family="Arial" font-size="14.00" fill="#666666">[int(11) unsigned]</text>
<polygon fill="none" stroke="#000000" points="338.5,-282.5 338.5,-312.5 830.5,-312.5 830.5,-282.5 338.5,-282.5"/>
<text text-anchor="start" x="345.5" y="-293.9" font-family="Arial" font-size="14.00" fill="#000000">state    </text>
<text text-anchor="start" x="410.0512" y="-293.9" font-family="Arial" font-size="14.00" fill="#666666">[int(2)]</text>
<polygon fill="none" stroke="#000000" points="338.5,-252.5 338.5,-282.5 830.5,-282.5 830.5,-252.5 338.5,-252.5"/>
<text text-anchor="start" x="345.5" y="-263.9" font-family="Arial" font-size="14.00" fill="#000000">amount    </text>
<text text-anchor="start" x="426.3864" y="-263.9" font-family="Arial" font-size="14.00" fill="#666666">[int(11) unsigned]</text>
<polygon fill="none" stroke="#000000" points="338.5,-222.5 338.5,-252.5 830.5,-252.5 830.5,-222.5 338.5,-222.5"/>
<text text-anchor="start" x="345.5" y="-233.9" font-family="Arial" font-size="14.00" fill="#000000">payee    </text>
<text text-anchor="start" x="417.8352" y="-233.9" font-family="Arial" font-size="14.00" fill="#666666">[int(11) unsigned]</text>
<polygon fill="none" stroke="#000000" points="338.5,-192.5 338.5,-222.5 830.5,-222.5 830.5,-192.5 338.5,-192.5"/>
<text text-anchor="start" x="345.3464" y="-203.9" font-family="Arial" font-size="14.00" fill="#000000">payment_method_type    </text>
<text text-anchor="start" x="521.9354" y="-203.9" font-family="Arial" font-size="14.00" fill="#666666">[enum(&#39;bank_transfer&#39;,&#39;direct_debit&#39;,&#39;credit card&#39;)]</text>
<polygon fill="none" stroke="#000000" points="338.5,-162.5 338.5,-192.5 830.5,-192.5 830.5,-162.5 338.5,-162.5"/>
<text text-anchor="start" x="345.5" y="-173.9" font-family="Arial" font-size="14.00" fill="#000000">payment_method_id    </text>
<text text-anchor="start" x="506.5224" y="-173.9" font-family="Arial" font-size="14.00" fill="#666666">[int(11) unsigned]</text>
<polygon fill="none" stroke="#000000" points="338.5,-132.5 338.5,-162.5 830.5,-162.5 830.5,-132.5 338.5,-132.5"/>
<text text-anchor="start" x="345.5" y="-143.9" font-family="Arial" font-size="14.00" fill="#000000">payee_bank_account    </text>
<text text-anchor="start" x="512.7692" y="-143.9" font-family="Arial" font-size="14.00" fill="#666666">[int(11) unsigned]</text>
<polygon fill="none" stroke="#000000" points="338.5,-102.5 338.5,-132.5 830.5,-132.5 830.5,-102.5 338.5,-102.5"/>
<text text-anchor="start" x="345.5" y="-113.9" font-family="Arial" font-size="14.00" fill="#000000">due    </text>
<text text-anchor="start" x="403.0526" y="-113.9" font-family="Arial" font-size="14.00" fill="#666666">[date]</text>
<polygon fill="none" stroke="#000000" points="338.5,-72.5 338.5,-102.5 830.5,-102.5 830.5,-72.5 338.5,-72.5"/>
<text text-anchor="start" x="345.5" y="-83.9" font-family="Arial" font-size="14.00" fill="#000000">pic    </text>
<text text-anchor="start" x="397.594" y="-83.9" font-family="Arial" font-size="14.00" fill="#666666">[int(11) unsigned]</text>
<polygon fill="none" stroke="#000000" points="338.5,-42.5 338.5,-72.5 830.5,-72.5 830.5,-42.5 338.5,-42.5"/>
<text text-anchor="start" x="345.5" y="-53.9" font-family="Arial" font-size="14.00" fill="#000000">classification    </text>
<text text-anchor="start" x="459.0428" y="-53.9" font-family="Arial" font-size="14.00" fill="#666666">[int(11) unsigned]</text>
</g>
<!-- invoice_file&#45;&gt;invoice_process -->
<g id="edge2" class="edge">
<title>invoice_file:process_id&#45;&gt;invoice_process:id</title>
<path fill="none" stroke="#000000" d="M486.489,-574.8454C499.9772,-565.6812 490.3707,-534.9534 476.5,-517 437.7469,-466.8405 377.2531,-531.1595 338.5,-481 313.0936,-448.1156 296.9444,-387.5 338.5,-387.5"/>
<polygon fill="#000000" stroke="#000000" points="486.1645,-574.9315 475.3442,-573.151 481.3323,-576.2158 476.5,-577.5 476.5,-577.5 476.5,-577.5 481.3323,-576.2158 477.6558,-581.849 486.1645,-574.9315 486.1645,-574.9315"/>
<text text-anchor="start" x="483.049" y="-587.5" font-family="Arial" font-size="10.00" fill="#000000">FOREIGN KEY (process_id) REFERENCES invoice_process (id)</text>
</g>
</g>
</svg>
