<?xml version="1.0" encoding="UTF-8" standalone="no"?>
<!DOCTYPE svg PUBLIC "-//W3C//DTD SVG 1.1//EN"
 "http://www.w3.org/Graphics/SVG/1.1/DTD/svg11.dtd">
<!-- Generated by graphviz version 2.40.1 (20161225.0304)
 -->
<!-- Title: invoice_process Pages: 1 -->
<svg width="1701pt" height="1169pt"
 viewBox="0.00 0.00 1701.00 1169.00" xmlns="http://www.w3.org/2000/svg" xmlns:xlink="http://www.w3.org/1999/xlink">
<g id="graph0" class="graph" transform="scale(1 1) rotate(0) translate(4 1165)">
<title>invoice_process</title>
<polygon fill="#ffffff" stroke="transparent" points="-4,4 -4,-1165 1697,-1165 1697,4 -4,4"/>
<!-- invoice_process -->
<g id="node1" class="node">
<title>invoice_process</title>
<polygon fill="#efefef" stroke="transparent" points="632.5,-772.5 632.5,-807.5 1093.5,-807.5 1093.5,-772.5 632.5,-772.5"/>
<polygon fill="none" stroke="#000000" points="632.5,-772.5 632.5,-807.5 1093.5,-807.5 1093.5,-772.5 632.5,-772.5"/>
<text text-anchor="start" x="734.704" y="-785.3" font-family="Arial Bold" font-size="18.00" fill="#000000">invoice_process</text>
<text text-anchor="start" x="863.728" y="-785.3" font-family="Arial" font-size="14.00" fill="#000000">    </text>
<text text-anchor="start" x="897.9328" y="-785.3" font-family="Arial" font-size="14.00" fill="#666666">[BASE TABLE]</text>
<polygon fill="none" stroke="#000000" points="632.5,-742.5 632.5,-772.5 1093.5,-772.5 1093.5,-742.5 632.5,-742.5"/>
<text text-anchor="start" x="639.5" y="-753.9" font-family="Arial" font-size="14.00" fill="#000000">id </text>
<text text-anchor="start" x="654.2798" y="-753.9" font-family="Arial" font-size="14.00" fill="#666666">[int(11) unsigned]</text>
<polygon fill="none" stroke="#000000" points="632.5,-712.5 632.5,-742.5 1093.5,-742.5 1093.5,-712.5 632.5,-712.5"/>
<text text-anchor="start" x="639.5" y="-723.9" font-family="Arial" font-size="14.00" fill="#000000">tenant </text>
<text text-anchor="start" x="682.3022" y="-723.9" font-family="Arial" font-size="14.00" fill="#666666">[int(11) unsigned]</text>
<polygon fill="none" stroke="#000000" points="632.5,-682.5 632.5,-712.5 1093.5,-712.5 1093.5,-682.5 632.5,-682.5"/>
<text text-anchor="start" x="639.5" y="-693.9" font-family="Arial" font-size="14.00" fill="#000000">process_id </text>
<text text-anchor="start" x="711.0708" y="-693.9" font-family="Arial" font-size="14.00" fill="#666666">[int(11) unsigned]</text>
<polygon fill="none" stroke="#000000" points="632.5,-652.5 632.5,-682.5 1093.5,-682.5 1093.5,-652.5 632.5,-652.5"/>
<text text-anchor="start" x="639.5" y="-663.9" font-family="Arial" font-size="14.00" fill="#000000">state </text>
<text text-anchor="start" x="673.737" y="-663.9" font-family="Arial" font-size="14.00" fill="#666666">[int(2)]</text>
<polygon fill="none" stroke="#000000" points="632.5,-622.5 632.5,-652.5 1093.5,-652.5 1093.5,-622.5 632.5,-622.5"/>
<text text-anchor="start" x="639.5" y="-633.9" font-family="Arial" font-size="14.00" fill="#000000">amount </text>
<text text-anchor="start" x="690.0722" y="-633.9" font-family="Arial" font-size="14.00" fill="#666666">[int(11) unsigned]</text>
<polygon fill="none" stroke="#000000" points="632.5,-592.5 632.5,-622.5 1093.5,-622.5 1093.5,-592.5 632.5,-592.5"/>
<text text-anchor="start" x="639.5" y="-603.9" font-family="Arial" font-size="14.00" fill="#000000">payee </text>
<text text-anchor="start" x="681.521" y="-603.9" font-family="Arial" font-size="14.00" fill="#666666">[int(11) unsigned]</text>
<polygon fill="none" stroke="#000000" points="632.5,-562.5 632.5,-592.5 1093.5,-592.5 1093.5,-562.5 632.5,-562.5"/>
<text text-anchor="start" x="639.0035" y="-573.9" font-family="Arial" font-size="14.00" fill="#000000">payment_method_type </text>
<text text-anchor="start" x="785.2783" y="-573.9" font-family="Arial" font-size="14.00" fill="#666666">[enum(&#39;bank_transfer&#39;,&#39;direct_debit&#39;,&#39;credit card&#39;)]</text>
<polygon fill="none" stroke="#000000" points="632.5,-532.5 632.5,-562.5 1093.5,-562.5 1093.5,-532.5 632.5,-532.5"/>
<text text-anchor="start" x="639.5" y="-543.9" font-family="Arial" font-size="14.00" fill="#000000">payment_method_id </text>
<text text-anchor="start" x="770.2082" y="-543.9" font-family="Arial" font-size="14.00" fill="#666666">[int(11) unsigned]</text>
<polygon fill="none" stroke="#000000" points="632.5,-502.5 632.5,-532.5 1093.5,-532.5 1093.5,-502.5 632.5,-502.5"/>
<text text-anchor="start" x="639.5" y="-513.9" font-family="Arial" font-size="14.00" fill="#000000">payee_bank_account </text>
<text text-anchor="start" x="776.455" y="-513.9" font-family="Arial" font-size="14.00" fill="#666666">[int(11) unsigned]</text>
<polygon fill="none" stroke="#000000" points="632.5,-472.5 632.5,-502.5 1093.5,-502.5 1093.5,-472.5 632.5,-472.5"/>
<text text-anchor="start" x="639.5" y="-483.9" font-family="Arial" font-size="14.00" fill="#000000">due </text>
<text text-anchor="start" x="666.7384" y="-483.9" font-family="Arial" font-size="14.00" fill="#666666">[date]</text>
<polygon fill="none" stroke="#000000" points="632.5,-442.5 632.5,-472.5 1093.5,-472.5 1093.5,-442.5 632.5,-442.5"/>
<text text-anchor="start" x="639.5" y="-453.9" font-family="Arial" font-size="14.00" fill="#000000">pic </text>
<text text-anchor="start" x="661.2798" y="-453.9" font-family="Arial" font-size="14.00" fill="#666666">[int(11) unsigned]</text>
<polygon fill="none" stroke="#000000" points="632.5,-412.5 632.5,-442.5 1093.5,-442.5 1093.5,-412.5 632.5,-412.5"/>
<text text-anchor="start" x="639.5" y="-423.9" font-family="Arial" font-size="14.00" fill="#000000">classification </text>
<text text-anchor="start" x="722.7286" y="-423.9" font-family="Arial" font-size="14.00" fill="#666666">[int(11) unsigned]</text>
<polygon fill="none" stroke="#000000" stroke-width="3" points="630.5,-411.5 630.5,-809.5 1094.5,-809.5 1094.5,-411.5 630.5,-411.5"/>
</g>
<!-- tenant -->
<g id="node3" class="node">
<title>tenant</title>
<polygon fill="#efefef" stroke="transparent" points="43.5,-162.5 43.5,-197.5 234.5,-197.5 234.5,-162.5 43.5,-162.5"/>
<polygon fill="none" stroke="#000000" points="43.5,-162.5 43.5,-197.5 234.5,-197.5 234.5,-162.5 43.5,-162.5"/>
<text text-anchor="start" x="50.2014" y="-175.3" font-family="Arial Bold" font-size="18.00" fill="#000000">tenant</text>
<text text-anchor="start" x="100.2306" y="-175.3" font-family="Arial" font-size="14.00" fill="#000000">    </text>
<text text-anchor="start" x="134.4354" y="-175.3" font-family="Arial" font-size="14.00" fill="#666666">[BASE TABLE]</text>
<polygon fill="none" stroke="#000000" points="43.5,-132.5 43.5,-162.5 234.5,-162.5 234.5,-132.5 43.5,-132.5"/>
<text text-anchor="start" x="50.5" y="-143.9" font-family="Arial" font-size="14.00" fill="#000000">id    </text>
<text text-anchor="start" x="95.594" y="-143.9" font-family="Arial" font-size="14.00" fill="#666666">[int(11) unsigned]</text>
</g>
<!-- invoice_process&#45;&gt;tenant -->
<g id="edge2" class="edge">
<title>invoice_process:tenant&#45;&gt;tenant:id</title>
<path fill="none" stroke="#000000" d="M622.3577,-727.378C398.2534,-721.9176 395.1125,-534.0493 285.5,-331 245.2898,-256.5136 319.1468,-147.5 234.5,-147.5"/>
<polygon fill="#000000" stroke="#000000" points="622.5007,-727.3796 632.4458,-731.9997 627.5004,-727.4398 632.5,-727.5 632.5,-727.5 632.5,-727.5 627.5004,-727.4398 632.5542,-723.0003 622.5007,-727.3796 622.5007,-727.3796"/>
<text text-anchor="start" x="401.2665" y="-737.5" font-family="Arial" font-size="10.00" fill="#000000">FOREIGN KEY (tenant) REFERENCES tenant (id)</text>
</g>
<!-- business_partner -->
<g id="node4" class="node">
<title>business_partner</title>
<polygon fill="#efefef" stroke="transparent" points="338.5,-192.5 338.5,-227.5 617.5,-227.5 617.5,-192.5 338.5,-192.5"/>
<polygon fill="none" stroke="#000000" points="338.5,-192.5 338.5,-227.5 617.5,-227.5 617.5,-192.5 338.5,-192.5"/>
<text text-anchor="start" x="345.1977" y="-205.3" font-family="Arial Bold" font-size="18.00" fill="#000000">business_partner</text>
<text text-anchor="start" x="483.2343" y="-205.3" font-family="Arial" font-size="14.00" fill="#000000">    </text>
<text text-anchor="start" x="517.4391" y="-205.3" font-family="Arial" font-size="14.00" fill="#666666">[BASE TABLE]</text>
<polygon fill="none" stroke="#000000" points="338.5,-162.5 338.5,-192.5 617.5,-192.5 617.5,-162.5 338.5,-162.5"/>
<text text-anchor="start" x="345.5" y="-173.9" font-family="Arial" font-size="14.00" fill="#000000">id    </text>
<text text-anchor="start" x="390.594" y="-173.9" font-family="Arial" font-size="14.00" fill="#666666">[int(11) unsigned]</text>
<polygon fill="none" stroke="#000000" points="338.5,-132.5 338.5,-162.5 617.5,-162.5 617.5,-132.5 338.5,-132.5"/>
<text text-anchor="start" x="345.5" y="-143.9" font-family="Arial" font-size="14.00" fill="#000000">tenant    </text>
<text text-anchor="start" x="418.6164" y="-143.9" font-family="Arial" font-size="14.00" fill="#666666">[int(11) unsigned]</text>
<polygon fill="none" stroke="#000000" points="338.5,-102.5 338.5,-132.5 617.5,-132.5 617.5,-102.5 338.5,-102.5"/>
<text text-anchor="start" x="345.5" y="-113.9" font-family="Arial" font-size="14.00" fill="#000000">name    </text>
<text text-anchor="start" x="414.7132" y="-113.9" font-family="Arial" font-size="14.00" fill="#666666">[varchar(255)]</text>
</g>
<!-- invoice_process&#45;&gt;business_partner -->
<g id="edge3" class="edge">
<title>invoice_process:payee&#45;&gt;business_partner:id</title>
<path fill="none" stroke="#000000" d="M622.5073,-605.5829C550.2393,-574.5624 709.3788,-177.5 617.5,-177.5"/>
<polygon fill="#000000" stroke="#000000" points="622.6791,-605.6158 631.6521,-611.9194 627.5896,-606.5579 632.5,-607.5 632.5,-607.5 632.5,-607.5 627.5896,-606.5579 633.3479,-603.0806 622.6791,-605.6158 622.6791,-605.6158"/>
<text text-anchor="start" x="353.099" y="-617.5" font-family="Arial" font-size="10.00" fill="#000000">FOREIGN KEY (payee) REFERENCES business_partner (id)</text>
</g>
<!-- bp_bank_account -->
<g id="node5" class="node">
<title>bp_bank_account</title>
<polygon fill="#efefef" stroke="transparent" points="721.5,-252.5 721.5,-287.5 1004.5,-287.5 1004.5,-252.5 721.5,-252.5"/>
<polygon fill="none" stroke="#000000" points="721.5,-252.5 721.5,-287.5 1004.5,-287.5 1004.5,-252.5 721.5,-252.5"/>
<text text-anchor="start" x="728.1808" y="-265.3" font-family="Arial Bold" font-size="18.00" fill="#000000">bp_bank_account</text>
<text text-anchor="start" x="870.2512" y="-265.3" font-family="Arial" font-size="14.00" fill="#000000">    </text>
<text text-anchor="start" x="904.456" y="-265.3" font-family="Arial" font-size="14.00" fill="#666666">[BASE TABLE]</text>
<polygon fill="none" stroke="#000000" points="721.5,-222.5 721.5,-252.5 1004.5,-252.5 1004.5,-222.5 721.5,-222.5"/>
<text text-anchor="start" x="728.5" y="-233.9" font-family="Arial" font-size="14.00" fill="#000000">id    </text>
<text text-anchor="start" x="773.594" y="-233.9" font-family="Arial" font-size="14.00" fill="#666666">[int(11) unsigned]</text>
<polygon fill="none" stroke="#000000" points="721.5,-192.5 721.5,-222.5 1004.5,-222.5 1004.5,-192.5 721.5,-192.5"/>
<text text-anchor="start" x="728.5" y="-203.9" font-family="Arial" font-size="14.00" fill="#000000">owner    </text>
<text text-anchor="start" x="800.8198" y="-203.9" font-family="Arial" font-size="14.00" fill="#666666">[int(11) unsigned]</text>
<polygon fill="none" stroke="#000000" points="721.5,-162.5 721.5,-192.5 1004.5,-192.5 1004.5,-162.5 721.5,-162.5"/>
<text text-anchor="start" x="728.5" y="-173.9" font-family="Arial" font-size="14.00" fill="#000000">name    </text>
<text text-anchor="start" x="797.7132" y="-173.9" font-family="Arial" font-size="14.00" fill="#666666">[varchar(255)]</text>
<polygon fill="none" stroke="#000000" points="721.5,-132.5 721.5,-162.5 1004.5,-162.5 1004.5,-132.5 721.5,-132.5"/>
<text text-anchor="start" x="728.5" y="-143.9" font-family="Arial" font-size="14.00" fill="#000000">bank_code    </text>
<text text-anchor="start" x="831.183" y="-143.9" font-family="Arial" font-size="14.00" fill="#666666">[char(4)]</text>
<polygon fill="none" stroke="#000000" points="721.5,-102.5 721.5,-132.5 1004.5,-132.5 1004.5,-102.5 721.5,-102.5"/>
<text text-anchor="start" x="728.5" y="-113.9" font-family="Arial" font-size="14.00" fill="#000000">account_type    </text>
<text text-anchor="start" x="845.9642" y="-113.9" font-family="Arial" font-size="14.00" fill="#666666">[int(1)]</text>
<polygon fill="none" stroke="#000000" points="721.5,-72.5 721.5,-102.5 1004.5,-102.5 1004.5,-72.5 721.5,-72.5"/>
<text text-anchor="start" x="728.5" y="-83.9" font-family="Arial" font-size="14.00" fill="#000000">branch    </text>
<text text-anchor="start" x="805.4958" y="-83.9" font-family="Arial" font-size="14.00" fill="#666666">[char(5)]</text>
<polygon fill="none" stroke="#000000" points="721.5,-42.5 721.5,-72.5 1004.5,-72.5 1004.5,-42.5 721.5,-42.5"/>
<text text-anchor="start" x="728.5" y="-53.9" font-family="Arial" font-size="14.00" fill="#000000">account_number    </text>
<text text-anchor="start" x="866.96" y="-53.9" font-family="Arial" font-size="14.00" fill="#666666">[char(8)]</text>
</g>
<!-- invoice_process&#45;&gt;bp_bank_account -->
<g id="edge4" class="edge">
<title>invoice_process:payee_bank_account&#45;&gt;bp_bank_account:id</title>
<path fill="none" stroke="#000000" d="M622.4764,-516.7231C570.0804,-507.8786 608.3026,-425.4177 632.5,-367 641.1591,-346.095 654.7965,-349.0059 668.5,-331 697.4288,-292.9888 673.7326,-237.5 721.5,-237.5"/>
<polygon fill="#000000" stroke="#000000" points="622.5299,-516.7271 632.1522,-521.9865 627.515,-517.1136 632.5,-517.5 632.5,-517.5 632.5,-517.5 627.515,-517.1136 632.8478,-513.0135 622.5299,-516.7271 622.5299,-516.7271"/>
<text text-anchor="start" x="283.0735" y="-527.5" font-family="Arial" font-size="10.00" fill="#000000">FOREIGN KEY (payee_bank_account) REFERENCES bp_bank_account (id)</text>
</g>
<!-- user -->
<g id="node6" class="node">
<title>user</title>
<polygon fill="#efefef" stroke="transparent" points="1108.5,-192.5 1108.5,-227.5 1303.5,-227.5 1303.5,-192.5 1108.5,-192.5"/>
<polygon fill="none" stroke="#000000" points="1108.5,-192.5 1108.5,-227.5 1303.5,-227.5 1303.5,-192.5 1108.5,-192.5"/>
<text text-anchor="start" x="1124.7137" y="-205.3" font-family="Arial Bold" font-size="18.00" fill="#000000">user</text>
<text text-anchor="start" x="1159.7183" y="-205.3" font-family="Arial" font-size="14.00" fill="#000000">    </text>
<text text-anchor="start" x="1193.9231" y="-205.3" font-family="Arial" font-size="14.00" fill="#666666">[BASE TABLE]</text>
<polygon fill="none" stroke="#000000" points="1108.5,-162.5 1108.5,-192.5 1303.5,-192.5 1303.5,-162.5 1108.5,-162.5"/>
<text text-anchor="start" x="1115.5" y="-173.9" font-family="Arial" font-size="14.00" fill="#000000">id    </text>
<text text-anchor="start" x="1160.594" y="-173.9" font-family="Arial" font-size="14.00" fill="#666666">[int(11) unsigned]</text>
<polygon fill="none" stroke="#000000" points="1108.5,-132.5 1108.5,-162.5 1303.5,-162.5 1303.5,-132.5 1108.5,-132.5"/>
<text text-anchor="start" x="1115.3717" y="-143.9" font-family="Arial" font-size="14.00" fill="#000000">tenant    </text>
<text text-anchor="start" x="1188.4881" y="-143.9" font-family="Arial" font-size="14.00" fill="#666666">[int(11) unsigned]</text>
<polygon fill="none" stroke="#000000" points="1108.5,-102.5 1108.5,-132.5 1303.5,-132.5 1303.5,-102.5 1108.5,-102.5"/>
<text text-anchor="start" x="1115.5" y="-113.9" font-family="Arial" font-size="14.00" fill="#000000">name    </text>
<text text-anchor="start" x="1184.7132" y="-113.9" font-family="Arial" font-size="14.00" fill="#666666">[varchar(255)]</text>
</g>
<!-- invoice_process&#45;&gt;user -->
<g id="edge5" class="edge">
<title>invoice_process:pic&#45;&gt;user:id</title>
<path fill="none" stroke="#000000" d="M1103.5472,-456.7931C1204.7056,-441.3341 987.5282,-177.5 1108.5,-177.5"/>
<polygon fill="#000000" stroke="#000000" points="1103.4753,-456.7981 1093.1841,-453.0111 1098.4877,-457.149 1093.5,-457.5 1093.5,-457.5 1093.5,-457.5 1098.4877,-457.149 1093.8159,-461.9889 1103.4753,-456.7981 1103.4753,-456.7981"/>
<text text-anchor="start" x="1100.948" y="-467.5" font-family="Arial" font-size="10.00" fill="#000000">FOREIGN KEY (pic) REFERENCES user (id)</text>
</g>
<!-- classification -->
<g id="node7" class="node">
<title>classification</title>
<polygon fill="#efefef" stroke="transparent" points="1407.5,-177.5 1407.5,-212.5 1650.5,-212.5 1650.5,-177.5 1407.5,-177.5"/>
<polygon fill="none" stroke="#000000" points="1407.5,-177.5 1407.5,-212.5 1650.5,-212.5 1650.5,-177.5 1407.5,-177.5"/>
<text text-anchor="start" x="1414.213" y="-190.3" font-family="Arial Bold" font-size="18.00" fill="#000000">classification</text>
<text text-anchor="start" x="1516.219" y="-190.3" font-family="Arial" font-size="14.00" fill="#000000">    </text>
<text text-anchor="start" x="1550.4238" y="-190.3" font-family="Arial" font-size="14.00" fill="#666666">[BASE TABLE]</text>
<polygon fill="none" stroke="#000000" points="1407.5,-147.5 1407.5,-177.5 1650.5,-177.5 1650.5,-147.5 1407.5,-147.5"/>
<text text-anchor="start" x="1414.5" y="-158.9" font-family="Arial" font-size="14.00" fill="#000000">id    </text>
<text text-anchor="start" x="1459.594" y="-158.9" font-family="Arial" font-size="14.00" fill="#666666">[int(11) unsigned]</text>
<polygon fill="none" stroke="#000000" points="1407.5,-117.5 1407.5,-147.5 1650.5,-147.5 1650.5,-117.5 1407.5,-117.5"/>
<text text-anchor="start" x="1414.5" y="-128.9" font-family="Arial" font-size="14.00" fill="#000000">remarks    </text>
<text text-anchor="start" x="1499.2518" y="-128.9" font-family="Arial" font-size="14.00" fill="#666666">[varchar(2000)]</text>
</g>
<!-- invoice_process&#45;&gt;classification -->
<g id="edge6" class="edge">
<title>invoice_process:classification&#45;&gt;classification:id</title>
<path fill="none" stroke="#000000" d="M1103.5211,-427.484C1220.4898,-427.0855 1272.4695,-418.6019 1355.5,-331 1409.4147,-274.117 1329.1261,-162.5 1407.5,-162.5"/>
<polygon fill="#000000" stroke="#000000" points="1103.5,-427.4839 1093.4928,-423 1098.5,-427.492 1093.5,-427.5 1093.5,-427.5 1093.5,-427.5 1098.5,-427.492 1093.5072,-432 1103.5,-427.4839 1103.5,-427.4839"/>
<text text-anchor="start" x="1100.3905" y="-437.5" font-family="Arial" font-size="10.00" fill="#000000">FOREIGN KEY (classification) REFERENCES classification (id)</text>
</g>
<!-- invoice_file -->
<g id="node2" class="node">
<title>invoice_file</title>
<polygon fill="#efefef" stroke="transparent" points="748.5,-1082.5 748.5,-1117.5 978.5,-1117.5 978.5,-1082.5 748.5,-1082.5"/>
<polygon fill="none" stroke="#000000" points="748.5,-1082.5 748.5,-1117.5 978.5,-1117.5 978.5,-1082.5 748.5,-1082.5"/>
<text text-anchor="start" x="755.211" y="-1095.3" font-family="Arial Bold" font-size="18.00" fill="#000000">invoice_file</text>
<text text-anchor="start" x="844.221" y="-1095.3" font-family="Arial" font-size="14.00" fill="#000000">    </text>
<text text-anchor="start" x="878.4258" y="-1095.3" font-family="Arial" font-size="14.00" fill="#666666">[BASE TABLE]</text>
<polygon fill="none" stroke="#000000" points="748.5,-1052.5 748.5,-1082.5 978.5,-1082.5 978.5,-1052.5 748.5,-1052.5"/>
<text text-anchor="start" x="755.5" y="-1063.9" font-family="Arial" font-size="14.00" fill="#000000">id    </text>
<text text-anchor="start" x="800.594" y="-1063.9" font-family="Arial" font-size="14.00" fill="#666666">[int(11) unsigned]</text>
<polygon fill="none" stroke="#000000" points="748.5,-1022.5 748.5,-1052.5 978.5,-1052.5 978.5,-1022.5 748.5,-1022.5"/>
<text text-anchor="start" x="755.5" y="-1033.9" font-family="Arial" font-size="14.00" fill="#000000">tenant    </text>
<text text-anchor="start" x="828.6164" y="-1033.9" font-family="Arial" font-size="14.00" fill="#666666">[int(11) unsigned]</text>
<polygon fill="none" stroke="#000000" points="748.5,-992.5 748.5,-1022.5 978.5,-1022.5 978.5,-992.5 748.5,-992.5"/>
<text text-anchor="start" x="755.5" y="-1003.9" font-family="Arial" font-size="14.00" fill="#000000">filename    </text>
<text text-anchor="start" x="842.5996" y="-1003.9" font-family="Arial" font-size="14.00" fill="#666666">[varchar(2000)]</text>
<polygon fill="none" stroke="#000000" points="748.5,-962.5 748.5,-992.5 978.5,-992.5 978.5,-962.5 748.5,-962.5"/>
<text text-anchor="start" x="755.5" y="-973.9" font-family="Arial" font-size="14.00" fill="#000000">object_url    </text>
<text text-anchor="start" x="850.3822" y="-973.9" font-family="Arial" font-size="14.00" fill="#666666">[varchar(2000)]</text>
<polygon fill="none" stroke="#000000" points="748.5,-932.5 748.5,-962.5 978.5,-962.5 978.5,-932.5 748.5,-932.5"/>
<text text-anchor="start" x="755.5" y="-943.9" font-family="Arial" font-size="14.00" fill="#000000">process_id    </text>
<text text-anchor="start" x="857.385" y="-943.9" font-family="Arial" font-size="14.00" fill="#666666">[int(11) unsigned]</text>
</g>
<!-- invoice_file&#45;&gt;invoice_process -->
<g id="edge1" class="edge">
<title>invoice_file:process_id&#45;&gt;invoice_process:id</title>
<path fill="none" stroke="#000000" d="M864.0429,-922.4706C874.4853,-832.0552 1032.7447,-938.9325 1093.5,-854 1118.4529,-819.1172 1136.3889,-757.5 1093.5,-757.5"/>
<polygon fill="#000000" stroke="#000000" points="864.0406,-922.5146 859.0066,-932.2567 863.7703,-927.5073 863.5,-932.5 863.5,-932.5 863.5,-932.5 863.7703,-927.5073 867.9934,-932.7433 864.0406,-922.5146 864.0406,-922.5146"/>
<text text-anchor="start" x="568.049" y="-942.5" font-family="Arial" font-size="10.00" fill="#000000">FOREIGN KEY (process_id) REFERENCES invoice_process (id)</text>
</g>
</g>
</svg>
