<?xml version="1.0" encoding="UTF-8" standalone="no"?>
<!DOCTYPE svg PUBLIC "-//W3C//DTD SVG 1.1//EN"
 "http://www.w3.org/Graphics/SVG/1.1/DTD/svg11.dtd">
<!-- Generated by graphviz version 2.40.1 (20161225.0304)
 -->
<!-- Title: invoice_file Pages: 1 -->
<svg width="882pt" height="772pt"
 viewBox="0.00 0.00 881.50 772.00" xmlns="http://www.w3.org/2000/svg" xmlns:xlink="http://www.w3.org/1999/xlink">
<g id="graph0" class="graph" transform="scale(1 1) rotate(0) translate(4 768)">
<title>invoice_file</title>
<polygon fill="#ffffff" stroke="transparent" points="-4,4 -4,-768 877.5,-768 877.5,4 -4,4"/>
<!-- invoice_file -->
<g id="node1" class="node">
<title>invoice_file</title>
<polygon fill="#efefef" stroke="transparent" points="246.5,-682.5 246.5,-717.5 476.5,-717.5 476.5,-682.5 246.5,-682.5"/>
<polygon fill="none" stroke="#000000" points="246.5,-682.5 246.5,-717.5 476.5,-717.5 476.5,-682.5 246.5,-682.5"/>
<text text-anchor="start" x="253.211" y="-695.3" font-family="Arial Bold" font-size="18.00" fill="#000000">invoice_file</text>
<text text-anchor="start" x="342.221" y="-695.3" font-family="Arial" font-size="14.00" fill="#000000">    </text>
<text text-anchor="start" x="376.4258" y="-695.3" font-family="Arial" font-size="14.00" fill="#666666">[BASE TABLE]</text>
<polygon fill="none" stroke="#000000" points="246.5,-652.5 246.5,-682.5 476.5,-682.5 476.5,-652.5 246.5,-652.5"/>
<text text-anchor="start" x="253.5" y="-663.9" font-family="Arial" font-size="14.00" fill="#000000">id </text>
<text text-anchor="start" x="268.2798" y="-663.9" font-family="Arial" font-size="14.00" fill="#666666">[int(11) unsigned]</text>
<polygon fill="none" stroke="#000000" points="246.5,-622.5 246.5,-652.5 476.5,-652.5 476.5,-622.5 246.5,-622.5"/>
<text text-anchor="start" x="253.5" y="-633.9" font-family="Arial" font-size="14.00" fill="#000000">tenant </text>
<text text-anchor="start" x="296.3022" y="-633.9" font-family="Arial" font-size="14.00" fill="#666666">[int(11) unsigned]</text>
<polygon fill="none" stroke="#000000" points="246.5,-592.5 246.5,-622.5 476.5,-622.5 476.5,-592.5 246.5,-592.5"/>
<text text-anchor="start" x="253.5" y="-603.9" font-family="Arial" font-size="14.00" fill="#000000">filename </text>
<text text-anchor="start" x="310.2854" y="-603.9" font-family="Arial" font-size="14.00" fill="#666666">[varchar(2000)]</text>
<polygon fill="none" stroke="#000000" points="246.5,-562.5 246.5,-592.5 476.5,-592.5 476.5,-562.5 246.5,-562.5"/>
<text text-anchor="start" x="253.5" y="-573.9" font-family="Arial" font-size="14.00" fill="#000000">object_url </text>
<text text-anchor="start" x="318.068" y="-573.9" font-family="Arial" font-size="14.00" fill="#666666">[varchar(2000)]</text>
<polygon fill="none" stroke="#000000" points="246.5,-532.5 246.5,-562.5 476.5,-562.5 476.5,-532.5 246.5,-532.5"/>
<text text-anchor="start" x="253.5" y="-543.9" font-family="Arial" font-size="14.00" fill="#000000">process_id </text>
<text text-anchor="start" x="325.0708" y="-543.9" font-family="Arial" font-size="14.00" fill="#666666">[int(11) unsigned]</text>
<polygon fill="none" stroke="#000000" stroke-width="3" points="245,-531.5 245,-719.5 478,-719.5 478,-531.5 245,-531.5"/>
</g>
<!-- tenant -->
<g id="node2" class="node">
<title>tenant</title>
<polygon fill="#efefef" stroke="transparent" points="43.5,-222.5 43.5,-257.5 234.5,-257.5 234.5,-222.5 43.5,-222.5"/>
<polygon fill="none" stroke="#000000" points="43.5,-222.5 43.5,-257.5 234.5,-257.5 234.5,-222.5 43.5,-222.5"/>
<text text-anchor="start" x="50.2014" y="-235.3" font-family="Arial Bold" font-size="18.00" fill="#000000">tenant</text>
<text text-anchor="start" x="100.2306" y="-235.3" font-family="Arial" font-size="14.00" fill="#000000">    </text>
<text text-anchor="start" x="134.4354" y="-235.3" font-family="Arial" font-size="14.00" fill="#666666">[BASE TABLE]</text>
<polygon fill="none" stroke="#000000" points="43.5,-192.5 43.5,-222.5 234.5,-222.5 234.5,-192.5 43.5,-192.5"/>
<text text-anchor="start" x="50.5" y="-203.9" font-family="Arial" font-size="14.00" fill="#000000">id    </text>
<text text-anchor="start" x="95.594" y="-203.9" font-family="Arial" font-size="14.00" fill="#666666">[int(11) unsigned]</text>
</g>
<!-- invoice_file&#45;&gt;tenant -->
<g id="edge1" class="edge">
<title>invoice_file:tenant&#45;&gt;tenant:id</title>
<path fill="none" stroke="#000000" d="M236.5228,-635.5829C164.4868,-604.5624 326.3587,-207.5 234.5,-207.5"/>
<polygon fill="#000000" stroke="#000000" points="236.6796,-635.6129 245.6508,-641.9192 241.5898,-636.5565 246.5,-637.5 246.5,-637.5 246.5,-637.5 241.5898,-636.5565 247.3492,-633.0808 236.6796,-635.6129 236.6796,-635.6129"/>
<text text-anchor="start" x="15.2665" y="-647.5" font-family="Arial" font-size="10.00" fill="#000000">FOREIGN KEY (tenant) REFERENCES tenant (id)</text>
</g>
<!-- invoice_process -->
<g id="node3" class="node">
<title>invoice_process</title>
<polygon fill="#efefef" stroke="transparent" points="338.5,-372.5 338.5,-407.5 830.5,-407.5 830.5,-372.5 338.5,-372.5"/>
<polygon fill="none" stroke="#000000" points="338.5,-372.5 338.5,-407.5 830.5,-407.5 830.5,-372.5 338.5,-372.5"/>
<text text-anchor="start" x="456.204" y="-385.3" font-family="Arial Bold" font-size="18.00" fill="#000000">invoice_process</text>
<text text-anchor="start" x="585.228" y="-385.3" font-family="Arial" font-size="14.00" fill="#000000">    </text>
<text text-anchor="start" x="619.4328" y="-385.3" font-family="Arial" font-size="14.00" fill="#666666">[BASE TABLE]</text>
<polygon fill="none" stroke="#000000" points="338.5,-342.5 338.5,-372.5 830.5,-372.5 830.5,-342.5 338.5,-342.5"/>
<text text-anchor="start" x="345.5" y="-353.9" font-family="Arial" font-size="14.00" fill="#000000">id    </text>
<text text-anchor="start" x="390.594" y="-353.9" font-family="Arial" font-size="14.00" fill="#666666">[int(11) unsigned]</text>
<polygon fill="none" stroke="#000000" points="338.5,-312.5 338.5,-342.5 830.5,-342.5 830.5,-312.5 338.5,-312.5"/>
<text text-anchor="start" x="345.5" y="-323.9" font-family="Arial" font-size="14.00" fill="#000000">tenant    </text>
<text text-anchor="start" x="418.6164" y="-323.9" font-family="Arial" font-size="14.00" fill="#666666">[int(11) unsigned]</text>
<polygon fill="none" stroke="#000000" points="338.5,-282.5 338.5,-312.5 830.5,-312.5 830.5,-282.5 338.5,-282.5"/>
<text text-anchor="start" x="345.5" y="-293.9" font-family="Arial" font-size="14.00" fill="#000000">state    </text>
<text text-anchor="start" x="410.0512" y="-293.9" font-family="Arial" font-size="14.00" fill="#666666">[int(2)]</text>
<polygon fill="none" stroke="#000000" points="338.5,-252.5 338.5,-282.5 830.5,-282.5 830.5,-252.5 338.5,-252.5"/>
<text text-anchor="start" x="345.5" y="-263.9" font-family="Arial" font-size="14.00" fill="#000000">amount    </text>
<text text-anchor="start" x="426.3864" y="-263.9" font-family="Arial" font-size="14.00" fill="#666666">[int(11) unsigned]</text>
<polygon fill="none" stroke="#000000" points="338.5,-222.5 338.5,-252.5 830.5,-252.5 830.5,-222.5 338.5,-222.5"/>
<text text-anchor="start" x="345.5" y="-233.9" font-family="Arial" font-size="14.00" fill="#000000">payee    </text>
<text text-anchor="start" x="417.8352" y="-233.9" font-family="Arial" font-size="14.00" fill="#666666">[int(11) unsigned]</text>
<polygon fill="none" stroke="#000000" points="338.5,-192.5 338.5,-222.5 830.5,-222.5 830.5,-192.5 338.5,-192.5"/>
<text text-anchor="start" x="345.3464" y="-203.9" font-family="Arial" font-size="14.00" fill="#000000">payment_method_type    </text>
<text text-anchor="start" x="521.9354" y="-203.9" font-family="Arial" font-size="14.00" fill="#666666">[enum(&#39;bank_transfer&#39;,&#39;direct_debit&#39;,&#39;credit card&#39;)]</text>
<polygon fill="none" stroke="#000000" points="338.5,-162.5 338.5,-192.5 830.5,-192.5 830.5,-162.5 338.5,-162.5"/>
<text text-anchor="start" x="345.5" y="-173.9" font-family="Arial" font-size="14.00" fill="#000000">payment_method_id    </text>
<text text-anchor="start" x="506.5224" y="-173.9" font-family="Arial" font-size="14.00" fill="#666666">[int(11) unsigned]</text>
<polygon fill="none" stroke="#000000" points="338.5,-132.5 338.5,-162.5 830.5,-162.5 830.5,-132.5 338.5,-132.5"/>
<text text-anchor="start" x="345.5" y="-143.9" font-family="Arial" font-size="14.00" fill="#000000">payee_bank_account    </text>
<text text-anchor="start" x="512.7692" y="-143.9" font-family="Arial" font-size="14.00" fill="#666666">[int(11) unsigned]</text>
<polygon fill="none" stroke="#000000" points="338.5,-102.5 338.5,-132.5 830.5,-132.5 830.5,-102.5 338.5,-102.5"/>
<text text-anchor="start" x="345.5" y="-113.9" font-family="Arial" font-size="14.00" fill="#000000">due    </text>
<text text-anchor="start" x="403.0526" y="-113.9" font-family="Arial" font-size="14.00" fill="#666666">[date]</text>
<polygon fill="none" stroke="#000000" points="338.5,-72.5 338.5,-102.5 830.5,-102.5 830.5,-72.5 338.5,-72.5"/>
<text text-anchor="start" x="345.5" y="-83.9" font-family="Arial" font-size="14.00" fill="#000000">pic    </text>
<text text-anchor="start" x="397.594" y="-83.9" font-family="Arial" font-size="14.00" fill="#666666">[int(11) unsigned]</text>
<polygon fill="none" stroke="#000000" points="338.5,-42.5 338.5,-72.5 830.5,-72.5 830.5,-42.5 338.5,-42.5"/>
<text text-anchor="start" x="345.5" y="-53.9" font-family="Arial" font-size="14.00" fill="#000000">classification    </text>
<text text-anchor="start" x="459.0428" y="-53.9" font-family="Arial" font-size="14.00" fill="#666666">[int(11) unsigned]</text>
</g>
<!-- invoice_file&#45;&gt;invoice_process -->
<g id="edge2" class="edge">
<title>invoice_file:process_id&#45;&gt;invoice_process:id</title>
<path fill="none" stroke="#000000" d="M486.489,-544.8454C499.9772,-535.6812 490.3707,-504.9534 476.5,-487 437.7469,-436.8405 377.2531,-501.1595 338.5,-451 313.0936,-418.1156 296.9444,-357.5 338.5,-357.5"/>
<polygon fill="#000000" stroke="#000000" points="486.1645,-544.9315 475.3442,-543.151 481.3323,-546.2158 476.5,-547.5 476.5,-547.5 476.5,-547.5 481.3323,-546.2158 477.6558,-551.849 486.1645,-544.9315 486.1645,-544.9315"/>
<text text-anchor="start" x="483.049" y="-557.5" font-family="Arial" font-size="10.00" fill="#000000">FOREIGN KEY (process_id) REFERENCES invoice_process (id)</text>
</g>
</g>
</svg>
