<?xml version="1.0" encoding="UTF-8" standalone="no"?>
<!DOCTYPE svg PUBLIC "-//W3C//DTD SVG 1.1//EN"
 "http://www.w3.org/Graphics/SVG/1.1/DTD/svg11.dtd">
<!-- Generated by graphviz version 2.40.1 (20161225.0304)
 -->
<!-- Title: payment_method_credit_card Pages: 1 -->
<svg width="671pt" height="412pt"
 viewBox="0.00 0.00 670.50 412.00" xmlns="http://www.w3.org/2000/svg" xmlns:xlink="http://www.w3.org/1999/xlink">
<g id="graph0" class="graph" transform="scale(1 1) rotate(0) translate(4 408)">
<title>payment_method_credit_card</title>
<polygon fill="#ffffff" stroke="transparent" points="-4,4 -4,-408 666.5,-408 666.5,4 -4,4"/>
<!-- payment_method_credit_card -->
<g id="node1" class="node">
<title>payment_method_credit_card</title>
<polygon fill="#efefef" stroke="transparent" points="238,-322.5 238,-357.5 617,-357.5 617,-322.5 238,-322.5"/>
<polygon fill="none" stroke="#000000" points="238,-322.5 238,-357.5 617,-357.5 617,-322.5 238,-322.5"/>
<text text-anchor="start" x="244.6847" y="-335.3" font-family="Arial Bold" font-size="18.00" fill="#000000">payment_method_credit_card</text>
<text text-anchor="start" x="482.7473" y="-335.3" font-family="Arial" font-size="14.00" fill="#000000">    </text>
<text text-anchor="start" x="516.9521" y="-335.3" font-family="Arial" font-size="14.00" fill="#666666">[BASE TABLE]</text>
<polygon fill="none" stroke="#000000" points="238,-292.5 238,-322.5 617,-322.5 617,-292.5 238,-292.5"/>
<text text-anchor="start" x="245" y="-303.9" font-family="Arial" font-size="14.00" fill="#000000">id </text>
<text text-anchor="start" x="259.7798" y="-303.9" font-family="Arial" font-size="14.00" fill="#666666">[int(11) unsigned]</text>
<polygon fill="none" stroke="#000000" points="238,-262.5 238,-292.5 617,-292.5 617,-262.5 238,-262.5"/>
<text text-anchor="start" x="245" y="-273.9" font-family="Arial" font-size="14.00" fill="#000000">tenant </text>
<text text-anchor="start" x="287.8022" y="-273.9" font-family="Arial" font-size="14.00" fill="#666666">[int(11) unsigned]</text>
<polygon fill="none" stroke="#000000" points="238,-232.5 238,-262.5 617,-262.5 617,-232.5 238,-232.5"/>
<text text-anchor="start" x="245" y="-243.9" font-family="Arial" font-size="14.00" fill="#000000">name </text>
<text text-anchor="start" x="283.899" y="-243.9" font-family="Arial" font-size="14.00" fill="#666666">[varchar(255)]</text>
<polygon fill="none" stroke="#000000" stroke-width="3" points="236,-231.5 236,-359.5 618,-359.5 618,-231.5 236,-231.5"/>
</g>
<!-- tenant -->
<g id="node2" class="node">
<title>tenant</title>
<polygon fill="#efefef" stroke="transparent" points="332,-72.5 332,-107.5 523,-107.5 523,-72.5 332,-72.5"/>
<polygon fill="none" stroke="#000000" points="332,-72.5 332,-107.5 523,-107.5 523,-72.5 332,-72.5"/>
<text text-anchor="start" x="338.7014" y="-85.3" font-family="Arial Bold" font-size="18.00" fill="#000000">tenant</text>
<text text-anchor="start" x="388.7306" y="-85.3" font-family="Arial" font-size="14.00" fill="#000000">    </text>
<text text-anchor="start" x="422.9354" y="-85.3" font-family="Arial" font-size="14.00" fill="#666666">[BASE TABLE]</text>
<polygon fill="none" stroke="#000000" points="332,-42.5 332,-72.5 523,-72.5 523,-42.5 332,-42.5"/>
<text text-anchor="start" x="339" y="-53.9" font-family="Arial" font-size="14.00" fill="#000000">id    </text>
<text text-anchor="start" x="384.094" y="-53.9" font-family="Arial" font-size="14.00" fill="#666666">[int(11) unsigned]</text>
</g>
<!-- payment_method_credit_card&#45;&gt;tenant -->
<g id="edge1" class="edge">
<title>payment_method_credit_card:tenant&#45;&gt;tenant:id</title>
<path fill="none" stroke="#000000" d="M228.0678,-275.9787C200.4048,-266.4167 213.6739,-214.1467 238,-187 286.8614,-132.4732 516.6386,-205.5268 565.5,-151 565.5,-151 428,-42.5 428,-42.5"/>
<polygon fill="#000000" stroke="#000000" points="228.1153,-275.9859 237.3186,-281.9481 233.0576,-276.7429 238,-277.5 238,-277.5 238,-277.5 233.0576,-276.7429 238.6814,-273.0519 228.1153,-275.9859 228.1153,-275.9859"/>
<text text-anchor="start" x="6.7665" y="-287.5" font-family="Arial" font-size="10.00" fill="#000000">FOREIGN KEY (tenant) REFERENCES tenant (id)</text>
</g>
</g>
</svg>
