<?xml version="1.0" encoding="UTF-8" standalone="no"?>
<!DOCTYPE svg PUBLIC "-//W3C//DTD SVG 1.1//EN"
 "http://www.w3.org/Graphics/SVG/1.1/DTD/svg11.dtd">
<!-- Generated by graphviz version 2.40.1 (20161225.0304)
 -->
<!-- Title: payment_method_credit_card Pages: 1 -->
<svg width="647pt" height="472pt"
 viewBox="0.00 0.00 647.00 472.00" xmlns="http://www.w3.org/2000/svg" xmlns:xlink="http://www.w3.org/1999/xlink">
<g id="graph0" class="graph" transform="scale(1 1) rotate(0) translate(4 468)">
<title>payment_method_credit_card</title>
<polygon fill="#ffffff" stroke="transparent" points="-4,4 -4,-468 643,-468 643,4 -4,4"/>
<!-- payment_method_credit_card -->
<g id="node1" class="node">
<title>payment_method_credit_card</title>
<polygon fill="#efefef" stroke="transparent" points="99,-382.5 99,-417.5 478,-417.5 478,-382.5 99,-382.5"/>
<polygon fill="none" stroke="#000000" points="99,-382.5 99,-417.5 478,-417.5 478,-382.5 99,-382.5"/>
<text text-anchor="start" x="105.6847" y="-395.3" font-family="Arial Bold" font-size="18.00" fill="#000000">payment_method_credit_card</text>
<text text-anchor="start" x="343.7473" y="-395.3" font-family="Arial" font-size="14.00" fill="#000000">    </text>
<text text-anchor="start" x="377.9521" y="-395.3" font-family="Arial" font-size="14.00" fill="#666666">[BASE TABLE]</text>
<polygon fill="none" stroke="#000000" points="99,-352.5 99,-382.5 478,-382.5 478,-352.5 99,-352.5"/>
<text text-anchor="start" x="106" y="-363.9" font-family="Arial" font-size="14.00" fill="#000000">payment_method_id </text>
<text text-anchor="start" x="236.7082" y="-363.9" font-family="Arial" font-size="14.00" fill="#666666">[int(11) unsigned]</text>
<polygon fill="none" stroke="#000000" stroke-width="3" points="97,-351.5 97,-419.5 479,-419.5 479,-351.5 97,-351.5"/>
</g>
<!-- payment_method -->
<g id="node2" class="node">
<title>payment_method</title>
<polygon fill="#efefef" stroke="transparent" points="43,-192.5 43,-227.5 535,-227.5 535,-192.5 43,-192.5"/>
<polygon fill="none" stroke="#000000" points="43,-192.5 43,-227.5 535,-227.5 535,-192.5 43,-192.5"/>
<text text-anchor="start" x="155.6937" y="-205.3" font-family="Arial Bold" font-size="18.00" fill="#000000">payment_method</text>
<text text-anchor="start" x="294.7383" y="-205.3" font-family="Arial" font-size="14.00" fill="#000000">    </text>
<text text-anchor="start" x="328.9431" y="-205.3" font-family="Arial" font-size="14.00" fill="#666666">[BASE TABLE]</text>
<polygon fill="none" stroke="#000000" points="43,-162.5 43,-192.5 535,-192.5 535,-162.5 43,-162.5"/>
<text text-anchor="start" x="50" y="-173.9" font-family="Arial" font-size="14.00" fill="#000000">id    </text>
<text text-anchor="start" x="95.094" y="-173.9" font-family="Arial" font-size="14.00" fill="#666666">[int(11) unsigned]</text>
<polygon fill="none" stroke="#000000" points="43,-132.5 43,-162.5 535,-162.5 535,-132.5 43,-132.5"/>
<text text-anchor="start" x="50" y="-143.9" font-family="Arial" font-size="14.00" fill="#000000">tenant    </text>
<text text-anchor="start" x="123.1164" y="-143.9" font-family="Arial" font-size="14.00" fill="#666666">[int(11) unsigned]</text>
<polygon fill="none" stroke="#000000" points="43,-102.5 43,-132.5 535,-132.5 535,-102.5 43,-102.5"/>
<text text-anchor="start" x="49.8464" y="-113.9" font-family="Arial" font-size="14.00" fill="#000000">payment_method_type    </text>
<text text-anchor="start" x="226.4354" y="-113.9" font-family="Arial" font-size="14.00" fill="#666666">[enum(&#39;bank_transfer&#39;,&#39;direct_debit&#39;,&#39;credit card&#39;)]</text>
<polygon fill="none" stroke="#000000" points="43,-72.5 43,-102.5 535,-102.5 535,-72.5 43,-72.5"/>
<text text-anchor="start" x="50" y="-83.9" font-family="Arial" font-size="14.00" fill="#000000">name    </text>
<text text-anchor="start" x="119.2132" y="-83.9" font-family="Arial" font-size="14.00" fill="#666666">[char(255)]</text>
<polygon fill="none" stroke="#000000" points="43,-42.5 43,-72.5 535,-72.5 535,-42.5 43,-42.5"/>
<text text-anchor="start" x="50" y="-53.9" font-family="Arial" font-size="14.00" fill="#000000">is_default    </text>
<text text-anchor="start" x="144.1122" y="-53.9" font-family="Arial" font-size="14.00" fill="#666666">[tinyint(1)]</text>
</g>
<!-- payment_method_credit_card&#45;&gt;payment_method -->
<g id="edge1" class="edge">
<title>payment_method_credit_card:payment_method_id&#45;&gt;payment_method:id</title>
<path fill="none" stroke="#000000" d="M288.4857,-342.3977C277.948,-245.0481 108.3237,-361.4571 43,-271 18.6712,-237.3106 1.4444,-177.5 43,-177.5"/>
<polygon fill="#000000" stroke="#000000" points="288.4915,-342.5129 284.5058,-352.7288 288.7457,-347.5065 289,-352.5 289,-352.5 289,-352.5 288.7457,-347.5065 293.4942,-352.2712 288.4915,-342.5129 288.4915,-342.5129"/>
<text text-anchor="start" x="295.645" y="-362.5" font-family="Arial" font-size="10.00" fill="#000000">FOREIGN KEY (payment_method_id) REFERENCES payment_method (id)</text>
</g>
</g>
</svg>
