<?xml version="1.0" encoding="UTF-8" standalone="no"?>
<!DOCTYPE svg PUBLIC "-//W3C//DTD SVG 1.1//EN"
 "http://www.w3.org/Graphics/SVG/1.1/DTD/svg11.dtd">
<!-- Generated by graphviz version 2.40.1 (20161225.0304)
 -->
<!-- Title: payment_method Pages: 1 -->
<svg width="1858pt" height="959pt"
 viewBox="0.00 0.00 1858.00 959.00" xmlns="http://www.w3.org/2000/svg" xmlns:xlink="http://www.w3.org/1999/xlink">
<g id="graph0" class="graph" transform="scale(1 1) rotate(0) translate(4 955)">
<title>payment_method</title>
<polygon fill="#ffffff" stroke="transparent" points="-4,4 -4,-955 1854,-955 1854,4 -4,4"/>
<!-- payment_method -->
<g id="node1" class="node">
<title>payment_method</title>
<polygon fill="#efefef" stroke="transparent" points="652.5,-382.5 652.5,-417.5 1113.5,-417.5 1113.5,-382.5 652.5,-382.5"/>
<polygon fill="none" stroke="#000000" points="652.5,-382.5 652.5,-417.5 1113.5,-417.5 1113.5,-382.5 652.5,-382.5"/>
<text text-anchor="start" x="749.6937" y="-395.3" font-family="Arial Bold" font-size="18.00" fill="#000000">payment_method</text>
<text text-anchor="start" x="888.7383" y="-395.3" font-family="Arial" font-size="14.00" fill="#000000">    </text>
<text text-anchor="start" x="922.9431" y="-395.3" font-family="Arial" font-size="14.00" fill="#666666">[BASE TABLE]</text>
<polygon fill="none" stroke="#000000" points="652.5,-352.5 652.5,-382.5 1113.5,-382.5 1113.5,-352.5 652.5,-352.5"/>
<text text-anchor="start" x="659.5" y="-363.9" font-family="Arial" font-size="14.00" fill="#000000">id </text>
<text text-anchor="start" x="674.2798" y="-363.9" font-family="Arial" font-size="14.00" fill="#666666">[int(11) unsigned]</text>
<polygon fill="none" stroke="#000000" points="652.5,-322.5 652.5,-352.5 1113.5,-352.5 1113.5,-322.5 652.5,-322.5"/>
<text text-anchor="start" x="659.5" y="-333.9" font-family="Arial" font-size="14.00" fill="#000000">tenant </text>
<text text-anchor="start" x="702.3022" y="-333.9" font-family="Arial" font-size="14.00" fill="#666666">[int(11) unsigned]</text>
<polygon fill="none" stroke="#000000" points="652.5,-292.5 652.5,-322.5 1113.5,-322.5 1113.5,-292.5 652.5,-292.5"/>
<text text-anchor="start" x="659.0035" y="-303.9" font-family="Arial" font-size="14.00" fill="#000000">payment_method_type </text>
<text text-anchor="start" x="805.2783" y="-303.9" font-family="Arial" font-size="14.00" fill="#666666">[enum(&#39;bank_transfer&#39;,&#39;direct_debit&#39;,&#39;credit card&#39;)]</text>
<polygon fill="none" stroke="#000000" points="652.5,-262.5 652.5,-292.5 1113.5,-292.5 1113.5,-262.5 652.5,-262.5"/>
<text text-anchor="start" x="659.5" y="-273.9" font-family="Arial" font-size="14.00" fill="#000000">name </text>
<text text-anchor="start" x="698.399" y="-273.9" font-family="Arial" font-size="14.00" fill="#666666">[char(255)]</text>
<polygon fill="none" stroke="#000000" points="652.5,-232.5 652.5,-262.5 1113.5,-262.5 1113.5,-232.5 652.5,-232.5"/>
<text text-anchor="start" x="659.5" y="-243.9" font-family="Arial" font-size="14.00" fill="#000000">is_default </text>
<text text-anchor="start" x="723.298" y="-243.9" font-family="Arial" font-size="14.00" fill="#666666">[tinyint(1)]</text>
<polygon fill="none" stroke="#000000" stroke-width="3" points="650.5,-231.5 650.5,-419.5 1114.5,-419.5 1114.5,-231.5 650.5,-231.5"/>
</g>
<!-- tenant -->
<g id="node6" class="node">
<title>tenant</title>
<polygon fill="#efefef" stroke="transparent" points="787.5,-72.5 787.5,-107.5 978.5,-107.5 978.5,-72.5 787.5,-72.5"/>
<polygon fill="none" stroke="#000000" points="787.5,-72.5 787.5,-107.5 978.5,-107.5 978.5,-72.5 787.5,-72.5"/>
<text text-anchor="start" x="794.2014" y="-85.3" font-family="Arial Bold" font-size="18.00" fill="#000000">tenant</text>
<text text-anchor="start" x="844.2306" y="-85.3" font-family="Arial" font-size="14.00" fill="#000000">    </text>
<text text-anchor="start" x="878.4354" y="-85.3" font-family="Arial" font-size="14.00" fill="#666666">[BASE TABLE]</text>
<polygon fill="none" stroke="#000000" points="787.5,-42.5 787.5,-72.5 978.5,-72.5 978.5,-42.5 787.5,-42.5"/>
<text text-anchor="start" x="794.5" y="-53.9" font-family="Arial" font-size="14.00" fill="#000000">id    </text>
<text text-anchor="start" x="839.594" y="-53.9" font-family="Arial" font-size="14.00" fill="#666666">[int(11) unsigned]</text>
</g>
<!-- payment_method&#45;&gt;tenant -->
<g id="edge5" class="edge">
<title>payment_method:tenant&#45;&gt;tenant:id</title>
<path fill="none" stroke="#000000" d="M642.3123,-336.6191C588.0806,-326.6117 610.0182,-233.8342 652.5,-187 707.7791,-126.0573 965.7209,-211.9427 1021,-151 1021,-151 883.5,-42.5 883.5,-42.5"/>
<polygon fill="#000000" stroke="#000000" points="642.5372,-336.6385 652.1123,-341.9833 647.5186,-337.0692 652.5,-337.5 652.5,-337.5 652.5,-337.5 647.5186,-337.0692 652.8877,-333.0167 642.5372,-336.6385 642.5372,-336.6385"/>
<text text-anchor="start" x="421.2665" y="-347.5" font-family="Arial" font-size="10.00" fill="#000000">FOREIGN KEY (tenant) REFERENCES tenant (id)</text>
</g>
<!-- invoice_process -->
<g id="node2" class="node">
<title>invoice_process</title>
<polygon fill="#efefef" stroke="transparent" points="43.5,-872.5 43.5,-907.5 332.5,-907.5 332.5,-872.5 43.5,-872.5"/>
<polygon fill="none" stroke="#000000" points="43.5,-872.5 43.5,-907.5 332.5,-907.5 332.5,-872.5 43.5,-872.5"/>
<text text-anchor="start" x="59.704" y="-885.3" font-family="Arial Bold" font-size="18.00" fill="#000000">invoice_process</text>
<text text-anchor="start" x="188.728" y="-885.3" font-family="Arial" font-size="14.00" fill="#000000">    </text>
<text text-anchor="start" x="222.9328" y="-885.3" font-family="Arial" font-size="14.00" fill="#666666">[BASE TABLE]</text>
<polygon fill="none" stroke="#000000" points="43.5,-842.5 43.5,-872.5 332.5,-872.5 332.5,-842.5 43.5,-842.5"/>
<text text-anchor="start" x="50.5" y="-853.9" font-family="Arial" font-size="14.00" fill="#000000">id    </text>
<text text-anchor="start" x="95.594" y="-853.9" font-family="Arial" font-size="14.00" fill="#666666">[int(11) unsigned]</text>
<polygon fill="none" stroke="#000000" points="43.5,-812.5 43.5,-842.5 332.5,-842.5 332.5,-812.5 43.5,-812.5"/>
<text text-anchor="start" x="50.5" y="-823.9" font-family="Arial" font-size="14.00" fill="#000000">tenant    </text>
<text text-anchor="start" x="123.6164" y="-823.9" font-family="Arial" font-size="14.00" fill="#666666">[int(11) unsigned]</text>
<polygon fill="none" stroke="#000000" points="43.5,-782.5 43.5,-812.5 332.5,-812.5 332.5,-782.5 43.5,-782.5"/>
<text text-anchor="start" x="50.5" y="-793.9" font-family="Arial" font-size="14.00" fill="#000000">process_num    </text>
<text text-anchor="start" x="168.7216" y="-793.9" font-family="Arial" font-size="14.00" fill="#666666">[int(11) unsigned]</text>
<polygon fill="none" stroke="#000000" points="43.5,-752.5 43.5,-782.5 332.5,-782.5 332.5,-752.5 43.5,-752.5"/>
<text text-anchor="start" x="50.5" y="-763.9" font-family="Arial" font-size="14.00" fill="#000000">state    </text>
<text text-anchor="start" x="115.0512" y="-763.9" font-family="Arial" font-size="14.00" fill="#666666">[int(2)]</text>
<polygon fill="none" stroke="#000000" points="43.5,-722.5 43.5,-752.5 332.5,-752.5 332.5,-722.5 43.5,-722.5"/>
<text text-anchor="start" x="50.5" y="-733.9" font-family="Arial" font-size="14.00" fill="#000000">amount    </text>
<text text-anchor="start" x="131.3864" y="-733.9" font-family="Arial" font-size="14.00" fill="#666666">[int(11) unsigned]</text>
<polygon fill="none" stroke="#000000" points="43.5,-692.5 43.5,-722.5 332.5,-722.5 332.5,-692.5 43.5,-692.5"/>
<text text-anchor="start" x="50.5" y="-703.9" font-family="Arial" font-size="14.00" fill="#000000">payee    </text>
<text text-anchor="start" x="122.8352" y="-703.9" font-family="Arial" font-size="14.00" fill="#666666">[int(11) unsigned]</text>
<polygon fill="none" stroke="#000000" points="43.5,-662.5 43.5,-692.5 332.5,-692.5 332.5,-662.5 43.5,-662.5"/>
<text text-anchor="start" x="50.5" y="-673.9" font-family="Arial" font-size="14.00" fill="#000000">payment_method    </text>
<text text-anchor="start" x="192.8506" y="-673.9" font-family="Arial" font-size="14.00" fill="#666666">[int(11) unsigned]</text>
<polygon fill="none" stroke="#000000" points="43.5,-632.5 43.5,-662.5 332.5,-662.5 332.5,-632.5 43.5,-632.5"/>
<text text-anchor="start" x="50.2953" y="-643.9" font-family="Arial" font-size="14.00" fill="#000000">payee_bank_account    </text>
<text text-anchor="start" x="217.5645" y="-643.9" font-family="Arial" font-size="14.00" fill="#666666">[int(11) unsigned]</text>
<polygon fill="none" stroke="#000000" points="43.5,-602.5 43.5,-632.5 332.5,-632.5 332.5,-602.5 43.5,-602.5"/>
<text text-anchor="start" x="50.5" y="-613.9" font-family="Arial" font-size="14.00" fill="#000000">due    </text>
<text text-anchor="start" x="108.0526" y="-613.9" font-family="Arial" font-size="14.00" fill="#666666">[date]</text>
<polygon fill="none" stroke="#000000" points="43.5,-572.5 43.5,-602.5 332.5,-602.5 332.5,-572.5 43.5,-572.5"/>
<text text-anchor="start" x="50.5" y="-583.9" font-family="Arial" font-size="14.00" fill="#000000">pic    </text>
<text text-anchor="start" x="102.594" y="-583.9" font-family="Arial" font-size="14.00" fill="#666666">[int(11) unsigned]</text>
<polygon fill="none" stroke="#000000" points="43.5,-542.5 43.5,-572.5 332.5,-572.5 332.5,-542.5 43.5,-542.5"/>
<text text-anchor="start" x="50.5" y="-553.9" font-family="Arial" font-size="14.00" fill="#000000">classification    </text>
<text text-anchor="start" x="164.0428" y="-553.9" font-family="Arial" font-size="14.00" fill="#666666">[int(11) unsigned]</text>
</g>
<!-- invoice_process&#45;&gt;payment_method -->
<g id="edge1" class="edge">
<title>invoice_process:payment_method&#45;&gt;payment_method:id</title>
<path fill="none" stroke="#000000" d="M342.6052,-676.8217C407.5167,-667.3136 334.0229,-560.1345 384.5,-500 469.9276,-398.2282 519.6265,-367.5 652.5,-367.5"/>
<polygon fill="#000000" stroke="#000000" points="342.4775,-676.8301 332.1986,-673.0101 337.4888,-677.1651 332.5,-677.5 332.5,-677.5 332.5,-677.5 337.4888,-677.1651 332.8014,-681.9899 342.4775,-676.8301 342.4775,-676.8301"/>
<text text-anchor="start" x="171.3135" y="-661.5" font-family="Arial" font-size="10.00" fill="#000000">FOREIGN KEY (payment_method) REFERENCES payment_method (id)</text>
</g>
<!-- payment_method_bank_transfer -->
<g id="node3" class="node">
<title>payment_method_bank_transfer</title>
<polygon fill="#efefef" stroke="transparent" points="436.5,-782.5 436.5,-817.5 836.5,-817.5 836.5,-782.5 436.5,-782.5"/>
<polygon fill="none" stroke="#000000" points="436.5,-782.5 436.5,-817.5 836.5,-817.5 836.5,-782.5 436.5,-782.5"/>
<text text-anchor="start" x="443.1745" y="-795.3" font-family="Arial Bold" font-size="18.00" fill="#000000">payment_method_bank_transfer</text>
<text text-anchor="start" x="702.2575" y="-795.3" font-family="Arial" font-size="14.00" fill="#000000">    </text>
<text text-anchor="start" x="736.4623" y="-795.3" font-family="Arial" font-size="14.00" fill="#666666">[BASE TABLE]</text>
<polygon fill="none" stroke="#000000" points="436.5,-752.5 436.5,-782.5 836.5,-782.5 836.5,-752.5 436.5,-752.5"/>
<text text-anchor="start" x="443.5" y="-763.9" font-family="Arial" font-size="14.00" fill="#000000">payment_method_id    </text>
<text text-anchor="start" x="604.5224" y="-763.9" font-family="Arial" font-size="14.00" fill="#666666">[int(11) unsigned]</text>
<polygon fill="none" stroke="#000000" points="436.5,-722.5 436.5,-752.5 836.5,-752.5 836.5,-722.5 436.5,-722.5"/>
<text text-anchor="start" x="443.5" y="-733.9" font-family="Arial" font-size="14.00" fill="#000000">bank_code    </text>
<text text-anchor="start" x="546.183" y="-733.9" font-family="Arial" font-size="14.00" fill="#666666">[char(4)]</text>
<polygon fill="none" stroke="#000000" points="436.5,-692.5 436.5,-722.5 836.5,-722.5 836.5,-692.5 436.5,-692.5"/>
<text text-anchor="start" x="443.5" y="-703.9" font-family="Arial" font-size="14.00" fill="#000000">account_type    </text>
<text text-anchor="start" x="560.9642" y="-703.9" font-family="Arial" font-size="14.00" fill="#666666">[int(1)]</text>
<polygon fill="none" stroke="#000000" points="436.5,-662.5 436.5,-692.5 836.5,-692.5 836.5,-662.5 436.5,-662.5"/>
<text text-anchor="start" x="443.5" y="-673.9" font-family="Arial" font-size="14.00" fill="#000000">branch    </text>
<text text-anchor="start" x="520.4958" y="-673.9" font-family="Arial" font-size="14.00" fill="#666666">[char(5)]</text>
<polygon fill="none" stroke="#000000" points="436.5,-632.5 436.5,-662.5 836.5,-662.5 836.5,-632.5 436.5,-632.5"/>
<text text-anchor="start" x="443.5" y="-643.9" font-family="Arial" font-size="14.00" fill="#000000">account_number    </text>
<text text-anchor="start" x="581.96" y="-643.9" font-family="Arial" font-size="14.00" fill="#666666">[char(8)]</text>
</g>
<!-- payment_method_bank_transfer&#45;&gt;payment_method -->
<g id="edge2" class="edge">
<title>payment_method_bank_transfer:payment_method_id&#45;&gt;payment_method:id</title>
<path fill="none" stroke="#000000" d="M846.8092,-766.805C911.4539,-757.485 871.5665,-656.5133 836.5,-590 790.2765,-502.3245 698.7235,-551.6755 652.5,-464 632.4981,-426.0608 609.6111,-367.5 652.5,-367.5"/>
<polygon fill="#000000" stroke="#000000" points="846.4774,-766.8272 836.1973,-763.0102 841.4887,-767.1636 836.5,-767.5 836.5,-767.5 836.5,-767.5 841.4887,-767.1636 836.8027,-771.9898 846.4774,-766.8272 846.4774,-766.8272"/>
<text text-anchor="start" x="843.145" y="-777.5" font-family="Arial" font-size="10.00" fill="#000000">FOREIGN KEY (payment_method_id) REFERENCES payment_method (id)</text>
</g>
<!-- payment_method_credit_card -->
<g id="node4" class="node">
<title>payment_method_credit_card</title>
<polygon fill="#efefef" stroke="transparent" points="941.5,-722.5 941.5,-757.5 1320.5,-757.5 1320.5,-722.5 941.5,-722.5"/>
<polygon fill="none" stroke="#000000" points="941.5,-722.5 941.5,-757.5 1320.5,-757.5 1320.5,-722.5 941.5,-722.5"/>
<text text-anchor="start" x="948.1847" y="-735.3" font-family="Arial Bold" font-size="18.00" fill="#000000">payment_method_credit_card</text>
<text text-anchor="start" x="1186.2473" y="-735.3" font-family="Arial" font-size="14.00" fill="#000000">    </text>
<text text-anchor="start" x="1220.4521" y="-735.3" font-family="Arial" font-size="14.00" fill="#666666">[BASE TABLE]</text>
<polygon fill="none" stroke="#000000" points="941.5,-692.5 941.5,-722.5 1320.5,-722.5 1320.5,-692.5 941.5,-692.5"/>
<text text-anchor="start" x="948.5" y="-703.9" font-family="Arial" font-size="14.00" fill="#000000">payment_method_id    </text>
<text text-anchor="start" x="1109.5224" y="-703.9" font-family="Arial" font-size="14.00" fill="#666666">[int(11) unsigned]</text>
</g>
<!-- payment_method_credit_card&#45;&gt;payment_method -->
<g id="edge3" class="edge">
<title>payment_method_credit_card:payment_method_id&#45;&gt;payment_method:id</title>
<path fill="none" stroke="#000000" d="M931.7795,-704.7345C921.3221,-696.2072 933.7848,-669.7068 941.5,-650 982.547,-545.1541 1072.453,-568.8459 1113.5,-464 1129.1354,-424.0627 1156.3889,-367.5 1113.5,-367.5"/>
<polygon fill="#000000" stroke="#000000" points="931.8817,-704.7635 940.2686,-711.8282 936.6908,-706.1318 941.5,-707.5 941.5,-707.5 941.5,-707.5 936.6908,-706.1318 942.7314,-703.1718 931.8817,-704.7635 931.8817,-704.7635"/>
<text text-anchor="start" x="948.145" y="-717.5" font-family="Arial" font-size="10.00" fill="#000000">FOREIGN KEY (payment_method_id) REFERENCES payment_method (id)</text>
</g>
<!-- payment_method_direct_debit -->
<g id="node5" class="node">
<title>payment_method_direct_debit</title>
<polygon fill="#efefef" stroke="transparent" points="1424.5,-722.5 1424.5,-757.5 1807.5,-757.5 1807.5,-722.5 1424.5,-722.5"/>
<polygon fill="none" stroke="#000000" points="1424.5,-722.5 1424.5,-757.5 1807.5,-757.5 1807.5,-722.5 1424.5,-722.5"/>
<text text-anchor="start" x="1431.1795" y="-735.3" font-family="Arial Bold" font-size="18.00" fill="#000000">payment_method_direct_debit</text>
<text text-anchor="start" x="1673.2525" y="-735.3" font-family="Arial" font-size="14.00" fill="#000000">    </text>
<text text-anchor="start" x="1707.4573" y="-735.3" font-family="Arial" font-size="14.00" fill="#666666">[BASE TABLE]</text>
<polygon fill="none" stroke="#000000" points="1424.5,-692.5 1424.5,-722.5 1807.5,-722.5 1807.5,-692.5 1424.5,-692.5"/>
<text text-anchor="start" x="1431.5" y="-703.9" font-family="Arial" font-size="14.00" fill="#000000">payment_method_id    </text>
<text text-anchor="start" x="1592.5224" y="-703.9" font-family="Arial" font-size="14.00" fill="#666666">[int(11) unsigned]</text>
</g>
<!-- payment_method_direct_debit&#45;&gt;payment_method -->
<g id="edge4" class="edge">
<title>payment_method_direct_debit:payment_method_id&#45;&gt;payment_method:id</title>
<path fill="none" stroke="#000000" d="M1414.2404,-706.9022C1337.1674,-697.1925 1429.3576,-571.5115 1372.5,-500 1292.0308,-398.7914 1242.7999,-367.5 1113.5,-367.5"/>
<polygon fill="#000000" stroke="#000000" points="1414.5169,-706.9183 1424.2382,-711.9924 1419.5085,-707.2091 1424.5,-707.5 1424.5,-707.5 1424.5,-707.5 1419.5085,-707.2091 1424.7618,-703.0076 1414.5169,-706.9183 1414.5169,-706.9183"/>
<text text-anchor="start" x="1168.645" y="-691.5" font-family="Arial" font-size="10.00" fill="#000000">FOREIGN KEY (payment_method_id) REFERENCES payment_method (id)</text>
</g>
</g>
</svg>
