<?xml version="1.0" encoding="UTF-8" standalone="no"?>
<!DOCTYPE svg PUBLIC "-//W3C//DTD SVG 1.1//EN"
 "http://www.w3.org/Graphics/SVG/1.1/DTD/svg11.dtd">
<!-- Generated by graphviz version 2.40.1 (20161225.0304)
 -->
<!-- Title: payment_method_bank_transfer Pages: 1 -->
<svg width="692pt" height="532pt"
 viewBox="0.00 0.00 692.00 532.00" xmlns="http://www.w3.org/2000/svg" xmlns:xlink="http://www.w3.org/1999/xlink">
<g id="graph0" class="graph" transform="scale(1 1) rotate(0) translate(4 528)">
<title>payment_method_bank_transfer</title>
<polygon fill="#ffffff" stroke="transparent" points="-4,4 -4,-528 688,-528 688,4 -4,4"/>
<!-- payment_method_bank_transfer -->
<g id="node1" class="node">
<title>payment_method_bank_transfer</title>
<polygon fill="#efefef" stroke="transparent" points="238,-442.5 238,-477.5 638,-477.5 638,-442.5 238,-442.5"/>
<polygon fill="none" stroke="#000000" points="238,-442.5 238,-477.5 638,-477.5 638,-442.5 238,-442.5"/>
<text text-anchor="start" x="244.6745" y="-455.3" font-family="Arial Bold" font-size="18.00" fill="#000000">payment_method_bank_transfer</text>
<text text-anchor="start" x="503.7575" y="-455.3" font-family="Arial" font-size="14.00" fill="#000000">    </text>
<text text-anchor="start" x="537.9623" y="-455.3" font-family="Arial" font-size="14.00" fill="#666666">[BASE TABLE]</text>
<polygon fill="none" stroke="#000000" points="238,-412.5 238,-442.5 638,-442.5 638,-412.5 238,-412.5"/>
<text text-anchor="start" x="245" y="-423.9" font-family="Arial" font-size="14.00" fill="#000000">id </text>
<text text-anchor="start" x="259.7798" y="-423.9" font-family="Arial" font-size="14.00" fill="#666666">[int(11) unsigned]</text>
<polygon fill="none" stroke="#000000" points="238,-382.5 238,-412.5 638,-412.5 638,-382.5 238,-382.5"/>
<text text-anchor="start" x="245" y="-393.9" font-family="Arial" font-size="14.00" fill="#000000">tenant </text>
<text text-anchor="start" x="287.8022" y="-393.9" font-family="Arial" font-size="14.00" fill="#666666">[int(11) unsigned]</text>
<polygon fill="none" stroke="#000000" points="238,-352.5 238,-382.5 638,-382.5 638,-352.5 238,-352.5"/>
<text text-anchor="start" x="245" y="-363.9" font-family="Arial" font-size="14.00" fill="#000000">name </text>
<text text-anchor="start" x="283.899" y="-363.9" font-family="Arial" font-size="14.00" fill="#666666">[char(255)]</text>
<polygon fill="none" stroke="#000000" points="238,-322.5 238,-352.5 638,-352.5 638,-322.5 238,-322.5"/>
<text text-anchor="start" x="245" y="-333.9" font-family="Arial" font-size="14.00" fill="#000000">bank_code </text>
<text text-anchor="start" x="317.3688" y="-333.9" font-family="Arial" font-size="14.00" fill="#666666">[char(4)]</text>
<polygon fill="none" stroke="#000000" points="238,-292.5 238,-322.5 638,-322.5 638,-292.5 238,-292.5"/>
<text text-anchor="start" x="245" y="-303.9" font-family="Arial" font-size="14.00" fill="#000000">account_type </text>
<text text-anchor="start" x="332.15" y="-303.9" font-family="Arial" font-size="14.00" fill="#666666">[int(1)]</text>
<polygon fill="none" stroke="#000000" points="238,-262.5 238,-292.5 638,-292.5 638,-262.5 238,-262.5"/>
<text text-anchor="start" x="245" y="-273.9" font-family="Arial" font-size="14.00" fill="#000000">branch </text>
<text text-anchor="start" x="291.6816" y="-273.9" font-family="Arial" font-size="14.00" fill="#666666">[char(5)]</text>
<polygon fill="none" stroke="#000000" points="238,-232.5 238,-262.5 638,-262.5 638,-232.5 238,-232.5"/>
<text text-anchor="start" x="245" y="-243.9" font-family="Arial" font-size="14.00" fill="#000000">account_number </text>
<text text-anchor="start" x="353.1458" y="-243.9" font-family="Arial" font-size="14.00" fill="#666666">[char(8)]</text>
<polygon fill="none" stroke="#000000" stroke-width="3" points="236.5,-231.5 236.5,-479.5 639.5,-479.5 639.5,-231.5 236.5,-231.5"/>
</g>
<!-- tenant -->
<g id="node2" class="node">
<title>tenant</title>
<polygon fill="#efefef" stroke="transparent" points="342,-72.5 342,-107.5 533,-107.5 533,-72.5 342,-72.5"/>
<polygon fill="none" stroke="#000000" points="342,-72.5 342,-107.5 533,-107.5 533,-72.5 342,-72.5"/>
<text text-anchor="start" x="348.7014" y="-85.3" font-family="Arial Bold" font-size="18.00" fill="#000000">tenant</text>
<text text-anchor="start" x="398.7306" y="-85.3" font-family="Arial" font-size="14.00" fill="#000000">    </text>
<text text-anchor="start" x="432.9354" y="-85.3" font-family="Arial" font-size="14.00" fill="#666666">[BASE TABLE]</text>
<polygon fill="none" stroke="#000000" points="342,-42.5 342,-72.5 533,-72.5 533,-42.5 342,-42.5"/>
<text text-anchor="start" x="349" y="-53.9" font-family="Arial" font-size="14.00" fill="#000000">id    </text>
<text text-anchor="start" x="394.094" y="-53.9" font-family="Arial" font-size="14.00" fill="#666666">[int(11) unsigned]</text>
</g>
<!-- payment_method_bank_transfer&#45;&gt;tenant -->
<g id="edge1" class="edge">
<title>payment_method_bank_transfer:tenant&#45;&gt;tenant:id</title>
<path fill="none" stroke="#000000" d="M227.6035,-396.8696C146.9548,-386.6345 178.4049,-254.3099 238,-187 325.5579,-88.1075 445.4421,-249.8925 533,-151 560.5471,-119.8869 574.5556,-57.5 533,-57.5"/>
<polygon fill="#000000" stroke="#000000" points="228.0183,-396.8947 237.7276,-401.9918 233.0092,-397.1973 238,-397.5 238,-397.5 238,-397.5 233.0092,-397.1973 238.2724,-393.0082 228.0183,-396.8947 228.0183,-396.8947"/>
<text text-anchor="start" x="6.7665" y="-407.5" font-family="Arial" font-size="10.00" fill="#000000">FOREIGN KEY (tenant) REFERENCES tenant (id)</text>
</g>
</g>
</svg>
