<?xml version="1.0" encoding="UTF-8" standalone="no"?>
<!DOCTYPE svg PUBLIC "-//W3C//DTD SVG 1.1//EN"
 "http://www.w3.org/Graphics/SVG/1.1/DTD/svg11.dtd">
<!-- Generated by graphviz version 2.40.1 (20161225.0304)
 -->
<!-- Title: payment_method_bank_transfer Pages: 1 -->
<svg width="847pt" height="592pt"
 viewBox="0.00 0.00 847.00 592.00" xmlns="http://www.w3.org/2000/svg" xmlns:xlink="http://www.w3.org/1999/xlink">
<g id="graph0" class="graph" transform="scale(1 1) rotate(0) translate(4 588)">
<title>payment_method_bank_transfer</title>
<polygon fill="#ffffff" stroke="transparent" points="-4,4 -4,-588 843,-588 843,4 -4,4"/>
<!-- payment_method_bank_transfer -->
<g id="node1" class="node">
<title>payment_method_bank_transfer</title>
<polygon fill="#efefef" stroke="transparent" points="89,-502.5 89,-537.5 489,-537.5 489,-502.5 89,-502.5"/>
<polygon fill="none" stroke="#000000" points="89,-502.5 89,-537.5 489,-537.5 489,-502.5 89,-502.5"/>
<text text-anchor="start" x="95.6745" y="-515.3" font-family="Arial Bold" font-size="18.00" fill="#000000">payment_method_bank_transfer</text>
<text text-anchor="start" x="354.7575" y="-515.3" font-family="Arial" font-size="14.00" fill="#000000">    </text>
<text text-anchor="start" x="388.9623" y="-515.3" font-family="Arial" font-size="14.00" fill="#666666">[BASE TABLE]</text>
<polygon fill="none" stroke="#000000" points="89,-472.5 89,-502.5 489,-502.5 489,-472.5 89,-472.5"/>
<text text-anchor="start" x="96" y="-483.9" font-family="Arial" font-size="14.00" fill="#000000">payment_method_id </text>
<text text-anchor="start" x="226.7082" y="-483.9" font-family="Arial" font-size="14.00" fill="#666666">[int(11) unsigned]</text>
<polygon fill="none" stroke="#000000" points="89,-442.5 89,-472.5 489,-472.5 489,-442.5 89,-442.5"/>
<text text-anchor="start" x="96" y="-453.9" font-family="Arial" font-size="14.00" fill="#000000">bank_code </text>
<text text-anchor="start" x="168.3688" y="-453.9" font-family="Arial" font-size="14.00" fill="#666666">[char(4)]</text>
<polygon fill="none" stroke="#000000" points="89,-412.5 89,-442.5 489,-442.5 489,-412.5 89,-412.5"/>
<text text-anchor="start" x="96" y="-423.9" font-family="Arial" font-size="14.00" fill="#000000">account_type </text>
<text text-anchor="start" x="183.15" y="-423.9" font-family="Arial" font-size="14.00" fill="#666666">[int(1)]</text>
<polygon fill="none" stroke="#000000" points="89,-382.5 89,-412.5 489,-412.5 489,-382.5 89,-382.5"/>
<text text-anchor="start" x="96" y="-393.9" font-family="Arial" font-size="14.00" fill="#000000">branch </text>
<text text-anchor="start" x="142.6816" y="-393.9" font-family="Arial" font-size="14.00" fill="#666666">[char(5)]</text>
<polygon fill="none" stroke="#000000" points="89,-352.5 89,-382.5 489,-382.5 489,-352.5 89,-352.5"/>
<text text-anchor="start" x="96" y="-363.9" font-family="Arial" font-size="14.00" fill="#000000">account_number </text>
<text text-anchor="start" x="204.1458" y="-363.9" font-family="Arial" font-size="14.00" fill="#666666">[char(8)]</text>
<polygon fill="none" stroke="#000000" stroke-width="3" points="87.5,-351.5 87.5,-539.5 490.5,-539.5 490.5,-351.5 87.5,-351.5"/>
</g>
<!-- payment_method -->
<g id="node2" class="node">
<title>payment_method</title>
<polygon fill="#efefef" stroke="transparent" points="43,-192.5 43,-227.5 535,-227.5 535,-192.5 43,-192.5"/>
<polygon fill="none" stroke="#000000" points="43,-192.5 43,-227.5 535,-227.5 535,-192.5 43,-192.5"/>
<text text-anchor="start" x="155.6937" y="-205.3" font-family="Arial Bold" font-size="18.00" fill="#000000">payment_method</text>
<text text-anchor="start" x="294.7383" y="-205.3" font-family="Arial" font-size="14.00" fill="#000000">    </text>
<text text-anchor="start" x="328.9431" y="-205.3" font-family="Arial" font-size="14.00" fill="#666666">[BASE TABLE]</text>
<polygon fill="none" stroke="#000000" points="43,-162.5 43,-192.5 535,-192.5 535,-162.5 43,-162.5"/>
<text text-anchor="start" x="50" y="-173.9" font-family="Arial" font-size="14.00" fill="#000000">id    </text>
<text text-anchor="start" x="95.094" y="-173.9" font-family="Arial" font-size="14.00" fill="#666666">[int(11) unsigned]</text>
<polygon fill="none" stroke="#000000" points="43,-132.5 43,-162.5 535,-162.5 535,-132.5 43,-132.5"/>
<text text-anchor="start" x="50" y="-143.9" font-family="Arial" font-size="14.00" fill="#000000">tenant    </text>
<text text-anchor="start" x="123.1164" y="-143.9" font-family="Arial" font-size="14.00" fill="#666666">[int(11) unsigned]</text>
<polygon fill="none" stroke="#000000" points="43,-102.5 43,-132.5 535,-132.5 535,-102.5 43,-102.5"/>
<text text-anchor="start" x="49.8464" y="-113.9" font-family="Arial" font-size="14.00" fill="#000000">payment_method_type    </text>
<text text-anchor="start" x="226.4354" y="-113.9" font-family="Arial" font-size="14.00" fill="#666666">[enum(&#39;bank_transfer&#39;,&#39;direct_debit&#39;,&#39;credit card&#39;)]</text>
<polygon fill="none" stroke="#000000" points="43,-72.5 43,-102.5 535,-102.5 535,-72.5 43,-72.5"/>
<text text-anchor="start" x="50" y="-83.9" font-family="Arial" font-size="14.00" fill="#000000">name    </text>
<text text-anchor="start" x="119.2132" y="-83.9" font-family="Arial" font-size="14.00" fill="#666666">[char(255)]</text>
<polygon fill="none" stroke="#000000" points="43,-42.5 43,-72.5 535,-72.5 535,-42.5 43,-42.5"/>
<text text-anchor="start" x="50" y="-53.9" font-family="Arial" font-size="14.00" fill="#000000">is_default    </text>
<text text-anchor="start" x="144.1122" y="-53.9" font-family="Arial" font-size="14.00" fill="#666666">[tinyint(1)]</text>
</g>
<!-- payment_method_bank_transfer&#45;&gt;payment_method -->
<g id="edge1" class="edge">
<title>payment_method_bank_transfer:payment_method_id&#45;&gt;payment_method:id</title>
<path fill="none" stroke="#000000" d="M499.0218,-485.3549C562.8597,-457.9657 601.2426,-177.5 535,-177.5"/>
<polygon fill="#000000" stroke="#000000" points="498.7785,-485.4069 488.0581,-483.0997 493.8893,-486.4534 489,-487.5 489,-487.5 489,-487.5 493.8893,-486.4534 489.9419,-491.9003 498.7785,-485.4069 498.7785,-485.4069"/>
<text text-anchor="start" x="495.645" y="-497.5" font-family="Arial" font-size="10.00" fill="#000000">FOREIGN KEY (payment_method_id) REFERENCES payment_method (id)</text>
</g>
</g>
</svg>
