<?xml version="1.0" encoding="UTF-8" standalone="no"?>
<!DOCTYPE svg PUBLIC "-//W3C//DTD SVG 1.1//EN"
 "http://www.w3.org/Graphics/SVG/1.1/DTD/svg11.dtd">
<!-- Generated by graphviz version 2.40.1 (20161225.0304)
 -->
<!-- Title: tax_class Pages: 1 -->
<svg width="465pt" height="592pt"
 viewBox="0.00 0.00 465.00 592.00" xmlns="http://www.w3.org/2000/svg" xmlns:xlink="http://www.w3.org/1999/xlink">
<g id="graph0" class="graph" transform="scale(1 1) rotate(0) translate(4 588)">
<title>tax_class</title>
<polygon fill="#ffffff" stroke="transparent" points="-4,4 -4,-588 461,-588 461,4 -4,4"/>
<!-- tax_class -->
<g id="node1" class="node">
<title>tax_class</title>
<polygon fill="#efefef" stroke="transparent" points="158,-105.5 158,-140.5 374,-140.5 374,-105.5 158,-105.5"/>
<polygon fill="none" stroke="#000000" points="158,-105.5 158,-140.5 374,-140.5 374,-105.5 158,-105.5"/>
<text text-anchor="start" x="164.7085" y="-118.3" font-family="Arial Bold" font-size="18.00" fill="#000000">tax_class</text>
<text text-anchor="start" x="239.7235" y="-118.3" font-family="Arial" font-size="14.00" fill="#000000">    </text>
<text text-anchor="start" x="273.9283" y="-118.3" font-family="Arial" font-size="14.00" fill="#666666">[BASE TABLE]</text>
<polygon fill="none" stroke="#000000" points="158,-75.5 158,-105.5 374,-105.5 374,-75.5 158,-75.5"/>
<text text-anchor="start" x="165" y="-86.9" font-family="Arial" font-size="14.00" fill="#000000">id </text>
<text text-anchor="start" x="179.7798" y="-86.9" font-family="Arial" font-size="14.00" fill="#666666">[int(11) unsigned]</text>
<polygon fill="none" stroke="#000000" points="158,-45.5 158,-75.5 374,-75.5 374,-45.5 158,-45.5"/>
<text text-anchor="start" x="165" y="-56.9" font-family="Arial" font-size="14.00" fill="#000000">name </text>
<text text-anchor="start" x="203.899" y="-56.9" font-family="Arial" font-size="14.00" fill="#666666">[varchar(255)]</text>
<polygon fill="none" stroke="#000000" stroke-width="3" points="156.5,-44.5 156.5,-142.5 375.5,-142.5 375.5,-44.5 156.5,-44.5"/>
</g>
<!-- classification_detail -->
<g id="node2" class="node">
<title>classification_detail</title>
<polygon fill="#efefef" stroke="transparent" points="118,-505.5 118,-540.5 414,-540.5 414,-505.5 118,-505.5"/>
<polygon fill="none" stroke="#000000" points="118,-505.5 118,-540.5 414,-540.5 414,-505.5 118,-505.5"/>
<text text-anchor="start" x="124.7053" y="-518.3" font-family="Arial Bold" font-size="18.00" fill="#000000">classification_detail</text>
<text text-anchor="start" x="279.7267" y="-518.3" font-family="Arial" font-size="14.00" fill="#000000">    </text>
<text text-anchor="start" x="313.9315" y="-518.3" font-family="Arial" font-size="14.00" fill="#666666">[BASE TABLE]</text>
<polygon fill="none" stroke="#000000" points="118,-475.5 118,-505.5 414,-505.5 414,-475.5 118,-475.5"/>
<text text-anchor="start" x="125" y="-486.9" font-family="Arial" font-size="14.00" fill="#000000">id    </text>
<text text-anchor="start" x="170.094" y="-486.9" font-family="Arial" font-size="14.00" fill="#666666">[int(11) unsigned]</text>
<polygon fill="none" stroke="#000000" points="118,-445.5 118,-475.5 414,-475.5 414,-445.5 118,-445.5"/>
<text text-anchor="start" x="125" y="-456.9" font-family="Arial" font-size="14.00" fill="#000000">parent    </text>
<text text-anchor="start" x="198.8864" y="-456.9" font-family="Arial" font-size="14.00" fill="#666666">[int(11) unsigned]</text>
<polygon fill="none" stroke="#000000" points="118,-415.5 118,-445.5 414,-445.5 414,-415.5 118,-415.5"/>
<text text-anchor="start" x="125" y="-426.9" font-family="Arial" font-size="14.00" fill="#000000">date    </text>
<text text-anchor="start" x="186.4432" y="-426.9" font-family="Arial" font-size="14.00" fill="#666666">[date]</text>
<polygon fill="none" stroke="#000000" points="118,-385.5 118,-415.5 414,-415.5 414,-385.5 118,-385.5"/>
<text text-anchor="start" x="125" y="-396.9" font-family="Arial" font-size="14.00" fill="#000000">amount    </text>
<text text-anchor="start" x="205.8864" y="-396.9" font-family="Arial" font-size="14.00" fill="#666666">[int(11)]</text>
<polygon fill="none" stroke="#000000" points="118,-355.5 118,-385.5 414,-385.5 414,-355.5 118,-355.5"/>
<text text-anchor="start" x="125" y="-366.9" font-family="Arial" font-size="14.00" fill="#000000">category    </text>
<text text-anchor="start" x="212.8864" y="-366.9" font-family="Arial" font-size="14.00" fill="#666666">[int(11) unsigned]</text>
<polygon fill="none" stroke="#000000" points="118,-325.5 118,-355.5 414,-355.5 414,-325.5 118,-325.5"/>
<text text-anchor="start" x="125" y="-336.9" font-family="Arial" font-size="14.00" fill="#000000">subcategory    </text>
<text text-anchor="start" x="235.4516" y="-336.9" font-family="Arial" font-size="14.00" fill="#666666">[int(11) unsigned]</text>
<polygon fill="none" stroke="#000000" points="118,-295.5 118,-325.5 414,-325.5 414,-295.5 118,-295.5"/>
<text text-anchor="start" x="125" y="-306.9" font-family="Arial" font-size="14.00" fill="#000000">cost_center    </text>
<text text-anchor="start" x="231.5596" y="-306.9" font-family="Arial" font-size="14.00" fill="#666666">[int(11) unsigned]</text>
<polygon fill="none" stroke="#000000" points="118,-265.5 118,-295.5 414,-295.5 414,-265.5 118,-265.5"/>
<text text-anchor="start" x="125" y="-276.9" font-family="Arial" font-size="14.00" fill="#000000">tax_class    </text>
<text text-anchor="start" x="217.5498" y="-276.9" font-family="Arial" font-size="14.00" fill="#666666">[int(11) unsigned]</text>
</g>
<!-- classification_detail&#45;&gt;tax_class -->
<g id="edge1" class="edge">
<title>classification_detail:tax_class&#45;&gt;tax_class:id</title>
<path fill="none" stroke="#000000" d="M266.917,-255.4204C275.9217,-210.0361 348.749,-236.5704 374,-187 393.4673,-148.7837 416.8889,-90.5 374,-90.5"/>
<polygon fill="#000000" stroke="#000000" points="266.9061,-255.5411 261.5185,-265.0923 266.453,-260.5206 266,-265.5 266,-265.5 266,-265.5 266.453,-260.5206 270.4815,-265.9077 266.9061,-255.5411 266.9061,-255.5411"/>
<text text-anchor="start" x="6.8855" y="-275.5" font-family="Arial" font-size="10.00" fill="#000000">FOREIGN KEY (tax_class) REFERENCES tax_class (id)</text>
</g>
</g>
</svg>
