<?xml version="1.0" encoding="UTF-8" standalone="no"?>
<!DOCTYPE svg PUBLIC "-//W3C//DTD SVG 1.1//EN"
 "http://www.w3.org/Graphics/SVG/1.1/DTD/svg11.dtd">
<!-- Generated by graphviz version 2.40.1 (20161225.0304)
 -->
<!-- Title: tenant Pages: 1 -->
<svg width="3802pt" height="652pt"
 viewBox="0.00 0.00 3802.00 652.00" xmlns="http://www.w3.org/2000/svg" xmlns:xlink="http://www.w3.org/1999/xlink">
<g id="graph0" class="graph" transform="scale(1 1) rotate(0) translate(4 648)">
<title>tenant</title>
<polygon fill="#ffffff" stroke="transparent" points="-4,4 -4,-648 3798,-648 3798,4 -4,4"/>
<!-- tenant -->
<g id="node1" class="node">
<title>tenant</title>
<polygon fill="#efefef" stroke="transparent" points="1635.5,-75.5 1635.5,-110.5 1826.5,-110.5 1826.5,-75.5 1635.5,-75.5"/>
<polygon fill="none" stroke="#000000" points="1635.5,-75.5 1635.5,-110.5 1826.5,-110.5 1826.5,-75.5 1635.5,-75.5"/>
<text text-anchor="start" x="1642.2014" y="-88.3" font-family="Arial Bold" font-size="18.00" fill="#000000">tenant</text>
<text text-anchor="start" x="1692.2306" y="-88.3" font-family="Arial" font-size="14.00" fill="#000000">    </text>
<text text-anchor="start" x="1726.4354" y="-88.3" font-family="Arial" font-size="14.00" fill="#666666">[BASE TABLE]</text>
<polygon fill="none" stroke="#000000" points="1635.5,-45.5 1635.5,-75.5 1826.5,-75.5 1826.5,-45.5 1635.5,-45.5"/>
<text text-anchor="start" x="1642.5" y="-56.9" font-family="Arial" font-size="14.00" fill="#000000">id </text>
<text text-anchor="start" x="1657.2798" y="-56.9" font-family="Arial" font-size="14.00" fill="#666666">[int(11) unsigned]</text>
<polygon fill="none" stroke="#000000" stroke-width="3" points="1633.5,-44.5 1633.5,-112.5 1827.5,-112.5 1827.5,-44.5 1633.5,-44.5"/>
</g>
<!-- account_category -->
<g id="node2" class="node">
<title>account_category</title>
<polygon fill="#efefef" stroke="transparent" points="43.5,-460.5 43.5,-495.5 326.5,-495.5 326.5,-460.5 43.5,-460.5"/>
<polygon fill="none" stroke="#000000" points="43.5,-460.5 43.5,-495.5 326.5,-495.5 326.5,-460.5 43.5,-460.5"/>
<text text-anchor="start" x="50.1898" y="-473.3" font-family="Arial Bold" font-size="18.00" fill="#000000">account_category</text>
<text text-anchor="start" x="192.2422" y="-473.3" font-family="Arial" font-size="14.00" fill="#000000">    </text>
<text text-anchor="start" x="226.447" y="-473.3" font-family="Arial" font-size="14.00" fill="#666666">[BASE TABLE]</text>
<polygon fill="none" stroke="#000000" points="43.5,-430.5 43.5,-460.5 326.5,-460.5 326.5,-430.5 43.5,-430.5"/>
<text text-anchor="start" x="50.5" y="-441.9" font-family="Arial" font-size="14.00" fill="#000000">id    </text>
<text text-anchor="start" x="95.594" y="-441.9" font-family="Arial" font-size="14.00" fill="#666666">[int(11) unsigned]</text>
<polygon fill="none" stroke="#000000" points="43.5,-400.5 43.5,-430.5 326.5,-430.5 326.5,-400.5 43.5,-400.5"/>
<text text-anchor="start" x="50.5" y="-411.9" font-family="Arial" font-size="14.00" fill="#000000">tenant    </text>
<text text-anchor="start" x="123.6164" y="-411.9" font-family="Arial" font-size="14.00" fill="#666666">[int(11) unsigned]</text>
<polygon fill="none" stroke="#000000" points="43.5,-370.5 43.5,-400.5 326.5,-400.5 326.5,-370.5 43.5,-370.5"/>
<text text-anchor="start" x="50.5" y="-381.9" font-family="Arial" font-size="14.00" fill="#000000">name    </text>
<text text-anchor="start" x="119.7132" y="-381.9" font-family="Arial" font-size="14.00" fill="#666666">[varchar(255)]</text>
<polygon fill="none" stroke="#000000" points="43.5,-340.5 43.5,-370.5 326.5,-370.5 326.5,-340.5 43.5,-340.5"/>
<text text-anchor="start" x="50.5" y="-351.9" font-family="Arial" font-size="14.00" fill="#000000">dr_cr_class    </text>
<text text-anchor="start" x="156.263" y="-351.9" font-family="Arial" font-size="14.00" fill="#666666">[enum(&#39;debit&#39;,&#39;credit&#39;)]</text>
</g>
<!-- account_category&#45;&gt;tenant -->
<g id="edge1" class="edge">
<title>account_category:tenant&#45;&gt;tenant:id</title>
<path fill="none" stroke="#000000" d="M336.6253,-414.9036C419.0848,-404.3987 304.3195,-257.8616 377.5,-193 482.683,-99.7739 1494.949,-60.5 1635.5,-60.5"/>
<polygon fill="#000000" stroke="#000000" points="336.4827,-414.9119 326.2353,-411.0078 331.4913,-415.2059 326.5,-415.5 326.5,-415.5 326.5,-415.5 331.4913,-415.2059 326.7647,-419.9922 336.4827,-414.9119 336.4827,-414.9119"/>
<text text-anchor="start" x="214.2665" y="-399.5" font-family="Arial" font-size="10.00" fill="#000000">FOREIGN KEY (tenant) REFERENCES tenant (id)</text>
</g>
<!-- business_partner -->
<g id="node3" class="node">
<title>business_partner</title>
<polygon fill="#efefef" stroke="transparent" points="430.5,-445.5 430.5,-480.5 709.5,-480.5 709.5,-445.5 430.5,-445.5"/>
<polygon fill="none" stroke="#000000" points="430.5,-445.5 430.5,-480.5 709.5,-480.5 709.5,-445.5 430.5,-445.5"/>
<text text-anchor="start" x="437.1977" y="-458.3" font-family="Arial Bold" font-size="18.00" fill="#000000">business_partner</text>
<text text-anchor="start" x="575.2343" y="-458.3" font-family="Arial" font-size="14.00" fill="#000000">    </text>
<text text-anchor="start" x="609.4391" y="-458.3" font-family="Arial" font-size="14.00" fill="#666666">[BASE TABLE]</text>
<polygon fill="none" stroke="#000000" points="430.5,-415.5 430.5,-445.5 709.5,-445.5 709.5,-415.5 430.5,-415.5"/>
<text text-anchor="start" x="437.5" y="-426.9" font-family="Arial" font-size="14.00" fill="#000000">id    </text>
<text text-anchor="start" x="482.594" y="-426.9" font-family="Arial" font-size="14.00" fill="#666666">[int(11) unsigned]</text>
<polygon fill="none" stroke="#000000" points="430.5,-385.5 430.5,-415.5 709.5,-415.5 709.5,-385.5 430.5,-385.5"/>
<text text-anchor="start" x="437.5" y="-396.9" font-family="Arial" font-size="14.00" fill="#000000">tenant    </text>
<text text-anchor="start" x="510.6164" y="-396.9" font-family="Arial" font-size="14.00" fill="#666666">[int(11) unsigned]</text>
<polygon fill="none" stroke="#000000" points="430.5,-355.5 430.5,-385.5 709.5,-385.5 709.5,-355.5 430.5,-355.5"/>
<text text-anchor="start" x="437.5" y="-366.9" font-family="Arial" font-size="14.00" fill="#000000">name    </text>
<text text-anchor="start" x="506.7132" y="-366.9" font-family="Arial" font-size="14.00" fill="#666666">[varchar(255)]</text>
</g>
<!-- business_partner&#45;&gt;tenant -->
<g id="edge2" class="edge">
<title>business_partner:tenant&#45;&gt;tenant:id</title>
<path fill="none" stroke="#000000" d="M719.7105,-399.8562C795.9934,-389.4071 693.9013,-254.4581 761.5,-193 906.8498,-60.8536 1439.0585,-60.5 1635.5,-60.5"/>
<polygon fill="#000000" stroke="#000000" points="719.4802,-399.8706 709.2168,-396.0089 714.4901,-400.1853 709.5,-400.5 709.5,-400.5 709.5,-400.5 714.4901,-400.1853 709.7832,-404.9911 719.4802,-399.8706 719.4802,-399.8706"/>
<text text-anchor="start" x="597.2665" y="-384.5" font-family="Arial" font-size="10.00" fill="#000000">FOREIGN KEY (tenant) REFERENCES tenant (id)</text>
</g>
<!-- cost_center -->
<g id="node4" class="node">
<title>cost_center</title>
<polygon fill="#efefef" stroke="transparent" points="813.5,-445.5 813.5,-480.5 1047.5,-480.5 1047.5,-445.5 813.5,-445.5"/>
<polygon fill="none" stroke="#000000" points="813.5,-445.5 813.5,-480.5 1047.5,-480.5 1047.5,-445.5 813.5,-445.5"/>
<text text-anchor="start" x="820.2022" y="-458.3" font-family="Arial Bold" font-size="18.00" fill="#000000">cost_center</text>
<text text-anchor="start" x="913.2298" y="-458.3" font-family="Arial" font-size="14.00" fill="#000000">    </text>
<text text-anchor="start" x="947.4346" y="-458.3" font-family="Arial" font-size="14.00" fill="#666666">[BASE TABLE]</text>
<polygon fill="none" stroke="#000000" points="813.5,-415.5 813.5,-445.5 1047.5,-445.5 1047.5,-415.5 813.5,-415.5"/>
<text text-anchor="start" x="820.5" y="-426.9" font-family="Arial" font-size="14.00" fill="#000000">id    </text>
<text text-anchor="start" x="865.594" y="-426.9" font-family="Arial" font-size="14.00" fill="#666666">[int(11) unsigned]</text>
<polygon fill="none" stroke="#000000" points="813.5,-385.5 813.5,-415.5 1047.5,-415.5 1047.5,-385.5 813.5,-385.5"/>
<text text-anchor="start" x="820.5" y="-396.9" font-family="Arial" font-size="14.00" fill="#000000">tenant    </text>
<text text-anchor="start" x="893.6164" y="-396.9" font-family="Arial" font-size="14.00" fill="#666666">[int(11) unsigned]</text>
<polygon fill="none" stroke="#000000" points="813.5,-355.5 813.5,-385.5 1047.5,-385.5 1047.5,-355.5 813.5,-355.5"/>
<text text-anchor="start" x="820.5" y="-366.9" font-family="Arial" font-size="14.00" fill="#000000">name    </text>
<text text-anchor="start" x="889.7132" y="-366.9" font-family="Arial" font-size="14.00" fill="#666666">[varchar(255)]</text>
</g>
<!-- cost_center&#45;&gt;tenant -->
<g id="edge3" class="edge">
<title>cost_center:tenant&#45;&gt;tenant:id</title>
<path fill="none" stroke="#000000" d="M1057.7237,-399.8701C1134.2195,-389.6446 1034.7953,-257.4979 1099.5,-193 1186.3983,-106.3795 1512.8035,-60.5 1635.5,-60.5"/>
<polygon fill="#000000" stroke="#000000" points="1057.4811,-399.885 1047.2232,-396.0085 1052.4905,-400.1925 1047.5,-400.5 1047.5,-400.5 1047.5,-400.5 1052.4905,-400.1925 1047.7768,-404.9915 1057.4811,-399.885 1057.4811,-399.885"/>
<text text-anchor="start" x="935.2665" y="-384.5" font-family="Arial" font-size="10.00" fill="#000000">FOREIGN KEY (tenant) REFERENCES tenant (id)</text>
</g>
<!-- invoice_file -->
<g id="node5" class="node">
<title>invoice_file</title>
<polygon fill="#efefef" stroke="transparent" points="1151.5,-475.5 1151.5,-510.5 1381.5,-510.5 1381.5,-475.5 1151.5,-475.5"/>
<polygon fill="none" stroke="#000000" points="1151.5,-475.5 1151.5,-510.5 1381.5,-510.5 1381.5,-475.5 1151.5,-475.5"/>
<text text-anchor="start" x="1158.211" y="-488.3" font-family="Arial Bold" font-size="18.00" fill="#000000">invoice_file</text>
<text text-anchor="start" x="1247.221" y="-488.3" font-family="Arial" font-size="14.00" fill="#000000">    </text>
<text text-anchor="start" x="1281.4258" y="-488.3" font-family="Arial" font-size="14.00" fill="#666666">[BASE TABLE]</text>
<polygon fill="none" stroke="#000000" points="1151.5,-445.5 1151.5,-475.5 1381.5,-475.5 1381.5,-445.5 1151.5,-445.5"/>
<text text-anchor="start" x="1158.5" y="-456.9" font-family="Arial" font-size="14.00" fill="#000000">id    </text>
<text text-anchor="start" x="1203.594" y="-456.9" font-family="Arial" font-size="14.00" fill="#666666">[int(11) unsigned]</text>
<polygon fill="none" stroke="#000000" points="1151.5,-415.5 1151.5,-445.5 1381.5,-445.5 1381.5,-415.5 1151.5,-415.5"/>
<text text-anchor="start" x="1158.5" y="-426.9" font-family="Arial" font-size="14.00" fill="#000000">tenant    </text>
<text text-anchor="start" x="1231.6164" y="-426.9" font-family="Arial" font-size="14.00" fill="#666666">[int(11) unsigned]</text>
<polygon fill="none" stroke="#000000" points="1151.5,-385.5 1151.5,-415.5 1381.5,-415.5 1381.5,-385.5 1151.5,-385.5"/>
<text text-anchor="start" x="1158.5" y="-396.9" font-family="Arial" font-size="14.00" fill="#000000">filename    </text>
<text text-anchor="start" x="1245.5996" y="-396.9" font-family="Arial" font-size="14.00" fill="#666666">[varchar(2000)]</text>
<polygon fill="none" stroke="#000000" points="1151.5,-355.5 1151.5,-385.5 1381.5,-385.5 1381.5,-355.5 1151.5,-355.5"/>
<text text-anchor="start" x="1158.5" y="-366.9" font-family="Arial" font-size="14.00" fill="#000000">object_url    </text>
<text text-anchor="start" x="1253.3822" y="-366.9" font-family="Arial" font-size="14.00" fill="#666666">[varchar(2000)]</text>
<polygon fill="none" stroke="#000000" points="1151.5,-325.5 1151.5,-355.5 1381.5,-355.5 1381.5,-325.5 1151.5,-325.5"/>
<text text-anchor="start" x="1158.5" y="-336.9" font-family="Arial" font-size="14.00" fill="#000000">process_id    </text>
<text text-anchor="start" x="1260.385" y="-336.9" font-family="Arial" font-size="14.00" fill="#666666">[int(11) unsigned]</text>
</g>
<!-- invoice_file&#45;&gt;tenant -->
<g id="edge4" class="edge">
<title>invoice_file:tenant&#45;&gt;tenant:id</title>
<path fill="none" stroke="#000000" d="M1391.5328,-430.0165C1481.9616,-420.7046 1374.2629,-279.0498 1433.5,-193 1494.3815,-104.5614 1528.1317,-60.5 1635.5,-60.5"/>
<polygon fill="#000000" stroke="#000000" points="1391.4884,-430.0185 1381.2833,-426.0052 1386.4942,-430.2593 1381.5,-430.5 1381.5,-430.5 1381.5,-430.5 1386.4942,-430.2593 1381.7167,-434.9948 1391.4884,-430.0185 1391.4884,-430.0185"/>
<text text-anchor="start" x="1388.2665" y="-440.5" font-family="Arial" font-size="10.00" fill="#000000">FOREIGN KEY (tenant) REFERENCES tenant (id)</text>
</g>
<!-- invoice_process -->
<g id="node6" class="node">
<title>invoice_process</title>
<polygon fill="#efefef" stroke="transparent" points="1485.5,-565.5 1485.5,-600.5 1977.5,-600.5 1977.5,-565.5 1485.5,-565.5"/>
<polygon fill="none" stroke="#000000" points="1485.5,-565.5 1485.5,-600.5 1977.5,-600.5 1977.5,-565.5 1485.5,-565.5"/>
<text text-anchor="start" x="1603.204" y="-578.3" font-family="Arial Bold" font-size="18.00" fill="#000000">invoice_process</text>
<text text-anchor="start" x="1732.228" y="-578.3" font-family="Arial" font-size="14.00" fill="#000000">    </text>
<text text-anchor="start" x="1766.4328" y="-578.3" font-family="Arial" font-size="14.00" fill="#666666">[BASE TABLE]</text>
<polygon fill="none" stroke="#000000" points="1485.5,-535.5 1485.5,-565.5 1977.5,-565.5 1977.5,-535.5 1485.5,-535.5"/>
<text text-anchor="start" x="1492.5" y="-546.9" font-family="Arial" font-size="14.00" fill="#000000">id    </text>
<text text-anchor="start" x="1537.594" y="-546.9" font-family="Arial" font-size="14.00" fill="#666666">[int(11) unsigned]</text>
<polygon fill="none" stroke="#000000" points="1485.5,-505.5 1485.5,-535.5 1977.5,-535.5 1977.5,-505.5 1485.5,-505.5"/>
<text text-anchor="start" x="1492.5" y="-516.9" font-family="Arial" font-size="14.00" fill="#000000">tenant    </text>
<text text-anchor="start" x="1565.6164" y="-516.9" font-family="Arial" font-size="14.00" fill="#666666">[int(11) unsigned]</text>
<polygon fill="none" stroke="#000000" points="1485.5,-475.5 1485.5,-505.5 1977.5,-505.5 1977.5,-475.5 1485.5,-475.5"/>
<text text-anchor="start" x="1492.5" y="-486.9" font-family="Arial" font-size="14.00" fill="#000000">state    </text>
<text text-anchor="start" x="1557.0512" y="-486.9" font-family="Arial" font-size="14.00" fill="#666666">[int(2)]</text>
<polygon fill="none" stroke="#000000" points="1485.5,-445.5 1485.5,-475.5 1977.5,-475.5 1977.5,-445.5 1485.5,-445.5"/>
<text text-anchor="start" x="1492.5" y="-456.9" font-family="Arial" font-size="14.00" fill="#000000">amount    </text>
<text text-anchor="start" x="1573.3864" y="-456.9" font-family="Arial" font-size="14.00" fill="#666666">[int(11) unsigned]</text>
<polygon fill="none" stroke="#000000" points="1485.5,-415.5 1485.5,-445.5 1977.5,-445.5 1977.5,-415.5 1485.5,-415.5"/>
<text text-anchor="start" x="1492.5" y="-426.9" font-family="Arial" font-size="14.00" fill="#000000">payee    </text>
<text text-anchor="start" x="1564.8352" y="-426.9" font-family="Arial" font-size="14.00" fill="#666666">[int(11) unsigned]</text>
<polygon fill="none" stroke="#000000" points="1485.5,-385.5 1485.5,-415.5 1977.5,-415.5 1977.5,-385.5 1485.5,-385.5"/>
<text text-anchor="start" x="1492.3464" y="-396.9" font-family="Arial" font-size="14.00" fill="#000000">payment_method_type    </text>
<text text-anchor="start" x="1668.9354" y="-396.9" font-family="Arial" font-size="14.00" fill="#666666">[enum(&#39;bank_transfer&#39;,&#39;direct_debit&#39;,&#39;credit card&#39;)]</text>
<polygon fill="none" stroke="#000000" points="1485.5,-355.5 1485.5,-385.5 1977.5,-385.5 1977.5,-355.5 1485.5,-355.5"/>
<text text-anchor="start" x="1492.5" y="-366.9" font-family="Arial" font-size="14.00" fill="#000000">payment_method_id    </text>
<text text-anchor="start" x="1653.5224" y="-366.9" font-family="Arial" font-size="14.00" fill="#666666">[int(11) unsigned]</text>
<polygon fill="none" stroke="#000000" points="1485.5,-325.5 1485.5,-355.5 1977.5,-355.5 1977.5,-325.5 1485.5,-325.5"/>
<text text-anchor="start" x="1492.5" y="-336.9" font-family="Arial" font-size="14.00" fill="#000000">payee_bank_account    </text>
<text text-anchor="start" x="1659.7692" y="-336.9" font-family="Arial" font-size="14.00" fill="#666666">[int(11) unsigned]</text>
<polygon fill="none" stroke="#000000" points="1485.5,-295.5 1485.5,-325.5 1977.5,-325.5 1977.5,-295.5 1485.5,-295.5"/>
<text text-anchor="start" x="1492.5" y="-306.9" font-family="Arial" font-size="14.00" fill="#000000">due    </text>
<text text-anchor="start" x="1550.0526" y="-306.9" font-family="Arial" font-size="14.00" fill="#666666">[date]</text>
<polygon fill="none" stroke="#000000" points="1485.5,-265.5 1485.5,-295.5 1977.5,-295.5 1977.5,-265.5 1485.5,-265.5"/>
<text text-anchor="start" x="1492.5" y="-276.9" font-family="Arial" font-size="14.00" fill="#000000">pic    </text>
<text text-anchor="start" x="1544.594" y="-276.9" font-family="Arial" font-size="14.00" fill="#666666">[int(11) unsigned]</text>
<polygon fill="none" stroke="#000000" points="1485.5,-235.5 1485.5,-265.5 1977.5,-265.5 1977.5,-235.5 1485.5,-235.5"/>
<text text-anchor="start" x="1492.5" y="-246.9" font-family="Arial" font-size="14.00" fill="#000000">classification    </text>
<text text-anchor="start" x="1606.0428" y="-246.9" font-family="Arial" font-size="14.00" fill="#666666">[int(11) unsigned]</text>
</g>
<!-- invoice_process&#45;&gt;tenant -->
<g id="edge5" class="edge">
<title>invoice_process:tenant&#45;&gt;tenant:id</title>
<path fill="none" stroke="#000000" d="M1475.5236,-518.6018C1415.1336,-494.3232 1439.1919,-244.4543 1485.5,-193 1536.4739,-136.3614 1775.5261,-213.6386 1826.5,-157 1855.1909,-125.1207 1869.3889,-60.5 1826.5,-60.5"/>
<polygon fill="#000000" stroke="#000000" points="1475.6762,-518.6308 1484.6588,-524.9207 1480.5881,-519.5654 1485.5,-520.5 1485.5,-520.5 1485.5,-520.5 1480.5881,-519.5654 1486.3412,-516.0793 1475.6762,-518.6308 1475.6762,-518.6308"/>
<text text-anchor="start" x="1432.7665" y="-504.5" font-family="Arial" font-size="10.00" fill="#000000">FOREIGN KEY (tenant) REFERENCES tenant (id)</text>
</g>
<!-- payment_method_bank_transfer -->
<g id="node7" class="node">
<title>payment_method_bank_transfer</title>
<polygon fill="#efefef" stroke="transparent" points="2081.5,-505.5 2081.5,-540.5 2481.5,-540.5 2481.5,-505.5 2081.5,-505.5"/>
<polygon fill="none" stroke="#000000" points="2081.5,-505.5 2081.5,-540.5 2481.5,-540.5 2481.5,-505.5 2081.5,-505.5"/>
<text text-anchor="start" x="2088.1745" y="-518.3" font-family="Arial Bold" font-size="18.00" fill="#000000">payment_method_bank_transfer</text>
<text text-anchor="start" x="2347.2575" y="-518.3" font-family="Arial" font-size="14.00" fill="#000000">    </text>
<text text-anchor="start" x="2381.4623" y="-518.3" font-family="Arial" font-size="14.00" fill="#666666">[BASE TABLE]</text>
<polygon fill="none" stroke="#000000" points="2081.5,-475.5 2081.5,-505.5 2481.5,-505.5 2481.5,-475.5 2081.5,-475.5"/>
<text text-anchor="start" x="2088.5" y="-486.9" font-family="Arial" font-size="14.00" fill="#000000">id    </text>
<text text-anchor="start" x="2133.594" y="-486.9" font-family="Arial" font-size="14.00" fill="#666666">[int(11) unsigned]</text>
<polygon fill="none" stroke="#000000" points="2081.5,-445.5 2081.5,-475.5 2481.5,-475.5 2481.5,-445.5 2081.5,-445.5"/>
<text text-anchor="start" x="2088.5" y="-456.9" font-family="Arial" font-size="14.00" fill="#000000">tenant    </text>
<text text-anchor="start" x="2161.6164" y="-456.9" font-family="Arial" font-size="14.00" fill="#666666">[int(11) unsigned]</text>
<polygon fill="none" stroke="#000000" points="2081.5,-415.5 2081.5,-445.5 2481.5,-445.5 2481.5,-415.5 2081.5,-415.5"/>
<text text-anchor="start" x="2088.5" y="-426.9" font-family="Arial" font-size="14.00" fill="#000000">name    </text>
<text text-anchor="start" x="2157.7132" y="-426.9" font-family="Arial" font-size="14.00" fill="#666666">[char(255)]</text>
<polygon fill="none" stroke="#000000" points="2081.5,-385.5 2081.5,-415.5 2481.5,-415.5 2481.5,-385.5 2081.5,-385.5"/>
<text text-anchor="start" x="2088.5" y="-396.9" font-family="Arial" font-size="14.00" fill="#000000">bank_code    </text>
<text text-anchor="start" x="2191.183" y="-396.9" font-family="Arial" font-size="14.00" fill="#666666">[char(4)]</text>
<polygon fill="none" stroke="#000000" points="2081.5,-355.5 2081.5,-385.5 2481.5,-385.5 2481.5,-355.5 2081.5,-355.5"/>
<text text-anchor="start" x="2088.5" y="-366.9" font-family="Arial" font-size="14.00" fill="#000000">account_type    </text>
<text text-anchor="start" x="2205.9642" y="-366.9" font-family="Arial" font-size="14.00" fill="#666666">[int(1)]</text>
<polygon fill="none" stroke="#000000" points="2081.5,-325.5 2081.5,-355.5 2481.5,-355.5 2481.5,-325.5 2081.5,-325.5"/>
<text text-anchor="start" x="2088.5" y="-336.9" font-family="Arial" font-size="14.00" fill="#000000">branch    </text>
<text text-anchor="start" x="2165.4958" y="-336.9" font-family="Arial" font-size="14.00" fill="#666666">[char(5)]</text>
<polygon fill="none" stroke="#000000" points="2081.5,-295.5 2081.5,-325.5 2481.5,-325.5 2481.5,-295.5 2081.5,-295.5"/>
<text text-anchor="start" x="2088.5" y="-306.9" font-family="Arial" font-size="14.00" fill="#000000">account_number    </text>
<text text-anchor="start" x="2226.96" y="-306.9" font-family="Arial" font-size="14.00" fill="#666666">[char(8)]</text>
</g>
<!-- payment_method_bank_transfer&#45;&gt;tenant -->
<g id="edge6" class="edge">
<title>payment_method_bank_transfer:tenant&#45;&gt;tenant:id</title>
<path fill="none" stroke="#000000" d="M2071.5925,-458.196C2025.7934,-434.8038 2061.2584,-240.2011 2029.5,-193 1969.3555,-103.6099 1934.2402,-60.5 1826.5,-60.5"/>
<polygon fill="#000000" stroke="#000000" points="2071.7599,-458.2348 2080.4807,-464.883 2076.63,-459.3674 2081.5,-460.5 2081.5,-460.5 2081.5,-460.5 2076.63,-459.3674 2082.5193,-456.117 2071.7599,-458.2348 2071.7599,-458.2348"/>
<text text-anchor="start" x="1850.2665" y="-470.5" font-family="Arial" font-size="10.00" fill="#000000">FOREIGN KEY (tenant) REFERENCES tenant (id)</text>
</g>
<!-- payment_method_credit_card -->
<g id="node8" class="node">
<title>payment_method_credit_card</title>
<polygon fill="#efefef" stroke="transparent" points="2586.5,-445.5 2586.5,-480.5 2965.5,-480.5 2965.5,-445.5 2586.5,-445.5"/>
<polygon fill="none" stroke="#000000" points="2586.5,-445.5 2586.5,-480.5 2965.5,-480.5 2965.5,-445.5 2586.5,-445.5"/>
<text text-anchor="start" x="2593.1847" y="-458.3" font-family="Arial Bold" font-size="18.00" fill="#000000">payment_method_credit_card</text>
<text text-anchor="start" x="2831.2473" y="-458.3" font-family="Arial" font-size="14.00" fill="#000000">    </text>
<text text-anchor="start" x="2865.4521" y="-458.3" font-family="Arial" font-size="14.00" fill="#666666">[BASE TABLE]</text>
<polygon fill="none" stroke="#000000" points="2586.5,-415.5 2586.5,-445.5 2965.5,-445.5 2965.5,-415.5 2586.5,-415.5"/>
<text text-anchor="start" x="2593.5" y="-426.9" font-family="Arial" font-size="14.00" fill="#000000">id    </text>
<text text-anchor="start" x="2638.594" y="-426.9" font-family="Arial" font-size="14.00" fill="#666666">[int(11) unsigned]</text>
<polygon fill="none" stroke="#000000" points="2586.5,-385.5 2586.5,-415.5 2965.5,-415.5 2965.5,-385.5 2586.5,-385.5"/>
<text text-anchor="start" x="2593.5" y="-396.9" font-family="Arial" font-size="14.00" fill="#000000">tenant    </text>
<text text-anchor="start" x="2666.6164" y="-396.9" font-family="Arial" font-size="14.00" fill="#666666">[int(11) unsigned]</text>
<polygon fill="none" stroke="#000000" points="2586.5,-355.5 2586.5,-385.5 2965.5,-385.5 2965.5,-355.5 2586.5,-355.5"/>
<text text-anchor="start" x="2593.5" y="-366.9" font-family="Arial" font-size="14.00" fill="#000000">name    </text>
<text text-anchor="start" x="2662.7132" y="-366.9" font-family="Arial" font-size="14.00" fill="#666666">[varchar(255)]</text>
</g>
<!-- payment_method_credit_card&#45;&gt;tenant -->
<g id="edge7" class="edge">
<title>payment_method_credit_card:tenant&#45;&gt;tenant:id</title>
<path fill="none" stroke="#000000" d="M2576.2694,-399.8612C2499.762,-389.4921 2600.237,-255.546 2533.5,-193 2416.8687,-83.693 1986.3464,-60.5 1826.5,-60.5"/>
<polygon fill="#000000" stroke="#000000" points="2576.5194,-399.8767 2586.2195,-404.9913 2581.5097,-400.1884 2586.5,-400.5 2586.5,-400.5 2586.5,-400.5 2581.5097,-400.1884 2586.7805,-396.0087 2576.5194,-399.8767 2576.5194,-399.8767"/>
<text text-anchor="start" x="2355.2665" y="-410.5" font-family="Arial" font-size="10.00" fill="#000000">FOREIGN KEY (tenant) REFERENCES tenant (id)</text>
</g>
<!-- payment_method_direct_debit -->
<g id="node9" class="node">
<title>payment_method_direct_debit</title>
<polygon fill="#efefef" stroke="transparent" points="3069.5,-445.5 3069.5,-480.5 3452.5,-480.5 3452.5,-445.5 3069.5,-445.5"/>
<polygon fill="none" stroke="#000000" points="3069.5,-445.5 3069.5,-480.5 3452.5,-480.5 3452.5,-445.5 3069.5,-445.5"/>
<text text-anchor="start" x="3076.1795" y="-458.3" font-family="Arial Bold" font-size="18.00" fill="#000000">payment_method_direct_debit</text>
<text text-anchor="start" x="3318.2525" y="-458.3" font-family="Arial" font-size="14.00" fill="#000000">    </text>
<text text-anchor="start" x="3352.4573" y="-458.3" font-family="Arial" font-size="14.00" fill="#666666">[BASE TABLE]</text>
<polygon fill="none" stroke="#000000" points="3069.5,-415.5 3069.5,-445.5 3452.5,-445.5 3452.5,-415.5 3069.5,-415.5"/>
<text text-anchor="start" x="3076.5" y="-426.9" font-family="Arial" font-size="14.00" fill="#000000">id    </text>
<text text-anchor="start" x="3121.594" y="-426.9" font-family="Arial" font-size="14.00" fill="#666666">[int(11) unsigned]</text>
<polygon fill="none" stroke="#000000" points="3069.5,-385.5 3069.5,-415.5 3452.5,-415.5 3452.5,-385.5 3069.5,-385.5"/>
<text text-anchor="start" x="3076.5" y="-396.9" font-family="Arial" font-size="14.00" fill="#000000">tenant    </text>
<text text-anchor="start" x="3149.6164" y="-396.9" font-family="Arial" font-size="14.00" fill="#666666">[int(11) unsigned]</text>
<polygon fill="none" stroke="#000000" points="3069.5,-355.5 3069.5,-385.5 3452.5,-385.5 3452.5,-355.5 3069.5,-355.5"/>
<text text-anchor="start" x="3076.5" y="-366.9" font-family="Arial" font-size="14.00" fill="#000000">name    </text>
<text text-anchor="start" x="3145.7132" y="-366.9" font-family="Arial" font-size="14.00" fill="#666666">[varchar(255)]</text>
</g>
<!-- payment_method_direct_debit&#45;&gt;tenant -->
<g id="edge8" class="edge">
<title>payment_method_direct_debit:tenant&#45;&gt;tenant:id</title>
<path fill="none" stroke="#000000" d="M3059.2951,-399.85C2983.1008,-389.3014 3086.304,-253.1056 3017.5,-193 2917.2239,-105.4012 1959.6497,-60.5 1826.5,-60.5"/>
<polygon fill="#000000" stroke="#000000" points="3059.5202,-399.8643 3069.2139,-404.9909 3064.5101,-400.1821 3069.5,-400.5 3069.5,-400.5 3069.5,-400.5 3064.5101,-400.1821 3069.7861,-396.0091 3059.5202,-399.8643 3059.5202,-399.8643"/>
<text text-anchor="start" x="2838.2665" y="-410.5" font-family="Arial" font-size="10.00" fill="#000000">FOREIGN KEY (tenant) REFERENCES tenant (id)</text>
</g>
<!-- user -->
<g id="node10" class="node">
<title>user</title>
<polygon fill="#efefef" stroke="transparent" points="3556.5,-445.5 3556.5,-480.5 3751.5,-480.5 3751.5,-445.5 3556.5,-445.5"/>
<polygon fill="none" stroke="#000000" points="3556.5,-445.5 3556.5,-480.5 3751.5,-480.5 3751.5,-445.5 3556.5,-445.5"/>
<text text-anchor="start" x="3572.7137" y="-458.3" font-family="Arial Bold" font-size="18.00" fill="#000000">user</text>
<text text-anchor="start" x="3607.7183" y="-458.3" font-family="Arial" font-size="14.00" fill="#000000">    </text>
<text text-anchor="start" x="3641.9231" y="-458.3" font-family="Arial" font-size="14.00" fill="#666666">[BASE TABLE]</text>
<polygon fill="none" stroke="#000000" points="3556.5,-415.5 3556.5,-445.5 3751.5,-445.5 3751.5,-415.5 3556.5,-415.5"/>
<text text-anchor="start" x="3563.5" y="-426.9" font-family="Arial" font-size="14.00" fill="#000000">id    </text>
<text text-anchor="start" x="3608.594" y="-426.9" font-family="Arial" font-size="14.00" fill="#666666">[int(11) unsigned]</text>
<polygon fill="none" stroke="#000000" points="3556.5,-385.5 3556.5,-415.5 3751.5,-415.5 3751.5,-385.5 3556.5,-385.5"/>
<text text-anchor="start" x="3563.3717" y="-396.9" font-family="Arial" font-size="14.00" fill="#000000">tenant    </text>
<text text-anchor="start" x="3636.4881" y="-396.9" font-family="Arial" font-size="14.00" fill="#666666">[int(11) unsigned]</text>
<polygon fill="none" stroke="#000000" points="3556.5,-355.5 3556.5,-385.5 3751.5,-385.5 3751.5,-355.5 3556.5,-355.5"/>
<text text-anchor="start" x="3563.5" y="-366.9" font-family="Arial" font-size="14.00" fill="#000000">name    </text>
<text text-anchor="start" x="3632.7132" y="-366.9" font-family="Arial" font-size="14.00" fill="#666666">[varchar(255)]</text>
</g>
<!-- user&#45;&gt;tenant -->
<g id="edge9" class="edge">
<title>user:tenant&#45;&gt;tenant:id</title>
<path fill="none" stroke="#000000" d="M3546.2994,-399.8449C3470.1752,-389.2148 3574.2568,-251.9972 3504.5,-193 3361.6998,-72.2259 2013.5248,-60.5 1826.5,-60.5"/>
<polygon fill="#000000" stroke="#000000" points="3546.5206,-399.8591 3556.2116,-404.9907 3551.5103,-400.1795 3556.5,-400.5 3556.5,-400.5 3556.5,-400.5 3551.5103,-400.1795 3556.7884,-396.0093 3546.5206,-399.8591 3546.5206,-399.8591"/>
<text text-anchor="start" x="3325.2665" y="-410.5" font-family="Arial" font-size="10.00" fill="#000000">FOREIGN KEY (tenant) REFERENCES tenant (id)</text>
</g>
</g>
</svg>
