<?xml version="1.0" encoding="UTF-8" standalone="no"?>
<!DOCTYPE svg PUBLIC "-//W3C//DTD SVG 1.1//EN"
 "http://www.w3.org/Graphics/SVG/1.1/DTD/svg11.dtd">
<!-- Generated by graphviz version 2.40.1 (20161225.0304)
 -->
<!-- Title: tenant Pages: 1 -->
<svg width="2722pt" height="652pt"
 viewBox="0.00 0.00 2722.00 652.00" xmlns="http://www.w3.org/2000/svg" xmlns:xlink="http://www.w3.org/1999/xlink">
<g id="graph0" class="graph" transform="scale(1 1) rotate(0) translate(4 648)">
<title>tenant</title>
<polygon fill="#ffffff" stroke="transparent" points="-4,4 -4,-648 2718,-648 2718,4 -4,4"/>
<!-- tenant -->
<g id="node1" class="node">
<title>tenant</title>
<polygon fill="#efefef" stroke="transparent" points="1170.5,-75.5 1170.5,-110.5 1361.5,-110.5 1361.5,-75.5 1170.5,-75.5"/>
<polygon fill="none" stroke="#000000" points="1170.5,-75.5 1170.5,-110.5 1361.5,-110.5 1361.5,-75.5 1170.5,-75.5"/>
<text text-anchor="start" x="1177.2014" y="-88.3" font-family="Arial Bold" font-size="18.00" fill="#000000">tenant</text>
<text text-anchor="start" x="1227.2306" y="-88.3" font-family="Arial" font-size="14.00" fill="#000000">    </text>
<text text-anchor="start" x="1261.4354" y="-88.3" font-family="Arial" font-size="14.00" fill="#666666">[BASE TABLE]</text>
<polygon fill="none" stroke="#000000" points="1170.5,-45.5 1170.5,-75.5 1361.5,-75.5 1361.5,-45.5 1170.5,-45.5"/>
<text text-anchor="start" x="1177.5" y="-56.9" font-family="Arial" font-size="14.00" fill="#000000">id </text>
<text text-anchor="start" x="1192.2798" y="-56.9" font-family="Arial" font-size="14.00" fill="#666666">[int(11) unsigned]</text>
<polygon fill="none" stroke="#000000" stroke-width="3" points="1168.5,-44.5 1168.5,-112.5 1362.5,-112.5 1362.5,-44.5 1168.5,-44.5"/>
</g>
<!-- account_category -->
<g id="node2" class="node">
<title>account_category</title>
<polygon fill="#efefef" stroke="transparent" points="43.5,-460.5 43.5,-495.5 326.5,-495.5 326.5,-460.5 43.5,-460.5"/>
<polygon fill="none" stroke="#000000" points="43.5,-460.5 43.5,-495.5 326.5,-495.5 326.5,-460.5 43.5,-460.5"/>
<text text-anchor="start" x="50.1898" y="-473.3" font-family="Arial Bold" font-size="18.00" fill="#000000">account_category</text>
<text text-anchor="start" x="192.2422" y="-473.3" font-family="Arial" font-size="14.00" fill="#000000">    </text>
<text text-anchor="start" x="226.447" y="-473.3" font-family="Arial" font-size="14.00" fill="#666666">[BASE TABLE]</text>
<polygon fill="none" stroke="#000000" points="43.5,-430.5 43.5,-460.5 326.5,-460.5 326.5,-430.5 43.5,-430.5"/>
<text text-anchor="start" x="50.5" y="-441.9" font-family="Arial" font-size="14.00" fill="#000000">id    </text>
<text text-anchor="start" x="95.594" y="-441.9" font-family="Arial" font-size="14.00" fill="#666666">[int(11) unsigned]</text>
<polygon fill="none" stroke="#000000" points="43.5,-400.5 43.5,-430.5 326.5,-430.5 326.5,-400.5 43.5,-400.5"/>
<text text-anchor="start" x="50.5" y="-411.9" font-family="Arial" font-size="14.00" fill="#000000">tenant    </text>
<text text-anchor="start" x="123.6164" y="-411.9" font-family="Arial" font-size="14.00" fill="#666666">[int(11) unsigned]</text>
<polygon fill="none" stroke="#000000" points="43.5,-370.5 43.5,-400.5 326.5,-400.5 326.5,-370.5 43.5,-370.5"/>
<text text-anchor="start" x="50.5" y="-381.9" font-family="Arial" font-size="14.00" fill="#000000">name    </text>
<text text-anchor="start" x="119.7132" y="-381.9" font-family="Arial" font-size="14.00" fill="#666666">[varchar(255)]</text>
<polygon fill="none" stroke="#000000" points="43.5,-340.5 43.5,-370.5 326.5,-370.5 326.5,-340.5 43.5,-340.5"/>
<text text-anchor="start" x="50.5" y="-351.9" font-family="Arial" font-size="14.00" fill="#000000">dr_or_cr    </text>
<text text-anchor="start" x="136.817" y="-351.9" font-family="Arial" font-size="14.00" fill="#666666">[enum(&#39;debit&#39;,&#39;credit&#39;)]</text>
</g>
<!-- account_category&#45;&gt;tenant -->
<g id="edge1" class="edge">
<title>account_category:tenant&#45;&gt;tenant:id</title>
<path fill="none" stroke="#000000" d="M336.6332,-414.9121C419.2293,-404.5568 306.3187,-260.0495 377.5,-193 507.5535,-70.4956 991.8348,-60.5 1170.5,-60.5"/>
<polygon fill="#000000" stroke="#000000" points="336.4832,-414.9207 326.2393,-411.0076 331.4916,-415.2104 326.5,-415.5 326.5,-415.5 326.5,-415.5 331.4916,-415.2104 326.7607,-419.9924 336.4832,-414.9207 336.4832,-414.9207"/>
<text text-anchor="start" x="214.2665" y="-399.5" font-family="Arial" font-size="10.00" fill="#000000">FOREIGN KEY (tenant) REFERENCES tenant (id)</text>
</g>
<!-- business_partner -->
<g id="node3" class="node">
<title>business_partner</title>
<polygon fill="#efefef" stroke="transparent" points="430.5,-445.5 430.5,-480.5 709.5,-480.5 709.5,-445.5 430.5,-445.5"/>
<polygon fill="none" stroke="#000000" points="430.5,-445.5 430.5,-480.5 709.5,-480.5 709.5,-445.5 430.5,-445.5"/>
<text text-anchor="start" x="437.1977" y="-458.3" font-family="Arial Bold" font-size="18.00" fill="#000000">business_partner</text>
<text text-anchor="start" x="575.2343" y="-458.3" font-family="Arial" font-size="14.00" fill="#000000">    </text>
<text text-anchor="start" x="609.4391" y="-458.3" font-family="Arial" font-size="14.00" fill="#666666">[BASE TABLE]</text>
<polygon fill="none" stroke="#000000" points="430.5,-415.5 430.5,-445.5 709.5,-445.5 709.5,-415.5 430.5,-415.5"/>
<text text-anchor="start" x="437.5" y="-426.9" font-family="Arial" font-size="14.00" fill="#000000">id    </text>
<text text-anchor="start" x="482.594" y="-426.9" font-family="Arial" font-size="14.00" fill="#666666">[int(11) unsigned]</text>
<polygon fill="none" stroke="#000000" points="430.5,-385.5 430.5,-415.5 709.5,-415.5 709.5,-385.5 430.5,-385.5"/>
<text text-anchor="start" x="437.5" y="-396.9" font-family="Arial" font-size="14.00" fill="#000000">tenant    </text>
<text text-anchor="start" x="510.6164" y="-396.9" font-family="Arial" font-size="14.00" fill="#666666">[int(11) unsigned]</text>
<polygon fill="none" stroke="#000000" points="430.5,-355.5 430.5,-385.5 709.5,-385.5 709.5,-355.5 430.5,-355.5"/>
<text text-anchor="start" x="437.5" y="-366.9" font-family="Arial" font-size="14.00" fill="#000000">name    </text>
<text text-anchor="start" x="506.7132" y="-366.9" font-family="Arial" font-size="14.00" fill="#666666">[varchar(255)]</text>
</g>
<!-- business_partner&#45;&gt;tenant -->
<g id="edge2" class="edge">
<title>business_partner:tenant&#45;&gt;tenant:id</title>
<path fill="none" stroke="#000000" d="M719.7344,-399.8804C796.4014,-389.8207 699.1235,-259.7522 761.5,-193 826.7299,-123.1943 1074.9607,-60.5 1170.5,-60.5"/>
<polygon fill="#000000" stroke="#000000" points="719.4817,-399.8956 709.228,-396.0082 714.4909,-400.1978 709.5,-400.5 709.5,-400.5 709.5,-400.5 714.4909,-400.1978 709.772,-404.9918 719.4817,-399.8956 719.4817,-399.8956"/>
<text text-anchor="start" x="597.2665" y="-384.5" font-family="Arial" font-size="10.00" fill="#000000">FOREIGN KEY (tenant) REFERENCES tenant (id)</text>
</g>
<!-- cost_center -->
<g id="node4" class="node">
<title>cost_center</title>
<polygon fill="#efefef" stroke="transparent" points="813.5,-445.5 813.5,-480.5 1047.5,-480.5 1047.5,-445.5 813.5,-445.5"/>
<polygon fill="none" stroke="#000000" points="813.5,-445.5 813.5,-480.5 1047.5,-480.5 1047.5,-445.5 813.5,-445.5"/>
<text text-anchor="start" x="820.2022" y="-458.3" font-family="Arial Bold" font-size="18.00" fill="#000000">cost_center</text>
<text text-anchor="start" x="913.2298" y="-458.3" font-family="Arial" font-size="14.00" fill="#000000">    </text>
<text text-anchor="start" x="947.4346" y="-458.3" font-family="Arial" font-size="14.00" fill="#666666">[BASE TABLE]</text>
<polygon fill="none" stroke="#000000" points="813.5,-415.5 813.5,-445.5 1047.5,-445.5 1047.5,-415.5 813.5,-415.5"/>
<text text-anchor="start" x="820.5" y="-426.9" font-family="Arial" font-size="14.00" fill="#000000">id    </text>
<text text-anchor="start" x="865.594" y="-426.9" font-family="Arial" font-size="14.00" fill="#666666">[int(11) unsigned]</text>
<polygon fill="none" stroke="#000000" points="813.5,-385.5 813.5,-415.5 1047.5,-415.5 1047.5,-385.5 813.5,-385.5"/>
<text text-anchor="start" x="820.5" y="-396.9" font-family="Arial" font-size="14.00" fill="#000000">tenant    </text>
<text text-anchor="start" x="893.6164" y="-396.9" font-family="Arial" font-size="14.00" fill="#666666">[int(11) unsigned]</text>
<polygon fill="none" stroke="#000000" points="813.5,-355.5 813.5,-385.5 1047.5,-385.5 1047.5,-355.5 813.5,-355.5"/>
<text text-anchor="start" x="820.5" y="-366.9" font-family="Arial" font-size="14.00" fill="#000000">name    </text>
<text text-anchor="start" x="889.7132" y="-366.9" font-family="Arial" font-size="14.00" fill="#666666">[varchar(255)]</text>
</g>
<!-- cost_center&#45;&gt;tenant -->
<g id="edge3" class="edge">
<title>cost_center:tenant&#45;&gt;tenant:id</title>
<path fill="none" stroke="#000000" d="M1057.8692,-399.965C1136.702,-391.2635 1066.571,-278.2195 1099.5,-193 1123.5806,-130.68 1103.6894,-60.5 1170.5,-60.5"/>
<polygon fill="#000000" stroke="#000000" points="1057.4867,-399.9846 1047.2681,-396.006 1052.4934,-400.2423 1047.5,-400.5 1047.5,-400.5 1047.5,-400.5 1052.4934,-400.2423 1047.7319,-404.994 1057.4867,-399.9846 1057.4867,-399.9846"/>
<text text-anchor="start" x="1054.2665" y="-410.5" font-family="Arial" font-size="10.00" fill="#000000">FOREIGN KEY (tenant) REFERENCES tenant (id)</text>
</g>
<!-- invoice_file -->
<g id="node5" class="node">
<title>invoice_file</title>
<polygon fill="#efefef" stroke="transparent" points="1151.5,-475.5 1151.5,-510.5 1381.5,-510.5 1381.5,-475.5 1151.5,-475.5"/>
<polygon fill="none" stroke="#000000" points="1151.5,-475.5 1151.5,-510.5 1381.5,-510.5 1381.5,-475.5 1151.5,-475.5"/>
<text text-anchor="start" x="1158.211" y="-488.3" font-family="Arial Bold" font-size="18.00" fill="#000000">invoice_file</text>
<text text-anchor="start" x="1247.221" y="-488.3" font-family="Arial" font-size="14.00" fill="#000000">    </text>
<text text-anchor="start" x="1281.4258" y="-488.3" font-family="Arial" font-size="14.00" fill="#666666">[BASE TABLE]</text>
<polygon fill="none" stroke="#000000" points="1151.5,-445.5 1151.5,-475.5 1381.5,-475.5 1381.5,-445.5 1151.5,-445.5"/>
<text text-anchor="start" x="1158.5" y="-456.9" font-family="Arial" font-size="14.00" fill="#000000">id    </text>
<text text-anchor="start" x="1203.594" y="-456.9" font-family="Arial" font-size="14.00" fill="#666666">[int(11) unsigned]</text>
<polygon fill="none" stroke="#000000" points="1151.5,-415.5 1151.5,-445.5 1381.5,-445.5 1381.5,-415.5 1151.5,-415.5"/>
<text text-anchor="start" x="1158.5" y="-426.9" font-family="Arial" font-size="14.00" fill="#000000">tenant    </text>
<text text-anchor="start" x="1231.6164" y="-426.9" font-family="Arial" font-size="14.00" fill="#666666">[int(11) unsigned]</text>
<polygon fill="none" stroke="#000000" points="1151.5,-385.5 1151.5,-415.5 1381.5,-415.5 1381.5,-385.5 1151.5,-385.5"/>
<text text-anchor="start" x="1158.5" y="-396.9" font-family="Arial" font-size="14.00" fill="#000000">filename    </text>
<text text-anchor="start" x="1245.5996" y="-396.9" font-family="Arial" font-size="14.00" fill="#666666">[varchar(2000)]</text>
<polygon fill="none" stroke="#000000" points="1151.5,-355.5 1151.5,-385.5 1381.5,-385.5 1381.5,-355.5 1151.5,-355.5"/>
<text text-anchor="start" x="1158.5" y="-366.9" font-family="Arial" font-size="14.00" fill="#000000">object_url    </text>
<text text-anchor="start" x="1253.3822" y="-366.9" font-family="Arial" font-size="14.00" fill="#666666">[varchar(2000)]</text>
<polygon fill="none" stroke="#000000" points="1151.5,-325.5 1151.5,-355.5 1381.5,-355.5 1381.5,-325.5 1151.5,-325.5"/>
<text text-anchor="start" x="1158.5" y="-336.9" font-family="Arial" font-size="14.00" fill="#000000">process    </text>
<text text-anchor="start" x="1241.7132" y="-336.9" font-family="Arial" font-size="14.00" fill="#666666">[int(11) unsigned]</text>
</g>
<!-- invoice_file&#45;&gt;tenant -->
<g id="edge4" class="edge">
<title>invoice_file:tenant&#45;&gt;tenant:id</title>
<path fill="none" stroke="#000000" d="M1141.2936,-429.6519C1089.7087,-420.3605 1121.0303,-336.8153 1151.5,-283 1205.1275,-188.2836 1307.8725,-251.7164 1361.5,-157 1382.6313,-119.6781 1404.3889,-60.5 1361.5,-60.5"/>
<polygon fill="#000000" stroke="#000000" points="1141.5343,-429.6719 1151.1273,-434.9845 1146.5172,-430.0859 1151.5,-430.5 1151.5,-430.5 1151.5,-430.5 1146.5172,-430.0859 1151.8727,-426.0155 1141.5343,-429.6719 1141.5343,-429.6719"/>
<text text-anchor="start" x="1158.2665" y="-440.5" font-family="Arial" font-size="10.00" fill="#000000">FOREIGN KEY (tenant) REFERENCES tenant (id)</text>
</g>
<!-- invoice_process -->
<g id="node6" class="node">
<title>invoice_process</title>
<polygon fill="#efefef" stroke="transparent" points="1486.5,-565.5 1486.5,-600.5 1775.5,-600.5 1775.5,-565.5 1486.5,-565.5"/>
<polygon fill="none" stroke="#000000" points="1486.5,-565.5 1486.5,-600.5 1775.5,-600.5 1775.5,-565.5 1486.5,-565.5"/>
<text text-anchor="start" x="1502.704" y="-578.3" font-family="Arial Bold" font-size="18.00" fill="#000000">invoice_process</text>
<text text-anchor="start" x="1631.728" y="-578.3" font-family="Arial" font-size="14.00" fill="#000000">    </text>
<text text-anchor="start" x="1665.9328" y="-578.3" font-family="Arial" font-size="14.00" fill="#666666">[BASE TABLE]</text>
<polygon fill="none" stroke="#000000" points="1486.5,-535.5 1486.5,-565.5 1775.5,-565.5 1775.5,-535.5 1486.5,-535.5"/>
<text text-anchor="start" x="1493.5" y="-546.9" font-family="Arial" font-size="14.00" fill="#000000">id    </text>
<text text-anchor="start" x="1538.594" y="-546.9" font-family="Arial" font-size="14.00" fill="#666666">[int(11) unsigned]</text>
<polygon fill="none" stroke="#000000" points="1486.5,-505.5 1486.5,-535.5 1775.5,-535.5 1775.5,-505.5 1486.5,-505.5"/>
<text text-anchor="start" x="1493.5" y="-516.9" font-family="Arial" font-size="14.00" fill="#000000">tenant    </text>
<text text-anchor="start" x="1566.6164" y="-516.9" font-family="Arial" font-size="14.00" fill="#666666">[int(11) unsigned]</text>
<polygon fill="none" stroke="#000000" points="1486.5,-475.5 1486.5,-505.5 1775.5,-505.5 1775.5,-475.5 1486.5,-475.5"/>
<text text-anchor="start" x="1493.5" y="-486.9" font-family="Arial" font-size="14.00" fill="#000000">process_num    </text>
<text text-anchor="start" x="1611.7216" y="-486.9" font-family="Arial" font-size="14.00" fill="#666666">[int(11) unsigned]</text>
<polygon fill="none" stroke="#000000" points="1486.5,-445.5 1486.5,-475.5 1775.5,-475.5 1775.5,-445.5 1486.5,-445.5"/>
<text text-anchor="start" x="1493.5" y="-456.9" font-family="Arial" font-size="14.00" fill="#000000">state    </text>
<text text-anchor="start" x="1558.0512" y="-456.9" font-family="Arial" font-size="14.00" fill="#666666">[int(2)]</text>
<polygon fill="none" stroke="#000000" points="1486.5,-415.5 1486.5,-445.5 1775.5,-445.5 1775.5,-415.5 1486.5,-415.5"/>
<text text-anchor="start" x="1493.5" y="-426.9" font-family="Arial" font-size="14.00" fill="#000000">amount    </text>
<text text-anchor="start" x="1574.3864" y="-426.9" font-family="Arial" font-size="14.00" fill="#666666">[int(11) unsigned]</text>
<polygon fill="none" stroke="#000000" points="1486.5,-385.5 1486.5,-415.5 1775.5,-415.5 1775.5,-385.5 1486.5,-385.5"/>
<text text-anchor="start" x="1493.5" y="-396.9" font-family="Arial" font-size="14.00" fill="#000000">payee    </text>
<text text-anchor="start" x="1565.8352" y="-396.9" font-family="Arial" font-size="14.00" fill="#666666">[int(11) unsigned]</text>
<polygon fill="none" stroke="#000000" points="1486.5,-355.5 1486.5,-385.5 1775.5,-385.5 1775.5,-355.5 1486.5,-355.5"/>
<text text-anchor="start" x="1493.5" y="-366.9" font-family="Arial" font-size="14.00" fill="#000000">payment_method    </text>
<text text-anchor="start" x="1635.8506" y="-366.9" font-family="Arial" font-size="14.00" fill="#666666">[int(11) unsigned]</text>
<polygon fill="none" stroke="#000000" points="1486.5,-325.5 1486.5,-355.5 1775.5,-355.5 1775.5,-325.5 1486.5,-325.5"/>
<text text-anchor="start" x="1493.2953" y="-336.9" font-family="Arial" font-size="14.00" fill="#000000">payee_bank_account    </text>
<text text-anchor="start" x="1660.5645" y="-336.9" font-family="Arial" font-size="14.00" fill="#666666">[int(11) unsigned]</text>
<polygon fill="none" stroke="#000000" points="1486.5,-295.5 1486.5,-325.5 1775.5,-325.5 1775.5,-295.5 1486.5,-295.5"/>
<text text-anchor="start" x="1493.5" y="-306.9" font-family="Arial" font-size="14.00" fill="#000000">due    </text>
<text text-anchor="start" x="1551.0526" y="-306.9" font-family="Arial" font-size="14.00" fill="#666666">[date]</text>
<polygon fill="none" stroke="#000000" points="1486.5,-265.5 1486.5,-295.5 1775.5,-295.5 1775.5,-265.5 1486.5,-265.5"/>
<text text-anchor="start" x="1493.5" y="-276.9" font-family="Arial" font-size="14.00" fill="#000000">pic    </text>
<text text-anchor="start" x="1545.594" y="-276.9" font-family="Arial" font-size="14.00" fill="#666666">[int(11) unsigned]</text>
<polygon fill="none" stroke="#000000" points="1486.5,-235.5 1486.5,-265.5 1775.5,-265.5 1775.5,-235.5 1486.5,-235.5"/>
<text text-anchor="start" x="1493.5" y="-246.9" font-family="Arial" font-size="14.00" fill="#000000">classification    </text>
<text text-anchor="start" x="1607.0428" y="-246.9" font-family="Arial" font-size="14.00" fill="#666666">[int(11) unsigned]</text>
</g>
<!-- invoice_process&#45;&gt;tenant -->
<g id="edge5" class="edge">
<title>invoice_process:tenant&#45;&gt;tenant:id</title>
<path fill="none" stroke="#000000" d="M1476.5247,-518.7084C1416.9631,-495.779 1456.1637,-259.3614 1433.5,-193 1411.8392,-129.5752 1428.5216,-60.5 1361.5,-60.5"/>
<polygon fill="#000000" stroke="#000000" points="1476.6575,-518.7322 1485.7045,-524.9291 1481.5787,-519.6161 1486.5,-520.5 1486.5,-520.5 1486.5,-520.5 1481.5787,-519.6161 1487.2955,-516.0709 1476.6575,-518.7322 1476.6575,-518.7322"/>
<text text-anchor="start" x="1255.2665" y="-530.5" font-family="Arial" font-size="10.00" fill="#000000">FOREIGN KEY (tenant) REFERENCES tenant (id)</text>
</g>
<!-- payment_method -->
<g id="node7" class="node">
<title>payment_method</title>
<polygon fill="#efefef" stroke="transparent" points="1879.5,-475.5 1879.5,-510.5 2371.5,-510.5 2371.5,-475.5 1879.5,-475.5"/>
<polygon fill="none" stroke="#000000" points="1879.5,-475.5 1879.5,-510.5 2371.5,-510.5 2371.5,-475.5 1879.5,-475.5"/>
<text text-anchor="start" x="1992.1937" y="-488.3" font-family="Arial Bold" font-size="18.00" fill="#000000">payment_method</text>
<text text-anchor="start" x="2131.2383" y="-488.3" font-family="Arial" font-size="14.00" fill="#000000">    </text>
<text text-anchor="start" x="2165.4431" y="-488.3" font-family="Arial" font-size="14.00" fill="#666666">[BASE TABLE]</text>
<polygon fill="none" stroke="#000000" points="1879.5,-445.5 1879.5,-475.5 2371.5,-475.5 2371.5,-445.5 1879.5,-445.5"/>
<text text-anchor="start" x="1886.5" y="-456.9" font-family="Arial" font-size="14.00" fill="#000000">id    </text>
<text text-anchor="start" x="1931.594" y="-456.9" font-family="Arial" font-size="14.00" fill="#666666">[int(11) unsigned]</text>
<polygon fill="none" stroke="#000000" points="1879.5,-415.5 1879.5,-445.5 2371.5,-445.5 2371.5,-415.5 1879.5,-415.5"/>
<text text-anchor="start" x="1886.5" y="-426.9" font-family="Arial" font-size="14.00" fill="#000000">tenant    </text>
<text text-anchor="start" x="1959.6164" y="-426.9" font-family="Arial" font-size="14.00" fill="#666666">[int(11) unsigned]</text>
<polygon fill="none" stroke="#000000" points="1879.5,-385.5 1879.5,-415.5 2371.5,-415.5 2371.5,-385.5 1879.5,-385.5"/>
<text text-anchor="start" x="1886.3464" y="-396.9" font-family="Arial" font-size="14.00" fill="#000000">payment_method_type    </text>
<text text-anchor="start" x="2062.9354" y="-396.9" font-family="Arial" font-size="14.00" fill="#666666">[enum(&#39;bank_transfer&#39;,&#39;direct_debit&#39;,&#39;credit card&#39;)]</text>
<polygon fill="none" stroke="#000000" points="1879.5,-355.5 1879.5,-385.5 2371.5,-385.5 2371.5,-355.5 1879.5,-355.5"/>
<text text-anchor="start" x="1886.5" y="-366.9" font-family="Arial" font-size="14.00" fill="#000000">name    </text>
<text text-anchor="start" x="1955.7132" y="-366.9" font-family="Arial" font-size="14.00" fill="#666666">[char(255)]</text>
<polygon fill="none" stroke="#000000" points="1879.5,-325.5 1879.5,-355.5 2371.5,-355.5 2371.5,-325.5 1879.5,-325.5"/>
<text text-anchor="start" x="1886.5" y="-336.9" font-family="Arial" font-size="14.00" fill="#000000">is_default    </text>
<text text-anchor="start" x="1980.6122" y="-336.9" font-family="Arial" font-size="14.00" fill="#666666">[tinyint(1)]</text>
</g>
<!-- payment_method&#45;&gt;tenant -->
<g id="edge6" class="edge">
<title>payment_method:tenant&#45;&gt;tenant:id</title>
<path fill="none" stroke="#000000" d="M1869.508,-429.9836C1779.857,-420.0442 1899.0649,-269.1056 1827.5,-193 1753.7484,-114.569 1469.1602,-60.5 1361.5,-60.5"/>
<polygon fill="#000000" stroke="#000000" points="1869.5133,-429.9838 1879.2677,-434.994 1874.5067,-430.2419 1879.5,-430.5 1879.5,-430.5 1879.5,-430.5 1874.5067,-430.2419 1879.7323,-426.006 1869.5133,-429.9838 1869.5133,-429.9838"/>
<text text-anchor="start" x="1648.2665" y="-440.5" font-family="Arial" font-size="10.00" fill="#000000">FOREIGN KEY (tenant) REFERENCES tenant (id)</text>
</g>
<!-- user -->
<g id="node8" class="node">
<title>user</title>
<polygon fill="#efefef" stroke="transparent" points="2476.5,-445.5 2476.5,-480.5 2671.5,-480.5 2671.5,-445.5 2476.5,-445.5"/>
<polygon fill="none" stroke="#000000" points="2476.5,-445.5 2476.5,-480.5 2671.5,-480.5 2671.5,-445.5 2476.5,-445.5"/>
<text text-anchor="start" x="2492.7137" y="-458.3" font-family="Arial Bold" font-size="18.00" fill="#000000">user</text>
<text text-anchor="start" x="2527.7183" y="-458.3" font-family="Arial" font-size="14.00" fill="#000000">    </text>
<text text-anchor="start" x="2561.9231" y="-458.3" font-family="Arial" font-size="14.00" fill="#666666">[BASE TABLE]</text>
<polygon fill="none" stroke="#000000" points="2476.5,-415.5 2476.5,-445.5 2671.5,-445.5 2671.5,-415.5 2476.5,-415.5"/>
<text text-anchor="start" x="2483.5" y="-426.9" font-family="Arial" font-size="14.00" fill="#000000">id    </text>
<text text-anchor="start" x="2528.594" y="-426.9" font-family="Arial" font-size="14.00" fill="#666666">[int(11) unsigned]</text>
<polygon fill="none" stroke="#000000" points="2476.5,-385.5 2476.5,-415.5 2671.5,-415.5 2671.5,-385.5 2476.5,-385.5"/>
<text text-anchor="start" x="2483.3717" y="-396.9" font-family="Arial" font-size="14.00" fill="#000000">tenant    </text>
<text text-anchor="start" x="2556.4881" y="-396.9" font-family="Arial" font-size="14.00" fill="#666666">[int(11) unsigned]</text>
<polygon fill="none" stroke="#000000" points="2476.5,-355.5 2476.5,-385.5 2671.5,-385.5 2671.5,-355.5 2476.5,-355.5"/>
<text text-anchor="start" x="2483.5" y="-366.9" font-family="Arial" font-size="14.00" fill="#000000">name    </text>
<text text-anchor="start" x="2552.7132" y="-366.9" font-family="Arial" font-size="14.00" fill="#666666">[varchar(255)]</text>
</g>
<!-- user&#45;&gt;tenant -->
<g id="edge7" class="edge">
<title>user:tenant&#45;&gt;tenant:id</title>
<path fill="none" stroke="#000000" d="M2466.278,-399.8517C2389.9089,-389.3304 2492.1175,-253.477 2423.5,-193 2334.2893,-114.373 1480.4149,-60.5 1361.5,-60.5"/>
<polygon fill="#000000" stroke="#000000" points="2466.52,-399.867 2476.2151,-404.991 2471.51,-400.1835 2476.5,-400.5 2476.5,-400.5 2476.5,-400.5 2471.51,-400.1835 2476.7849,-396.009 2466.52,-399.867 2466.52,-399.867"/>
<text text-anchor="start" x="2245.2665" y="-410.5" font-family="Arial" font-size="10.00" fill="#000000">FOREIGN KEY (tenant) REFERENCES tenant (id)</text>
</g>
</g>
</svg>
