<?xml version="1.0" encoding="UTF-8" standalone="no"?>
<!DOCTYPE svg PUBLIC "-//W3C//DTD SVG 1.1//EN"
 "http://www.w3.org/Graphics/SVG/1.1/DTD/svg11.dtd">
<!-- Generated by graphviz version 2.40.1 (20161225.0304)
 -->
<!-- Title: tenant Pages: 1 -->
<svg width="3802pt" height="682pt"
 viewBox="0.00 0.00 3802.00 682.00" xmlns="http://www.w3.org/2000/svg" xmlns:xlink="http://www.w3.org/1999/xlink">
<g id="graph0" class="graph" transform="scale(1 1) rotate(0) translate(4 678)">
<title>tenant</title>
<polygon fill="#ffffff" stroke="transparent" points="-4,4 -4,-678 3798,-678 3798,4 -4,4"/>
<!-- tenant -->
<g id="node1" class="node">
<title>tenant</title>
<polygon fill="#efefef" stroke="transparent" points="1635.5,-75.5 1635.5,-110.5 1826.5,-110.5 1826.5,-75.5 1635.5,-75.5"/>
<polygon fill="none" stroke="#000000" points="1635.5,-75.5 1635.5,-110.5 1826.5,-110.5 1826.5,-75.5 1635.5,-75.5"/>
<text text-anchor="start" x="1642.2014" y="-88.3" font-family="Arial Bold" font-size="18.00" fill="#000000">tenant</text>
<text text-anchor="start" x="1692.2306" y="-88.3" font-family="Arial" font-size="14.00" fill="#000000">    </text>
<text text-anchor="start" x="1726.4354" y="-88.3" font-family="Arial" font-size="14.00" fill="#666666">[BASE TABLE]</text>
<polygon fill="none" stroke="#000000" points="1635.5,-45.5 1635.5,-75.5 1826.5,-75.5 1826.5,-45.5 1635.5,-45.5"/>
<text text-anchor="start" x="1642.5" y="-56.9" font-family="Arial" font-size="14.00" fill="#000000">id </text>
<text text-anchor="start" x="1657.2798" y="-56.9" font-family="Arial" font-size="14.00" fill="#666666">[int(11) unsigned]</text>
<polygon fill="none" stroke="#000000" stroke-width="3" points="1633.5,-44.5 1633.5,-112.5 1827.5,-112.5 1827.5,-44.5 1633.5,-44.5"/>
</g>
<!-- account_category -->
<g id="node2" class="node">
<title>account_category</title>
<polygon fill="#efefef" stroke="transparent" points="43.5,-475.5 43.5,-510.5 326.5,-510.5 326.5,-475.5 43.5,-475.5"/>
<polygon fill="none" stroke="#000000" points="43.5,-475.5 43.5,-510.5 326.5,-510.5 326.5,-475.5 43.5,-475.5"/>
<text text-anchor="start" x="50.1898" y="-488.3" font-family="Arial Bold" font-size="18.00" fill="#000000">account_category</text>
<text text-anchor="start" x="192.2422" y="-488.3" font-family="Arial" font-size="14.00" fill="#000000">    </text>
<text text-anchor="start" x="226.447" y="-488.3" font-family="Arial" font-size="14.00" fill="#666666">[BASE TABLE]</text>
<polygon fill="none" stroke="#000000" points="43.5,-445.5 43.5,-475.5 326.5,-475.5 326.5,-445.5 43.5,-445.5"/>
<text text-anchor="start" x="50.5" y="-456.9" font-family="Arial" font-size="14.00" fill="#000000">id    </text>
<text text-anchor="start" x="95.594" y="-456.9" font-family="Arial" font-size="14.00" fill="#666666">[int(11) unsigned]</text>
<polygon fill="none" stroke="#000000" points="43.5,-415.5 43.5,-445.5 326.5,-445.5 326.5,-415.5 43.5,-415.5"/>
<text text-anchor="start" x="50.5" y="-426.9" font-family="Arial" font-size="14.00" fill="#000000">tenant    </text>
<text text-anchor="start" x="123.6164" y="-426.9" font-family="Arial" font-size="14.00" fill="#666666">[int(11) unsigned]</text>
<polygon fill="none" stroke="#000000" points="43.5,-385.5 43.5,-415.5 326.5,-415.5 326.5,-385.5 43.5,-385.5"/>
<text text-anchor="start" x="50.5" y="-396.9" font-family="Arial" font-size="14.00" fill="#000000">name    </text>
<text text-anchor="start" x="119.7132" y="-396.9" font-family="Arial" font-size="14.00" fill="#666666">[varchar(255)]</text>
<polygon fill="none" stroke="#000000" points="43.5,-355.5 43.5,-385.5 326.5,-385.5 326.5,-355.5 43.5,-355.5"/>
<text text-anchor="start" x="50.5" y="-366.9" font-family="Arial" font-size="14.00" fill="#000000">dr_cr_class    </text>
<text text-anchor="start" x="156.263" y="-366.9" font-family="Arial" font-size="14.00" fill="#666666">[enum(&#39;debit&#39;,&#39;credit&#39;)]</text>
</g>
<!-- account_category&#45;&gt;tenant -->
<g id="edge1" class="edge">
<title>account_category:tenant&#45;&gt;tenant:id</title>
<path fill="none" stroke="#000000" d="M336.7293,-429.9309C425.3329,-419.3067 299.946,-262.6991 377.5,-193 482.0374,-99.0505 1494.949,-60.5 1635.5,-60.5"/>
<polygon fill="#000000" stroke="#000000" points="336.4846,-429.9444 326.25,-426.0069 331.4923,-430.2222 326.5,-430.5 326.5,-430.5 326.5,-430.5 331.4923,-430.2222 326.75,-434.9931 336.4846,-429.9444 336.4846,-429.9444"/>
<text text-anchor="start" x="214.2665" y="-414.5" font-family="Arial" font-size="10.00" fill="#000000">FOREIGN KEY (tenant) REFERENCES tenant (id)</text>
</g>
<!-- business_partner -->
<g id="node3" class="node">
<title>business_partner</title>
<polygon fill="#efefef" stroke="transparent" points="430.5,-460.5 430.5,-495.5 709.5,-495.5 709.5,-460.5 430.5,-460.5"/>
<polygon fill="none" stroke="#000000" points="430.5,-460.5 430.5,-495.5 709.5,-495.5 709.5,-460.5 430.5,-460.5"/>
<text text-anchor="start" x="437.1977" y="-473.3" font-family="Arial Bold" font-size="18.00" fill="#000000">business_partner</text>
<text text-anchor="start" x="575.2343" y="-473.3" font-family="Arial" font-size="14.00" fill="#000000">    </text>
<text text-anchor="start" x="609.4391" y="-473.3" font-family="Arial" font-size="14.00" fill="#666666">[BASE TABLE]</text>
<polygon fill="none" stroke="#000000" points="430.5,-430.5 430.5,-460.5 709.5,-460.5 709.5,-430.5 430.5,-430.5"/>
<text text-anchor="start" x="437.5" y="-441.9" font-family="Arial" font-size="14.00" fill="#000000">id    </text>
<text text-anchor="start" x="482.594" y="-441.9" font-family="Arial" font-size="14.00" fill="#666666">[int(11) unsigned]</text>
<polygon fill="none" stroke="#000000" points="430.5,-400.5 430.5,-430.5 709.5,-430.5 709.5,-400.5 430.5,-400.5"/>
<text text-anchor="start" x="437.5" y="-411.9" font-family="Arial" font-size="14.00" fill="#000000">tenant    </text>
<text text-anchor="start" x="510.6164" y="-411.9" font-family="Arial" font-size="14.00" fill="#666666">[int(11) unsigned]</text>
<polygon fill="none" stroke="#000000" points="430.5,-370.5 430.5,-400.5 709.5,-400.5 709.5,-370.5 430.5,-370.5"/>
<text text-anchor="start" x="437.5" y="-381.9" font-family="Arial" font-size="14.00" fill="#000000">name    </text>
<text text-anchor="start" x="506.7132" y="-381.9" font-family="Arial" font-size="14.00" fill="#666666">[varchar(255)]</text>
</g>
<!-- business_partner&#45;&gt;tenant -->
<g id="edge2" class="edge">
<title>business_partner:tenant&#45;&gt;tenant:id</title>
<path fill="none" stroke="#000000" d="M719.6443,-414.9097C802.3415,-404.5115 689.6018,-259.4226 761.5,-193 833.6454,-126.349 1537.2793,-60.5 1635.5,-60.5"/>
<polygon fill="#000000" stroke="#000000" points="719.4831,-414.919 709.2385,-411.0076 714.4916,-415.2095 709.5,-415.5 709.5,-415.5 709.5,-415.5 714.4916,-415.2095 709.7615,-419.9924 719.4831,-414.919 719.4831,-414.919"/>
<text text-anchor="start" x="597.2665" y="-399.5" font-family="Arial" font-size="10.00" fill="#000000">FOREIGN KEY (tenant) REFERENCES tenant (id)</text>
</g>
<!-- cost_center -->
<g id="node4" class="node">
<title>cost_center</title>
<polygon fill="#efefef" stroke="transparent" points="813.5,-460.5 813.5,-495.5 1047.5,-495.5 1047.5,-460.5 813.5,-460.5"/>
<polygon fill="none" stroke="#000000" points="813.5,-460.5 813.5,-495.5 1047.5,-495.5 1047.5,-460.5 813.5,-460.5"/>
<text text-anchor="start" x="820.2022" y="-473.3" font-family="Arial Bold" font-size="18.00" fill="#000000">cost_center</text>
<text text-anchor="start" x="913.2298" y="-473.3" font-family="Arial" font-size="14.00" fill="#000000">    </text>
<text text-anchor="start" x="947.4346" y="-473.3" font-family="Arial" font-size="14.00" fill="#666666">[BASE TABLE]</text>
<polygon fill="none" stroke="#000000" points="813.5,-430.5 813.5,-460.5 1047.5,-460.5 1047.5,-430.5 813.5,-430.5"/>
<text text-anchor="start" x="820.5" y="-441.9" font-family="Arial" font-size="14.00" fill="#000000">id    </text>
<text text-anchor="start" x="865.594" y="-441.9" font-family="Arial" font-size="14.00" fill="#666666">[int(11) unsigned]</text>
<polygon fill="none" stroke="#000000" points="813.5,-400.5 813.5,-430.5 1047.5,-430.5 1047.5,-400.5 813.5,-400.5"/>
<text text-anchor="start" x="820.5" y="-411.9" font-family="Arial" font-size="14.00" fill="#000000">tenant    </text>
<text text-anchor="start" x="893.6164" y="-411.9" font-family="Arial" font-size="14.00" fill="#666666">[int(11) unsigned]</text>
<polygon fill="none" stroke="#000000" points="813.5,-370.5 813.5,-400.5 1047.5,-400.5 1047.5,-370.5 813.5,-370.5"/>
<text text-anchor="start" x="820.5" y="-381.9" font-family="Arial" font-size="14.00" fill="#000000">name    </text>
<text text-anchor="start" x="889.7132" y="-381.9" font-family="Arial" font-size="14.00" fill="#666666">[varchar(255)]</text>
</g>
<!-- cost_center&#45;&gt;tenant -->
<g id="edge3" class="edge">
<title>cost_center:tenant&#45;&gt;tenant:id</title>
<path fill="none" stroke="#000000" d="M1057.6565,-414.9223C1140.5675,-404.745 1030.7283,-262.6546 1099.5,-193 1185.7044,-105.6889 1512.8035,-60.5 1635.5,-60.5"/>
<polygon fill="#000000" stroke="#000000" points="1057.4839,-414.9321 1047.2444,-411.0073 1052.4919,-415.216 1047.5,-415.5 1047.5,-415.5 1047.5,-415.5 1052.4919,-415.216 1047.7556,-419.9927 1057.4839,-414.9321 1057.4839,-414.9321"/>
<text text-anchor="start" x="935.2665" y="-399.5" font-family="Arial" font-size="10.00" fill="#000000">FOREIGN KEY (tenant) REFERENCES tenant (id)</text>
</g>
<!-- invoice_file -->
<g id="node5" class="node">
<title>invoice_file</title>
<polygon fill="#efefef" stroke="transparent" points="1151.5,-490.5 1151.5,-525.5 1381.5,-525.5 1381.5,-490.5 1151.5,-490.5"/>
<polygon fill="none" stroke="#000000" points="1151.5,-490.5 1151.5,-525.5 1381.5,-525.5 1381.5,-490.5 1151.5,-490.5"/>
<text text-anchor="start" x="1158.211" y="-503.3" font-family="Arial Bold" font-size="18.00" fill="#000000">invoice_file</text>
<text text-anchor="start" x="1247.221" y="-503.3" font-family="Arial" font-size="14.00" fill="#000000">    </text>
<text text-anchor="start" x="1281.4258" y="-503.3" font-family="Arial" font-size="14.00" fill="#666666">[BASE TABLE]</text>
<polygon fill="none" stroke="#000000" points="1151.5,-460.5 1151.5,-490.5 1381.5,-490.5 1381.5,-460.5 1151.5,-460.5"/>
<text text-anchor="start" x="1158.5" y="-471.9" font-family="Arial" font-size="14.00" fill="#000000">id    </text>
<text text-anchor="start" x="1203.594" y="-471.9" font-family="Arial" font-size="14.00" fill="#666666">[int(11) unsigned]</text>
<polygon fill="none" stroke="#000000" points="1151.5,-430.5 1151.5,-460.5 1381.5,-460.5 1381.5,-430.5 1151.5,-430.5"/>
<text text-anchor="start" x="1158.5" y="-441.9" font-family="Arial" font-size="14.00" fill="#000000">tenant    </text>
<text text-anchor="start" x="1231.6164" y="-441.9" font-family="Arial" font-size="14.00" fill="#666666">[int(11) unsigned]</text>
<polygon fill="none" stroke="#000000" points="1151.5,-400.5 1151.5,-430.5 1381.5,-430.5 1381.5,-400.5 1151.5,-400.5"/>
<text text-anchor="start" x="1158.5" y="-411.9" font-family="Arial" font-size="14.00" fill="#000000">filename    </text>
<text text-anchor="start" x="1245.5996" y="-411.9" font-family="Arial" font-size="14.00" fill="#666666">[varchar(2000)]</text>
<polygon fill="none" stroke="#000000" points="1151.5,-370.5 1151.5,-400.5 1381.5,-400.5 1381.5,-370.5 1151.5,-370.5"/>
<text text-anchor="start" x="1158.5" y="-381.9" font-family="Arial" font-size="14.00" fill="#000000">object_url    </text>
<text text-anchor="start" x="1253.3822" y="-381.9" font-family="Arial" font-size="14.00" fill="#666666">[varchar(2000)]</text>
<polygon fill="none" stroke="#000000" points="1151.5,-340.5 1151.5,-370.5 1381.5,-370.5 1381.5,-340.5 1151.5,-340.5"/>
<text text-anchor="start" x="1158.5" y="-351.9" font-family="Arial" font-size="14.00" fill="#000000">process_id    </text>
<text text-anchor="start" x="1260.385" y="-351.9" font-family="Arial" font-size="14.00" fill="#666666">[int(11) unsigned]</text>
</g>
<!-- invoice_file&#45;&gt;tenant -->
<g id="edge4" class="edge">
<title>invoice_file:tenant&#45;&gt;tenant:id</title>
<path fill="none" stroke="#000000" d="M1391.5472,-445.0447C1488.3292,-435.7039 1371.1311,-284.8172 1433.5,-193 1493.83,-104.1843 1528.1317,-60.5 1635.5,-60.5"/>
<polygon fill="#000000" stroke="#000000" points="1391.4897,-445.0472 1381.2962,-441.0046 1386.4949,-445.2736 1381.5,-445.5 1381.5,-445.5 1381.5,-445.5 1386.4949,-445.2736 1381.7038,-449.9954 1391.4897,-445.0472 1391.4897,-445.0472"/>
<text text-anchor="start" x="1388.2665" y="-455.5" font-family="Arial" font-size="10.00" fill="#000000">FOREIGN KEY (tenant) REFERENCES tenant (id)</text>
</g>
<!-- invoice_process -->
<g id="node6" class="node">
<title>invoice_process</title>
<polygon fill="#efefef" stroke="transparent" points="1485.5,-595.5 1485.5,-630.5 1977.5,-630.5 1977.5,-595.5 1485.5,-595.5"/>
<polygon fill="none" stroke="#000000" points="1485.5,-595.5 1485.5,-630.5 1977.5,-630.5 1977.5,-595.5 1485.5,-595.5"/>
<text text-anchor="start" x="1603.204" y="-608.3" font-family="Arial Bold" font-size="18.00" fill="#000000">invoice_process</text>
<text text-anchor="start" x="1732.228" y="-608.3" font-family="Arial" font-size="14.00" fill="#000000">    </text>
<text text-anchor="start" x="1766.4328" y="-608.3" font-family="Arial" font-size="14.00" fill="#666666">[BASE TABLE]</text>
<polygon fill="none" stroke="#000000" points="1485.5,-565.5 1485.5,-595.5 1977.5,-595.5 1977.5,-565.5 1485.5,-565.5"/>
<text text-anchor="start" x="1492.5" y="-576.9" font-family="Arial" font-size="14.00" fill="#000000">id    </text>
<text text-anchor="start" x="1537.594" y="-576.9" font-family="Arial" font-size="14.00" fill="#666666">[int(11) unsigned]</text>
<polygon fill="none" stroke="#000000" points="1485.5,-535.5 1485.5,-565.5 1977.5,-565.5 1977.5,-535.5 1485.5,-535.5"/>
<text text-anchor="start" x="1492.5" y="-546.9" font-family="Arial" font-size="14.00" fill="#000000">tenant    </text>
<text text-anchor="start" x="1565.6164" y="-546.9" font-family="Arial" font-size="14.00" fill="#666666">[int(11) unsigned]</text>
<polygon fill="none" stroke="#000000" points="1485.5,-505.5 1485.5,-535.5 1977.5,-535.5 1977.5,-505.5 1485.5,-505.5"/>
<text text-anchor="start" x="1492.5" y="-516.9" font-family="Arial" font-size="14.00" fill="#000000">process_id    </text>
<text text-anchor="start" x="1594.385" y="-516.9" font-family="Arial" font-size="14.00" fill="#666666">[int(11) unsigned]</text>
<polygon fill="none" stroke="#000000" points="1485.5,-475.5 1485.5,-505.5 1977.5,-505.5 1977.5,-475.5 1485.5,-475.5"/>
<text text-anchor="start" x="1492.5" y="-486.9" font-family="Arial" font-size="14.00" fill="#000000">state    </text>
<text text-anchor="start" x="1557.0512" y="-486.9" font-family="Arial" font-size="14.00" fill="#666666">[int(2)]</text>
<polygon fill="none" stroke="#000000" points="1485.5,-445.5 1485.5,-475.5 1977.5,-475.5 1977.5,-445.5 1485.5,-445.5"/>
<text text-anchor="start" x="1492.5" y="-456.9" font-family="Arial" font-size="14.00" fill="#000000">amount    </text>
<text text-anchor="start" x="1573.3864" y="-456.9" font-family="Arial" font-size="14.00" fill="#666666">[int(11) unsigned]</text>
<polygon fill="none" stroke="#000000" points="1485.5,-415.5 1485.5,-445.5 1977.5,-445.5 1977.5,-415.5 1485.5,-415.5"/>
<text text-anchor="start" x="1492.5" y="-426.9" font-family="Arial" font-size="14.00" fill="#000000">payee    </text>
<text text-anchor="start" x="1564.8352" y="-426.9" font-family="Arial" font-size="14.00" fill="#666666">[int(11) unsigned]</text>
<polygon fill="none" stroke="#000000" points="1485.5,-385.5 1485.5,-415.5 1977.5,-415.5 1977.5,-385.5 1485.5,-385.5"/>
<text text-anchor="start" x="1492.3464" y="-396.9" font-family="Arial" font-size="14.00" fill="#000000">payment_method_type    </text>
<text text-anchor="start" x="1668.9354" y="-396.9" font-family="Arial" font-size="14.00" fill="#666666">[enum(&#39;bank_transfer&#39;,&#39;direct_debit&#39;,&#39;credit card&#39;)]</text>
<polygon fill="none" stroke="#000000" points="1485.5,-355.5 1485.5,-385.5 1977.5,-385.5 1977.5,-355.5 1485.5,-355.5"/>
<text text-anchor="start" x="1492.5" y="-366.9" font-family="Arial" font-size="14.00" fill="#000000">payment_method_id    </text>
<text text-anchor="start" x="1653.5224" y="-366.9" font-family="Arial" font-size="14.00" fill="#666666">[int(11) unsigned]</text>
<polygon fill="none" stroke="#000000" points="1485.5,-325.5 1485.5,-355.5 1977.5,-355.5 1977.5,-325.5 1485.5,-325.5"/>
<text text-anchor="start" x="1492.5" y="-336.9" font-family="Arial" font-size="14.00" fill="#000000">payee_bank_account    </text>
<text text-anchor="start" x="1659.7692" y="-336.9" font-family="Arial" font-size="14.00" fill="#666666">[int(11) unsigned]</text>
<polygon fill="none" stroke="#000000" points="1485.5,-295.5 1485.5,-325.5 1977.5,-325.5 1977.5,-295.5 1485.5,-295.5"/>
<text text-anchor="start" x="1492.5" y="-306.9" font-family="Arial" font-size="14.00" fill="#000000">due    </text>
<text text-anchor="start" x="1550.0526" y="-306.9" font-family="Arial" font-size="14.00" fill="#666666">[date]</text>
<polygon fill="none" stroke="#000000" points="1485.5,-265.5 1485.5,-295.5 1977.5,-295.5 1977.5,-265.5 1485.5,-265.5"/>
<text text-anchor="start" x="1492.5" y="-276.9" font-family="Arial" font-size="14.00" fill="#000000">pic    </text>
<text text-anchor="start" x="1544.594" y="-276.9" font-family="Arial" font-size="14.00" fill="#666666">[int(11) unsigned]</text>
<polygon fill="none" stroke="#000000" points="1485.5,-235.5 1485.5,-265.5 1977.5,-265.5 1977.5,-235.5 1485.5,-235.5"/>
<text text-anchor="start" x="1492.5" y="-246.9" font-family="Arial" font-size="14.00" fill="#000000">classification    </text>
<text text-anchor="start" x="1606.0428" y="-246.9" font-family="Arial" font-size="14.00" fill="#666666">[int(11) unsigned]</text>
</g>
<!-- invoice_process&#45;&gt;tenant -->
<g id="edge5" class="edge">
<title>invoice_process:tenant&#45;&gt;tenant:id</title>
<path fill="none" stroke="#000000" d="M1475.4266,-548.742C1408.4726,-524.1693 1434.7423,-249.3983 1485.5,-193 1536.4739,-136.3614 1775.5261,-213.6386 1826.5,-157 1855.1909,-125.1207 1869.3889,-60.5 1826.5,-60.5"/>
<polygon fill="#000000" stroke="#000000" points="1475.6489,-548.7807 1484.7263,-554.933 1480.5744,-549.6403 1485.5,-550.5 1485.5,-550.5 1485.5,-550.5 1480.5744,-549.6403 1486.2737,-546.067 1475.6489,-548.7807 1475.6489,-548.7807"/>
<text text-anchor="start" x="1432.7665" y="-534.5" font-family="Arial" font-size="10.00" fill="#000000">FOREIGN KEY (tenant) REFERENCES tenant (id)</text>
</g>
<!-- payment_method_bank_transfer -->
<g id="node7" class="node">
<title>payment_method_bank_transfer</title>
<polygon fill="#efefef" stroke="transparent" points="2081.5,-520.5 2081.5,-555.5 2481.5,-555.5 2481.5,-520.5 2081.5,-520.5"/>
<polygon fill="none" stroke="#000000" points="2081.5,-520.5 2081.5,-555.5 2481.5,-555.5 2481.5,-520.5 2081.5,-520.5"/>
<text text-anchor="start" x="2088.1745" y="-533.3" font-family="Arial Bold" font-size="18.00" fill="#000000">payment_method_bank_transfer</text>
<text text-anchor="start" x="2347.2575" y="-533.3" font-family="Arial" font-size="14.00" fill="#000000">    </text>
<text text-anchor="start" x="2381.4623" y="-533.3" font-family="Arial" font-size="14.00" fill="#666666">[BASE TABLE]</text>
<polygon fill="none" stroke="#000000" points="2081.5,-490.5 2081.5,-520.5 2481.5,-520.5 2481.5,-490.5 2081.5,-490.5"/>
<text text-anchor="start" x="2088.5" y="-501.9" font-family="Arial" font-size="14.00" fill="#000000">id    </text>
<text text-anchor="start" x="2133.594" y="-501.9" font-family="Arial" font-size="14.00" fill="#666666">[int(11) unsigned]</text>
<polygon fill="none" stroke="#000000" points="2081.5,-460.5 2081.5,-490.5 2481.5,-490.5 2481.5,-460.5 2081.5,-460.5"/>
<text text-anchor="start" x="2088.5" y="-471.9" font-family="Arial" font-size="14.00" fill="#000000">tenant    </text>
<text text-anchor="start" x="2161.6164" y="-471.9" font-family="Arial" font-size="14.00" fill="#666666">[int(11) unsigned]</text>
<polygon fill="none" stroke="#000000" points="2081.5,-430.5 2081.5,-460.5 2481.5,-460.5 2481.5,-430.5 2081.5,-430.5"/>
<text text-anchor="start" x="2088.5" y="-441.9" font-family="Arial" font-size="14.00" fill="#000000">name    </text>
<text text-anchor="start" x="2157.7132" y="-441.9" font-family="Arial" font-size="14.00" fill="#666666">[char(255)]</text>
<polygon fill="none" stroke="#000000" points="2081.5,-400.5 2081.5,-430.5 2481.5,-430.5 2481.5,-400.5 2081.5,-400.5"/>
<text text-anchor="start" x="2088.5" y="-411.9" font-family="Arial" font-size="14.00" fill="#000000">bank_code    </text>
<text text-anchor="start" x="2191.183" y="-411.9" font-family="Arial" font-size="14.00" fill="#666666">[char(4)]</text>
<polygon fill="none" stroke="#000000" points="2081.5,-370.5 2081.5,-400.5 2481.5,-400.5 2481.5,-370.5 2081.5,-370.5"/>
<text text-anchor="start" x="2088.5" y="-381.9" font-family="Arial" font-size="14.00" fill="#000000">account_type    </text>
<text text-anchor="start" x="2205.9642" y="-381.9" font-family="Arial" font-size="14.00" fill="#666666">[int(1)]</text>
<polygon fill="none" stroke="#000000" points="2081.5,-340.5 2081.5,-370.5 2481.5,-370.5 2481.5,-340.5 2081.5,-340.5"/>
<text text-anchor="start" x="2088.5" y="-351.9" font-family="Arial" font-size="14.00" fill="#000000">branch    </text>
<text text-anchor="start" x="2165.4958" y="-351.9" font-family="Arial" font-size="14.00" fill="#666666">[char(5)]</text>
<polygon fill="none" stroke="#000000" points="2081.5,-310.5 2081.5,-340.5 2481.5,-340.5 2481.5,-310.5 2081.5,-310.5"/>
<text text-anchor="start" x="2088.5" y="-321.9" font-family="Arial" font-size="14.00" fill="#000000">account_number    </text>
<text text-anchor="start" x="2226.96" y="-321.9" font-family="Arial" font-size="14.00" fill="#666666">[char(8)]</text>
</g>
<!-- payment_method_bank_transfer&#45;&gt;tenant -->
<g id="edge6" class="edge">
<title>payment_method_bank_transfer:tenant&#45;&gt;tenant:id</title>
<path fill="none" stroke="#000000" d="M2071.6869,-473.3662C2022.7497,-450.0829 2062.8659,-243.1278 2029.5,-193 1969.8016,-103.3113 1934.2402,-60.5 1826.5,-60.5"/>
<polygon fill="#000000" stroke="#000000" points="2071.7283,-473.3751 2080.5438,-479.8972 2076.6142,-474.4376 2081.5,-475.5 2081.5,-475.5 2081.5,-475.5 2076.6142,-474.4376 2082.4562,-471.1028 2071.7283,-473.3751 2071.7283,-473.3751"/>
<text text-anchor="start" x="1850.2665" y="-485.5" font-family="Arial" font-size="10.00" fill="#000000">FOREIGN KEY (tenant) REFERENCES tenant (id)</text>
</g>
<!-- payment_method_credit_card -->
<g id="node8" class="node">
<title>payment_method_credit_card</title>
<polygon fill="#efefef" stroke="transparent" points="2586.5,-460.5 2586.5,-495.5 2965.5,-495.5 2965.5,-460.5 2586.5,-460.5"/>
<polygon fill="none" stroke="#000000" points="2586.5,-460.5 2586.5,-495.5 2965.5,-495.5 2965.5,-460.5 2586.5,-460.5"/>
<text text-anchor="start" x="2593.1847" y="-473.3" font-family="Arial Bold" font-size="18.00" fill="#000000">payment_method_credit_card</text>
<text text-anchor="start" x="2831.2473" y="-473.3" font-family="Arial" font-size="14.00" fill="#000000">    </text>
<text text-anchor="start" x="2865.4521" y="-473.3" font-family="Arial" font-size="14.00" fill="#666666">[BASE TABLE]</text>
<polygon fill="none" stroke="#000000" points="2586.5,-430.5 2586.5,-460.5 2965.5,-460.5 2965.5,-430.5 2586.5,-430.5"/>
<text text-anchor="start" x="2593.5" y="-441.9" font-family="Arial" font-size="14.00" fill="#000000">id    </text>
<text text-anchor="start" x="2638.594" y="-441.9" font-family="Arial" font-size="14.00" fill="#666666">[int(11) unsigned]</text>
<polygon fill="none" stroke="#000000" points="2586.5,-400.5 2586.5,-430.5 2965.5,-430.5 2965.5,-400.5 2586.5,-400.5"/>
<text text-anchor="start" x="2593.5" y="-411.9" font-family="Arial" font-size="14.00" fill="#000000">tenant    </text>
<text text-anchor="start" x="2666.6164" y="-411.9" font-family="Arial" font-size="14.00" fill="#666666">[int(11) unsigned]</text>
<polygon fill="none" stroke="#000000" points="2586.5,-370.5 2586.5,-400.5 2965.5,-400.5 2965.5,-370.5 2586.5,-370.5"/>
<text text-anchor="start" x="2593.5" y="-381.9" font-family="Arial" font-size="14.00" fill="#000000">name    </text>
<text text-anchor="start" x="2662.7132" y="-381.9" font-family="Arial" font-size="14.00" fill="#666666">[varchar(255)]</text>
</g>
<!-- payment_method_credit_card&#45;&gt;tenant -->
<g id="edge7" class="edge">
<title>payment_method_credit_card:tenant&#45;&gt;tenant:id</title>
<path fill="none" stroke="#000000" d="M2576.3379,-414.9142C2493.4239,-404.5952 2604.4465,-260.5809 2533.5,-193 2417.7596,-82.7502 1986.3464,-60.5 1826.5,-60.5"/>
<polygon fill="#000000" stroke="#000000" points="2576.5166,-414.9244 2586.241,-419.9925 2581.5083,-415.2122 2586.5,-415.5 2586.5,-415.5 2586.5,-415.5 2581.5083,-415.2122 2586.759,-411.0075 2576.5166,-414.9244 2576.5166,-414.9244"/>
<text text-anchor="start" x="2355.2665" y="-425.5" font-family="Arial" font-size="10.00" fill="#000000">FOREIGN KEY (tenant) REFERENCES tenant (id)</text>
</g>
<!-- payment_method_direct_debit -->
<g id="node9" class="node">
<title>payment_method_direct_debit</title>
<polygon fill="#efefef" stroke="transparent" points="3069.5,-460.5 3069.5,-495.5 3452.5,-495.5 3452.5,-460.5 3069.5,-460.5"/>
<polygon fill="none" stroke="#000000" points="3069.5,-460.5 3069.5,-495.5 3452.5,-495.5 3452.5,-460.5 3069.5,-460.5"/>
<text text-anchor="start" x="3076.1795" y="-473.3" font-family="Arial Bold" font-size="18.00" fill="#000000">payment_method_direct_debit</text>
<text text-anchor="start" x="3318.2525" y="-473.3" font-family="Arial" font-size="14.00" fill="#000000">    </text>
<text text-anchor="start" x="3352.4573" y="-473.3" font-family="Arial" font-size="14.00" fill="#666666">[BASE TABLE]</text>
<polygon fill="none" stroke="#000000" points="3069.5,-430.5 3069.5,-460.5 3452.5,-460.5 3452.5,-430.5 3069.5,-430.5"/>
<text text-anchor="start" x="3076.5" y="-441.9" font-family="Arial" font-size="14.00" fill="#000000">id    </text>
<text text-anchor="start" x="3121.594" y="-441.9" font-family="Arial" font-size="14.00" fill="#666666">[int(11) unsigned]</text>
<polygon fill="none" stroke="#000000" points="3069.5,-400.5 3069.5,-430.5 3452.5,-430.5 3452.5,-400.5 3069.5,-400.5"/>
<text text-anchor="start" x="3076.5" y="-411.9" font-family="Arial" font-size="14.00" fill="#000000">tenant    </text>
<text text-anchor="start" x="3149.6164" y="-411.9" font-family="Arial" font-size="14.00" fill="#666666">[int(11) unsigned]</text>
<polygon fill="none" stroke="#000000" points="3069.5,-370.5 3069.5,-400.5 3452.5,-400.5 3452.5,-370.5 3069.5,-370.5"/>
<text text-anchor="start" x="3076.5" y="-381.9" font-family="Arial" font-size="14.00" fill="#000000">name    </text>
<text text-anchor="start" x="3145.7132" y="-381.9" font-family="Arial" font-size="14.00" fill="#666666">[varchar(255)]</text>
</g>
<!-- payment_method_direct_debit&#45;&gt;tenant -->
<g id="edge8" class="edge">
<title>payment_method_direct_debit:tenant&#45;&gt;tenant:id</title>
<path fill="none" stroke="#000000" d="M3059.3608,-414.904C2976.7526,-404.4075 3090.7012,-257.9839 3017.5,-193 2917.926,-104.6038 1959.6497,-60.5 1826.5,-60.5"/>
<polygon fill="#000000" stroke="#000000" points="3059.5172,-414.9131 3069.2359,-419.9922 3064.5086,-415.2066 3069.5,-415.5 3069.5,-415.5 3069.5,-415.5 3064.5086,-415.2066 3069.7641,-411.0078 3059.5172,-414.9131 3059.5172,-414.9131"/>
<text text-anchor="start" x="2838.2665" y="-425.5" font-family="Arial" font-size="10.00" fill="#000000">FOREIGN KEY (tenant) REFERENCES tenant (id)</text>
</g>
<!-- user -->
<g id="node10" class="node">
<title>user</title>
<polygon fill="#efefef" stroke="transparent" points="3556.5,-460.5 3556.5,-495.5 3751.5,-495.5 3751.5,-460.5 3556.5,-460.5"/>
<polygon fill="none" stroke="#000000" points="3556.5,-460.5 3556.5,-495.5 3751.5,-495.5 3751.5,-460.5 3556.5,-460.5"/>
<text text-anchor="start" x="3572.7137" y="-473.3" font-family="Arial Bold" font-size="18.00" fill="#000000">user</text>
<text text-anchor="start" x="3607.7183" y="-473.3" font-family="Arial" font-size="14.00" fill="#000000">    </text>
<text text-anchor="start" x="3641.9231" y="-473.3" font-family="Arial" font-size="14.00" fill="#666666">[BASE TABLE]</text>
<polygon fill="none" stroke="#000000" points="3556.5,-430.5 3556.5,-460.5 3751.5,-460.5 3751.5,-430.5 3556.5,-430.5"/>
<text text-anchor="start" x="3563.5" y="-441.9" font-family="Arial" font-size="14.00" fill="#000000">id    </text>
<text text-anchor="start" x="3608.594" y="-441.9" font-family="Arial" font-size="14.00" fill="#666666">[int(11) unsigned]</text>
<polygon fill="none" stroke="#000000" points="3556.5,-400.5 3556.5,-430.5 3751.5,-430.5 3751.5,-400.5 3556.5,-400.5"/>
<text text-anchor="start" x="3563.3717" y="-411.9" font-family="Arial" font-size="14.00" fill="#000000">tenant    </text>
<text text-anchor="start" x="3636.4881" y="-411.9" font-family="Arial" font-size="14.00" fill="#666666">[int(11) unsigned]</text>
<polygon fill="none" stroke="#000000" points="3556.5,-370.5 3556.5,-400.5 3751.5,-400.5 3751.5,-370.5 3556.5,-370.5"/>
<text text-anchor="start" x="3563.5" y="-381.9" font-family="Arial" font-size="14.00" fill="#000000">name    </text>
<text text-anchor="start" x="3632.7132" y="-381.9" font-family="Arial" font-size="14.00" fill="#666666">[varchar(255)]</text>
</g>
<!-- user&#45;&gt;tenant -->
<g id="edge9" class="edge">
<title>user:tenant&#45;&gt;tenant:id</title>
<path fill="none" stroke="#000000" d="M3546.3649,-414.8994C3463.8271,-404.3223 3578.7314,-256.8045 3504.5,-193 3362.6681,-71.0903 2013.5248,-60.5 1826.5,-60.5"/>
<polygon fill="#000000" stroke="#000000" points="3546.5175,-414.9084 3556.2338,-419.9921 3551.5088,-415.2042 3556.5,-415.5 3556.5,-415.5 3556.5,-415.5 3551.5088,-415.2042 3556.7662,-411.0079 3546.5175,-414.9084 3546.5175,-414.9084"/>
<text text-anchor="start" x="3325.2665" y="-425.5" font-family="Arial" font-size="10.00" fill="#000000">FOREIGN KEY (tenant) REFERENCES tenant (id)</text>
</g>
</g>
</svg>
