<?xml version="1.0" encoding="UTF-8" standalone="no"?>
<!DOCTYPE svg PUBLIC "-//W3C//DTD SVG 1.1//EN"
 "http://www.w3.org/Graphics/SVG/1.1/DTD/svg11.dtd">
<!-- Generated by graphviz version 2.40.1 (20161225.0304)
 -->
<!-- Title: user Pages: 1 -->
<svg width="693pt" height="899pt"
 viewBox="0.00 0.00 693.00 899.00" xmlns="http://www.w3.org/2000/svg" xmlns:xlink="http://www.w3.org/1999/xlink">
<g id="graph0" class="graph" transform="scale(1 1) rotate(0) translate(4 895)">
<title>user</title>
<polygon fill="#ffffff" stroke="transparent" points="-4,4 -4,-895 689,-895 689,4 -4,4"/>
<!-- user -->
<g id="node1" class="node">
<title>user</title>
<polygon fill="#efefef" stroke="transparent" points="238,-322.5 238,-357.5 414,-357.5 414,-322.5 238,-322.5"/>
<polygon fill="none" stroke="#000000" points="238,-322.5 238,-357.5 414,-357.5 414,-322.5 238,-322.5"/>
<text text-anchor="start" x="244.7137" y="-335.3" font-family="Arial Bold" font-size="18.00" fill="#000000">user</text>
<text text-anchor="start" x="279.7183" y="-335.3" font-family="Arial" font-size="14.00" fill="#000000">    </text>
<text text-anchor="start" x="313.9231" y="-335.3" font-family="Arial" font-size="14.00" fill="#666666">[BASE TABLE]</text>
<polygon fill="none" stroke="#000000" points="238,-292.5 238,-322.5 414,-322.5 414,-292.5 238,-292.5"/>
<text text-anchor="start" x="245" y="-303.9" font-family="Arial" font-size="14.00" fill="#000000">id </text>
<text text-anchor="start" x="259.7798" y="-303.9" font-family="Arial" font-size="14.00" fill="#666666">[int(11) unsigned]</text>
<polygon fill="none" stroke="#000000" points="238,-262.5 238,-292.5 414,-292.5 414,-262.5 238,-262.5"/>
<text text-anchor="start" x="245" y="-273.9" font-family="Arial" font-size="14.00" fill="#000000">tenant </text>
<text text-anchor="start" x="287.8022" y="-273.9" font-family="Arial" font-size="14.00" fill="#666666">[int(11) unsigned]</text>
<polygon fill="none" stroke="#000000" points="238,-232.5 238,-262.5 414,-262.5 414,-232.5 238,-232.5"/>
<text text-anchor="start" x="245" y="-243.9" font-family="Arial" font-size="14.00" fill="#000000">name </text>
<text text-anchor="start" x="283.899" y="-243.9" font-family="Arial" font-size="14.00" fill="#666666">[varchar(255)]</text>
<polygon fill="none" stroke="#000000" stroke-width="3" points="236.5,-231.5 236.5,-359.5 415.5,-359.5 415.5,-231.5 236.5,-231.5"/>
</g>
<!-- tenant -->
<g id="node3" class="node">
<title>tenant</title>
<polygon fill="#efefef" stroke="transparent" points="230,-72.5 230,-107.5 421,-107.5 421,-72.5 230,-72.5"/>
<polygon fill="none" stroke="#000000" points="230,-72.5 230,-107.5 421,-107.5 421,-72.5 230,-72.5"/>
<text text-anchor="start" x="236.7014" y="-85.3" font-family="Arial Bold" font-size="18.00" fill="#000000">tenant</text>
<text text-anchor="start" x="286.7306" y="-85.3" font-family="Arial" font-size="14.00" fill="#000000">    </text>
<text text-anchor="start" x="320.9354" y="-85.3" font-family="Arial" font-size="14.00" fill="#666666">[BASE TABLE]</text>
<polygon fill="none" stroke="#000000" points="230,-42.5 230,-72.5 421,-72.5 421,-42.5 230,-42.5"/>
<text text-anchor="start" x="237" y="-53.9" font-family="Arial" font-size="14.00" fill="#000000">id    </text>
<text text-anchor="start" x="282.094" y="-53.9" font-family="Arial" font-size="14.00" fill="#666666">[int(11) unsigned]</text>
</g>
<!-- user&#45;&gt;tenant -->
<g id="edge2" class="edge">
<title>user:tenant&#45;&gt;tenant:id</title>
<path fill="none" stroke="#000000" d="M228.0854,-275.9941C200.5304,-266.5265 214.3438,-214.7324 238,-187 303.8659,-109.7849 397.6341,-228.2151 463.5,-151 646.2184,63.2023 326,-31.8238 326,-42.5"/>
<polygon fill="#000000" stroke="#000000" points="228.1134,-275.9983 237.3242,-281.949 233.0567,-276.7491 238,-277.5 238,-277.5 238,-277.5 233.0567,-276.7491 238.6758,-273.051 228.1134,-275.9983 228.1134,-275.9983"/>
<text text-anchor="start" x="6.7665" y="-287.5" font-family="Arial" font-size="10.00" fill="#000000">FOREIGN KEY (tenant) REFERENCES tenant (id)</text>
</g>
<!-- invoice_process -->
<g id="node2" class="node">
<title>invoice_process</title>
<polygon fill="#efefef" stroke="transparent" points="181,-812.5 181,-847.5 470,-847.5 470,-812.5 181,-812.5"/>
<polygon fill="none" stroke="#000000" points="181,-812.5 181,-847.5 470,-847.5 470,-812.5 181,-812.5"/>
<text text-anchor="start" x="197.204" y="-825.3" font-family="Arial Bold" font-size="18.00" fill="#000000">invoice_process</text>
<text text-anchor="start" x="326.228" y="-825.3" font-family="Arial" font-size="14.00" fill="#000000">    </text>
<text text-anchor="start" x="360.4328" y="-825.3" font-family="Arial" font-size="14.00" fill="#666666">[BASE TABLE]</text>
<polygon fill="none" stroke="#000000" points="181,-782.5 181,-812.5 470,-812.5 470,-782.5 181,-782.5"/>
<text text-anchor="start" x="188" y="-793.9" font-family="Arial" font-size="14.00" fill="#000000">id    </text>
<text text-anchor="start" x="233.094" y="-793.9" font-family="Arial" font-size="14.00" fill="#666666">[int(11) unsigned]</text>
<polygon fill="none" stroke="#000000" points="181,-752.5 181,-782.5 470,-782.5 470,-752.5 181,-752.5"/>
<text text-anchor="start" x="188" y="-763.9" font-family="Arial" font-size="14.00" fill="#000000">tenant    </text>
<text text-anchor="start" x="261.1164" y="-763.9" font-family="Arial" font-size="14.00" fill="#666666">[int(11) unsigned]</text>
<polygon fill="none" stroke="#000000" points="181,-722.5 181,-752.5 470,-752.5 470,-722.5 181,-722.5"/>
<text text-anchor="start" x="188" y="-733.9" font-family="Arial" font-size="14.00" fill="#000000">process_num    </text>
<text text-anchor="start" x="306.2216" y="-733.9" font-family="Arial" font-size="14.00" fill="#666666">[int(11) unsigned]</text>
<polygon fill="none" stroke="#000000" points="181,-692.5 181,-722.5 470,-722.5 470,-692.5 181,-692.5"/>
<text text-anchor="start" x="188" y="-703.9" font-family="Arial" font-size="14.00" fill="#000000">state    </text>
<text text-anchor="start" x="252.5512" y="-703.9" font-family="Arial" font-size="14.00" fill="#666666">[int(2)]</text>
<polygon fill="none" stroke="#000000" points="181,-662.5 181,-692.5 470,-692.5 470,-662.5 181,-662.5"/>
<text text-anchor="start" x="188" y="-673.9" font-family="Arial" font-size="14.00" fill="#000000">amount    </text>
<text text-anchor="start" x="268.8864" y="-673.9" font-family="Arial" font-size="14.00" fill="#666666">[int(11) unsigned]</text>
<polygon fill="none" stroke="#000000" points="181,-632.5 181,-662.5 470,-662.5 470,-632.5 181,-632.5"/>
<text text-anchor="start" x="188" y="-643.9" font-family="Arial" font-size="14.00" fill="#000000">payee    </text>
<text text-anchor="start" x="260.3352" y="-643.9" font-family="Arial" font-size="14.00" fill="#666666">[int(11) unsigned]</text>
<polygon fill="none" stroke="#000000" points="181,-602.5 181,-632.5 470,-632.5 470,-602.5 181,-602.5"/>
<text text-anchor="start" x="188" y="-613.9" font-family="Arial" font-size="14.00" fill="#000000">payment_method    </text>
<text text-anchor="start" x="330.3506" y="-613.9" font-family="Arial" font-size="14.00" fill="#666666">[int(11) unsigned]</text>
<polygon fill="none" stroke="#000000" points="181,-572.5 181,-602.5 470,-602.5 470,-572.5 181,-572.5"/>
<text text-anchor="start" x="187.7953" y="-583.9" font-family="Arial" font-size="14.00" fill="#000000">payee_bank_account    </text>
<text text-anchor="start" x="355.0645" y="-583.9" font-family="Arial" font-size="14.00" fill="#666666">[int(11) unsigned]</text>
<polygon fill="none" stroke="#000000" points="181,-542.5 181,-572.5 470,-572.5 470,-542.5 181,-542.5"/>
<text text-anchor="start" x="188" y="-553.9" font-family="Arial" font-size="14.00" fill="#000000">due    </text>
<text text-anchor="start" x="245.5526" y="-553.9" font-family="Arial" font-size="14.00" fill="#666666">[date]</text>
<polygon fill="none" stroke="#000000" points="181,-512.5 181,-542.5 470,-542.5 470,-512.5 181,-512.5"/>
<text text-anchor="start" x="188" y="-523.9" font-family="Arial" font-size="14.00" fill="#000000">pic    </text>
<text text-anchor="start" x="240.094" y="-523.9" font-family="Arial" font-size="14.00" fill="#666666">[int(11) unsigned]</text>
<polygon fill="none" stroke="#000000" points="181,-482.5 181,-512.5 470,-512.5 470,-482.5 181,-482.5"/>
<text text-anchor="start" x="188" y="-493.9" font-family="Arial" font-size="14.00" fill="#000000">classification    </text>
<text text-anchor="start" x="301.5428" y="-493.9" font-family="Arial" font-size="14.00" fill="#666666">[int(11) unsigned]</text>
</g>
<!-- invoice_process&#45;&gt;user -->
<g id="edge1" class="edge">
<title>invoice_process:pic&#45;&gt;user:id</title>
<path fill="none" stroke="#000000" d="M479.9299,-525.922C506.1236,-516.4493 492.8317,-466.6478 470,-440 402.109,-360.7617 305.891,-483.2383 238,-404 210.0948,-371.4307 195.1111,-307.5 238,-307.5"/>
<polygon fill="#000000" stroke="#000000" points="479.8761,-525.9304 469.2937,-523.0558 474.938,-526.7152 470,-527.5 470,-527.5 470,-527.5 474.938,-526.7152 470.7063,-531.9442 479.8761,-525.9304 479.8761,-525.9304"/>
<text text-anchor="start" x="477.448" y="-537.5" font-family="Arial" font-size="10.00" fill="#000000">FOREIGN KEY (pic) REFERENCES user (id)</text>
</g>
</g>
</svg>
