<?xml version="1.0" encoding="UTF-8" standalone="no"?>
<!DOCTYPE svg PUBLIC "-//W3C//DTD SVG 1.1//EN"
 "http://www.w3.org/Graphics/SVG/1.1/DTD/svg11.dtd">
<!-- Generated by graphviz version 2.40.1 (20161225.0304)
 -->
<!-- Title: user Pages: 1 -->
<svg width="795pt" height="899pt"
 viewBox="0.00 0.00 795.00 899.00" xmlns="http://www.w3.org/2000/svg" xmlns:xlink="http://www.w3.org/1999/xlink">
<g id="graph0" class="graph" transform="scale(1 1) rotate(0) translate(4 895)">
<title>user</title>
<polygon fill="#ffffff" stroke="transparent" points="-4,4 -4,-895 791,-895 791,4 -4,4"/>
<!-- user -->
<g id="node1" class="node">
<title>user</title>
<polygon fill="#efefef" stroke="transparent" points="238,-322.5 238,-357.5 414,-357.5 414,-322.5 238,-322.5"/>
<polygon fill="none" stroke="#000000" points="238,-322.5 238,-357.5 414,-357.5 414,-322.5 238,-322.5"/>
<text text-anchor="start" x="244.7137" y="-335.3" font-family="Arial Bold" font-size="18.00" fill="#000000">user</text>
<text text-anchor="start" x="279.7183" y="-335.3" font-family="Arial" font-size="14.00" fill="#000000">    </text>
<text text-anchor="start" x="313.9231" y="-335.3" font-family="Arial" font-size="14.00" fill="#666666">[BASE TABLE]</text>
<polygon fill="none" stroke="#000000" points="238,-292.5 238,-322.5 414,-322.5 414,-292.5 238,-292.5"/>
<text text-anchor="start" x="245" y="-303.9" font-family="Arial" font-size="14.00" fill="#000000">id </text>
<text text-anchor="start" x="259.7798" y="-303.9" font-family="Arial" font-size="14.00" fill="#666666">[int(11) unsigned]</text>
<polygon fill="none" stroke="#000000" points="238,-262.5 238,-292.5 414,-292.5 414,-262.5 238,-262.5"/>
<text text-anchor="start" x="245" y="-273.9" font-family="Arial" font-size="14.00" fill="#000000">tenant </text>
<text text-anchor="start" x="287.8022" y="-273.9" font-family="Arial" font-size="14.00" fill="#666666">[int(11) unsigned]</text>
<polygon fill="none" stroke="#000000" points="238,-232.5 238,-262.5 414,-262.5 414,-232.5 238,-232.5"/>
<text text-anchor="start" x="245" y="-243.9" font-family="Arial" font-size="14.00" fill="#000000">name </text>
<text text-anchor="start" x="283.899" y="-243.9" font-family="Arial" font-size="14.00" fill="#666666">[varchar(255)]</text>
<polygon fill="none" stroke="#000000" stroke-width="3" points="236.5,-231.5 236.5,-359.5 415.5,-359.5 415.5,-231.5 236.5,-231.5"/>
</g>
<!-- tenant -->
<g id="node3" class="node">
<title>tenant</title>
<polygon fill="#efefef" stroke="transparent" points="230,-72.5 230,-107.5 421,-107.5 421,-72.5 230,-72.5"/>
<polygon fill="none" stroke="#000000" points="230,-72.5 230,-107.5 421,-107.5 421,-72.5 230,-72.5"/>
<text text-anchor="start" x="236.7014" y="-85.3" font-family="Arial Bold" font-size="18.00" fill="#000000">tenant</text>
<text text-anchor="start" x="286.7306" y="-85.3" font-family="Arial" font-size="14.00" fill="#000000">    </text>
<text text-anchor="start" x="320.9354" y="-85.3" font-family="Arial" font-size="14.00" fill="#666666">[BASE TABLE]</text>
<polygon fill="none" stroke="#000000" points="230,-42.5 230,-72.5 421,-72.5 421,-42.5 230,-42.5"/>
<text text-anchor="start" x="237" y="-53.9" font-family="Arial" font-size="14.00" fill="#000000">id    </text>
<text text-anchor="start" x="282.094" y="-53.9" font-family="Arial" font-size="14.00" fill="#666666">[int(11) unsigned]</text>
</g>
<!-- user&#45;&gt;tenant -->
<g id="edge2" class="edge">
<title>user:tenant&#45;&gt;tenant:id</title>
<path fill="none" stroke="#000000" d="M228.0854,-275.9941C200.5304,-266.5265 214.3438,-214.7324 238,-187 303.8659,-109.7849 397.6341,-228.2151 463.5,-151 646.2184,63.2023 326,-31.8238 326,-42.5"/>
<polygon fill="#000000" stroke="#000000" points="228.1134,-275.9983 237.3242,-281.949 233.0567,-276.7491 238,-277.5 238,-277.5 238,-277.5 233.0567,-276.7491 238.6758,-273.051 228.1134,-275.9983 228.1134,-275.9983"/>
<text text-anchor="start" x="6.7665" y="-287.5" font-family="Arial" font-size="10.00" fill="#000000">FOREIGN KEY (tenant) REFERENCES tenant (id)</text>
</g>
<!-- invoice_process -->
<g id="node2" class="node">
<title>invoice_process</title>
<polygon fill="#efefef" stroke="transparent" points="80,-812.5 80,-847.5 572,-847.5 572,-812.5 80,-812.5"/>
<polygon fill="none" stroke="#000000" points="80,-812.5 80,-847.5 572,-847.5 572,-812.5 80,-812.5"/>
<text text-anchor="start" x="197.704" y="-825.3" font-family="Arial Bold" font-size="18.00" fill="#000000">invoice_process</text>
<text text-anchor="start" x="326.728" y="-825.3" font-family="Arial" font-size="14.00" fill="#000000">    </text>
<text text-anchor="start" x="360.9328" y="-825.3" font-family="Arial" font-size="14.00" fill="#666666">[BASE TABLE]</text>
<polygon fill="none" stroke="#000000" points="80,-782.5 80,-812.5 572,-812.5 572,-782.5 80,-782.5"/>
<text text-anchor="start" x="87" y="-793.9" font-family="Arial" font-size="14.00" fill="#000000">id    </text>
<text text-anchor="start" x="132.094" y="-793.9" font-family="Arial" font-size="14.00" fill="#666666">[int(11) unsigned]</text>
<polygon fill="none" stroke="#000000" points="80,-752.5 80,-782.5 572,-782.5 572,-752.5 80,-752.5"/>
<text text-anchor="start" x="87" y="-763.9" font-family="Arial" font-size="14.00" fill="#000000">tenant    </text>
<text text-anchor="start" x="160.1164" y="-763.9" font-family="Arial" font-size="14.00" fill="#666666">[int(11) unsigned]</text>
<polygon fill="none" stroke="#000000" points="80,-722.5 80,-752.5 572,-752.5 572,-722.5 80,-722.5"/>
<text text-anchor="start" x="87" y="-733.9" font-family="Arial" font-size="14.00" fill="#000000">state    </text>
<text text-anchor="start" x="151.5512" y="-733.9" font-family="Arial" font-size="14.00" fill="#666666">[int(2)]</text>
<polygon fill="none" stroke="#000000" points="80,-692.5 80,-722.5 572,-722.5 572,-692.5 80,-692.5"/>
<text text-anchor="start" x="87" y="-703.9" font-family="Arial" font-size="14.00" fill="#000000">amount    </text>
<text text-anchor="start" x="167.8864" y="-703.9" font-family="Arial" font-size="14.00" fill="#666666">[int(11) unsigned]</text>
<polygon fill="none" stroke="#000000" points="80,-662.5 80,-692.5 572,-692.5 572,-662.5 80,-662.5"/>
<text text-anchor="start" x="87" y="-673.9" font-family="Arial" font-size="14.00" fill="#000000">payee    </text>
<text text-anchor="start" x="159.3352" y="-673.9" font-family="Arial" font-size="14.00" fill="#666666">[int(11) unsigned]</text>
<polygon fill="none" stroke="#000000" points="80,-632.5 80,-662.5 572,-662.5 572,-632.5 80,-632.5"/>
<text text-anchor="start" x="86.8464" y="-643.9" font-family="Arial" font-size="14.00" fill="#000000">payment_method_type    </text>
<text text-anchor="start" x="263.4354" y="-643.9" font-family="Arial" font-size="14.00" fill="#666666">[enum(&#39;bank_transfer&#39;,&#39;direct_debit&#39;,&#39;credit card&#39;)]</text>
<polygon fill="none" stroke="#000000" points="80,-602.5 80,-632.5 572,-632.5 572,-602.5 80,-602.5"/>
<text text-anchor="start" x="87" y="-613.9" font-family="Arial" font-size="14.00" fill="#000000">payment_method_id    </text>
<text text-anchor="start" x="248.0224" y="-613.9" font-family="Arial" font-size="14.00" fill="#666666">[int(11) unsigned]</text>
<polygon fill="none" stroke="#000000" points="80,-572.5 80,-602.5 572,-602.5 572,-572.5 80,-572.5"/>
<text text-anchor="start" x="87" y="-583.9" font-family="Arial" font-size="14.00" fill="#000000">payee_bank_account    </text>
<text text-anchor="start" x="254.2692" y="-583.9" font-family="Arial" font-size="14.00" fill="#666666">[int(11) unsigned]</text>
<polygon fill="none" stroke="#000000" points="80,-542.5 80,-572.5 572,-572.5 572,-542.5 80,-542.5"/>
<text text-anchor="start" x="87" y="-553.9" font-family="Arial" font-size="14.00" fill="#000000">due    </text>
<text text-anchor="start" x="144.5526" y="-553.9" font-family="Arial" font-size="14.00" fill="#666666">[date]</text>
<polygon fill="none" stroke="#000000" points="80,-512.5 80,-542.5 572,-542.5 572,-512.5 80,-512.5"/>
<text text-anchor="start" x="87" y="-523.9" font-family="Arial" font-size="14.00" fill="#000000">pic    </text>
<text text-anchor="start" x="139.094" y="-523.9" font-family="Arial" font-size="14.00" fill="#666666">[int(11) unsigned]</text>
<polygon fill="none" stroke="#000000" points="80,-482.5 80,-512.5 572,-512.5 572,-482.5 80,-482.5"/>
<text text-anchor="start" x="87" y="-493.9" font-family="Arial" font-size="14.00" fill="#000000">classification    </text>
<text text-anchor="start" x="200.5428" y="-493.9" font-family="Arial" font-size="14.00" fill="#666666">[int(11) unsigned]</text>
</g>
<!-- invoice_process&#45;&gt;user -->
<g id="edge1" class="edge">
<title>invoice_process:pic&#45;&gt;user:id</title>
<path fill="none" stroke="#000000" d="M582.1764,-526.9073C682.8494,-514.3813 530.7369,-307.5 414,-307.5"/>
<polygon fill="#000000" stroke="#000000" points="581.9831,-526.9185 571.7383,-523.0076 576.9915,-527.2092 572,-527.5 572,-527.5 572,-527.5 576.9915,-527.2092 572.2617,-531.9924 581.9831,-526.9185 581.9831,-526.9185"/>
<text text-anchor="start" x="579.448" y="-537.5" font-family="Arial" font-size="10.00" fill="#000000">FOREIGN KEY (pic) REFERENCES user (id)</text>
</g>
</g>
</svg>
